<?xml version="1.0" encoding="UTF-8" standalone="no"?>
<mlt LC_NUMERIC="C" version="6.23.0" title="Shotcut version 20.09.13" producer="main_bin">
  <profile description="PAL 4:3 DV or DVD" width="1920" height="1080" progressive="1" sample_aspect_num="1" sample_aspect_den="1" display_aspect_num="16" display_aspect_den="9" frame_rate_num="60" frame_rate_den="1" colorspace="709"/>
  <playlist id="main_bin">
    <property name="xml_retain">1</property>
  </playlist>
  <producer id="black" in="00:00:00.000" out="00:07:44.533">
    <property name="length">00:07:44.550</property>
    <property name="eof">pause</property>
    <property name="resource">0</property>
    <property name="aspect_ratio">1</property>
    <property name="mlt_service">color</property>
    <property name="mlt_image_format">rgb24a</property>
    <property name="set.test_audio">0</property>
  </producer>
  <playlist id="background">
    <entry producer="black" in="00:00:00.000" out="00:07:44.533"/>
  </playlist>
  <producer id="producer0" in="00:00:00.000" out="00:11:23.767">
    <property name="length">00:11:23.783</property>
    <property name="eof">pause</property>
    <property name="resource">d:/360MoveData/Users/Assassin/Desktop/0001 interpretable neural predictions with diffeerentiable binary variables/20200917_220800.m4a</property>
    <property name="audio_index">0</property>
    <property name="video_index">-1</property>
    <property name="mute_on_pause">0</property>
    <property name="mlt_service">avformat-novalidate</property>
    <property name="seekable">1</property>
    <property name="creation_time">2020-09-17T20:19:40</property>
    <property name="shotcut:hash">00006f88540c3313023315fe097f4e68</property>
    <property name="global_feed">1</property>
    <property name="shotcut:caption">20200917_220800.m4a</property>
    <property name="xml">was here</property>
  </producer>
  <producer id="producer1" in="00:00:00.000" out="00:11:23.767">
    <property name="length">00:11:23.783</property>
    <property name="eof">pause</property>
    <property name="resource">d:/360MoveData/Users/Assassin/Desktop/0001 interpretable neural predictions with diffeerentiable binary variables/20200917_220800.m4a</property>
    <property name="audio_index">0</property>
    <property name="video_index">-1</property>
    <property name="mute_on_pause">0</property>
    <property name="mlt_service">avformat-novalidate</property>
    <property name="seekable">1</property>
    <property name="creation_time">2020-09-17T20:19:40</property>
    <property name="shotcut:hash">00006f88540c3313023315fe097f4e68</property>
    <property name="global_feed">1</property>
    <property name="shotcut:caption">20200917_220800.m4a</property>
    <property name="xml">was here</property>
  </producer>
  <producer id="producer2" in="00:00:00.000" out="00:11:23.767">
    <property name="length">00:11:23.783</property>
    <property name="eof">pause</property>
    <property name="resource">d:/360MoveData/Users/Assassin/Desktop/0001 interpretable neural predictions with diffeerentiable binary variables/20200917_220800.m4a</property>
    <property name="audio_index">0</property>
    <property name="video_index">-1</property>
    <property name="mute_on_pause">0</property>
    <property name="mlt_service">avformat-novalidate</property>
    <property name="seekable">1</property>
    <property name="creation_time">2020-09-17T20:19:40</property>
    <property name="shotcut:hash">00006f88540c3313023315fe097f4e68</property>
    <property name="global_feed">1</property>
    <property name="shotcut:caption">20200917_220800.m4a</property>
    <property name="xml">was here</property>
  </producer>
  <tractor id="tractor0" global_feed="1" in="00:00:00.000" out="00:00:00.050">
    <property name="shotcut:transition">lumaMix</property>
    <track producer="producer1" in="00:00:27.967" out="00:00:28.017"/>
    <track producer="producer2" in="00:00:31.850" out="00:00:31.900"/>
    <transition id="transition0" out="00:00:00.050">
      <property name="a_track">0</property>
      <property name="b_track">1</property>
      <property name="factory">loader</property>
      <property name="mlt_service">luma</property>
      <property name="alpha_over">1</property>
    </transition>
    <transition id="transition1" out="00:00:00.050">
      <property name="a_track">0</property>
      <property name="b_track">1</property>
      <property name="start">-1</property>
      <property name="accepts_blanks">1</property>
      <property name="mlt_service">mix</property>
    </transition>
  </tractor>
  <producer id="producer3" in="00:00:00.000" out="00:11:23.767">
    <property name="length">00:11:23.783</property>
    <property name="eof">pause</property>
    <property name="resource">d:/360MoveData/Users/Assassin/Desktop/0001 interpretable neural predictions with diffeerentiable binary variables/20200917_220800.m4a</property>
    <property name="audio_index">0</property>
    <property name="video_index">-1</property>
    <property name="mute_on_pause">0</property>
    <property name="mlt_service">avformat-novalidate</property>
    <property name="seekable">1</property>
    <property name="creation_time">2020-09-17T20:19:40</property>
    <property name="shotcut:hash">00006f88540c3313023315fe097f4e68</property>
    <property name="global_feed">1</property>
    <property name="shotcut:caption">20200917_220800.m4a</property>
    <property name="xml">was here</property>
  </producer>
  <producer id="producer4" in="00:00:00.000" out="00:11:23.767">
    <property name="length">00:11:23.783</property>
    <property name="eof">pause</property>
    <property name="resource">d:/360MoveData/Users/Assassin/Desktop/0001 interpretable neural predictions with diffeerentiable binary variables/20200917_220800.m4a</property>
    <property name="audio_index">0</property>
    <property name="video_index">-1</property>
    <property name="mute_on_pause">0</property>
    <property name="mlt_service">avformat-novalidate</property>
    <property name="seekable">1</property>
    <property name="creation_time">2020-09-17T20:19:40</property>
    <property name="shotcut:hash">00006f88540c3313023315fe097f4e68</property>
    <property name="global_feed">1</property>
    <property name="shotcut:caption">20200917_220800.m4a</property>
    <property name="xml">was here</property>
  </producer>
  <producer id="producer5" in="00:00:00.000" out="00:11:23.767">
    <property name="length">00:11:23.783</property>
    <property name="eof">pause</property>
    <property name="resource">d:/360MoveData/Users/Assassin/Desktop/0001 interpretable neural predictions with diffeerentiable binary variables/20200917_220800.m4a</property>
    <property name="audio_index">0</property>
    <property name="video_index">-1</property>
    <property name="mute_on_pause">0</property>
    <property name="mlt_service">avformat-novalidate</property>
    <property name="seekable">1</property>
    <property name="creation_time">2020-09-17T20:19:40</property>
    <property name="shotcut:hash">00006f88540c3313023315fe097f4e68</property>
    <property name="global_feed">1</property>
    <property name="shotcut:caption">20200917_220800.m4a</property>
    <property name="xml">was here</property>
  </producer>
  <producer id="producer6" in="00:00:00.000" out="00:11:23.767">
    <property name="length">00:11:23.783</property>
    <property name="eof">pause</property>
    <property name="resource">d:/360MoveData/Users/Assassin/Desktop/0001 interpretable neural predictions with diffeerentiable binary variables/20200917_220800.m4a</property>
    <property name="audio_index">0</property>
    <property name="video_index">-1</property>
    <property name="mute_on_pause">0</property>
    <property name="mlt_service">avformat-novalidate</property>
    <property name="seekable">1</property>
    <property name="creation_time">2020-09-17T20:19:40</property>
    <property name="shotcut:hash">00006f88540c3313023315fe097f4e68</property>
    <property name="global_feed">1</property>
    <property name="shotcut:caption">20200917_220800.m4a</property>
    <property name="xml">was here</property>
  </producer>
  <producer id="producer7" in="00:00:00.000" out="00:11:23.767">
    <property name="length">00:11:23.783</property>
    <property name="eof">pause</property>
    <property name="resource">d:/360MoveData/Users/Assassin/Desktop/0001 interpretable neural predictions with diffeerentiable binary variables/20200917_220800.m4a</property>
    <property name="audio_index">0</property>
    <property name="video_index">-1</property>
    <property name="mute_on_pause">0</property>
    <property name="mlt_service">avformat-novalidate</property>
    <property name="seekable">1</property>
    <property name="creation_time">2020-09-17T20:19:40</property>
    <property name="shotcut:hash">00006f88540c3313023315fe097f4e68</property>
    <property name="global_feed">1</property>
    <property name="shotcut:caption">20200917_220800.m4a</property>
    <property name="xml">was here</property>
  </producer>
  <tractor id="tractor1" global_feed="1" in="00:00:00.000" out="00:00:00.000">
    <property name="shotcut:transition">lumaMix</property>
    <track producer="producer6" in="00:02:00.483" out="00:02:00.483"/>
    <track producer="producer7" in="00:02:07.717" out="00:02:07.717"/>
    <transition id="transition2">
      <property name="a_track">0</property>
      <property name="b_track">1</property>
      <property name="factory">loader</property>
      <property name="mlt_service">luma</property>
      <property name="alpha_over">1</property>
    </transition>
    <transition id="transition3">
      <property name="a_track">0</property>
      <property name="b_track">1</property>
      <property name="start">-1</property>
      <property name="accepts_blanks">1</property>
      <property name="mlt_service">mix</property>
    </transition>
  </tractor>
  <producer id="producer8" in="00:00:00.000" out="00:11:23.767">
    <property name="length">00:11:23.783</property>
    <property name="eof">pause</property>
    <property name="resource">d:/360MoveData/Users/Assassin/Desktop/0001 interpretable neural predictions with diffeerentiable binary variables/20200917_220800.m4a</property>
    <property name="audio_index">0</property>
    <property name="video_index">-1</property>
    <property name="mute_on_pause">0</property>
    <property name="mlt_service">avformat-novalidate</property>
    <property name="seekable">1</property>
    <property name="creation_time">2020-09-17T20:19:40</property>
    <property name="shotcut:hash">00006f88540c3313023315fe097f4e68</property>
    <property name="global_feed">1</property>
    <property name="shotcut:caption">20200917_220800.m4a</property>
    <property name="xml">was here</property>
  </producer>
  <tractor id="tractor2" global_feed="1" in="00:00:00.000" out="00:00:00.050">
    <property name="shotcut:transition">lumaMix</property>
    <track producer="producer7" in="00:02:11.300" out="00:02:11.350"/>
    <track producer="producer8" in="00:02:15.900" out="00:02:15.950"/>
    <transition id="transition4" out="00:00:00.050">
      <property name="a_track">0</property>
      <property name="b_track">1</property>
      <property name="factory">loader</property>
      <property name="mlt_service">luma</property>
      <property name="alpha_over">1</property>
    </transition>
    <transition id="transition5" out="00:00:00.050">
      <property name="a_track">0</property>
      <property name="b_track">1</property>
      <property name="start">-1</property>
      <property name="accepts_blanks">1</property>
      <property name="mlt_service">mix</property>
    </transition>
  </tractor>
  <producer id="producer9" in="00:00:00.000" out="00:11:23.767">
    <property name="length">00:11:23.783</property>
    <property name="eof">pause</property>
    <property name="resource">d:/360MoveData/Users/Assassin/Desktop/0001 interpretable neural predictions with diffeerentiable binary variables/20200917_220800.m4a</property>
    <property name="audio_index">0</property>
    <property name="video_index">-1</property>
    <property name="mute_on_pause">0</property>
    <property name="mlt_service">avformat-novalidate</property>
    <property name="seekable">1</property>
    <property name="creation_time">2020-09-17T20:19:40</property>
    <property name="shotcut:hash">00006f88540c3313023315fe097f4e68</property>
    <property name="global_feed">1</property>
    <property name="shotcut:caption">20200917_220800.m4a</property>
    <property name="xml">was here</property>
  </producer>
  <tractor id="tractor3" global_feed="1" in="00:00:00.000" out="00:00:00.067">
    <property name="shotcut:transition">lumaMix</property>
    <track producer="producer8" in="00:02:22.333" out="00:02:22.400"/>
    <track producer="producer9" in="00:02:36.200" out="00:02:36.267"/>
    <transition id="transition6" out="00:00:00.067">
      <property name="a_track">0</property>
      <property name="b_track">1</property>
      <property name="factory">loader</property>
      <property name="mlt_service">luma</property>
      <property name="alpha_over">1</property>
    </transition>
    <transition id="transition7" out="00:00:00.067">
      <property name="a_track">0</property>
      <property name="b_track">1</property>
      <property name="start">-1</property>
      <property name="accepts_blanks">1</property>
      <property name="mlt_service">mix</property>
    </transition>
  </tractor>
  <producer id="producer10" in="00:00:00.000" out="00:11:23.767">
    <property name="length">00:11:23.783</property>
    <property name="eof">pause</property>
    <property name="resource">d:/360MoveData/Users/Assassin/Desktop/0001 interpretable neural predictions with diffeerentiable binary variables/20200917_220800.m4a</property>
    <property name="audio_index">0</property>
    <property name="video_index">-1</property>
    <property name="mute_on_pause">0</property>
    <property name="mlt_service">avformat-novalidate</property>
    <property name="seekable">1</property>
    <property name="creation_time">2020-09-17T20:19:40</property>
    <property name="shotcut:hash">00006f88540c3313023315fe097f4e68</property>
    <property name="global_feed">1</property>
    <property name="shotcut:caption">20200917_220800.m4a</property>
    <property name="xml">was here</property>
  </producer>
  <tractor id="tractor4" global_feed="1" in="00:00:00.000" out="00:00:00.067">
    <property name="shotcut:transition">lumaMix</property>
    <track producer="producer9" in="00:02:50.283" out="00:02:50.350"/>
    <track producer="producer10" in="00:03:25.817" out="00:03:25.883"/>
    <transition id="transition8" out="00:00:00.067">
      <property name="a_track">0</property>
      <property name="b_track">1</property>
      <property name="factory">loader</property>
      <property name="mlt_service">luma</property>
      <property name="alpha_over">1</property>
    </transition>
    <transition id="transition9" out="00:00:00.067">
      <property name="a_track">0</property>
      <property name="b_track">1</property>
      <property name="start">-1</property>
      <property name="accepts_blanks">1</property>
      <property name="mlt_service">mix</property>
    </transition>
  </tractor>
  <producer id="producer11" in="00:00:00.000" out="00:11:23.767">
    <property name="length">00:11:23.783</property>
    <property name="eof">pause</property>
    <property name="resource">d:/360MoveData/Users/Assassin/Desktop/0001 interpretable neural predictions with diffeerentiable binary variables/20200917_220800.m4a</property>
    <property name="audio_index">0</property>
    <property name="video_index">-1</property>
    <property name="mute_on_pause">0</property>
    <property name="mlt_service">avformat-novalidate</property>
    <property name="seekable">1</property>
    <property name="creation_time">2020-09-17T20:19:40</property>
    <property name="shotcut:hash">00006f88540c3313023315fe097f4e68</property>
    <property name="global_feed">1</property>
    <property name="shotcut:caption">20200917_220800.m4a</property>
    <property name="xml">was here</property>
  </producer>
  <tractor id="tractor5" global_feed="1" in="00:00:00.000" out="00:00:00.000">
    <property name="shotcut:transition">lumaMix</property>
    <track producer="producer10" in="00:03:49.117" out="00:03:49.117"/>
    <track producer="producer11" in="00:03:51.117" out="00:03:51.117"/>
    <transition id="transition10">
      <property name="a_track">0</property>
      <property name="b_track">1</property>
      <property name="factory">loader</property>
      <property name="mlt_service">luma</property>
      <property name="alpha_over">1</property>
    </transition>
    <transition id="transition11">
      <property name="a_track">0</property>
      <property name="b_track">1</property>
      <property name="start">-1</property>
      <property name="accepts_blanks">1</property>
      <property name="mlt_service">mix</property>
    </transition>
  </tractor>
  <producer id="producer12" in="00:00:00.000" out="00:11:23.767">
    <property name="length">00:11:23.783</property>
    <property name="eof">pause</property>
    <property name="resource">d:/360MoveData/Users/Assassin/Desktop/0001 interpretable neural predictions with diffeerentiable binary variables/20200917_220800.m4a</property>
    <property name="audio_index">0</property>
    <property name="video_index">-1</property>
    <property name="mute_on_pause">0</property>
    <property name="mlt_service">avformat-novalidate</property>
    <property name="seekable">1</property>
    <property name="creation_time">2020-09-17T20:19:40</property>
    <property name="shotcut:hash">00006f88540c3313023315fe097f4e68</property>
    <property name="global_feed">1</property>
    <property name="shotcut:caption">20200917_220800.m4a</property>
    <property name="xml">was here</property>
  </producer>
  <producer id="producer13" in="00:00:00.000" out="00:11:23.767">
    <property name="length">00:11:23.783</property>
    <property name="eof">pause</property>
    <property name="resource">d:/360MoveData/Users/Assassin/Desktop/0001 interpretable neural predictions with diffeerentiable binary variables/20200917_220800.m4a</property>
    <property name="audio_index">0</property>
    <property name="video_index">-1</property>
    <property name="mute_on_pause">0</property>
    <property name="mlt_service">avformat-novalidate</property>
    <property name="seekable">1</property>
    <property name="creation_time">2020-09-17T20:19:40</property>
    <property name="shotcut:hash">00006f88540c3313023315fe097f4e68</property>
    <property name="global_feed">1</property>
    <property name="shotcut:caption">20200917_220800.m4a</property>
    <property name="xml">was here</property>
  </producer>
  <tractor id="tractor6" global_feed="1" in="00:00:00.000" out="00:00:00.017">
    <property name="shotcut:transition">lumaMix</property>
    <track producer="producer12" in="00:04:12.233" out="00:04:12.250"/>
    <track producer="producer13" in="00:04:12.967" out="00:04:12.983"/>
    <transition id="transition12" out="00:00:00.017">
      <property name="a_track">0</property>
      <property name="b_track">1</property>
      <property name="factory">loader</property>
      <property name="mlt_service">luma</property>
      <property name="alpha_over">1</property>
    </transition>
    <transition id="transition13" out="00:00:00.017">
      <property name="a_track">0</property>
      <property name="b_track">1</property>
      <property name="start">-1</property>
      <property name="accepts_blanks">1</property>
      <property name="mlt_service">mix</property>
    </transition>
  </tractor>
  <producer id="producer14" in="00:00:00.000" out="00:11:23.767">
    <property name="length">00:11:23.783</property>
    <property name="eof">pause</property>
    <property name="resource">d:/360MoveData/Users/Assassin/Desktop/0001 interpretable neural predictions with diffeerentiable binary variables/20200917_220800.m4a</property>
    <property name="audio_index">0</property>
    <property name="video_index">-1</property>
    <property name="mute_on_pause">0</property>
    <property name="mlt_service">avformat-novalidate</property>
    <property name="seekable">1</property>
    <property name="creation_time">2020-09-17T20:19:40</property>
    <property name="shotcut:hash">00006f88540c3313023315fe097f4e68</property>
    <property name="global_feed">1</property>
    <property name="shotcut:caption">20200917_220800.m4a</property>
    <property name="xml">was here</property>
  </producer>
  <tractor id="tractor7" global_feed="1" in="00:00:00.000" out="00:00:00.000">
    <property name="shotcut:transition">lumaMix</property>
    <track producer="producer13" in="00:04:14.017" out="00:04:14.017"/>
    <track producer="producer14" in="00:04:14.867" out="00:04:14.867"/>
    <transition id="transition14">
      <property name="a_track">0</property>
      <property name="b_track">1</property>
      <property name="factory">loader</property>
      <property name="mlt_service">luma</property>
      <property name="alpha_over">1</property>
    </transition>
    <transition id="transition15">
      <property name="a_track">0</property>
      <property name="b_track">1</property>
      <property name="start">-1</property>
      <property name="accepts_blanks">1</property>
      <property name="mlt_service">mix</property>
    </transition>
  </tractor>
  <producer id="producer15" in="00:00:00.000" out="00:11:23.767">
    <property name="length">00:11:23.783</property>
    <property name="eof">pause</property>
    <property name="resource">d:/360MoveData/Users/Assassin/Desktop/0001 interpretable neural predictions with diffeerentiable binary variables/20200917_220800.m4a</property>
    <property name="audio_index">0</property>
    <property name="video_index">-1</property>
    <property name="mute_on_pause">0</property>
    <property name="mlt_service">avformat-novalidate</property>
    <property name="seekable">1</property>
    <property name="creation_time">2020-09-17T20:19:40</property>
    <property name="shotcut:hash">00006f88540c3313023315fe097f4e68</property>
    <property name="global_feed">1</property>
    <property name="shotcut:caption">20200917_220800.m4a</property>
    <property name="xml">was here</property>
  </producer>
  <tractor id="tractor8" global_feed="1" in="00:00:00.000" out="00:00:00.017">
    <property name="shotcut:transition">lumaMix</property>
    <track producer="producer14" in="00:04:21.183" out="00:04:21.200"/>
    <track producer="producer15" in="00:04:21.667" out="00:04:21.683"/>
    <transition id="transition16" out="00:00:00.017">
      <property name="a_track">0</property>
      <property name="b_track">1</property>
      <property name="factory">loader</property>
      <property name="mlt_service">luma</property>
      <property name="alpha_over">1</property>
    </transition>
    <transition id="transition17" out="00:00:00.017">
      <property name="a_track">0</property>
      <property name="b_track">1</property>
      <property name="start">-1</property>
      <property name="accepts_blanks">1</property>
      <property name="mlt_service">mix</property>
    </transition>
  </tractor>
  <producer id="producer16" in="00:00:00.000" out="00:11:23.767">
    <property name="length">00:11:23.783</property>
    <property name="eof">pause</property>
    <property name="resource">d:/360MoveData/Users/Assassin/Desktop/0001 interpretable neural predictions with diffeerentiable binary variables/20200917_220800.m4a</property>
    <property name="audio_index">0</property>
    <property name="video_index">-1</property>
    <property name="mute_on_pause">0</property>
    <property name="mlt_service">avformat-novalidate</property>
    <property name="seekable">1</property>
    <property name="creation_time">2020-09-17T20:19:40</property>
    <property name="shotcut:hash">00006f88540c3313023315fe097f4e68</property>
    <property name="global_feed">1</property>
    <property name="shotcut:caption">20200917_220800.m4a</property>
    <property name="xml">was here</property>
  </producer>
  <tractor id="tractor9" global_feed="1" in="00:00:00.000" out="00:00:00.000">
    <property name="shotcut:transition">lumaMix</property>
    <track producer="producer15" in="00:04:29.283" out="00:04:29.283"/>
    <track producer="producer16" in="00:04:29.900" out="00:04:29.900"/>
    <transition id="transition18">
      <property name="a_track">0</property>
      <property name="b_track">1</property>
      <property name="factory">loader</property>
      <property name="mlt_service">luma</property>
      <property name="alpha_over">1</property>
    </transition>
    <transition id="transition19">
      <property name="a_track">0</property>
      <property name="b_track">1</property>
      <property name="start">-1</property>
      <property name="accepts_blanks">1</property>
      <property name="mlt_service">mix</property>
    </transition>
  </tractor>
  <producer id="producer17" in="00:00:00.000" out="00:11:23.767">
    <property name="length">00:11:23.783</property>
    <property name="eof">pause</property>
    <property name="resource">d:/360MoveData/Users/Assassin/Desktop/0001 interpretable neural predictions with diffeerentiable binary variables/20200917_220800.m4a</property>
    <property name="audio_index">0</property>
    <property name="video_index">-1</property>
    <property name="mute_on_pause">0</property>
    <property name="mlt_service">avformat-novalidate</property>
    <property name="seekable">1</property>
    <property name="creation_time">2020-09-17T20:19:40</property>
    <property name="shotcut:hash">00006f88540c3313023315fe097f4e68</property>
    <property name="global_feed">1</property>
    <property name="shotcut:caption">20200917_220800.m4a</property>
    <property name="xml">was here</property>
  </producer>
  <producer id="producer18" in="00:00:00.000" out="00:11:23.767">
    <property name="length">00:11:23.783</property>
    <property name="eof">pause</property>
    <property name="resource">d:/360MoveData/Users/Assassin/Desktop/0001 interpretable neural predictions with diffeerentiable binary variables/20200917_220800.m4a</property>
    <property name="audio_index">0</property>
    <property name="video_index">-1</property>
    <property name="mute_on_pause">0</property>
    <property name="mlt_service">avformat-novalidate</property>
    <property name="seekable">1</property>
    <property name="creation_time">2020-09-17T20:19:40</property>
    <property name="shotcut:hash">00006f88540c3313023315fe097f4e68</property>
    <property name="global_feed">1</property>
    <property name="shotcut:caption">20200917_220800.m4a</property>
    <property name="xml">was here</property>
  </producer>
  <tractor id="tractor10" global_feed="1" in="00:00:00.000" out="00:00:00.000">
    <property name="shotcut:transition">lumaMix</property>
    <track producer="producer17" in="00:04:39.000" out="00:04:39.000"/>
    <track producer="producer18" in="00:04:47.900" out="00:04:47.900"/>
    <transition id="transition20">
      <property name="a_track">0</property>
      <property name="b_track">1</property>
      <property name="factory">loader</property>
      <property name="mlt_service">luma</property>
      <property name="alpha_over">1</property>
    </transition>
    <transition id="transition21">
      <property name="a_track">0</property>
      <property name="b_track">1</property>
      <property name="start">-1</property>
      <property name="accepts_blanks">1</property>
      <property name="mlt_service">mix</property>
    </transition>
  </tractor>
  <producer id="producer19" in="00:00:00.000" out="00:11:23.767">
    <property name="length">00:11:23.783</property>
    <property name="eof">pause</property>
    <property name="resource">d:/360MoveData/Users/Assassin/Desktop/0001 interpretable neural predictions with diffeerentiable binary variables/20200917_220800.m4a</property>
    <property name="audio_index">0</property>
    <property name="video_index">-1</property>
    <property name="mute_on_pause">0</property>
    <property name="mlt_service">avformat-novalidate</property>
    <property name="seekable">1</property>
    <property name="creation_time">2020-09-17T20:19:40</property>
    <property name="shotcut:hash">00006f88540c3313023315fe097f4e68</property>
    <property name="global_feed">1</property>
    <property name="shotcut:caption">20200917_220800.m4a</property>
    <property name="xml">was here</property>
  </producer>
  <producer id="producer20" in="00:00:00.000" out="00:11:23.767">
    <property name="length">00:11:23.783</property>
    <property name="eof">pause</property>
    <property name="resource">d:/360MoveData/Users/Assassin/Desktop/0001 interpretable neural predictions with diffeerentiable binary variables/20200917_220800.m4a</property>
    <property name="audio_index">0</property>
    <property name="video_index">-1</property>
    <property name="mute_on_pause">0</property>
    <property name="mlt_service">avformat-novalidate</property>
    <property name="seekable">1</property>
    <property name="creation_time">2020-09-17T20:19:40</property>
    <property name="shotcut:hash">00006f88540c3313023315fe097f4e68</property>
    <property name="global_feed">1</property>
    <property name="shotcut:caption">20200917_220800.m4a</property>
    <property name="xml">was here</property>
  </producer>
  <producer id="producer21" in="00:00:00.000" out="00:11:23.767">
    <property name="length">00:11:23.783</property>
    <property name="eof">pause</property>
    <property name="resource">d:/360MoveData/Users/Assassin/Desktop/0001 interpretable neural predictions with diffeerentiable binary variables/20200917_220800.m4a</property>
    <property name="audio_index">0</property>
    <property name="video_index">-1</property>
    <property name="mute_on_pause">0</property>
    <property name="mlt_service">avformat-novalidate</property>
    <property name="seekable">1</property>
    <property name="creation_time">2020-09-17T20:19:40</property>
    <property name="shotcut:hash">00006f88540c3313023315fe097f4e68</property>
    <property name="global_feed">1</property>
    <property name="shotcut:caption">20200917_220800.m4a</property>
    <property name="xml">was here</property>
  </producer>
  <producer id="producer22" in="00:00:00.000" out="00:11:23.767">
    <property name="length">00:11:23.783</property>
    <property name="eof">pause</property>
    <property name="resource">d:/360MoveData/Users/Assassin/Desktop/0001 interpretable neural predictions with diffeerentiable binary variables/20200917_220800.m4a</property>
    <property name="audio_index">0</property>
    <property name="video_index">-1</property>
    <property name="mute_on_pause">0</property>
    <property name="mlt_service">avformat-novalidate</property>
    <property name="seekable">1</property>
    <property name="creation_time">2020-09-17T20:19:40</property>
    <property name="shotcut:hash">00006f88540c3313023315fe097f4e68</property>
    <property name="global_feed">1</property>
    <property name="shotcut:caption">20200917_220800.m4a</property>
    <property name="xml">was here</property>
  </producer>
  <tractor id="tractor11" global_feed="1" in="00:00:00.000" out="00:00:00.033">
    <property name="shotcut:transition">lumaMix</property>
    <track producer="producer21" in="00:05:27.883" out="00:05:27.917"/>
    <track producer="producer22" in="00:05:29.467" out="00:05:29.500"/>
    <transition id="transition22" out="00:00:00.033">
      <property name="a_track">0</property>
      <property name="b_track">1</property>
      <property name="factory">loader</property>
      <property name="mlt_service">luma</property>
      <property name="alpha_over">1</property>
    </transition>
    <transition id="transition23" out="00:00:00.033">
      <property name="a_track">0</property>
      <property name="b_track">1</property>
      <property name="start">-1</property>
      <property name="accepts_blanks">1</property>
      <property name="mlt_service">mix</property>
    </transition>
  </tractor>
  <producer id="producer23" in="00:00:00.000" out="00:11:23.767">
    <property name="length">00:11:23.783</property>
    <property name="eof">pause</property>
    <property name="resource">d:/360MoveData/Users/Assassin/Desktop/0001 interpretable neural predictions with diffeerentiable binary variables/20200917_220800.m4a</property>
    <property name="audio_index">0</property>
    <property name="video_index">-1</property>
    <property name="mute_on_pause">0</property>
    <property name="mlt_service">avformat-novalidate</property>
    <property name="seekable">1</property>
    <property name="creation_time">2020-09-17T20:19:40</property>
    <property name="shotcut:hash">00006f88540c3313023315fe097f4e68</property>
    <property name="global_feed">1</property>
    <property name="shotcut:caption">20200917_220800.m4a</property>
    <property name="xml">was here</property>
  </producer>
  <tractor id="tractor12" global_feed="1" in="00:00:00.000" out="00:00:00.033">
    <property name="shotcut:transition">lumaMix</property>
    <track producer="producer22" in="00:05:45.267" out="00:05:45.300"/>
    <track producer="producer23" in="00:05:45.567" out="00:05:45.600"/>
    <transition id="transition24" out="00:00:00.033">
      <property name="a_track">0</property>
      <property name="b_track">1</property>
      <property name="factory">loader</property>
      <property name="mlt_service">luma</property>
      <property name="alpha_over">1</property>
    </transition>
    <transition id="transition25" out="00:00:00.033">
      <property name="a_track">0</property>
      <property name="b_track">1</property>
      <property name="start">-1</property>
      <property name="accepts_blanks">1</property>
      <property name="mlt_service">mix</property>
    </transition>
  </tractor>
  <producer id="producer24" in="00:00:00.000" out="00:11:23.767">
    <property name="length">00:11:23.783</property>
    <property name="eof">pause</property>
    <property name="resource">d:/360MoveData/Users/Assassin/Desktop/0001 interpretable neural predictions with diffeerentiable binary variables/20200917_220800.m4a</property>
    <property name="audio_index">0</property>
    <property name="video_index">-1</property>
    <property name="mute_on_pause">0</property>
    <property name="mlt_service">avformat-novalidate</property>
    <property name="seekable">1</property>
    <property name="creation_time">2020-09-17T20:19:40</property>
    <property name="shotcut:hash">00006f88540c3313023315fe097f4e68</property>
    <property name="global_feed">1</property>
    <property name="shotcut:caption">20200917_220800.m4a</property>
    <property name="xml">was here</property>
  </producer>
  <tractor id="tractor13" global_feed="1" in="00:00:00.000" out="00:00:00.000">
    <property name="shotcut:transition">lumaMix</property>
    <track producer="producer23" in="00:05:54.583" out="00:05:54.583"/>
    <track producer="producer24" in="00:06:04.733" out="00:06:04.733"/>
    <transition id="transition26">
      <property name="a_track">0</property>
      <property name="b_track">1</property>
      <property name="factory">loader</property>
      <property name="mlt_service">luma</property>
      <property name="alpha_over">1</property>
    </transition>
    <transition id="transition27">
      <property name="a_track">0</property>
      <property name="b_track">1</property>
      <property name="start">-1</property>
      <property name="accepts_blanks">1</property>
      <property name="mlt_service">mix</property>
    </transition>
  </tractor>
  <producer id="producer25" in="00:00:00.000" out="00:11:23.767">
    <property name="length">00:11:23.783</property>
    <property name="eof">pause</property>
    <property name="resource">d:/360MoveData/Users/Assassin/Desktop/0001 interpretable neural predictions with diffeerentiable binary variables/20200917_220800.m4a</property>
    <property name="audio_index">0</property>
    <property name="video_index">-1</property>
    <property name="mute_on_pause">0</property>
    <property name="mlt_service">avformat-novalidate</property>
    <property name="seekable">1</property>
    <property name="creation_time">2020-09-17T20:19:40</property>
    <property name="shotcut:hash">00006f88540c3313023315fe097f4e68</property>
    <property name="global_feed">1</property>
    <property name="shotcut:caption">20200917_220800.m4a</property>
    <property name="xml">was here</property>
  </producer>
  <producer id="producer26" in="00:00:00.000" out="00:11:23.767">
    <property name="length">00:11:23.783</property>
    <property name="eof">pause</property>
    <property name="resource">d:/360MoveData/Users/Assassin/Desktop/0001 interpretable neural predictions with diffeerentiable binary variables/20200917_220800.m4a</property>
    <property name="audio_index">0</property>
    <property name="video_index">-1</property>
    <property name="mute_on_pause">0</property>
    <property name="mlt_service">avformat-novalidate</property>
    <property name="seekable">1</property>
    <property name="creation_time">2020-09-17T20:19:40</property>
    <property name="shotcut:hash">00006f88540c3313023315fe097f4e68</property>
    <property name="global_feed">1</property>
    <property name="shotcut:caption">20200917_220800.m4a</property>
    <property name="xml">was here</property>
  </producer>
  <tractor id="tractor14" global_feed="1" in="00:00:00.000" out="00:00:00.017">
    <property name="shotcut:transition">lumaMix</property>
    <track producer="producer25" in="00:06:18.483" out="00:06:18.500"/>
    <track producer="producer26" in="00:06:19.967" out="00:06:19.983"/>
    <transition id="transition28" out="00:00:00.017">
      <property name="a_track">0</property>
      <property name="b_track">1</property>
      <property name="factory">loader</property>
      <property name="mlt_service">luma</property>
      <property name="alpha_over">1</property>
    </transition>
    <transition id="transition29" out="00:00:00.017">
      <property name="a_track">0</property>
      <property name="b_track">1</property>
      <property name="start">-1</property>
      <property name="accepts_blanks">1</property>
      <property name="mlt_service">mix</property>
    </transition>
  </tractor>
  <producer id="producer27" in="00:00:00.000" out="00:11:23.767">
    <property name="length">00:11:23.783</property>
    <property name="eof">pause</property>
    <property name="resource">d:/360MoveData/Users/Assassin/Desktop/0001 interpretable neural predictions with diffeerentiable binary variables/20200917_220800.m4a</property>
    <property name="audio_index">0</property>
    <property name="video_index">-1</property>
    <property name="mute_on_pause">0</property>
    <property name="mlt_service">avformat-novalidate</property>
    <property name="seekable">1</property>
    <property name="creation_time">2020-09-17T20:19:40</property>
    <property name="shotcut:hash">00006f88540c3313023315fe097f4e68</property>
    <property name="global_feed">1</property>
    <property name="shotcut:caption">20200917_220800.m4a</property>
    <property name="xml">was here</property>
  </producer>
  <producer id="producer28" in="00:00:00.000" out="00:11:23.767">
    <property name="length">00:11:23.783</property>
    <property name="eof">pause</property>
    <property name="resource">d:/360MoveData/Users/Assassin/Desktop/0001 interpretable neural predictions with diffeerentiable binary variables/20200917_220800.m4a</property>
    <property name="audio_index">0</property>
    <property name="video_index">-1</property>
    <property name="mute_on_pause">0</property>
    <property name="mlt_service">avformat-novalidate</property>
    <property name="seekable">1</property>
    <property name="creation_time">2020-09-17T20:19:40</property>
    <property name="shotcut:hash">00006f88540c3313023315fe097f4e68</property>
    <property name="global_feed">1</property>
    <property name="shotcut:caption">20200917_220800.m4a</property>
    <property name="xml">was here</property>
  </producer>
  <tractor id="tractor15" global_feed="1" in="00:00:00.000" out="00:00:00.017">
    <property name="shotcut:transition">lumaMix</property>
    <track producer="producer27" in="00:06:51.200" out="00:06:51.217"/>
    <track producer="producer28" in="00:06:58.383" out="00:06:58.400"/>
    <transition id="transition30" out="00:00:00.017">
      <property name="a_track">0</property>
      <property name="b_track">1</property>
      <property name="factory">loader</property>
      <property name="mlt_service">luma</property>
      <property name="alpha_over">1</property>
    </transition>
    <transition id="transition31" out="00:00:00.017">
      <property name="a_track">0</property>
      <property name="b_track">1</property>
      <property name="start">-1</property>
      <property name="accepts_blanks">1</property>
      <property name="mlt_service">mix</property>
    </transition>
  </tractor>
  <producer id="producer29" in="00:00:00.000" out="00:11:23.767">
    <property name="length">00:11:23.783</property>
    <property name="eof">pause</property>
    <property name="resource">d:/360MoveData/Users/Assassin/Desktop/0001 interpretable neural predictions with diffeerentiable binary variables/20200917_220800.m4a</property>
    <property name="audio_index">0</property>
    <property name="video_index">-1</property>
    <property name="mute_on_pause">0</property>
    <property name="mlt_service">avformat-novalidate</property>
    <property name="seekable">1</property>
    <property name="creation_time">2020-09-17T20:19:40</property>
    <property name="shotcut:hash">00006f88540c3313023315fe097f4e68</property>
    <property name="global_feed">1</property>
    <property name="shotcut:caption">20200917_220800.m4a</property>
    <property name="xml">was here</property>
  </producer>
  <tractor id="tractor16" global_feed="1" in="00:00:00.000" out="00:00:00.067">
    <property name="shotcut:transition">lumaMix</property>
    <track producer="producer28" in="00:07:20.433" out="00:07:20.500"/>
    <track producer="producer29" in="00:07:23.667" out="00:07:23.733"/>
    <transition id="transition32" out="00:00:00.067">
      <property name="a_track">0</property>
      <property name="b_track">1</property>
      <property name="factory">loader</property>
      <property name="mlt_service">luma</property>
      <property name="alpha_over">1</property>
    </transition>
    <transition id="transition33" out="00:00:00.067">
      <property name="a_track">0</property>
      <property name="b_track">1</property>
      <property name="start">-1</property>
      <property name="accepts_blanks">1</property>
      <property name="mlt_service">mix</property>
    </transition>
  </tractor>
  <producer id="producer30" in="00:00:00.000" out="00:11:23.767">
    <property name="length">00:11:23.783</property>
    <property name="eof">pause</property>
    <property name="resource">d:/360MoveData/Users/Assassin/Desktop/0001 interpretable neural predictions with diffeerentiable binary variables/20200917_220800.m4a</property>
    <property name="audio_index">0</property>
    <property name="video_index">-1</property>
    <property name="mute_on_pause">0</property>
    <property name="mlt_service">avformat-novalidate</property>
    <property name="seekable">1</property>
    <property name="creation_time">2020-09-17T20:19:40</property>
    <property name="shotcut:hash">00006f88540c3313023315fe097f4e68</property>
    <property name="global_feed">1</property>
    <property name="shotcut:caption">20200917_220800.m4a</property>
    <property name="xml">was here</property>
  </producer>
  <tractor id="tractor17" global_feed="1" in="00:00:00.000" out="00:00:00.000">
    <property name="shotcut:transition">lumaMix</property>
    <track producer="producer29" in="00:07:28.917" out="00:07:28.917"/>
    <track producer="producer30" in="00:07:31.650" out="00:07:31.650"/>
    <transition id="transition34">
      <property name="a_track">0</property>
      <property name="b_track">1</property>
      <property name="factory">loader</property>
      <property name="mlt_service">luma</property>
      <property name="alpha_over">1</property>
    </transition>
    <transition id="transition35">
      <property name="a_track">0</property>
      <property name="b_track">1</property>
      <property name="start">-1</property>
      <property name="accepts_blanks">1</property>
      <property name="mlt_service">mix</property>
    </transition>
  </tractor>
  <producer id="producer31" in="00:00:00.000" out="00:11:23.767">
    <property name="length">00:11:23.783</property>
    <property name="eof">pause</property>
    <property name="resource">d:/360MoveData/Users/Assassin/Desktop/0001 interpretable neural predictions with diffeerentiable binary variables/20200917_220800.m4a</property>
    <property name="audio_index">0</property>
    <property name="video_index">-1</property>
    <property name="mute_on_pause">0</property>
    <property name="mlt_service">avformat-novalidate</property>
    <property name="seekable">1</property>
    <property name="creation_time">2020-09-17T20:19:40</property>
    <property name="shotcut:hash">00006f88540c3313023315fe097f4e68</property>
    <property name="global_feed">1</property>
    <property name="shotcut:caption">20200917_220800.m4a</property>
    <property name="xml">was here</property>
  </producer>
  <tractor id="tractor18" global_feed="1" in="00:00:00.000" out="00:00:00.033">
    <property name="shotcut:transition">lumaMix</property>
    <track producer="producer30" in="00:07:50.117" out="00:07:50.150"/>
    <track producer="producer31" in="00:07:51.400" out="00:07:51.433"/>
    <transition id="transition36" out="00:00:00.033">
      <property name="a_track">0</property>
      <property name="b_track">1</property>
      <property name="factory">loader</property>
      <property name="mlt_service">luma</property>
      <property name="alpha_over">1</property>
    </transition>
    <transition id="transition37" out="00:00:00.033">
      <property name="a_track">0</property>
      <property name="b_track">1</property>
      <property name="start">-1</property>
      <property name="accepts_blanks">1</property>
      <property name="mlt_service">mix</property>
    </transition>
  </tractor>
  <producer id="producer32" in="00:00:00.000" out="00:11:23.767">
    <property name="length">00:11:23.783</property>
    <property name="eof">pause</property>
    <property name="resource">d:/360MoveData/Users/Assassin/Desktop/0001 interpretable neural predictions with diffeerentiable binary variables/20200917_220800.m4a</property>
    <property name="audio_index">0</property>
    <property name="video_index">-1</property>
    <property name="mute_on_pause">0</property>
    <property name="mlt_service">avformat-novalidate</property>
    <property name="seekable">1</property>
    <property name="creation_time">2020-09-17T20:19:40</property>
    <property name="shotcut:hash">00006f88540c3313023315fe097f4e68</property>
    <property name="global_feed">1</property>
    <property name="shotcut:caption">20200917_220800.m4a</property>
    <property name="xml">was here</property>
  </producer>
  <producer id="producer33" in="00:00:00.000" out="00:11:23.767">
    <property name="length">00:11:23.783</property>
    <property name="eof">pause</property>
    <property name="resource">d:/360MoveData/Users/Assassin/Desktop/0001 interpretable neural predictions with diffeerentiable binary variables/20200917_220800.m4a</property>
    <property name="audio_index">0</property>
    <property name="video_index">-1</property>
    <property name="mute_on_pause">0</property>
    <property name="mlt_service">avformat-novalidate</property>
    <property name="seekable">1</property>
    <property name="creation_time">2020-09-17T20:19:40</property>
    <property name="shotcut:hash">00006f88540c3313023315fe097f4e68</property>
    <property name="global_feed">1</property>
    <property name="shotcut:caption">20200917_220800.m4a</property>
    <property name="xml">was here</property>
  </producer>
  <tractor id="tractor19" global_feed="1" in="00:00:00.000" out="00:00:00.000">
    <property name="shotcut:transition">lumaMix</property>
    <track producer="producer32" in="00:08:11.300" out="00:08:11.300"/>
    <track producer="producer33" in="00:08:12.167" out="00:08:12.167"/>
    <transition id="transition38">
      <property name="a_track">0</property>
      <property name="b_track">1</property>
      <property name="factory">loader</property>
      <property name="mlt_service">luma</property>
      <property name="alpha_over">1</property>
    </transition>
    <transition id="transition39">
      <property name="a_track">0</property>
      <property name="b_track">1</property>
      <property name="start">-1</property>
      <property name="accepts_blanks">1</property>
      <property name="mlt_service">mix</property>
    </transition>
  </tractor>
  <producer id="producer34" in="00:00:00.000" out="00:11:23.767">
    <property name="length">00:11:23.783</property>
    <property name="eof">pause</property>
    <property name="resource">d:/360MoveData/Users/Assassin/Desktop/0001 interpretable neural predictions with diffeerentiable binary variables/20200917_220800.m4a</property>
    <property name="audio_index">0</property>
    <property name="video_index">-1</property>
    <property name="mute_on_pause">0</property>
    <property name="mlt_service">avformat-novalidate</property>
    <property name="seekable">1</property>
    <property name="creation_time">2020-09-17T20:19:40</property>
    <property name="shotcut:hash">00006f88540c3313023315fe097f4e68</property>
    <property name="global_feed">1</property>
    <property name="shotcut:caption">20200917_220800.m4a</property>
    <property name="xml">was here</property>
  </producer>
  <tractor id="tractor20" global_feed="1" in="00:00:00.000" out="00:00:00.033">
    <property name="shotcut:transition">lumaMix</property>
    <track producer="producer33" in="00:08:24.367" out="00:08:24.400"/>
    <track producer="producer34" in="00:08:32.167" out="00:08:32.200"/>
    <transition id="transition40" out="00:00:00.033">
      <property name="a_track">0</property>
      <property name="b_track">1</property>
      <property name="factory">loader</property>
      <property name="mlt_service">luma</property>
      <property name="alpha_over">1</property>
    </transition>
    <transition id="transition41" out="00:00:00.033">
      <property name="a_track">0</property>
      <property name="b_track">1</property>
      <property name="start">-1</property>
      <property name="accepts_blanks">1</property>
      <property name="mlt_service">mix</property>
    </transition>
  </tractor>
  <producer id="producer35" in="00:00:00.000" out="00:11:23.767">
    <property name="length">00:11:23.783</property>
    <property name="eof">pause</property>
    <property name="resource">d:/360MoveData/Users/Assassin/Desktop/0001 interpretable neural predictions with diffeerentiable binary variables/20200917_220800.m4a</property>
    <property name="audio_index">0</property>
    <property name="video_index">-1</property>
    <property name="mute_on_pause">0</property>
    <property name="mlt_service">avformat-novalidate</property>
    <property name="seekable">1</property>
    <property name="creation_time">2020-09-17T20:19:40</property>
    <property name="shotcut:hash">00006f88540c3313023315fe097f4e68</property>
    <property name="global_feed">1</property>
    <property name="shotcut:caption">20200917_220800.m4a</property>
    <property name="xml">was here</property>
  </producer>
  <producer id="producer36" in="00:00:00.000" out="00:11:23.767">
    <property name="length">00:11:23.783</property>
    <property name="eof">pause</property>
    <property name="resource">d:/360MoveData/Users/Assassin/Desktop/0001 interpretable neural predictions with diffeerentiable binary variables/20200917_220800.m4a</property>
    <property name="audio_index">0</property>
    <property name="video_index">-1</property>
    <property name="mute_on_pause">0</property>
    <property name="mlt_service">avformat-novalidate</property>
    <property name="seekable">1</property>
    <property name="creation_time">2020-09-17T20:19:40</property>
    <property name="shotcut:hash">00006f88540c3313023315fe097f4e68</property>
    <property name="global_feed">1</property>
    <property name="shotcut:caption">20200917_220800.m4a</property>
    <property name="xml">was here</property>
  </producer>
  <tractor id="tractor21" global_feed="1" in="00:00:00.000" out="00:00:00.000">
    <property name="shotcut:transition">lumaMix</property>
    <track producer="producer35" in="00:09:22.067" out="00:09:22.067"/>
    <track producer="producer36" in="00:09:27.017" out="00:09:27.017"/>
    <transition id="transition42">
      <property name="a_track">0</property>
      <property name="b_track">1</property>
      <property name="factory">loader</property>
      <property name="mlt_service">luma</property>
      <property name="alpha_over">1</property>
    </transition>
    <transition id="transition43">
      <property name="a_track">0</property>
      <property name="b_track">1</property>
      <property name="start">-1</property>
      <property name="accepts_blanks">1</property>
      <property name="mlt_service">mix</property>
    </transition>
  </tractor>
  <producer id="producer37" in="00:00:00.000" out="00:11:23.767">
    <property name="length">00:11:23.783</property>
    <property name="eof">pause</property>
    <property name="resource">d:/360MoveData/Users/Assassin/Desktop/0001 interpretable neural predictions with diffeerentiable binary variables/20200917_220800.m4a</property>
    <property name="audio_index">0</property>
    <property name="video_index">-1</property>
    <property name="mute_on_pause">0</property>
    <property name="mlt_service">avformat-novalidate</property>
    <property name="seekable">1</property>
    <property name="creation_time">2020-09-17T20:19:40</property>
    <property name="shotcut:hash">00006f88540c3313023315fe097f4e68</property>
    <property name="global_feed">1</property>
    <property name="shotcut:caption">20200917_220800.m4a</property>
    <property name="xml">was here</property>
  </producer>
  <tractor id="tractor22" global_feed="1" in="00:00:00.000" out="00:00:00.000">
    <property name="shotcut:transition">lumaMix</property>
    <track producer="producer36" in="00:09:35.400" out="00:09:35.400"/>
    <track producer="producer37" in="00:09:43.467" out="00:09:43.467"/>
    <transition id="transition44">
      <property name="a_track">0</property>
      <property name="b_track">1</property>
      <property name="factory">loader</property>
      <property name="mlt_service">luma</property>
      <property name="alpha_over">1</property>
    </transition>
    <transition id="transition45">
      <property name="a_track">0</property>
      <property name="b_track">1</property>
      <property name="start">-1</property>
      <property name="accepts_blanks">1</property>
      <property name="mlt_service">mix</property>
    </transition>
  </tractor>
  <producer id="producer38" in="00:00:00.000" out="00:11:23.767">
    <property name="length">00:11:23.783</property>
    <property name="eof">pause</property>
    <property name="resource">d:/360MoveData/Users/Assassin/Desktop/0001 interpretable neural predictions with diffeerentiable binary variables/20200917_220800.m4a</property>
    <property name="audio_index">0</property>
    <property name="video_index">-1</property>
    <property name="mute_on_pause">0</property>
    <property name="mlt_service">avformat-novalidate</property>
    <property name="seekable">1</property>
    <property name="creation_time">2020-09-17T20:19:40</property>
    <property name="shotcut:hash">00006f88540c3313023315fe097f4e68</property>
    <property name="global_feed">1</property>
    <property name="shotcut:caption">20200917_220800.m4a</property>
    <property name="xml">was here</property>
  </producer>
  <tractor id="tractor23" global_feed="1" in="00:00:00.000" out="00:00:00.000">
    <property name="shotcut:transition">lumaMix</property>
    <track producer="producer37" in="00:09:50.233" out="00:09:50.233"/>
    <track producer="producer38" in="00:10:05.700" out="00:10:05.700"/>
    <transition id="transition46">
      <property name="a_track">0</property>
      <property name="b_track">1</property>
      <property name="factory">loader</property>
      <property name="mlt_service">luma</property>
      <property name="alpha_over">1</property>
    </transition>
    <transition id="transition47">
      <property name="a_track">0</property>
      <property name="b_track">1</property>
      <property name="start">-1</property>
      <property name="accepts_blanks">1</property>
      <property name="mlt_service">mix</property>
    </transition>
  </tractor>
  <producer id="producer39" in="00:00:00.000" out="00:11:23.767">
    <property name="length">00:11:23.783</property>
    <property name="eof">pause</property>
    <property name="resource">d:/360MoveData/Users/Assassin/Desktop/0001 interpretable neural predictions with diffeerentiable binary variables/20200917_220800.m4a</property>
    <property name="audio_index">0</property>
    <property name="video_index">-1</property>
    <property name="mute_on_pause">0</property>
    <property name="mlt_service">avformat-novalidate</property>
    <property name="seekable">1</property>
    <property name="creation_time">2020-09-17T20:19:40</property>
    <property name="shotcut:hash">00006f88540c3313023315fe097f4e68</property>
    <property name="global_feed">1</property>
    <property name="shotcut:caption">20200917_220800.m4a</property>
    <property name="xml">was here</property>
  </producer>
  <tractor id="tractor24" global_feed="1" in="00:00:00.000" out="00:00:00.000">
    <property name="shotcut:transition">lumaMix</property>
    <track producer="producer38" in="00:10:11.917" out="00:10:11.917"/>
    <track producer="producer39" in="00:10:13.350" out="00:10:13.350"/>
    <transition id="transition48">
      <property name="a_track">0</property>
      <property name="b_track">1</property>
      <property name="factory">loader</property>
      <property name="mlt_service">luma</property>
      <property name="alpha_over">1</property>
    </transition>
    <transition id="transition49">
      <property name="a_track">0</property>
      <property name="b_track">1</property>
      <property name="start">-1</property>
      <property name="accepts_blanks">1</property>
      <property name="mlt_service">mix</property>
    </transition>
  </tractor>
  <producer id="producer40" in="00:00:00.000" out="00:11:23.767">
    <property name="length">00:11:23.783</property>
    <property name="eof">pause</property>
    <property name="resource">d:/360MoveData/Users/Assassin/Desktop/0001 interpretable neural predictions with diffeerentiable binary variables/20200917_220800.m4a</property>
    <property name="audio_index">0</property>
    <property name="video_index">-1</property>
    <property name="mute_on_pause">0</property>
    <property name="mlt_service">avformat-novalidate</property>
    <property name="seekable">1</property>
    <property name="creation_time">2020-09-17T20:19:40</property>
    <property name="shotcut:hash">00006f88540c3313023315fe097f4e68</property>
    <property name="global_feed">1</property>
    <property name="shotcut:caption">20200917_220800.m4a</property>
    <property name="xml">was here</property>
  </producer>
  <producer id="producer41" in="00:00:00.000" out="00:11:23.767">
    <property name="length">00:11:23.783</property>
    <property name="eof">pause</property>
    <property name="resource">d:/360MoveData/Users/Assassin/Desktop/0001 interpretable neural predictions with diffeerentiable binary variables/20200917_220800.m4a</property>
    <property name="audio_index">0</property>
    <property name="video_index">-1</property>
    <property name="mute_on_pause">0</property>
    <property name="mlt_service">avformat-novalidate</property>
    <property name="seekable">1</property>
    <property name="creation_time">2020-09-17T20:19:40</property>
    <property name="shotcut:hash">00006f88540c3313023315fe097f4e68</property>
    <property name="global_feed">1</property>
    <property name="shotcut:caption">20200917_220800.m4a</property>
    <property name="xml">was here</property>
  </producer>
  <producer id="producer42" in="00:00:00.000" out="00:11:23.767">
    <property name="length">00:11:23.783</property>
    <property name="eof">pause</property>
    <property name="resource">d:/360MoveData/Users/Assassin/Desktop/0001 interpretable neural predictions with diffeerentiable binary variables/20200917_220800.m4a</property>
    <property name="audio_index">0</property>
    <property name="video_index">-1</property>
    <property name="mute_on_pause">0</property>
    <property name="mlt_service">avformat-novalidate</property>
    <property name="seekable">1</property>
    <property name="creation_time">2020-09-17T20:19:40</property>
    <property name="shotcut:hash">00006f88540c3313023315fe097f4e68</property>
    <property name="global_feed">1</property>
    <property name="shotcut:caption">20200917_220800.m4a</property>
    <property name="xml">was here</property>
  </producer>
  <playlist id="playlist0">
    <property name="shotcut:video">1</property>
    <property name="shotcut:name">V1</property>
    <entry producer="producer0" in="00:00:00.000" out="00:00:00.017"/>
    <blank length="00:00:14.583"/>
    <entry producer="producer1" in="00:00:16.167" out="00:00:27.950"/>
    <entry producer="tractor0" in="00:00:00.000" out="00:00:00.050"/>
    <blank length="00:00:00.017"/>
    <entry producer="producer3" in="00:00:31.917" out="00:00:36.483"/>
    <entry producer="producer4" in="00:00:40.600" out="00:00:57.217"/>
    <entry producer="producer5" in="00:00:58.567" out="00:01:31.883"/>
    <entry producer="producer6" in="00:01:49.867" out="00:02:00.467"/>
    <entry producer="tractor1" in="00:00:00.000" out="00:00:00.000"/>
    <entry producer="producer7" in="00:02:07.733" out="00:02:11.283"/>
    <entry producer="tractor2" in="00:00:00.000" out="00:00:00.050"/>
    <entry producer="producer8" in="00:02:15.967" out="00:02:22.317"/>
    <entry producer="tractor3" in="00:00:00.000" out="00:00:00.067"/>
    <entry producer="producer9" in="00:02:36.283" out="00:02:50.267"/>
    <entry producer="tractor4" in="00:00:00.000" out="00:00:00.067"/>
    <entry producer="producer10" in="00:03:25.900" out="00:03:49.100"/>
    <entry producer="tractor5" in="00:00:00.000" out="00:00:00.000"/>
    <entry producer="producer11" in="00:03:51.133" out="00:04:09.750"/>
    <entry producer="producer12" in="00:04:10.167" out="00:04:12.217"/>
    <entry producer="tractor6" in="00:00:00.000" out="00:00:00.017"/>
    <entry producer="producer13" in="00:04:13.000" out="00:04:14.000"/>
    <entry producer="tractor7" in="00:00:00.000" out="00:00:00.000"/>
    <entry producer="producer14" in="00:04:14.883" out="00:04:21.167"/>
    <entry producer="tractor8" in="00:00:00.000" out="00:00:00.017"/>
    <entry producer="producer15" in="00:04:21.700" out="00:04:29.267"/>
    <entry producer="tractor9" in="00:00:00.000" out="00:00:00.000"/>
    <entry producer="producer16" in="00:04:29.917" out="00:04:34.350"/>
    <entry producer="producer17" in="00:04:35.533" out="00:04:38.983"/>
    <entry producer="tractor10" in="00:00:00.000" out="00:00:00.000"/>
    <entry producer="producer18" in="00:04:47.917" out="00:04:52.817"/>
    <entry producer="producer19" in="00:04:53.733" out="00:05:04.267"/>
    <entry producer="producer20" in="00:05:04.800" out="00:05:20.017"/>
    <entry producer="producer21" in="00:05:20.383" out="00:05:27.867"/>
    <entry producer="tractor11" in="00:00:00.000" out="00:00:00.033"/>
    <entry producer="producer22" in="00:05:29.517" out="00:05:45.250"/>
    <entry producer="tractor12" in="00:00:00.000" out="00:00:00.033"/>
    <entry producer="producer23" in="00:05:45.617" out="00:05:54.567"/>
    <entry producer="tractor13" in="00:00:00.000" out="00:00:00.000"/>
    <entry producer="producer24" in="00:06:04.750" out="00:06:13.000"/>
    <entry producer="producer25" in="00:06:13.867" out="00:06:18.467"/>
    <entry producer="tractor14" in="00:00:00.000" out="00:00:00.017"/>
    <blank length="00:00:00.200"/>
    <entry producer="producer26" in="00:06:20.000" out="00:06:20.817"/>
    <entry producer="producer27" in="00:06:22.083" out="00:06:51.183"/>
    <entry producer="tractor15" in="00:00:00.000" out="00:00:00.017"/>
    <entry producer="producer28" in="00:06:58.417" out="00:07:20.417"/>
    <entry producer="tractor16" in="00:00:00.000" out="00:00:00.067"/>
    <entry producer="producer29" in="00:07:23.750" out="00:07:28.900"/>
    <entry producer="tractor17" in="00:00:00.000" out="00:00:00.000"/>
    <entry producer="producer30" in="00:07:31.667" out="00:07:50.100"/>
    <entry producer="tractor18" in="00:00:00.000" out="00:00:00.033"/>
    <entry producer="producer31" in="00:07:51.450" out="00:07:59.350"/>
    <entry producer="producer32" in="00:08:04.167" out="00:08:11.283"/>
    <entry producer="tractor19" in="00:00:00.000" out="00:00:00.000"/>
    <entry producer="producer33" in="00:08:12.183" out="00:08:24.350"/>
    <entry producer="tractor20" in="00:00:00.000" out="00:00:00.033"/>
    <entry producer="producer34" in="00:08:32.217" out="00:08:43.367"/>
    <entry producer="producer35" in="00:09:09.800" out="00:09:22.050"/>
    <entry producer="tractor21" in="00:00:00.000" out="00:00:00.000"/>
    <entry producer="producer36" in="00:09:27.033" out="00:09:35.383"/>
    <entry producer="tractor22" in="00:00:00.000" out="00:00:00.000"/>
    <entry producer="producer37" in="00:09:43.483" out="00:09:50.217"/>
    <entry producer="tractor23" in="00:00:00.000" out="00:00:00.000"/>
    <entry producer="producer38" in="00:10:05.717" out="00:10:11.900"/>
    <entry producer="tractor24" in="00:00:00.000" out="00:00:00.000"/>
    <entry producer="producer39" in="00:10:13.367" out="00:10:27.733"/>
    <blank length="00:00:03.150"/>
    <entry producer="producer40" in="00:10:28.517" out="00:10:32.350"/>
    <entry producer="producer41" in="00:10:37.183" out="00:10:40.750"/>
    <blank length="00:00:00.033"/>
    <entry producer="producer42" in="00:10:46.217" out="00:11:12.817"/>
    <blank length="00:00:00.033"/>
    <entry producer="producer2" in="00:11:17.633" out="00:11:23.767"/>
  </playlist>
  <producer id="producer43" in="00:00:00.000" out="03:59:59.983">
    <property name="length">04:00:00.000</property>
    <property name="eof">pause</property>
    <property name="resource">d:/360MoveData/Users/Assassin/Desktop/0001 interpretable neural predictions with diffeerentiable binary variables/001.png</property>
    <property name="ttl">1</property>
    <property name="aspect_ratio">1</property>
    <property name="progressive">1</property>
    <property name="seekable">1</property>
    <property name="mlt_service">qimage</property>
    <property name="creation_time">2020-09-17T20:31:40</property>
    <property name="shotcut:hash">e1f7d1b1641d458bf276b7c7e11a44d2</property>
    <property name="global_feed">1</property>
    <property name="shotcut:caption">001.png</property>
  </producer>
  <producer id="producer44" in="00:00:00.000" out="03:59:59.983">
    <property name="length">04:00:00.000</property>
    <property name="eof">pause</property>
    <property name="resource">d:/360MoveData/Users/Assassin/Desktop/0001 interpretable neural predictions with diffeerentiable binary variables/blackbox.jpg</property>
    <property name="ttl">1</property>
    <property name="aspect_ratio">1</property>
    <property name="progressive">1</property>
    <property name="seekable">1</property>
    <property name="mlt_service">qimage</property>
    <property name="creation_time">2020-09-17T20:35:09</property>
    <property name="shotcut:hash">dcf82a7b1510a630c0ff648bda7cb175</property>
    <property name="global_feed">1</property>
    <property name="shotcut:caption">blackbox.jpg</property>
  </producer>
  <tractor id="tractor25" global_feed="1" in="00:00:00.000" out="00:00:00.000">
    <property name="shotcut:transition">lumaMix</property>
    <track producer="producer43" in="00:00:14.633" out="00:00:14.633"/>
    <track producer="producer44" in="00:00:00.000" out="00:00:00.000"/>
    <transition id="transition50">
      <property name="a_track">0</property>
      <property name="b_track">1</property>
      <property name="factory">loader</property>
      <property name="mlt_service">luma</property>
      <property name="alpha_over">1</property>
    </transition>
    <transition id="transition51">
      <property name="a_track">0</property>
      <property name="b_track">1</property>
      <property name="start">-1</property>
      <property name="accepts_blanks">1</property>
      <property name="mlt_service">mix</property>
    </transition>
  </tractor>
  <producer id="producer45" in="00:00:00.000" out="03:59:59.983">
    <property name="length">04:00:00.000</property>
    <property name="eof">pause</property>
    <property name="resource">d:/360MoveData/Users/Assassin/Desktop/0001 interpretable neural predictions with diffeerentiable binary variables/002.png</property>
    <property name="ttl">1</property>
    <property name="aspect_ratio">1</property>
    <property name="progressive">1</property>
    <property name="seekable">1</property>
    <property name="mlt_service">qimage</property>
    <property name="creation_time">2020-09-17T20:38:55</property>
    <property name="shotcut:hash">b12f144105da67ffd48b4f8872a0d13f</property>
    <property name="global_feed">1</property>
    <property name="shotcut:caption">002.png</property>
  </producer>
  <tractor id="tractor26" global_feed="1" in="00:00:00.000" out="00:00:00.000">
    <property name="shotcut:transition">lumaMix</property>
    <track producer="producer44" in="00:00:16.450" out="00:00:16.450"/>
    <track producer="producer45" in="00:00:00.000" out="00:00:00.000"/>
    <transition id="transition52">
      <property name="a_track">0</property>
      <property name="b_track">1</property>
      <property name="factory">loader</property>
      <property name="mlt_service">luma</property>
      <property name="alpha_over">1</property>
    </transition>
    <transition id="transition53">
      <property name="a_track">0</property>
      <property name="b_track">1</property>
      <property name="start">-1</property>
      <property name="accepts_blanks">1</property>
      <property name="mlt_service">mix</property>
    </transition>
  </tractor>
  <producer id="producer46" in="00:00:00.000" out="03:59:59.983">
    <property name="length">04:00:00.000</property>
    <property name="eof">pause</property>
    <property name="resource">d:/360MoveData/Users/Assassin/Desktop/0001 interpretable neural predictions with diffeerentiable binary variables/003.png</property>
    <property name="ttl">1</property>
    <property name="aspect_ratio">1</property>
    <property name="progressive">1</property>
    <property name="seekable">1</property>
    <property name="mlt_service">qimage</property>
    <property name="creation_time">2020-09-17T20:41:08</property>
    <property name="shotcut:hash">8281d88321f910299b96d88295b43acc</property>
    <property name="global_feed">1</property>
    <property name="shotcut:caption">003.png</property>
    <property name="xml">was here</property>
  </producer>
  <producer id="producer47" in="00:00:00.000" out="03:59:59.983">
    <property name="length">04:00:00.000</property>
    <property name="eof">pause</property>
    <property name="resource">d:/360MoveData/Users/Assassin/Desktop/0001 interpretable neural predictions with diffeerentiable binary variables/reinforce.png</property>
    <property name="ttl">1</property>
    <property name="aspect_ratio">1</property>
    <property name="progressive">1</property>
    <property name="seekable">1</property>
    <property name="mlt_service">qimage</property>
    <property name="creation_time">2020-09-17T20:46:41</property>
    <property name="shotcut:hash">c208d5edd1855f77742d79e50318a0f8</property>
    <property name="global_feed">1</property>
    <property name="shotcut:caption">reinforce.png</property>
  </producer>
  <producer id="producer48" in="00:00:00.000" out="03:59:59.983">
    <property name="length">04:00:00.000</property>
    <property name="eof">pause</property>
    <property name="resource">d:/360MoveData/Users/Assassin/Desktop/0001 interpretable neural predictions with diffeerentiable binary variables/004.png</property>
    <property name="ttl">1</property>
    <property name="aspect_ratio">1</property>
    <property name="progressive">1</property>
    <property name="seekable">1</property>
    <property name="mlt_service">qimage</property>
    <property name="creation_time">2020-09-17T20:43:06</property>
    <property name="shotcut:hash">4491283d723f9f8d596ebcaa231c3d06</property>
    <property name="global_feed">1</property>
    <property name="shotcut:caption">004.png</property>
  </producer>
  <tractor id="tractor27" global_feed="1" in="00:00:00.000" out="00:00:00.133">
    <property name="shotcut:transition">lumaMix</property>
    <track producer="producer47" in="00:00:03.650" out="00:00:03.783"/>
    <track producer="producer48" in="00:00:02.417" out="00:00:02.550"/>
    <transition id="transition54" out="00:00:00.133">
      <property name="a_track">0</property>
      <property name="b_track">1</property>
      <property name="factory">loader</property>
      <property name="mlt_service">luma</property>
      <property name="alpha_over">1</property>
    </transition>
    <transition id="transition55" out="00:00:00.133">
      <property name="a_track">0</property>
      <property name="b_track">1</property>
      <property name="start">-1</property>
      <property name="accepts_blanks">1</property>
      <property name="mlt_service">mix</property>
    </transition>
  </tractor>
  <producer id="producer49" in="00:00:00.000" out="03:59:59.983">
    <property name="length">04:00:00.000</property>
    <property name="eof">pause</property>
    <property name="resource">d:/360MoveData/Users/Assassin/Desktop/0001 interpretable neural predictions with diffeerentiable binary variables/high-variance-reinforce.png</property>
    <property name="ttl">1</property>
    <property name="aspect_ratio">1</property>
    <property name="progressive">1</property>
    <property name="seekable">1</property>
    <property name="mlt_service">qimage</property>
    <property name="creation_time">2020-09-17T20:49:20</property>
    <property name="shotcut:hash">09c67e0312c0a0619c9e55e68b4b9fa3</property>
    <property name="global_feed">1</property>
    <property name="shotcut:caption">high-variance-reinforce.png</property>
  </producer>
  <tractor id="tractor28" global_feed="1" in="00:00:00.000" out="00:00:00.017">
    <property name="shotcut:transition">lumaMix</property>
    <track producer="producer48" in="00:00:06.117" out="00:00:06.133"/>
    <track producer="producer49" in="00:00:00.000" out="00:00:00.017"/>
    <transition id="transition56" out="00:00:00.017">
      <property name="a_track">0</property>
      <property name="b_track">1</property>
      <property name="factory">loader</property>
      <property name="mlt_service">luma</property>
      <property name="alpha_over">1</property>
    </transition>
    <transition id="transition57" out="00:00:00.017">
      <property name="a_track">0</property>
      <property name="b_track">1</property>
      <property name="start">-1</property>
      <property name="accepts_blanks">1</property>
      <property name="mlt_service">mix</property>
    </transition>
  </tractor>
  <producer id="producer50" in="00:00:00.000" out="03:59:59.983">
    <property name="length">04:00:00.000</property>
    <property name="eof">pause</property>
    <property name="resource">d:/360MoveData/Users/Assassin/Desktop/0001 interpretable neural predictions with diffeerentiable binary variables/token-distribution.png</property>
    <property name="ttl">1</property>
    <property name="aspect_ratio">1</property>
    <property name="progressive">1</property>
    <property name="seekable">1</property>
    <property name="mlt_service">qimage</property>
    <property name="creation_time">2020-09-17T20:59:27</property>
    <property name="shotcut:hash">81365320714003d9db49a817282f59b7</property>
    <property name="global_feed">1</property>
    <property name="shotcut:caption">token-distribution.png</property>
  </producer>
  <producer id="producer51" in="00:00:00.000" out="03:59:59.983">
    <property name="length">04:00:00.000</property>
    <property name="eof">pause</property>
    <property name="resource">d:/360MoveData/Users/Assassin/Desktop/0001 interpretable neural predictions with diffeerentiable binary variables/token-sample.png</property>
    <property name="ttl">1</property>
    <property name="aspect_ratio">1</property>
    <property name="progressive">1</property>
    <property name="seekable">1</property>
    <property name="mlt_service">qimage</property>
    <property name="creation_time">2020-09-17T21:01:57</property>
    <property name="shotcut:hash">2cd1fb9465c94a777455c07155dcb712</property>
    <property name="global_feed">1</property>
    <property name="shotcut:caption">token-sample.png</property>
  </producer>
  <tractor id="tractor29" global_feed="1" in="00:00:00.000" out="00:00:00.133">
    <property name="shotcut:transition">lumaMix</property>
    <track producer="producer50" in="00:00:06.483" out="00:00:06.617"/>
    <track producer="producer51" in="00:00:00.000" out="00:00:00.133"/>
    <transition id="transition58" out="00:00:00.133">
      <property name="a_track">0</property>
      <property name="b_track">1</property>
      <property name="factory">loader</property>
      <property name="mlt_service">luma</property>
      <property name="alpha_over">1</property>
    </transition>
    <transition id="transition59" out="00:00:00.133">
      <property name="a_track">0</property>
      <property name="b_track">1</property>
      <property name="start">-1</property>
      <property name="accepts_blanks">1</property>
      <property name="mlt_service">mix</property>
    </transition>
  </tractor>
  <producer id="producer52" in="00:00:00.000" out="03:59:59.983">
    <property name="length">04:00:00.000</property>
    <property name="eof">pause</property>
    <property name="resource">d:/360MoveData/Users/Assassin/Desktop/0001 interpretable neural predictions with diffeerentiable binary variables/distribution-properties-00.png</property>
    <property name="ttl">1</property>
    <property name="aspect_ratio">1</property>
    <property name="progressive">1</property>
    <property name="seekable">1</property>
    <property name="mlt_service">qimage</property>
    <property name="creation_time">2020-09-17T21:05:32</property>
    <property name="shotcut:hash">56b14aa1a3958cfd854452ae0ecd444d</property>
    <property name="global_feed">1</property>
    <property name="shotcut:caption">distribution-properties-00.png</property>
  </producer>
  <tractor id="tractor30" global_feed="1" in="00:00:00.000" out="00:00:00.000">
    <property name="shotcut:transition">lumaMix</property>
    <track producer="producer51" in="00:00:04.100" out="00:00:04.100"/>
    <track producer="producer52" in="00:00:00.000" out="00:00:00.000"/>
    <transition id="transition60">
      <property name="a_track">0</property>
      <property name="b_track">1</property>
      <property name="factory">loader</property>
      <property name="mlt_service">luma</property>
      <property name="alpha_over">1</property>
    </transition>
    <transition id="transition61">
      <property name="a_track">0</property>
      <property name="b_track">1</property>
      <property name="start">-1</property>
      <property name="accepts_blanks">1</property>
      <property name="mlt_service">mix</property>
    </transition>
  </tractor>
  <producer id="producer53" in="00:00:00.000" out="03:59:59.983">
    <property name="length">04:00:00.000</property>
    <property name="eof">pause</property>
    <property name="resource">d:/360MoveData/Users/Assassin/Desktop/0001 interpretable neural predictions with diffeerentiable binary variables/distribution-properties-01.png</property>
    <property name="ttl">1</property>
    <property name="aspect_ratio">1</property>
    <property name="progressive">1</property>
    <property name="seekable">1</property>
    <property name="mlt_service">qimage</property>
    <property name="creation_time">2020-09-17T21:10:20</property>
    <property name="shotcut:hash">f6ae92ed5ee2f4dd9e376aac176080f7</property>
    <property name="global_feed">1</property>
    <property name="shotcut:caption">distribution-properties-01.png</property>
  </producer>
  <tractor id="tractor31" global_feed="1" in="00:00:00.000" out="00:00:00.083">
    <property name="shotcut:transition">lumaMix</property>
    <track producer="producer52" in="00:00:09.933" out="00:00:10.017"/>
    <track producer="producer53" in="00:00:00.000" out="00:00:00.083"/>
    <transition id="transition62" out="00:00:00.083">
      <property name="a_track">0</property>
      <property name="b_track">1</property>
      <property name="factory">loader</property>
      <property name="mlt_service">luma</property>
      <property name="alpha_over">1</property>
    </transition>
    <transition id="transition63" out="00:00:00.083">
      <property name="a_track">0</property>
      <property name="b_track">1</property>
      <property name="start">-1</property>
      <property name="accepts_blanks">1</property>
      <property name="mlt_service">mix</property>
    </transition>
  </tractor>
  <producer id="producer54" in="00:00:00.000" out="03:59:59.983">
    <property name="length">04:00:00.000</property>
    <property name="eof">pause</property>
    <property name="resource">d:/360MoveData/Users/Assassin/Desktop/0001 interpretable neural predictions with diffeerentiable binary variables/distribution-properties-02.png</property>
    <property name="ttl">1</property>
    <property name="aspect_ratio">1</property>
    <property name="progressive">1</property>
    <property name="seekable">1</property>
    <property name="mlt_service">qimage</property>
    <property name="creation_time">2020-09-17T21:14:22</property>
    <property name="shotcut:hash">a8114e77e796b902ace8c1970cac80a3</property>
    <property name="global_feed">1</property>
    <property name="shotcut:caption">distribution-properties-02.png</property>
  </producer>
  <producer id="producer55" in="00:00:00.000" out="03:59:59.983">
    <property name="length">04:00:00.000</property>
    <property name="eof">pause</property>
    <property name="resource">d:/360MoveData/Users/Assassin/Desktop/0001 interpretable neural predictions with diffeerentiable binary variables/distribution-properties-03.png</property>
    <property name="ttl">1</property>
    <property name="aspect_ratio">1</property>
    <property name="progressive">1</property>
    <property name="seekable">1</property>
    <property name="mlt_service">qimage</property>
    <property name="creation_time">2020-09-17T21:17:37</property>
    <property name="shotcut:hash">5beb107f8440176db4489ffb4b3c1516</property>
    <property name="global_feed">1</property>
    <property name="shotcut:caption">distribution-properties-03.png</property>
  </producer>
  <tractor id="tractor32" global_feed="1" in="00:00:00.000" out="00:00:00.033">
    <property name="shotcut:transition">lumaMix</property>
    <track producer="producer54" in="00:00:11.200" out="00:00:11.233"/>
    <track producer="producer55" in="00:00:00.000" out="00:00:00.033"/>
    <transition id="transition64" out="00:00:00.033">
      <property name="a_track">0</property>
      <property name="b_track">1</property>
      <property name="factory">loader</property>
      <property name="mlt_service">luma</property>
      <property name="alpha_over">1</property>
    </transition>
    <transition id="transition65" out="00:00:00.033">
      <property name="a_track">0</property>
      <property name="b_track">1</property>
      <property name="start">-1</property>
      <property name="accepts_blanks">1</property>
      <property name="mlt_service">mix</property>
    </transition>
  </tractor>
  <producer id="producer56" in="00:00:00.000" out="03:59:59.983">
    <property name="length">04:00:00.000</property>
    <property name="eof">pause</property>
    <property name="resource">d:/360MoveData/Users/Assassin/Desktop/0001 interpretable neural predictions with diffeerentiable binary variables/Beta_distribution_pdf.png</property>
    <property name="ttl">1</property>
    <property name="aspect_ratio">1</property>
    <property name="progressive">1</property>
    <property name="seekable">1</property>
    <property name="mlt_service">qimage</property>
    <property name="creation_time">2020-09-17T21:20:07</property>
    <property name="shotcut:hash">bd28581e6d3e0764ef56f1a2881c0804</property>
    <property name="global_feed">1</property>
    <property name="shotcut:caption">Beta_distribution_pdf.png</property>
  </producer>
  <tractor id="tractor33" global_feed="1" in="00:00:00.000" out="00:00:00.000">
    <property name="shotcut:transition">lumaMix</property>
    <track producer="producer55" in="00:00:11.917" out="00:00:11.917"/>
    <track producer="producer56" in="00:00:00.000" out="00:00:00.000"/>
    <transition id="transition66">
      <property name="a_track">0</property>
      <property name="b_track">1</property>
      <property name="factory">loader</property>
      <property name="mlt_service">luma</property>
      <property name="alpha_over">1</property>
    </transition>
    <transition id="transition67">
      <property name="a_track">0</property>
      <property name="b_track">1</property>
      <property name="start">-1</property>
      <property name="accepts_blanks">1</property>
      <property name="mlt_service">mix</property>
    </transition>
  </tractor>
  <producer id="producer57" in="00:00:00.000" out="03:59:59.983">
    <property name="length">04:00:00.000</property>
    <property name="eof">pause</property>
    <property name="resource">d:/360MoveData/Users/Assassin/Desktop/0001 interpretable neural predictions with diffeerentiable binary variables/beta_distribution_pdf_formular.png</property>
    <property name="ttl">1</property>
    <property name="aspect_ratio">1</property>
    <property name="progressive">1</property>
    <property name="seekable">1</property>
    <property name="mlt_service">qimage</property>
    <property name="creation_time">2020-09-17T21:21:50</property>
    <property name="shotcut:hash">d312daca3cb33767e62f92d1a4000726</property>
    <property name="global_feed">1</property>
    <property name="shotcut:caption">beta_distribution_pdf_formular.png</property>
  </producer>
  <tractor id="tractor34" global_feed="1" in="00:00:00.000" out="00:00:00.067">
    <property name="shotcut:transition">lumaMix</property>
    <track producer="producer56" in="00:00:11.517" out="00:00:11.583"/>
    <track producer="producer57" in="00:00:00.000" out="00:00:00.067"/>
    <transition id="transition68" out="00:00:00.067">
      <property name="a_track">0</property>
      <property name="b_track">1</property>
      <property name="factory">loader</property>
      <property name="mlt_service">luma</property>
      <property name="alpha_over">1</property>
    </transition>
    <transition id="transition69" out="00:00:00.067">
      <property name="a_track">0</property>
      <property name="b_track">1</property>
      <property name="start">-1</property>
      <property name="accepts_blanks">1</property>
      <property name="mlt_service">mix</property>
    </transition>
  </tractor>
  <producer id="producer58" in="00:00:00.000" out="03:59:59.983">
    <property name="length">04:00:00.000</property>
    <property name="eof">pause</property>
    <property name="resource">d:/360MoveData/Users/Assassin/Desktop/0001 interpretable neural predictions with diffeerentiable binary variables/kuma_pdf_and_fomular.png</property>
    <property name="ttl">1</property>
    <property name="aspect_ratio">1</property>
    <property name="progressive">1</property>
    <property name="seekable">1</property>
    <property name="mlt_service">qimage</property>
    <property name="creation_time">2020-09-17T21:28:54</property>
    <property name="shotcut:hash">c205c2c78db946d3147f53af261b4ccb</property>
    <property name="global_feed">1</property>
    <property name="shotcut:caption">kuma_pdf_and_fomular.png</property>
  </producer>
  <producer id="producer59" in="00:00:00.000" out="03:59:59.983">
    <property name="length">04:00:00.000</property>
    <property name="eof">pause</property>
    <property name="resource">d:/360MoveData/Users/Assassin/Desktop/0001 interpretable neural predictions with diffeerentiable binary variables/problem_kuma.png</property>
    <property name="ttl">1</property>
    <property name="aspect_ratio">1</property>
    <property name="progressive">1</property>
    <property name="seekable">1</property>
    <property name="mlt_service">qimage</property>
    <property name="creation_time">2020-09-17T21:32:57</property>
    <property name="shotcut:hash">5aac0c03c4870777184336c1dc07bb20</property>
    <property name="global_feed">1</property>
    <property name="shotcut:caption">problem_kuma.png</property>
  </producer>
  <tractor id="tractor35" global_feed="1" in="00:00:00.000" out="00:00:00.017">
    <property name="shotcut:transition">lumaMix</property>
    <track producer="producer58" in="00:00:27.767" out="00:00:27.783"/>
    <track producer="producer59" in="00:00:00.000" out="00:00:00.017"/>
    <transition id="transition70" out="00:00:00.017">
      <property name="a_track">0</property>
      <property name="b_track">1</property>
      <property name="factory">loader</property>
      <property name="mlt_service">luma</property>
      <property name="alpha_over">1</property>
    </transition>
    <transition id="transition71" out="00:00:00.017">
      <property name="a_track">0</property>
      <property name="b_track">1</property>
      <property name="start">-1</property>
      <property name="accepts_blanks">1</property>
      <property name="mlt_service">mix</property>
    </transition>
  </tractor>
  <producer id="producer60" in="00:00:00.000" out="03:59:59.983">
    <property name="length">04:00:00.000</property>
    <property name="eof">pause</property>
    <property name="resource">d:/360MoveData/Users/Assassin/Desktop/0001 interpretable neural predictions with diffeerentiable binary variables/005.png</property>
    <property name="ttl">1</property>
    <property name="aspect_ratio">1</property>
    <property name="progressive">1</property>
    <property name="seekable">1</property>
    <property name="mlt_service">qimage</property>
    <property name="creation_time">2020-09-17T21:34:51</property>
    <property name="shotcut:hash">3789562a30da9ab675d6751c7a9d7c1c</property>
    <property name="global_feed">1</property>
    <property name="shotcut:caption">005.png</property>
  </producer>
  <tractor id="tractor36" global_feed="1" in="00:00:00.000" out="00:00:00.050">
    <property name="shotcut:transition">lumaMix</property>
    <track producer="producer59" in="00:00:14.633" out="00:00:14.683"/>
    <track producer="producer60" in="00:00:00.000" out="00:00:00.050"/>
    <transition id="transition72" out="00:00:00.050">
      <property name="a_track">0</property>
      <property name="b_track">1</property>
      <property name="factory">loader</property>
      <property name="mlt_service">luma</property>
      <property name="alpha_over">1</property>
    </transition>
    <transition id="transition73" out="00:00:00.050">
      <property name="a_track">0</property>
      <property name="b_track">1</property>
      <property name="start">-1</property>
      <property name="accepts_blanks">1</property>
      <property name="mlt_service">mix</property>
    </transition>
  </tractor>
  <producer id="producer61" in="00:00:00.000" out="03:59:59.983">
    <property name="length">04:00:00.000</property>
    <property name="eof">pause</property>
    <property name="resource">d:/360MoveData/Users/Assassin/Desktop/0001 interpretable neural predictions with diffeerentiable binary variables/006.png</property>
    <property name="ttl">1</property>
    <property name="aspect_ratio">1</property>
    <property name="progressive">1</property>
    <property name="seekable">1</property>
    <property name="mlt_service">qimage</property>
    <property name="creation_time">2020-09-17T21:39:19</property>
    <property name="shotcut:hash">ecbda9ebd34ba7eab88d972151e87576</property>
    <property name="global_feed">1</property>
    <property name="shotcut:caption">006.png</property>
    <property name="xml">was here</property>
  </producer>
  <tractor id="tractor37" global_feed="1" in="00:00:00.000" out="00:00:00.050">
    <property name="shotcut:transition">lumaMix</property>
    <track producer="producer60" in="00:00:43.467" out="00:00:43.517"/>
    <track producer="producer61" in="00:00:00.000" out="00:00:00.050"/>
    <transition id="transition74" out="00:00:00.050">
      <property name="a_track">0</property>
      <property name="b_track">1</property>
      <property name="factory">loader</property>
      <property name="mlt_service">luma</property>
      <property name="alpha_over">1</property>
    </transition>
    <transition id="transition75" out="00:00:00.050">
      <property name="a_track">0</property>
      <property name="b_track">1</property>
      <property name="start">-1</property>
      <property name="accepts_blanks">1</property>
      <property name="mlt_service">mix</property>
    </transition>
  </tractor>
  <producer id="producer62" in="00:00:00.000" out="03:59:59.983">
    <property name="length">04:00:00.000</property>
    <property name="eof">pause</property>
    <property name="resource">d:/360MoveData/Users/Assassin/Desktop/0001 interpretable neural predictions with diffeerentiable binary variables/net_struct.png</property>
    <property name="ttl">1</property>
    <property name="aspect_ratio">1</property>
    <property name="progressive">1</property>
    <property name="seekable">1</property>
    <property name="mlt_service">qimage</property>
    <property name="creation_time">2020-09-17T22:05:51</property>
    <property name="global_feed">1</property>
    <property name="shotcut:hash">287a3e5f56843175bba1671b5c88fce5</property>
    <property name="shotcut:caption">net_struct.png</property>
  </producer>
  <producer id="producer63" in="00:00:00.000" out="03:59:59.983">
    <property name="length">04:00:00.000</property>
    <property name="eof">pause</property>
    <property name="resource">d:/360MoveData/Users/Assassin/Desktop/0001 interpretable neural predictions with diffeerentiable binary variables/beer.png</property>
    <property name="ttl">1</property>
    <property name="aspect_ratio">1</property>
    <property name="progressive">1</property>
    <property name="seekable">1</property>
    <property name="mlt_service">qimage</property>
    <property name="creation_time">2020-09-17T22:07:56</property>
    <property name="shotcut:hash">5e35455e3d7bc784696fe9ee5265a7b6</property>
    <property name="global_feed">1</property>
    <property name="shotcut:caption">beer.png</property>
  </producer>
  <tractor id="tractor38" global_feed="1" in="00:00:00.000" out="00:00:00.017">
    <property name="shotcut:transition">lumaMix</property>
    <track producer="producer62" in="00:00:52.050" out="00:00:52.067"/>
    <track producer="producer63" in="00:00:00.000" out="00:00:00.017"/>
    <transition id="transition76" out="00:00:00.017">
      <property name="a_track">0</property>
      <property name="b_track">1</property>
      <property name="factory">loader</property>
      <property name="mlt_service">luma</property>
      <property name="alpha_over">1</property>
    </transition>
    <transition id="transition77" out="00:00:00.017">
      <property name="a_track">0</property>
      <property name="b_track">1</property>
      <property name="start">-1</property>
      <property name="accepts_blanks">1</property>
      <property name="mlt_service">mix</property>
    </transition>
  </tractor>
  <producer id="producer64" in="00:00:00.000" out="03:59:59.983">
    <property name="length">04:00:00.000</property>
    <property name="eof">pause</property>
    <property name="resource">d:/360MoveData/Users/Assassin/Desktop/0001 interpretable neural predictions with diffeerentiable binary variables/002.png</property>
    <property name="ttl">1</property>
    <property name="aspect_ratio">1</property>
    <property name="progressive">1</property>
    <property name="seekable">1</property>
    <property name="mlt_service">qimage</property>
    <property name="creation_time">2020-09-17T20:38:55</property>
    <property name="shotcut:hash">b12f144105da67ffd48b4f8872a0d13f</property>
    <property name="global_feed">1</property>
    <property name="shotcut:caption">002.png</property>
  </producer>
  <producer id="producer65" in="00:00:00.000" out="03:59:59.983">
    <property name="length">04:00:00.000</property>
    <property name="eof">pause</property>
    <property name="resource">d:/360MoveData/Users/Assassin/Desktop/0001 interpretable neural predictions with diffeerentiable binary variables/007.png</property>
    <property name="ttl">1</property>
    <property name="aspect_ratio">1</property>
    <property name="progressive">1</property>
    <property name="seekable">1</property>
    <property name="mlt_service">qimage</property>
    <property name="creation_time">2020-09-17T22:09:45</property>
    <property name="shotcut:hash">fe9364827fada6e09d32519e4afa6531</property>
    <property name="global_feed">1</property>
    <property name="shotcut:caption">007.png</property>
  </producer>
  <tractor id="tractor39" global_feed="1" in="00:00:00.000" out="00:00:00.067">
    <property name="shotcut:transition">lumaMix</property>
    <track producer="producer64" in="00:00:22.033" out="00:00:22.100"/>
    <track producer="producer65" in="00:00:00.000" out="00:00:00.067"/>
    <transition id="transition78" out="00:00:00.067">
      <property name="a_track">0</property>
      <property name="b_track">1</property>
      <property name="factory">loader</property>
      <property name="mlt_service">luma</property>
      <property name="alpha_over">1</property>
    </transition>
    <transition id="transition79" out="00:00:00.067">
      <property name="a_track">0</property>
      <property name="b_track">1</property>
      <property name="start">-1</property>
      <property name="accepts_blanks">1</property>
      <property name="mlt_service">mix</property>
    </transition>
  </tractor>
  <producer id="producer66" in="00:00:00.000" out="03:59:59.983">
    <property name="length">04:00:00.000</property>
    <property name="eof">pause</property>
    <property name="resource">d:/360MoveData/Users/Assassin/Desktop/0001 interpretable neural predictions with diffeerentiable binary variables/008.png</property>
    <property name="ttl">1</property>
    <property name="aspect_ratio">1</property>
    <property name="progressive">1</property>
    <property name="seekable">1</property>
    <property name="mlt_service">qimage</property>
    <property name="creation_time">2020-09-17T22:10:53</property>
    <property name="shotcut:hash">e939a21c66bf29ab4b2df207790f2c65</property>
    <property name="global_feed">1</property>
    <property name="shotcut:caption">008.png</property>
  </producer>
  <tractor id="tractor40" global_feed="1" in="00:00:00.000" out="00:00:00.067">
    <property name="shotcut:transition">lumaMix</property>
    <track producer="producer65" in="00:00:23.367" out="00:00:23.433"/>
    <track producer="producer66" in="00:00:00.000" out="00:00:00.067"/>
    <transition id="transition80" out="00:00:00.067">
      <property name="a_track">0</property>
      <property name="b_track">1</property>
      <property name="factory">loader</property>
      <property name="mlt_service">luma</property>
      <property name="alpha_over">1</property>
    </transition>
    <transition id="transition81" out="00:00:00.067">
      <property name="a_track">0</property>
      <property name="b_track">1</property>
      <property name="start">-1</property>
      <property name="accepts_blanks">1</property>
      <property name="mlt_service">mix</property>
    </transition>
  </tractor>
  <producer id="producer67" in="00:00:00.000" out="03:59:59.983">
    <property name="length">04:00:00.000</property>
    <property name="eof">pause</property>
    <property name="resource">d:/360MoveData/Users/Assassin/Desktop/0001 interpretable neural predictions with diffeerentiable binary variables/009.png</property>
    <property name="ttl">1</property>
    <property name="aspect_ratio">1</property>
    <property name="progressive">1</property>
    <property name="seekable">1</property>
    <property name="mlt_service">qimage</property>
    <property name="creation_time">2020-09-17T22:11:40</property>
    <property name="shotcut:hash">58e25ca04d78850d593b7e3c568ad0de</property>
    <property name="global_feed">1</property>
    <property name="shotcut:caption">009.png</property>
  </producer>
  <tractor id="tractor41" global_feed="1" in="00:00:00.000" out="00:00:00.000">
    <property name="shotcut:transition">lumaMix</property>
    <track producer="producer66" in="00:00:12.383" out="00:00:12.383"/>
    <track producer="producer67" in="00:00:00.000" out="00:00:00.000"/>
    <transition id="transition82">
      <property name="a_track">0</property>
      <property name="b_track">1</property>
      <property name="factory">loader</property>
      <property name="mlt_service">luma</property>
      <property name="alpha_over">1</property>
    </transition>
    <transition id="transition83">
      <property name="a_track">0</property>
      <property name="b_track">1</property>
      <property name="start">-1</property>
      <property name="accepts_blanks">1</property>
      <property name="mlt_service">mix</property>
    </transition>
  </tractor>
  <producer id="producer68" in="00:00:00.000" out="03:59:59.983">
    <property name="length">04:00:00.000</property>
    <property name="eof">pause</property>
    <property name="resource">d:/360MoveData/Users/Assassin/Desktop/0001 interpretable neural predictions with diffeerentiable binary variables/kuma_pdf_and_fomular.png</property>
    <property name="ttl">1</property>
    <property name="aspect_ratio">1</property>
    <property name="progressive">1</property>
    <property name="seekable">1</property>
    <property name="mlt_service">qimage</property>
    <property name="creation_time">2020-09-17T21:28:54</property>
    <property name="shotcut:hash">c205c2c78db946d3147f53af261b4ccb</property>
    <property name="global_feed">1</property>
    <property name="shotcut:caption">kuma_pdf_and_fomular.png</property>
  </producer>
  <tractor id="tractor42" global_feed="1" in="00:00:00.000" out="00:00:00.033">
    <property name="shotcut:transition">lumaMix</property>
    <track producer="producer67" in="00:00:15.117" out="00:00:15.150"/>
    <track producer="producer68" in="00:00:00.000" out="00:00:00.033"/>
    <transition id="transition84" out="00:00:00.033">
      <property name="a_track">0</property>
      <property name="b_track">1</property>
      <property name="factory">loader</property>
      <property name="mlt_service">luma</property>
      <property name="alpha_over">1</property>
    </transition>
    <transition id="transition85" out="00:00:00.033">
      <property name="a_track">0</property>
      <property name="b_track">1</property>
      <property name="start">-1</property>
      <property name="accepts_blanks">1</property>
      <property name="mlt_service">mix</property>
    </transition>
  </tractor>
  <producer id="producer69" in="00:00:00.000" out="03:59:59.983">
    <property name="length">04:00:00.000</property>
    <property name="eof">pause</property>
    <property name="resource">d:/360MoveData/Users/Assassin/Desktop/0001 interpretable neural predictions with diffeerentiable binary variables/010.png</property>
    <property name="ttl">1</property>
    <property name="aspect_ratio">1</property>
    <property name="progressive">1</property>
    <property name="seekable">1</property>
    <property name="mlt_service">qimage</property>
    <property name="creation_time">2020-09-17T22:13:18</property>
    <property name="shotcut:hash">5d19fafcb25c76f415884f75f916ab78</property>
    <property name="global_feed">1</property>
    <property name="shotcut:caption">010.png</property>
  </producer>
  <tractor id="tractor43" global_feed="1" in="00:00:00.000" out="00:00:00.033">
    <property name="shotcut:transition">lumaMix</property>
    <track producer="producer68" in="00:00:09.350" out="00:00:09.383"/>
    <track producer="producer69" in="00:00:00.000" out="00:00:00.033"/>
    <transition id="transition86" out="00:00:00.033">
      <property name="a_track">0</property>
      <property name="b_track">1</property>
      <property name="factory">loader</property>
      <property name="mlt_service">luma</property>
      <property name="alpha_over">1</property>
    </transition>
    <transition id="transition87" out="00:00:00.033">
      <property name="a_track">0</property>
      <property name="b_track">1</property>
      <property name="start">-1</property>
      <property name="accepts_blanks">1</property>
      <property name="mlt_service">mix</property>
    </transition>
  </tractor>
  <producer id="producer70" in="00:00:00.000" out="03:59:59.983">
    <property name="length">04:00:00.000</property>
    <property name="eof">pause</property>
    <property name="resource">d:/360MoveData/Users/Assassin/Desktop/0001 interpretable neural predictions with diffeerentiable binary variables/kuma_bernoulli.png</property>
    <property name="ttl">1</property>
    <property name="aspect_ratio">1</property>
    <property name="progressive">1</property>
    <property name="seekable">1</property>
    <property name="mlt_service">qimage</property>
    <property name="creation_time">2020-09-17T22:17:55</property>
    <property name="shotcut:hash">19f89affcfc2d530fb7ff8aacdc8ed09</property>
    <property name="global_feed">1</property>
    <property name="shotcut:caption">kuma_bernoulli.png</property>
  </producer>
  <producer id="producer71" in="00:00:00.000" out="03:59:59.983">
    <property name="length">04:00:00.000</property>
    <property name="eof">pause</property>
    <property name="resource">d:/360MoveData/Users/Assassin/Desktop/0001 interpretable neural predictions with diffeerentiable binary variables/problem_net.png</property>
    <property name="ttl">1</property>
    <property name="aspect_ratio">1</property>
    <property name="progressive">1</property>
    <property name="seekable">1</property>
    <property name="mlt_service">qimage</property>
    <property name="creation_time">2020-09-17T22:21:21</property>
    <property name="shotcut:hash">e53a97a5cb8e240b3717b70a951a1fb1</property>
    <property name="global_feed">1</property>
    <property name="shotcut:caption">problem_net.png</property>
  </producer>
  <tractor id="tractor44" global_feed="1" in="00:00:00.000" out="00:00:00.017">
    <property name="shotcut:transition">lumaMix</property>
    <track producer="producer70" in="00:00:05.800" out="00:00:05.817"/>
    <track producer="producer71" in="00:00:00.000" out="00:00:00.017"/>
    <transition id="transition88" out="00:00:00.017">
      <property name="a_track">0</property>
      <property name="b_track">1</property>
      <property name="factory">loader</property>
      <property name="mlt_service">luma</property>
      <property name="alpha_over">1</property>
    </transition>
    <transition id="transition89" out="00:00:00.017">
      <property name="a_track">0</property>
      <property name="b_track">1</property>
      <property name="start">-1</property>
      <property name="accepts_blanks">1</property>
      <property name="mlt_service">mix</property>
    </transition>
  </tractor>
  <playlist id="playlist1">
    <property name="shotcut:video">1</property>
    <property name="shotcut:name">V2</property>
    <entry producer="producer43" in="00:00:00.000" out="00:00:14.617"/>
    <entry producer="tractor25" in="00:00:00.000" out="00:00:00.000"/>
    <entry producer="producer44" in="00:00:00.017" out="00:00:16.433"/>
    <entry producer="tractor26" in="00:00:00.000" out="00:00:00.000"/>
    <entry producer="producer45" in="00:00:00.017" out="00:00:29.817"/>
    <blank length="00:00:00.017"/>
    <entry producer="producer46" in="00:00:00.000" out="00:00:06.400"/>
    <entry producer="producer47" in="00:00:00.000" out="00:00:03.633"/>
    <entry producer="tractor27" in="00:00:00.000" out="00:00:00.133"/>
    <entry producer="producer48" in="00:00:02.567" out="00:00:06.100"/>
    <entry producer="tractor28" in="00:00:00.000" out="00:00:00.017"/>
    <entry producer="producer49" in="00:00:00.033" out="00:00:06.350"/>
    <blank length="00:00:00.017"/>
    <entry producer="producer50" in="00:00:00.000" out="00:00:06.467"/>
    <entry producer="tractor29" in="00:00:00.000" out="00:00:00.133"/>
    <entry producer="producer51" in="00:00:00.150" out="00:00:04.083"/>
    <entry producer="tractor30" in="00:00:00.000" out="00:00:00.000"/>
    <entry producer="producer52" in="00:00:00.017" out="00:00:09.917"/>
    <entry producer="tractor31" in="00:00:00.000" out="00:00:00.083"/>
    <entry producer="producer53" in="00:00:00.100" out="00:00:14.417"/>
    <entry producer="producer54" in="00:00:00.000" out="00:00:11.183"/>
    <entry producer="tractor32" in="00:00:00.000" out="00:00:00.033"/>
    <entry producer="producer55" in="00:00:00.050" out="00:00:11.900"/>
    <entry producer="tractor33" in="00:00:00.000" out="00:00:00.000"/>
    <entry producer="producer56" in="00:00:00.017" out="00:00:11.500"/>
    <entry producer="tractor34" in="00:00:00.000" out="00:00:00.067"/>
    <entry producer="producer57" in="00:00:00.083" out="00:00:09.117"/>
    <entry producer="producer58" in="00:00:00.000" out="00:00:27.750"/>
    <entry producer="tractor35" in="00:00:00.000" out="00:00:00.017"/>
    <entry producer="producer59" in="00:00:00.033" out="00:00:14.617"/>
    <entry producer="tractor36" in="00:00:00.000" out="00:00:00.050"/>
    <entry producer="producer60" in="00:00:00.067" out="00:00:43.450"/>
    <entry producer="tractor37" in="00:00:00.000" out="00:00:00.050"/>
    <entry producer="producer61" in="00:00:00.067" out="00:00:13.100"/>
    <entry producer="producer62" in="00:00:00.000" out="00:00:52.033"/>
    <entry producer="tractor38" in="00:00:00.000" out="00:00:00.017"/>
    <entry producer="producer63" in="00:00:00.033" out="00:00:16.733"/>
    <entry producer="producer64" in="00:00:00.000" out="00:00:22.017"/>
    <entry producer="tractor39" in="00:00:00.000" out="00:00:00.067"/>
    <entry producer="producer65" in="00:00:00.083" out="00:00:23.350"/>
    <entry producer="tractor40" in="00:00:00.000" out="00:00:00.067"/>
    <entry producer="producer66" in="00:00:00.083" out="00:00:12.367"/>
    <entry producer="tractor41" in="00:00:00.000" out="00:00:00.000"/>
    <entry producer="producer67" in="00:00:00.017" out="00:00:15.100"/>
    <entry producer="tractor42" in="00:00:00.000" out="00:00:00.033"/>
    <entry producer="producer68" in="00:00:00.050" out="00:00:09.333"/>
    <entry producer="tractor43" in="00:00:00.000" out="00:00:00.033"/>
    <entry producer="producer69" in="00:00:00.050" out="00:00:08.600"/>
    <entry producer="producer70" in="00:00:00.000" out="00:00:05.783"/>
    <entry producer="tractor44" in="00:00:00.000" out="00:00:00.017"/>
    <entry producer="producer71" in="00:00:00.033" out="00:00:40.283"/>
  </playlist>
  <producer id="producer72" in="00:00:00.000" out="00:00:15.767">
    <property name="length">00:00:15.783</property>
    <property name="eof">pause</property>
    <property name="resource">d:/360MoveData/Users/Assassin/Desktop/0001 interpretable neural predictions with diffeerentiable binary variables/20200917_222637.m4a</property>
    <property name="audio_index">0</property>
    <property name="video_index">-1</property>
    <property name="mute_on_pause">0</property>
    <property name="mlt_service">avformat-novalidate</property>
    <property name="seekable">1</property>
    <property name="creation_time">2020-09-17T20:26:54</property>
    <property name="shotcut:hash">72de972c2240ddab8c5d76cb4efce112</property>
    <property name="global_feed">1</property>
    <property name="shotcut:caption">20200917_222637.m4a</property>
    <property name="xml">was here</property>
  </producer>
  <producer id="producer73" in="00:00:00.000" out="00:00:15.767">
    <property name="length">00:00:15.783</property>
    <property name="eof">pause</property>
    <property name="resource">d:/360MoveData/Users/Assassin/Desktop/0001 interpretable neural predictions with diffeerentiable binary variables/20200917_222637.m4a</property>
    <property name="audio_index">0</property>
    <property name="video_index">-1</property>
    <property name="mute_on_pause">0</property>
    <property name="mlt_service">avformat-novalidate</property>
    <property name="seekable">1</property>
    <property name="creation_time">2020-09-17T20:26:54</property>
    <property name="shotcut:hash">72de972c2240ddab8c5d76cb4efce112</property>
    <property name="global_feed">1</property>
    <property name="shotcut:caption">20200917_222637.m4a</property>
  </producer>
  <playlist id="playlist2">
    <property name="shotcut:audio">1</property>
    <property name="shotcut:name">A1</property>
    <entry producer="producer72" in="00:00:00.000" out="00:00:04.500"/>
    <entry producer="producer73" in="00:00:04.867" out="00:00:15.767"/>
  </playlist>
  <tractor id="tractor45" title="Shotcut version 20.09.13" global_feed="1" in="00:00:00.000" out="00:07:44.533">
    <property name="shotcut">1</property>
    <property name="shotcut:projectAudioChannels">2</property>
    <property name="shotcut:projectFolder">0</property>
    <property name="shotcut:scaleFactor">0.840584</property>
    <track producer="background"/>
    <track producer="playlist0"/>
    <track producer="playlist1"/>
    <track producer="playlist2" hide="video"/>
    <transition id="transition90">
      <property name="a_track">0</property>
      <property name="b_track">1</property>
      <property name="mlt_service">mix</property>
      <property name="always_active">1</property>
      <property name="sum">1</property>
    </transition>
    <transition id="transition91">
      <property name="a_track">0</property>
      <property name="b_track">1</property>
      <property name="version">0.9</property>
      <property name="mlt_service">frei0r.cairoblend</property>
      <property name="disable">1</property>
    </transition>
    <transition id="transition92">
      <property name="a_track">0</property>
      <property name="b_track">2</property>
      <property name="mlt_service">mix</property>
      <property name="always_active">1</property>
      <property name="sum">1</property>
    </transition>
    <transition id="transition93">
      <property name="a_track">1</property>
      <property name="b_track">2</property>
      <property name="version">0.9</property>
      <property name="mlt_service">frei0r.cairoblend</property>
      <property name="disable">0</property>
    </transition>
    <transition id="transition94">
      <property name="a_track">0</property>
      <property name="b_track">3</property>
      <property name="mlt_service">mix</property>
      <property name="always_active">1</property>
      <property name="sum">1</property>
    </transition>
  </tractor>
</mlt>
