<?xml version="1.0" encoding="UTF-8" standalone="no"?>
<mlt LC_NUMERIC="C" version="6.23.0" title="Shotcut version 20.09.13" producer="main_bin">
  <profile description="PAL 4:3 DV or DVD" width="1920" height="1080" progressive="1" sample_aspect_num="1" sample_aspect_den="1" display_aspect_num="16" display_aspect_den="9" frame_rate_num="60" frame_rate_den="1" colorspace="709"/>
  <playlist id="main_bin">
    <property name="xml_retain">1</property>
  </playlist>
  <producer id="black" in="00:00:00.000" out="00:19:01.017">
    <property name="length">00:19:01.033</property>
    <property name="eof">pause</property>
    <property name="resource">0</property>
    <property name="aspect_ratio">1</property>
    <property name="mlt_service">color</property>
    <property name="mlt_image_format">rgb24a</property>
    <property name="set.test_audio">0</property>
  </producer>
  <playlist id="background">
    <entry producer="black" in="00:00:00.000" out="00:19:01.017"/>
  </playlist>
  <producer id="producer0" in="00:00:00.000" out="00:35:16.050">
    <property name="length">00:35:16.067</property>
    <property name="eof">pause</property>
    <property name="resource">d:/360MoveData/Users/Assassin/Desktop/paper_review/0002 reparameteizable subset sampling via continuous relaxations/20200928_214111.m4a</property>
    <property name="audio_index">0</property>
    <property name="video_index">-1</property>
    <property name="mute_on_pause">0</property>
    <property name="mlt_service">avformat-novalidate</property>
    <property name="seekable">1</property>
    <property name="creation_time">2020-09-28T20:26:11</property>
    <property name="shotcut:hash">aa85aa116be06a5d6f338211a6e27b20</property>
    <property name="global_feed">1</property>
    <property name="shotcut:caption">20200928_214111.m4a</property>
    <property name="shotcut:defaultAudioIndex">-1</property>
    <property name="xml">was here</property>
  </producer>
  <producer id="producer1" in="00:00:00.000" out="00:35:16.050">
    <property name="length">00:35:16.067</property>
    <property name="eof">pause</property>
    <property name="resource">d:/360MoveData/Users/Assassin/Desktop/paper_review/0002 reparameteizable subset sampling via continuous relaxations/20200928_214111.m4a</property>
    <property name="audio_index">0</property>
    <property name="video_index">-1</property>
    <property name="mute_on_pause">0</property>
    <property name="mlt_service">avformat-novalidate</property>
    <property name="seekable">1</property>
    <property name="creation_time">2020-09-28T20:26:11</property>
    <property name="shotcut:hash">aa85aa116be06a5d6f338211a6e27b20</property>
    <property name="global_feed">1</property>
    <property name="shotcut:caption">20200928_214111.m4a</property>
    <property name="shotcut:defaultAudioIndex">-1</property>
    <property name="xml">was here</property>
  </producer>
  <tractor id="tractor0" global_feed="1" in="00:00:00.000" out="00:00:00.267">
    <property name="shotcut:transition">lumaMix</property>
    <track producer="producer0" in="00:00:22.450" out="00:00:22.717"/>
    <track producer="producer1" in="00:00:33.933" out="00:00:34.200"/>
    <transition id="transition0" out="00:00:00.267">
      <property name="a_track">0</property>
      <property name="b_track">1</property>
      <property name="factory">loader</property>
      <property name="mlt_service">luma</property>
      <property name="alpha_over">1</property>
    </transition>
    <transition id="transition1" out="00:00:00.267">
      <property name="a_track">0</property>
      <property name="b_track">1</property>
      <property name="mlt_service">mix</property>
      <property name="start">-1</property>
      <property name="accepts_blanks">1</property>
    </transition>
  </tractor>
  <producer id="producer2" in="00:00:00.000" out="00:35:16.050">
    <property name="length">00:35:16.067</property>
    <property name="eof">pause</property>
    <property name="resource">d:/360MoveData/Users/Assassin/Desktop/paper_review/0002 reparameteizable subset sampling via continuous relaxations/20200928_214111.m4a</property>
    <property name="audio_index">0</property>
    <property name="video_index">-1</property>
    <property name="mute_on_pause">0</property>
    <property name="mlt_service">avformat-novalidate</property>
    <property name="seekable">1</property>
    <property name="creation_time">2020-09-28T20:26:11</property>
    <property name="shotcut:hash">aa85aa116be06a5d6f338211a6e27b20</property>
    <property name="global_feed">1</property>
    <property name="shotcut:caption">20200928_214111.m4a</property>
    <property name="shotcut:defaultAudioIndex">-1</property>
    <property name="xml">was here</property>
  </producer>
  <producer id="producer3" in="00:00:00.000" out="00:35:16.050">
    <property name="length">00:35:16.067</property>
    <property name="eof">pause</property>
    <property name="resource">d:/360MoveData/Users/Assassin/Desktop/paper_review/0002 reparameteizable subset sampling via continuous relaxations/20200928_214111.m4a</property>
    <property name="audio_index">0</property>
    <property name="video_index">-1</property>
    <property name="mute_on_pause">0</property>
    <property name="mlt_service">avformat-novalidate</property>
    <property name="seekable">1</property>
    <property name="creation_time">2020-09-28T20:26:11</property>
    <property name="shotcut:hash">aa85aa116be06a5d6f338211a6e27b20</property>
    <property name="global_feed">1</property>
    <property name="shotcut:caption">20200928_214111.m4a</property>
    <property name="shotcut:defaultAudioIndex">-1</property>
    <property name="xml">was here</property>
  </producer>
  <tractor id="tractor1" global_feed="1" in="00:00:00.000" out="00:00:00.000">
    <property name="shotcut:transition">lumaMix</property>
    <track producer="producer2" in="00:01:08.233" out="00:01:08.233"/>
    <track producer="producer3" in="00:01:09.183" out="00:01:09.183"/>
    <transition id="transition2">
      <property name="a_track">0</property>
      <property name="b_track">1</property>
      <property name="factory">loader</property>
      <property name="mlt_service">luma</property>
      <property name="alpha_over">1</property>
    </transition>
    <transition id="transition3">
      <property name="a_track">0</property>
      <property name="b_track">1</property>
      <property name="mlt_service">mix</property>
      <property name="start">-1</property>
      <property name="accepts_blanks">1</property>
    </transition>
  </tractor>
  <producer id="producer4" in="00:00:00.000" out="00:00:11.100">
    <property name="length">00:00:11.117</property>
    <property name="eof">pause</property>
    <property name="resource">d:/360MoveData/Users/Assassin/Desktop/paper_review/0002 reparameteizable subset sampling via continuous relaxations/20201002_025422.m4a</property>
    <property name="audio_index">0</property>
    <property name="video_index">-1</property>
    <property name="mute_on_pause">0</property>
    <property name="mlt_service">avformat-novalidate</property>
    <property name="seekable">1</property>
    <property name="creation_time">2020-10-02T00:54:34</property>
    <property name="shotcut:hash">fec1dbaa4b497a03624ce696b2e76439</property>
    <property name="global_feed">1</property>
    <property name="shotcut:caption">20201002_025422.m4a</property>
    <property name="xml">was here</property>
  </producer>
  <tractor id="tractor2" global_feed="1" in="00:00:00.000" out="00:00:00.233">
    <property name="shotcut:transition">lumaMix</property>
    <track producer="producer3" in="00:01:10.800" out="00:01:11.033"/>
    <track producer="producer4" in="00:00:00.000" out="00:00:00.233"/>
    <transition id="transition4" out="00:00:00.233">
      <property name="a_track">0</property>
      <property name="b_track">1</property>
      <property name="factory">loader</property>
      <property name="mlt_service">luma</property>
      <property name="alpha_over">1</property>
    </transition>
    <transition id="transition5" out="00:00:00.233">
      <property name="a_track">0</property>
      <property name="b_track">1</property>
      <property name="mlt_service">mix</property>
      <property name="start">-1</property>
      <property name="accepts_blanks">1</property>
    </transition>
  </tractor>
  <producer id="producer5" in="00:00:00.000" out="00:00:13.017">
    <property name="length">00:00:13.033</property>
    <property name="eof">pause</property>
    <property name="resource">d:/360MoveData/Users/Assassin/Desktop/paper_review/0002 reparameteizable subset sampling via continuous relaxations/20201002_025811.m4a</property>
    <property name="audio_index">0</property>
    <property name="video_index">-1</property>
    <property name="mute_on_pause">0</property>
    <property name="mlt_service">avformat-novalidate</property>
    <property name="seekable">1</property>
    <property name="creation_time">2020-10-02T00:58:25</property>
    <property name="shotcut:hash">57d66340da0f7d7e4f21b5c3970bf4d3</property>
    <property name="global_feed">1</property>
    <property name="shotcut:caption">20201002_025811.m4a</property>
    <property name="xml">was here</property>
  </producer>
  <tractor id="tractor3" global_feed="1" in="00:00:00.000" out="00:00:00.067">
    <property name="shotcut:transition">lumaMix</property>
    <track producer="producer4" in="00:00:11.033" out="00:00:11.100"/>
    <track producer="producer5" in="00:00:00.000" out="00:00:00.067"/>
    <transition id="transition6" out="00:00:00.067">
      <property name="a_track">0</property>
      <property name="b_track">1</property>
      <property name="factory">loader</property>
      <property name="mlt_service">luma</property>
      <property name="alpha_over">1</property>
    </transition>
    <transition id="transition7" out="00:00:00.067">
      <property name="a_track">0</property>
      <property name="b_track">1</property>
      <property name="mlt_service">mix</property>
      <property name="start">-1</property>
      <property name="accepts_blanks">1</property>
    </transition>
  </tractor>
  <producer id="producer6" in="00:00:00.000" out="00:35:16.050">
    <property name="length">00:35:16.067</property>
    <property name="eof">pause</property>
    <property name="resource">d:/360MoveData/Users/Assassin/Desktop/paper_review/0002 reparameteizable subset sampling via continuous relaxations/20200928_214111.m4a</property>
    <property name="audio_index">0</property>
    <property name="video_index">-1</property>
    <property name="mute_on_pause">0</property>
    <property name="mlt_service">avformat-novalidate</property>
    <property name="seekable">1</property>
    <property name="creation_time">2020-09-28T20:26:11</property>
    <property name="shotcut:hash">aa85aa116be06a5d6f338211a6e27b20</property>
    <property name="global_feed">1</property>
    <property name="shotcut:caption">20200928_214111.m4a</property>
    <property name="shotcut:defaultAudioIndex">-1</property>
    <property name="xml">was here</property>
  </producer>
  <tractor id="tractor4" global_feed="1" in="00:00:00.000" out="00:00:00.117">
    <property name="shotcut:transition">lumaMix</property>
    <track producer="producer5" in="00:00:12.900" out="00:00:13.017"/>
    <track producer="producer6" in="00:02:03.400" out="00:02:03.517"/>
    <transition id="transition8" out="00:00:00.117">
      <property name="a_track">0</property>
      <property name="b_track">1</property>
      <property name="factory">loader</property>
      <property name="mlt_service">luma</property>
      <property name="alpha_over">1</property>
    </transition>
    <transition id="transition9" out="00:00:00.117">
      <property name="a_track">0</property>
      <property name="b_track">1</property>
      <property name="mlt_service">mix</property>
      <property name="start">-1</property>
      <property name="accepts_blanks">1</property>
    </transition>
  </tractor>
  <producer id="producer7" in="00:00:00.000" out="00:35:16.050">
    <property name="length">00:35:16.067</property>
    <property name="eof">pause</property>
    <property name="resource">d:/360MoveData/Users/Assassin/Desktop/paper_review/0002 reparameteizable subset sampling via continuous relaxations/20200928_214111.m4a</property>
    <property name="audio_index">0</property>
    <property name="video_index">-1</property>
    <property name="mute_on_pause">0</property>
    <property name="mlt_service">avformat-novalidate</property>
    <property name="seekable">1</property>
    <property name="creation_time">2020-09-28T20:26:11</property>
    <property name="shotcut:hash">aa85aa116be06a5d6f338211a6e27b20</property>
    <property name="global_feed">1</property>
    <property name="shotcut:caption">20200928_214111.m4a</property>
    <property name="shotcut:defaultAudioIndex">-1</property>
    <property name="xml">was here</property>
  </producer>
  <producer id="producer8" in="00:00:00.000" out="00:35:16.050">
    <property name="length">00:35:16.067</property>
    <property name="eof">pause</property>
    <property name="resource">d:/360MoveData/Users/Assassin/Desktop/paper_review/0002 reparameteizable subset sampling via continuous relaxations/20200928_214111.m4a</property>
    <property name="audio_index">0</property>
    <property name="video_index">-1</property>
    <property name="mute_on_pause">0</property>
    <property name="mlt_service">avformat-novalidate</property>
    <property name="seekable">1</property>
    <property name="creation_time">2020-09-28T20:26:11</property>
    <property name="shotcut:hash">aa85aa116be06a5d6f338211a6e27b20</property>
    <property name="global_feed">1</property>
    <property name="shotcut:caption">20200928_214111.m4a</property>
    <property name="shotcut:defaultAudioIndex">-1</property>
    <property name="xml">was here</property>
  </producer>
  <tractor id="tractor5" global_feed="1" in="00:00:00.000" out="00:00:00.017">
    <property name="shotcut:transition">lumaMix</property>
    <track producer="producer7" in="00:02:37.933" out="00:02:37.950"/>
    <track producer="producer8" in="00:02:46.117" out="00:02:46.133"/>
    <transition id="transition10" out="00:00:00.017">
      <property name="a_track">0</property>
      <property name="b_track">1</property>
      <property name="factory">loader</property>
      <property name="mlt_service">luma</property>
      <property name="alpha_over">1</property>
    </transition>
    <transition id="transition11" out="00:00:00.017">
      <property name="a_track">0</property>
      <property name="b_track">1</property>
      <property name="mlt_service">mix</property>
      <property name="start">-1</property>
      <property name="accepts_blanks">1</property>
    </transition>
  </tractor>
  <producer id="producer9" in="00:00:00.000" out="00:35:16.050">
    <property name="length">00:35:16.067</property>
    <property name="eof">pause</property>
    <property name="resource">d:/360MoveData/Users/Assassin/Desktop/paper_review/0002 reparameteizable subset sampling via continuous relaxations/20200928_214111.m4a</property>
    <property name="audio_index">0</property>
    <property name="video_index">-1</property>
    <property name="mute_on_pause">0</property>
    <property name="mlt_service">avformat-novalidate</property>
    <property name="seekable">1</property>
    <property name="creation_time">2020-09-28T20:26:11</property>
    <property name="shotcut:hash">aa85aa116be06a5d6f338211a6e27b20</property>
    <property name="global_feed">1</property>
    <property name="shotcut:caption">20200928_214111.m4a</property>
    <property name="shotcut:defaultAudioIndex">-1</property>
    <property name="xml">was here</property>
  </producer>
  <producer id="producer10" in="00:00:00.000" out="00:35:16.050">
    <property name="length">00:35:16.067</property>
    <property name="eof">pause</property>
    <property name="resource">d:/360MoveData/Users/Assassin/Desktop/paper_review/0002 reparameteizable subset sampling via continuous relaxations/20200928_214111.m4a</property>
    <property name="audio_index">0</property>
    <property name="video_index">-1</property>
    <property name="mute_on_pause">0</property>
    <property name="mlt_service">avformat-novalidate</property>
    <property name="seekable">1</property>
    <property name="creation_time">2020-09-28T20:26:11</property>
    <property name="shotcut:hash">aa85aa116be06a5d6f338211a6e27b20</property>
    <property name="global_feed">1</property>
    <property name="shotcut:caption">20200928_214111.m4a</property>
    <property name="shotcut:defaultAudioIndex">-1</property>
    <property name="xml">was here</property>
  </producer>
  <tractor id="tractor6" global_feed="1" in="00:00:00.000" out="00:00:00.000">
    <property name="shotcut:transition">lumaMix</property>
    <track producer="producer9" in="00:02:50.217" out="00:02:50.217"/>
    <track producer="producer10" in="00:02:50.750" out="00:02:50.750"/>
    <transition id="transition12">
      <property name="a_track">0</property>
      <property name="b_track">1</property>
      <property name="factory">loader</property>
      <property name="mlt_service">luma</property>
      <property name="alpha_over">1</property>
    </transition>
    <transition id="transition13">
      <property name="a_track">0</property>
      <property name="b_track">1</property>
      <property name="mlt_service">mix</property>
      <property name="start">-1</property>
      <property name="accepts_blanks">1</property>
    </transition>
  </tractor>
  <producer id="producer11" in="00:00:00.000" out="00:35:16.050">
    <property name="length">00:35:16.067</property>
    <property name="eof">pause</property>
    <property name="resource">d:/360MoveData/Users/Assassin/Desktop/paper_review/0002 reparameteizable subset sampling via continuous relaxations/20200928_214111.m4a</property>
    <property name="audio_index">0</property>
    <property name="video_index">-1</property>
    <property name="mute_on_pause">0</property>
    <property name="mlt_service">avformat-novalidate</property>
    <property name="seekable">1</property>
    <property name="creation_time">2020-09-28T20:26:11</property>
    <property name="shotcut:hash">aa85aa116be06a5d6f338211a6e27b20</property>
    <property name="global_feed">1</property>
    <property name="shotcut:caption">20200928_214111.m4a</property>
    <property name="shotcut:defaultAudioIndex">-1</property>
    <property name="xml">was here</property>
  </producer>
  <tractor id="tractor7" global_feed="1" in="00:00:00.000" out="00:00:00.050">
    <property name="shotcut:transition">lumaMix</property>
    <track producer="producer10" in="00:02:52.533" out="00:02:52.583"/>
    <track producer="producer11" in="00:03:08.083" out="00:03:08.133"/>
    <transition id="transition14" out="00:00:00.050">
      <property name="a_track">0</property>
      <property name="b_track">1</property>
      <property name="factory">loader</property>
      <property name="mlt_service">luma</property>
      <property name="alpha_over">1</property>
    </transition>
    <transition id="transition15" out="00:00:00.050">
      <property name="a_track">0</property>
      <property name="b_track">1</property>
      <property name="mlt_service">mix</property>
      <property name="start">-1</property>
      <property name="accepts_blanks">1</property>
    </transition>
  </tractor>
  <producer id="producer12" in="00:00:00.000" out="00:35:16.050">
    <property name="length">00:35:16.067</property>
    <property name="eof">pause</property>
    <property name="resource">d:/360MoveData/Users/Assassin/Desktop/paper_review/0002 reparameteizable subset sampling via continuous relaxations/20200928_214111.m4a</property>
    <property name="audio_index">0</property>
    <property name="video_index">-1</property>
    <property name="mute_on_pause">0</property>
    <property name="mlt_service">avformat-novalidate</property>
    <property name="seekable">1</property>
    <property name="creation_time">2020-09-28T20:26:11</property>
    <property name="shotcut:hash">aa85aa116be06a5d6f338211a6e27b20</property>
    <property name="global_feed">1</property>
    <property name="shotcut:caption">20200928_214111.m4a</property>
    <property name="shotcut:defaultAudioIndex">-1</property>
    <property name="xml">was here</property>
  </producer>
  <tractor id="tractor8" global_feed="1" in="00:00:00.000" out="00:00:00.000">
    <property name="shotcut:transition">lumaMix</property>
    <track producer="producer11" in="00:03:08.767" out="00:03:08.767"/>
    <track producer="producer12" in="00:03:09.117" out="00:03:09.117"/>
    <transition id="transition16">
      <property name="a_track">0</property>
      <property name="b_track">1</property>
      <property name="factory">loader</property>
      <property name="mlt_service">luma</property>
      <property name="alpha_over">1</property>
    </transition>
    <transition id="transition17">
      <property name="a_track">0</property>
      <property name="b_track">1</property>
      <property name="mlt_service">mix</property>
      <property name="start">-1</property>
      <property name="accepts_blanks">1</property>
    </transition>
  </tractor>
  <producer id="producer13" in="00:00:00.000" out="00:35:16.050">
    <property name="length">00:35:16.067</property>
    <property name="eof">pause</property>
    <property name="resource">d:/360MoveData/Users/Assassin/Desktop/paper_review/0002 reparameteizable subset sampling via continuous relaxations/20200928_214111.m4a</property>
    <property name="audio_index">0</property>
    <property name="video_index">-1</property>
    <property name="mute_on_pause">0</property>
    <property name="mlt_service">avformat-novalidate</property>
    <property name="seekable">1</property>
    <property name="creation_time">2020-09-28T20:26:11</property>
    <property name="shotcut:hash">aa85aa116be06a5d6f338211a6e27b20</property>
    <property name="global_feed">1</property>
    <property name="shotcut:caption">20200928_214111.m4a</property>
    <property name="shotcut:defaultAudioIndex">-1</property>
    <property name="xml">was here</property>
  </producer>
  <producer id="producer14" in="00:00:00.000" out="00:35:16.050">
    <property name="length">00:35:16.067</property>
    <property name="eof">pause</property>
    <property name="resource">d:/360MoveData/Users/Assassin/Desktop/paper_review/0002 reparameteizable subset sampling via continuous relaxations/20200928_214111.m4a</property>
    <property name="audio_index">0</property>
    <property name="video_index">-1</property>
    <property name="mute_on_pause">0</property>
    <property name="mlt_service">avformat-novalidate</property>
    <property name="seekable">1</property>
    <property name="creation_time">2020-09-28T20:26:11</property>
    <property name="shotcut:hash">aa85aa116be06a5d6f338211a6e27b20</property>
    <property name="global_feed">1</property>
    <property name="shotcut:caption">20200928_214111.m4a</property>
    <property name="shotcut:defaultAudioIndex">-1</property>
    <property name="xml">was here</property>
  </producer>
  <producer id="producer15" in="00:00:00.000" out="00:00:06.617">
    <property name="length">00:00:06.633</property>
    <property name="eof">pause</property>
    <property name="resource">d:/360MoveData/Users/Assassin/Desktop/paper_review/0002 reparameteizable subset sampling via continuous relaxations/20201002_030726.m4a</property>
    <property name="audio_index">0</property>
    <property name="video_index">-1</property>
    <property name="mute_on_pause">0</property>
    <property name="mlt_service">avformat-novalidate</property>
    <property name="seekable">1</property>
    <property name="creation_time">2020-10-02T01:07:33</property>
    <property name="shotcut:hash">b18947af63a32e465d2f590199856ef1</property>
    <property name="global_feed">1</property>
    <property name="shotcut:caption">20201002_030726.m4a</property>
    <property name="xml">was here</property>
  </producer>
  <producer id="producer16" in="00:00:00.000" out="00:00:06.617">
    <property name="length">00:00:06.633</property>
    <property name="eof">pause</property>
    <property name="resource">d:/360MoveData/Users/Assassin/Desktop/paper_review/0002 reparameteizable subset sampling via continuous relaxations/20201002_030726.m4a</property>
    <property name="audio_index">0</property>
    <property name="video_index">-1</property>
    <property name="mute_on_pause">0</property>
    <property name="mlt_service">avformat-novalidate</property>
    <property name="seekable">1</property>
    <property name="creation_time">2020-10-02T01:07:33</property>
    <property name="shotcut:hash">b18947af63a32e465d2f590199856ef1</property>
    <property name="global_feed">1</property>
    <property name="shotcut:caption">20201002_030726.m4a</property>
    <property name="xml">was here</property>
  </producer>
  <producer id="producer17" in="00:00:00.000" out="00:04:22.983">
    <property name="length">15780</property>
    <property name="eof">pause</property>
    <property name="resource">blank</property>
    <property name="mlt_service">blank</property>
    <property name="global_feed">1</property>
  </producer>
  <tractor id="tractor9" global_feed="1" in="00:00:00.000" out="00:00:00.000">
    <property name="shotcut:transition">lumaMix</property>
    <track producer="producer16" in="00:00:05.800" out="00:00:05.800"/>
    <track producer="producer17" in="00:03:22.217" out="00:03:22.217"/>
    <transition id="transition18">
      <property name="a_track">0</property>
      <property name="b_track">1</property>
      <property name="factory">loader</property>
      <property name="mlt_service">luma</property>
      <property name="alpha_over">1</property>
    </transition>
    <transition id="transition19">
      <property name="a_track">0</property>
      <property name="b_track">1</property>
      <property name="mlt_service">mix</property>
      <property name="start">-1</property>
      <property name="accepts_blanks">1</property>
    </transition>
  </tractor>
  <producer id="producer18" in="00:00:00.000" out="00:01:20.117">
    <property name="length">00:01:20.133</property>
    <property name="eof">pause</property>
    <property name="resource">d:/360MoveData/Users/Assassin/Desktop/paper_review/0002 reparameteizable subset sampling via continuous relaxations/20201002_031046.m4a</property>
    <property name="audio_index">0</property>
    <property name="video_index">-1</property>
    <property name="mute_on_pause">0</property>
    <property name="mlt_service">avformat-novalidate</property>
    <property name="seekable">1</property>
    <property name="creation_time">2020-10-02T01:12:06</property>
    <property name="shotcut:hash">ce58157b597451e9013659a0dcb3ad1b</property>
    <property name="global_feed">1</property>
    <property name="shotcut:caption">20201002_031046.m4a</property>
    <property name="xml">was here</property>
  </producer>
  <producer id="producer19" in="00:00:00.000" out="00:01:20.117">
    <property name="length">00:01:20.133</property>
    <property name="eof">pause</property>
    <property name="resource">d:/360MoveData/Users/Assassin/Desktop/paper_review/0002 reparameteizable subset sampling via continuous relaxations/20201002_031046.m4a</property>
    <property name="audio_index">0</property>
    <property name="video_index">-1</property>
    <property name="mute_on_pause">0</property>
    <property name="mlt_service">avformat-novalidate</property>
    <property name="seekable">1</property>
    <property name="creation_time">2020-10-02T01:12:06</property>
    <property name="shotcut:hash">ce58157b597451e9013659a0dcb3ad1b</property>
    <property name="global_feed">1</property>
    <property name="shotcut:caption">20201002_031046.m4a</property>
    <property name="xml">was here</property>
  </producer>
  <producer id="producer20" in="00:00:00.000" out="00:01:20.117">
    <property name="length">00:01:20.133</property>
    <property name="eof">pause</property>
    <property name="resource">d:/360MoveData/Users/Assassin/Desktop/paper_review/0002 reparameteizable subset sampling via continuous relaxations/20201002_031046.m4a</property>
    <property name="audio_index">0</property>
    <property name="video_index">-1</property>
    <property name="mute_on_pause">0</property>
    <property name="mlt_service">avformat-novalidate</property>
    <property name="seekable">1</property>
    <property name="creation_time">2020-10-02T01:12:06</property>
    <property name="shotcut:hash">ce58157b597451e9013659a0dcb3ad1b</property>
    <property name="global_feed">1</property>
    <property name="shotcut:caption">20201002_031046.m4a</property>
    <property name="xml">was here</property>
  </producer>
  <producer id="producer21" in="00:00:00.000" out="00:01:20.117">
    <property name="length">00:01:20.133</property>
    <property name="eof">pause</property>
    <property name="resource">d:/360MoveData/Users/Assassin/Desktop/paper_review/0002 reparameteizable subset sampling via continuous relaxations/20201002_031046.m4a</property>
    <property name="audio_index">0</property>
    <property name="video_index">-1</property>
    <property name="mute_on_pause">0</property>
    <property name="mlt_service">avformat-novalidate</property>
    <property name="seekable">1</property>
    <property name="creation_time">2020-10-02T01:12:06</property>
    <property name="shotcut:hash">ce58157b597451e9013659a0dcb3ad1b</property>
    <property name="global_feed">1</property>
    <property name="shotcut:caption">20201002_031046.m4a</property>
    <property name="xml">was here</property>
  </producer>
  <producer id="producer22" in="00:00:00.000" out="00:01:20.117">
    <property name="length">00:01:20.133</property>
    <property name="eof">pause</property>
    <property name="resource">d:/360MoveData/Users/Assassin/Desktop/paper_review/0002 reparameteizable subset sampling via continuous relaxations/20201002_031046.m4a</property>
    <property name="audio_index">0</property>
    <property name="video_index">-1</property>
    <property name="mute_on_pause">0</property>
    <property name="mlt_service">avformat-novalidate</property>
    <property name="seekable">1</property>
    <property name="creation_time">2020-10-02T01:12:06</property>
    <property name="shotcut:hash">ce58157b597451e9013659a0dcb3ad1b</property>
    <property name="global_feed">1</property>
    <property name="shotcut:caption">20201002_031046.m4a</property>
    <property name="xml">was here</property>
  </producer>
  <tractor id="tractor10" global_feed="1" in="00:00:00.000" out="00:00:00.000">
    <property name="shotcut:transition">lumaMix</property>
    <track producer="producer21" in="00:00:22.933" out="00:00:22.933"/>
    <track producer="producer22" in="00:00:56.783" out="00:00:56.783"/>
    <transition id="transition20">
      <property name="a_track">0</property>
      <property name="b_track">1</property>
      <property name="factory">loader</property>
      <property name="mlt_service">luma</property>
      <property name="alpha_over">1</property>
    </transition>
    <transition id="transition21">
      <property name="a_track">0</property>
      <property name="b_track">1</property>
      <property name="mlt_service">mix</property>
      <property name="start">-1</property>
      <property name="accepts_blanks">1</property>
    </transition>
  </tractor>
  <producer id="producer23" in="00:00:00.000" out="00:01:20.117">
    <property name="length">00:01:20.133</property>
    <property name="eof">pause</property>
    <property name="resource">d:/360MoveData/Users/Assassin/Desktop/paper_review/0002 reparameteizable subset sampling via continuous relaxations/20201002_031046.m4a</property>
    <property name="audio_index">0</property>
    <property name="video_index">-1</property>
    <property name="mute_on_pause">0</property>
    <property name="mlt_service">avformat-novalidate</property>
    <property name="seekable">1</property>
    <property name="creation_time">2020-10-02T01:12:06</property>
    <property name="shotcut:hash">ce58157b597451e9013659a0dcb3ad1b</property>
    <property name="global_feed">1</property>
    <property name="shotcut:caption">20201002_031046.m4a</property>
    <property name="xml">was here</property>
  </producer>
  <producer id="producer24" in="00:00:00.000" out="00:03:47.233">
    <property name="length">00:03:47.250</property>
    <property name="eof">pause</property>
    <property name="resource">d:/360MoveData/Users/Assassin/Desktop/paper_review/0002 reparameteizable subset sampling via continuous relaxations/20201002_031210.m4a</property>
    <property name="audio_index">0</property>
    <property name="video_index">-1</property>
    <property name="mute_on_pause">0</property>
    <property name="mlt_service">avformat-novalidate</property>
    <property name="seekable">1</property>
    <property name="creation_time">2020-10-02T01:17:12</property>
    <property name="shotcut:hash">049a2c066674f32e0453491407f61380</property>
    <property name="global_feed">1</property>
    <property name="shotcut:caption">20201002_031210.m4a</property>
    <property name="xml">was here</property>
  </producer>
  <producer id="producer25" in="00:00:00.000" out="00:03:47.233">
    <property name="length">00:03:47.250</property>
    <property name="eof">pause</property>
    <property name="resource">d:/360MoveData/Users/Assassin/Desktop/paper_review/0002 reparameteizable subset sampling via continuous relaxations/20201002_031210.m4a</property>
    <property name="audio_index">0</property>
    <property name="video_index">-1</property>
    <property name="mute_on_pause">0</property>
    <property name="mlt_service">avformat-novalidate</property>
    <property name="seekable">1</property>
    <property name="creation_time">2020-10-02T01:17:12</property>
    <property name="shotcut:hash">049a2c066674f32e0453491407f61380</property>
    <property name="global_feed">1</property>
    <property name="shotcut:caption">20201002_031210.m4a</property>
    <property name="xml">was here</property>
  </producer>
  <producer id="producer26" in="00:00:00.000" out="00:02:34.867">
    <property name="length">00:02:34.883</property>
    <property name="eof">pause</property>
    <property name="resource">d:/360MoveData/Users/Assassin/Desktop/paper_review/0002 reparameteizable subset sampling via continuous relaxations/20201002_035159.m4a</property>
    <property name="audio_index">0</property>
    <property name="video_index">-1</property>
    <property name="mute_on_pause">0</property>
    <property name="mlt_service">avformat-novalidate</property>
    <property name="seekable">1</property>
    <property name="creation_time">2020-10-02T01:54:58</property>
    <property name="shotcut:hash">58e6380d807f086a6e21575b36736481</property>
    <property name="global_feed">1</property>
    <property name="shotcut:caption">20201002_035159.m4a</property>
    <property name="xml">was here</property>
  </producer>
  <tractor id="tractor11" global_feed="1" in="00:00:00.000" out="00:00:00.000">
    <property name="shotcut:transition">lumaMix</property>
    <track producer="producer26" in="00:00:03.250" out="00:00:03.250"/>
    <track producer="producer17" in="00:00:03.783" out="00:00:03.783"/>
    <transition id="transition22">
      <property name="a_track">0</property>
      <property name="b_track">1</property>
      <property name="factory">loader</property>
      <property name="mlt_service">luma</property>
      <property name="alpha_over">1</property>
    </transition>
    <transition id="transition23">
      <property name="a_track">0</property>
      <property name="b_track">1</property>
      <property name="mlt_service">mix</property>
      <property name="start">-1</property>
      <property name="accepts_blanks">1</property>
    </transition>
  </tractor>
  <producer id="producer28" in="00:00:00.000" out="00:02:34.867">
    <property name="length">00:02:34.883</property>
    <property name="eof">pause</property>
    <property name="resource">d:/360MoveData/Users/Assassin/Desktop/paper_review/0002 reparameteizable subset sampling via continuous relaxations/20201002_035159.m4a</property>
    <property name="audio_index">0</property>
    <property name="video_index">-1</property>
    <property name="mute_on_pause">0</property>
    <property name="mlt_service">avformat-novalidate</property>
    <property name="seekable">1</property>
    <property name="creation_time">2020-10-02T01:54:58</property>
    <property name="shotcut:hash">58e6380d807f086a6e21575b36736481</property>
    <property name="global_feed">1</property>
    <property name="shotcut:caption">20201002_035159.m4a</property>
    <property name="xml">was here</property>
  </producer>
  <producer id="producer29" in="00:00:00.000" out="00:02:34.867">
    <property name="length">00:02:34.883</property>
    <property name="eof">pause</property>
    <property name="resource">d:/360MoveData/Users/Assassin/Desktop/paper_review/0002 reparameteizable subset sampling via continuous relaxations/20201002_035159.m4a</property>
    <property name="audio_index">0</property>
    <property name="video_index">-1</property>
    <property name="mute_on_pause">0</property>
    <property name="mlt_service">avformat-novalidate</property>
    <property name="seekable">1</property>
    <property name="creation_time">2020-10-02T01:54:58</property>
    <property name="shotcut:hash">58e6380d807f086a6e21575b36736481</property>
    <property name="global_feed">1</property>
    <property name="shotcut:caption">20201002_035159.m4a</property>
    <property name="xml">was here</property>
  </producer>
  <producer id="producer30" in="00:00:00.000" out="00:02:34.867">
    <property name="length">00:02:34.883</property>
    <property name="eof">pause</property>
    <property name="resource">d:/360MoveData/Users/Assassin/Desktop/paper_review/0002 reparameteizable subset sampling via continuous relaxations/20201002_035159.m4a</property>
    <property name="audio_index">0</property>
    <property name="video_index">-1</property>
    <property name="mute_on_pause">0</property>
    <property name="mlt_service">avformat-novalidate</property>
    <property name="seekable">1</property>
    <property name="creation_time">2020-10-02T01:54:58</property>
    <property name="shotcut:hash">58e6380d807f086a6e21575b36736481</property>
    <property name="global_feed">1</property>
    <property name="shotcut:caption">20201002_035159.m4a</property>
    <property name="xml">was here</property>
  </producer>
  <producer id="producer31" in="00:00:00.000" out="00:02:34.867">
    <property name="length">00:02:34.883</property>
    <property name="eof">pause</property>
    <property name="resource">d:/360MoveData/Users/Assassin/Desktop/paper_review/0002 reparameteizable subset sampling via continuous relaxations/20201002_035159.m4a</property>
    <property name="audio_index">0</property>
    <property name="video_index">-1</property>
    <property name="mute_on_pause">0</property>
    <property name="mlt_service">avformat-novalidate</property>
    <property name="seekable">1</property>
    <property name="creation_time">2020-10-02T01:54:58</property>
    <property name="shotcut:hash">58e6380d807f086a6e21575b36736481</property>
    <property name="global_feed">1</property>
    <property name="shotcut:caption">20201002_035159.m4a</property>
    <property name="xml">was here</property>
  </producer>
  <producer id="producer32" in="00:00:00.000" out="00:02:34.867">
    <property name="length">00:02:34.883</property>
    <property name="eof">pause</property>
    <property name="resource">d:/360MoveData/Users/Assassin/Desktop/paper_review/0002 reparameteizable subset sampling via continuous relaxations/20201002_035159.m4a</property>
    <property name="audio_index">0</property>
    <property name="video_index">-1</property>
    <property name="mute_on_pause">0</property>
    <property name="mlt_service">avformat-novalidate</property>
    <property name="seekable">1</property>
    <property name="creation_time">2020-10-02T01:54:58</property>
    <property name="shotcut:hash">58e6380d807f086a6e21575b36736481</property>
    <property name="global_feed">1</property>
    <property name="shotcut:caption">20201002_035159.m4a</property>
    <property name="xml">was here</property>
  </producer>
  <producer id="producer33" in="00:00:00.000" out="00:02:34.867">
    <property name="length">00:02:34.883</property>
    <property name="eof">pause</property>
    <property name="resource">d:/360MoveData/Users/Assassin/Desktop/paper_review/0002 reparameteizable subset sampling via continuous relaxations/20201002_035159.m4a</property>
    <property name="audio_index">0</property>
    <property name="video_index">-1</property>
    <property name="mute_on_pause">0</property>
    <property name="mlt_service">avformat-novalidate</property>
    <property name="seekable">1</property>
    <property name="creation_time">2020-10-02T01:54:58</property>
    <property name="shotcut:hash">58e6380d807f086a6e21575b36736481</property>
    <property name="global_feed">1</property>
    <property name="shotcut:caption">20201002_035159.m4a</property>
    <property name="xml">was here</property>
  </producer>
  <producer id="producer34" in="00:00:00.000" out="00:02:34.867">
    <property name="length">00:02:34.883</property>
    <property name="eof">pause</property>
    <property name="resource">d:/360MoveData/Users/Assassin/Desktop/paper_review/0002 reparameteizable subset sampling via continuous relaxations/20201002_035159.m4a</property>
    <property name="audio_index">0</property>
    <property name="video_index">-1</property>
    <property name="mute_on_pause">0</property>
    <property name="mlt_service">avformat-novalidate</property>
    <property name="seekable">1</property>
    <property name="creation_time">2020-10-02T01:54:58</property>
    <property name="shotcut:hash">58e6380d807f086a6e21575b36736481</property>
    <property name="global_feed">1</property>
    <property name="shotcut:caption">20201002_035159.m4a</property>
    <property name="xml">was here</property>
  </producer>
  <producer id="producer35" in="00:00:00.000" out="00:02:34.867">
    <property name="length">00:02:34.883</property>
    <property name="eof">pause</property>
    <property name="resource">d:/360MoveData/Users/Assassin/Desktop/paper_review/0002 reparameteizable subset sampling via continuous relaxations/20201002_035159.m4a</property>
    <property name="audio_index">0</property>
    <property name="video_index">-1</property>
    <property name="mute_on_pause">0</property>
    <property name="mlt_service">avformat-novalidate</property>
    <property name="seekable">1</property>
    <property name="creation_time">2020-10-02T01:54:58</property>
    <property name="shotcut:hash">58e6380d807f086a6e21575b36736481</property>
    <property name="global_feed">1</property>
    <property name="shotcut:caption">20201002_035159.m4a</property>
    <property name="xml">was here</property>
  </producer>
  <tractor id="tractor13" global_feed="1" in="00:00:00.000" out="00:00:00.000">
    <property name="shotcut:transition">lumaMix</property>
    <track producer="producer34" in="00:01:57.867" out="00:01:57.867"/>
    <track producer="producer35" in="00:02:07.483" out="00:02:07.483"/>
    <transition id="transition26">
      <property name="a_track">0</property>
      <property name="b_track">1</property>
      <property name="factory">loader</property>
      <property name="mlt_service">luma</property>
      <property name="alpha_over">1</property>
    </transition>
    <transition id="transition27">
      <property name="a_track">0</property>
      <property name="b_track">1</property>
      <property name="mlt_service">mix</property>
      <property name="start">-1</property>
      <property name="accepts_blanks">1</property>
    </transition>
  </tractor>
  <producer id="producer36" in="00:00:00.000" out="00:02:34.867">
    <property name="length">00:02:34.883</property>
    <property name="eof">pause</property>
    <property name="resource">d:/360MoveData/Users/Assassin/Desktop/paper_review/0002 reparameteizable subset sampling via continuous relaxations/20201002_035159.m4a</property>
    <property name="audio_index">0</property>
    <property name="video_index">-1</property>
    <property name="mute_on_pause">0</property>
    <property name="mlt_service">avformat-novalidate</property>
    <property name="seekable">1</property>
    <property name="creation_time">2020-10-02T01:54:58</property>
    <property name="shotcut:hash">58e6380d807f086a6e21575b36736481</property>
    <property name="global_feed">1</property>
    <property name="shotcut:caption">20201002_035159.m4a</property>
    <property name="xml">was here</property>
  </producer>
  <producer id="producer37" in="00:00:00.000" out="00:02:34.867">
    <property name="length">00:02:34.883</property>
    <property name="eof">pause</property>
    <property name="resource">d:/360MoveData/Users/Assassin/Desktop/paper_review/0002 reparameteizable subset sampling via continuous relaxations/20201002_035159.m4a</property>
    <property name="audio_index">0</property>
    <property name="video_index">-1</property>
    <property name="mute_on_pause">0</property>
    <property name="mlt_service">avformat-novalidate</property>
    <property name="seekable">1</property>
    <property name="creation_time">2020-10-02T01:54:58</property>
    <property name="shotcut:hash">58e6380d807f086a6e21575b36736481</property>
    <property name="global_feed">1</property>
    <property name="shotcut:caption">20201002_035159.m4a</property>
    <property name="xml">was here</property>
  </producer>
  <producer id="producer38" in="00:00:00.000" out="00:35:16.050">
    <property name="length">00:35:16.067</property>
    <property name="eof">pause</property>
    <property name="resource">d:/360MoveData/Users/Assassin/Desktop/paper_review/0002 reparameteizable subset sampling via continuous relaxations/20200928_214111.m4a</property>
    <property name="audio_index">0</property>
    <property name="video_index">-1</property>
    <property name="mute_on_pause">0</property>
    <property name="mlt_service">avformat-novalidate</property>
    <property name="seekable">1</property>
    <property name="creation_time">2020-09-28T20:26:11</property>
    <property name="shotcut:hash">aa85aa116be06a5d6f338211a6e27b20</property>
    <property name="global_feed">1</property>
    <property name="shotcut:caption">20200928_214111.m4a</property>
    <property name="shotcut:defaultAudioIndex">-1</property>
    <property name="xml">was here</property>
  </producer>
  <producer id="producer39" in="00:00:00.000" out="00:35:16.050">
    <property name="length">00:35:16.067</property>
    <property name="eof">pause</property>
    <property name="resource">d:/360MoveData/Users/Assassin/Desktop/paper_review/0002 reparameteizable subset sampling via continuous relaxations/20200928_214111.m4a</property>
    <property name="audio_index">0</property>
    <property name="video_index">-1</property>
    <property name="mute_on_pause">0</property>
    <property name="mlt_service">avformat-novalidate</property>
    <property name="seekable">1</property>
    <property name="creation_time">2020-09-28T20:26:11</property>
    <property name="shotcut:hash">aa85aa116be06a5d6f338211a6e27b20</property>
    <property name="global_feed">1</property>
    <property name="shotcut:caption">20200928_214111.m4a</property>
    <property name="shotcut:defaultAudioIndex">-1</property>
    <property name="xml">was here</property>
  </producer>
  <producer id="producer40" in="00:00:00.000" out="00:35:16.050">
    <property name="length">00:35:16.067</property>
    <property name="eof">pause</property>
    <property name="resource">d:/360MoveData/Users/Assassin/Desktop/paper_review/0002 reparameteizable subset sampling via continuous relaxations/20200928_214111.m4a</property>
    <property name="audio_index">0</property>
    <property name="video_index">-1</property>
    <property name="mute_on_pause">0</property>
    <property name="mlt_service">avformat-novalidate</property>
    <property name="seekable">1</property>
    <property name="creation_time">2020-09-28T20:26:11</property>
    <property name="shotcut:hash">aa85aa116be06a5d6f338211a6e27b20</property>
    <property name="global_feed">1</property>
    <property name="shotcut:caption">20200928_214111.m4a</property>
    <property name="shotcut:defaultAudioIndex">-1</property>
    <property name="xml">was here</property>
  </producer>
  <tractor id="tractor14" global_feed="1" in="00:00:00.000" out="00:01:48.367">
    <property name="shotcut:transition">lumaMix</property>
    <track producer="producer40" in="00:06:09.750" out="00:06:09.750"/>
    <track producer="producer17" in="00:04:22.983" out="00:06:11.350"/>
    <transition id="transition28">
      <property name="a_track">0</property>
      <property name="b_track">1</property>
      <property name="factory">loader</property>
      <property name="mlt_service">luma</property>
      <property name="alpha_over">1</property>
    </transition>
    <transition id="transition29">
      <property name="a_track">0</property>
      <property name="b_track">1</property>
      <property name="mlt_service">mix</property>
      <property name="start">-1</property>
      <property name="accepts_blanks">1</property>
    </transition>
  </tractor>
  <producer id="producer42" in="00:00:00.000" out="00:35:16.050">
    <property name="length">00:35:16.067</property>
    <property name="eof">pause</property>
    <property name="resource">d:/360MoveData/Users/Assassin/Desktop/paper_review/0002 reparameteizable subset sampling via continuous relaxations/20200928_214111.m4a</property>
    <property name="audio_index">0</property>
    <property name="video_index">-1</property>
    <property name="mute_on_pause">0</property>
    <property name="mlt_service">avformat-novalidate</property>
    <property name="seekable">1</property>
    <property name="creation_time">2020-09-28T20:26:11</property>
    <property name="shotcut:hash">aa85aa116be06a5d6f338211a6e27b20</property>
    <property name="global_feed">1</property>
    <property name="shotcut:caption">20200928_214111.m4a</property>
    <property name="shotcut:defaultAudioIndex">-1</property>
    <property name="xml">was here</property>
  </producer>
  <producer id="producer43" in="00:00:00.000" out="00:35:16.050">
    <property name="length">00:35:16.067</property>
    <property name="eof">pause</property>
    <property name="resource">d:/360MoveData/Users/Assassin/Desktop/paper_review/0002 reparameteizable subset sampling via continuous relaxations/20200928_214111.m4a</property>
    <property name="audio_index">0</property>
    <property name="video_index">-1</property>
    <property name="mute_on_pause">0</property>
    <property name="mlt_service">avformat-novalidate</property>
    <property name="seekable">1</property>
    <property name="creation_time">2020-09-28T20:26:11</property>
    <property name="shotcut:hash">aa85aa116be06a5d6f338211a6e27b20</property>
    <property name="global_feed">1</property>
    <property name="shotcut:caption">20200928_214111.m4a</property>
    <property name="shotcut:defaultAudioIndex">-1</property>
    <property name="xml">was here</property>
  </producer>
  <producer id="producer44" in="00:00:00.000" out="00:02:05.117">
    <property name="length">00:02:05.133</property>
    <property name="eof">pause</property>
    <property name="resource">d:/360MoveData/Users/Assassin/Desktop/paper_review/0002 reparameteizable subset sampling via continuous relaxations/20201003_171817.m4a</property>
    <property name="audio_index">0</property>
    <property name="video_index">-1</property>
    <property name="mute_on_pause">0</property>
    <property name="mlt_service">avformat-novalidate</property>
    <property name="seekable">1</property>
    <property name="creation_time">2020-10-03T15:20:56</property>
    <property name="shotcut:hash">12d121f02d07196cb063bba5aa0e92a8</property>
    <property name="global_feed">1</property>
    <property name="shotcut:caption">20201003_171817.m4a</property>
    <property name="xml">was here</property>
  </producer>
  <producer id="producer45" in="00:00:00.000" out="00:02:05.117">
    <property name="length">00:02:05.133</property>
    <property name="eof">pause</property>
    <property name="resource">d:/360MoveData/Users/Assassin/Desktop/paper_review/0002 reparameteizable subset sampling via continuous relaxations/20201003_171817.m4a</property>
    <property name="audio_index">0</property>
    <property name="video_index">-1</property>
    <property name="mute_on_pause">0</property>
    <property name="mlt_service">avformat-novalidate</property>
    <property name="seekable">1</property>
    <property name="creation_time">2020-10-03T15:20:56</property>
    <property name="shotcut:hash">12d121f02d07196cb063bba5aa0e92a8</property>
    <property name="global_feed">1</property>
    <property name="shotcut:caption">20201003_171817.m4a</property>
    <property name="xml">was here</property>
  </producer>
  <producer id="producer46" in="00:00:00.000" out="00:02:05.117">
    <property name="length">00:02:05.133</property>
    <property name="eof">pause</property>
    <property name="resource">d:/360MoveData/Users/Assassin/Desktop/paper_review/0002 reparameteizable subset sampling via continuous relaxations/20201003_171817.m4a</property>
    <property name="audio_index">0</property>
    <property name="video_index">-1</property>
    <property name="mute_on_pause">0</property>
    <property name="mlt_service">avformat-novalidate</property>
    <property name="seekable">1</property>
    <property name="creation_time">2020-10-03T15:20:56</property>
    <property name="shotcut:hash">12d121f02d07196cb063bba5aa0e92a8</property>
    <property name="global_feed">1</property>
    <property name="shotcut:caption">20201003_171817.m4a</property>
    <property name="xml">was here</property>
  </producer>
  <tractor id="tractor15" global_feed="1" in="00:00:00.000" out="00:00:00.017">
    <property name="shotcut:transition">lumaMix</property>
    <track producer="producer45" in="00:00:23.017" out="00:00:23.033"/>
    <track producer="producer46" in="00:00:23.800" out="00:00:23.817"/>
    <transition id="transition30" out="00:00:00.017">
      <property name="a_track">0</property>
      <property name="b_track">1</property>
      <property name="factory">loader</property>
      <property name="mlt_service">luma</property>
      <property name="alpha_over">1</property>
    </transition>
    <transition id="transition31" out="00:00:00.017">
      <property name="a_track">0</property>
      <property name="b_track">1</property>
      <property name="mlt_service">mix</property>
      <property name="start">-1</property>
      <property name="accepts_blanks">1</property>
    </transition>
  </tractor>
  <producer id="producer47" in="00:00:00.000" out="00:02:05.117">
    <property name="length">00:02:05.133</property>
    <property name="eof">pause</property>
    <property name="resource">d:/360MoveData/Users/Assassin/Desktop/paper_review/0002 reparameteizable subset sampling via continuous relaxations/20201003_171817.m4a</property>
    <property name="audio_index">0</property>
    <property name="video_index">-1</property>
    <property name="mute_on_pause">0</property>
    <property name="mlt_service">avformat-novalidate</property>
    <property name="seekable">1</property>
    <property name="creation_time">2020-10-03T15:20:56</property>
    <property name="shotcut:hash">12d121f02d07196cb063bba5aa0e92a8</property>
    <property name="global_feed">1</property>
    <property name="shotcut:caption">20201003_171817.m4a</property>
    <property name="xml">was here</property>
  </producer>
  <tractor id="tractor16" global_feed="1" in="00:00:00.000" out="00:00:00.000">
    <property name="shotcut:transition">lumaMix</property>
    <track producer="producer46" in="00:00:28.100" out="00:00:28.100"/>
    <track producer="producer47" in="00:00:31.133" out="00:00:31.133"/>
    <transition id="transition32">
      <property name="a_track">0</property>
      <property name="b_track">1</property>
      <property name="factory">loader</property>
      <property name="mlt_service">luma</property>
      <property name="alpha_over">1</property>
    </transition>
    <transition id="transition33">
      <property name="a_track">0</property>
      <property name="b_track">1</property>
      <property name="mlt_service">mix</property>
      <property name="start">-1</property>
      <property name="accepts_blanks">1</property>
    </transition>
  </tractor>
  <producer id="producer48" in="00:00:00.000" out="00:02:05.117">
    <property name="length">00:02:05.133</property>
    <property name="eof">pause</property>
    <property name="resource">d:/360MoveData/Users/Assassin/Desktop/paper_review/0002 reparameteizable subset sampling via continuous relaxations/20201003_171817.m4a</property>
    <property name="audio_index">0</property>
    <property name="video_index">-1</property>
    <property name="mute_on_pause">0</property>
    <property name="mlt_service">avformat-novalidate</property>
    <property name="seekable">1</property>
    <property name="creation_time">2020-10-03T15:20:56</property>
    <property name="shotcut:hash">12d121f02d07196cb063bba5aa0e92a8</property>
    <property name="global_feed">1</property>
    <property name="shotcut:caption">20201003_171817.m4a</property>
    <property name="xml">was here</property>
  </producer>
  <tractor id="tractor17" global_feed="1" in="00:00:00.000" out="00:00:00.017">
    <property name="shotcut:transition">lumaMix</property>
    <track producer="producer47" in="00:00:33.800" out="00:00:33.817"/>
    <track producer="producer48" in="00:00:41.917" out="00:00:41.933"/>
    <transition id="transition34" out="00:00:00.017">
      <property name="a_track">0</property>
      <property name="b_track">1</property>
      <property name="factory">loader</property>
      <property name="mlt_service">luma</property>
      <property name="alpha_over">1</property>
    </transition>
    <transition id="transition35" out="00:00:00.017">
      <property name="a_track">0</property>
      <property name="b_track">1</property>
      <property name="mlt_service">mix</property>
      <property name="start">-1</property>
      <property name="accepts_blanks">1</property>
    </transition>
  </tractor>
  <producer id="producer49" in="00:00:00.000" out="00:02:05.117">
    <property name="length">00:02:05.133</property>
    <property name="eof">pause</property>
    <property name="resource">d:/360MoveData/Users/Assassin/Desktop/paper_review/0002 reparameteizable subset sampling via continuous relaxations/20201003_171817.m4a</property>
    <property name="audio_index">0</property>
    <property name="video_index">-1</property>
    <property name="mute_on_pause">0</property>
    <property name="mlt_service">avformat-novalidate</property>
    <property name="seekable">1</property>
    <property name="creation_time">2020-10-03T15:20:56</property>
    <property name="shotcut:hash">12d121f02d07196cb063bba5aa0e92a8</property>
    <property name="global_feed">1</property>
    <property name="shotcut:caption">20201003_171817.m4a</property>
    <property name="xml">was here</property>
  </producer>
  <producer id="producer27" in="00:00:00.000" out="00:02:05.117">
    <property name="length">00:02:05.133</property>
    <property name="eof">pause</property>
    <property name="resource">d:/360MoveData/Users/Assassin/Desktop/paper_review/0002 reparameteizable subset sampling via continuous relaxations/20201003_171817.m4a</property>
    <property name="audio_index">0</property>
    <property name="video_index">-1</property>
    <property name="mute_on_pause">0</property>
    <property name="mlt_service">avformat-novalidate</property>
    <property name="seekable">1</property>
    <property name="creation_time">2020-10-03T15:20:56</property>
    <property name="shotcut:hash">12d121f02d07196cb063bba5aa0e92a8</property>
    <property name="global_feed">1</property>
    <property name="shotcut:caption">20201003_171817.m4a</property>
    <property name="xml">was here</property>
  </producer>
  <producer id="producer41" in="00:00:00.000" out="00:02:05.117">
    <property name="length">00:02:05.133</property>
    <property name="eof">pause</property>
    <property name="resource">d:/360MoveData/Users/Assassin/Desktop/paper_review/0002 reparameteizable subset sampling via continuous relaxations/20201003_171817.m4a</property>
    <property name="audio_index">0</property>
    <property name="video_index">-1</property>
    <property name="mute_on_pause">0</property>
    <property name="mlt_service">avformat-novalidate</property>
    <property name="seekable">1</property>
    <property name="creation_time">2020-10-03T15:20:56</property>
    <property name="shotcut:hash">12d121f02d07196cb063bba5aa0e92a8</property>
    <property name="global_feed">1</property>
    <property name="shotcut:caption">20201003_171817.m4a</property>
    <property name="xml">was here</property>
  </producer>
  <producer id="producer50" in="00:00:00.000" out="00:02:05.117">
    <property name="length">00:02:05.133</property>
    <property name="eof">pause</property>
    <property name="resource">d:/360MoveData/Users/Assassin/Desktop/paper_review/0002 reparameteizable subset sampling via continuous relaxations/20201003_171817.m4a</property>
    <property name="audio_index">0</property>
    <property name="video_index">-1</property>
    <property name="mute_on_pause">0</property>
    <property name="mlt_service">avformat-novalidate</property>
    <property name="seekable">1</property>
    <property name="creation_time">2020-10-03T15:20:56</property>
    <property name="shotcut:hash">12d121f02d07196cb063bba5aa0e92a8</property>
    <property name="global_feed">1</property>
    <property name="shotcut:caption">20201003_171817.m4a</property>
    <property name="xml">was here</property>
  </producer>
  <producer id="producer51" in="00:00:00.000" out="00:02:05.117">
    <property name="length">00:02:05.133</property>
    <property name="eof">pause</property>
    <property name="resource">d:/360MoveData/Users/Assassin/Desktop/paper_review/0002 reparameteizable subset sampling via continuous relaxations/20201003_171817.m4a</property>
    <property name="audio_index">0</property>
    <property name="video_index">-1</property>
    <property name="mute_on_pause">0</property>
    <property name="mlt_service">avformat-novalidate</property>
    <property name="seekable">1</property>
    <property name="creation_time">2020-10-03T15:20:56</property>
    <property name="shotcut:hash">12d121f02d07196cb063bba5aa0e92a8</property>
    <property name="global_feed">1</property>
    <property name="shotcut:caption">20201003_171817.m4a</property>
    <property name="xml">was here</property>
  </producer>
  <producer id="producer52" in="00:00:00.000" out="00:02:05.117">
    <property name="length">00:02:05.133</property>
    <property name="eof">pause</property>
    <property name="resource">d:/360MoveData/Users/Assassin/Desktop/paper_review/0002 reparameteizable subset sampling via continuous relaxations/20201003_171817.m4a</property>
    <property name="audio_index">0</property>
    <property name="video_index">-1</property>
    <property name="mute_on_pause">0</property>
    <property name="mlt_service">avformat-novalidate</property>
    <property name="seekable">1</property>
    <property name="creation_time">2020-10-03T15:20:56</property>
    <property name="shotcut:hash">12d121f02d07196cb063bba5aa0e92a8</property>
    <property name="global_feed">1</property>
    <property name="shotcut:caption">20201003_171817.m4a</property>
    <property name="xml">was here</property>
  </producer>
  <tractor id="tractor18" global_feed="1" in="00:00:00.000" out="00:00:00.017">
    <property name="shotcut:transition">lumaMix</property>
    <track producer="producer51" in="00:02:02.400" out="00:02:02.417"/>
    <track producer="producer52" in="00:02:03.167" out="00:02:03.183"/>
    <transition id="transition36" out="00:00:00.017">
      <property name="a_track">0</property>
      <property name="b_track">1</property>
      <property name="factory">loader</property>
      <property name="mlt_service">luma</property>
      <property name="alpha_over">1</property>
    </transition>
    <transition id="transition37" out="00:00:00.017">
      <property name="a_track">0</property>
      <property name="b_track">1</property>
      <property name="mlt_service">mix</property>
      <property name="start">-1</property>
      <property name="accepts_blanks">1</property>
    </transition>
  </tractor>
  <producer id="producer53" in="00:00:00.000" out="00:35:16.050">
    <property name="length">00:35:16.067</property>
    <property name="eof">pause</property>
    <property name="resource">d:/360MoveData/Users/Assassin/Desktop/paper_review/0002 reparameteizable subset sampling via continuous relaxations/20200928_214111.m4a</property>
    <property name="audio_index">0</property>
    <property name="video_index">-1</property>
    <property name="mute_on_pause">0</property>
    <property name="mlt_service">avformat-novalidate</property>
    <property name="seekable">1</property>
    <property name="creation_time">2020-09-28T20:26:11</property>
    <property name="shotcut:hash">aa85aa116be06a5d6f338211a6e27b20</property>
    <property name="global_feed">1</property>
    <property name="shotcut:caption">20200928_214111.m4a</property>
    <property name="shotcut:defaultAudioIndex">-1</property>
    <property name="xml">was here</property>
  </producer>
  <producer id="producer54" in="00:00:00.000" out="00:35:16.050">
    <property name="length">00:35:16.067</property>
    <property name="eof">pause</property>
    <property name="resource">d:/360MoveData/Users/Assassin/Desktop/paper_review/0002 reparameteizable subset sampling via continuous relaxations/20200928_214111.m4a</property>
    <property name="audio_index">0</property>
    <property name="video_index">-1</property>
    <property name="mute_on_pause">0</property>
    <property name="mlt_service">avformat-novalidate</property>
    <property name="seekable">1</property>
    <property name="creation_time">2020-09-28T20:26:11</property>
    <property name="shotcut:hash">aa85aa116be06a5d6f338211a6e27b20</property>
    <property name="global_feed">1</property>
    <property name="shotcut:caption">20200928_214111.m4a</property>
    <property name="shotcut:defaultAudioIndex">-1</property>
    <property name="xml">was here</property>
  </producer>
  <producer id="producer55" in="00:00:00.000" out="00:35:16.050">
    <property name="length">00:35:16.067</property>
    <property name="eof">pause</property>
    <property name="resource">d:/360MoveData/Users/Assassin/Desktop/paper_review/0002 reparameteizable subset sampling via continuous relaxations/20200928_214111.m4a</property>
    <property name="audio_index">0</property>
    <property name="video_index">-1</property>
    <property name="mute_on_pause">0</property>
    <property name="mlt_service">avformat-novalidate</property>
    <property name="seekable">1</property>
    <property name="creation_time">2020-09-28T20:26:11</property>
    <property name="shotcut:hash">aa85aa116be06a5d6f338211a6e27b20</property>
    <property name="global_feed">1</property>
    <property name="shotcut:caption">20200928_214111.m4a</property>
    <property name="shotcut:defaultAudioIndex">-1</property>
    <property name="xml">was here</property>
  </producer>
  <producer id="producer56" in="00:00:00.000" out="00:35:16.050">
    <property name="length">00:35:16.067</property>
    <property name="eof">pause</property>
    <property name="resource">d:/360MoveData/Users/Assassin/Desktop/paper_review/0002 reparameteizable subset sampling via continuous relaxations/20200928_214111.m4a</property>
    <property name="audio_index">0</property>
    <property name="video_index">-1</property>
    <property name="mute_on_pause">0</property>
    <property name="mlt_service">avformat-novalidate</property>
    <property name="seekable">1</property>
    <property name="creation_time">2020-09-28T20:26:11</property>
    <property name="shotcut:hash">aa85aa116be06a5d6f338211a6e27b20</property>
    <property name="global_feed">1</property>
    <property name="shotcut:caption">20200928_214111.m4a</property>
    <property name="shotcut:defaultAudioIndex">-1</property>
    <property name="xml">was here</property>
  </producer>
  <tractor id="tractor19" global_feed="1" in="00:00:00.000" out="00:00:00.017">
    <property name="shotcut:transition">lumaMix</property>
    <track producer="producer55" in="00:08:53.317" out="00:08:53.333"/>
    <track producer="producer56" in="00:08:54.517" out="00:08:54.533"/>
    <transition id="transition38" out="00:00:00.017">
      <property name="a_track">0</property>
      <property name="b_track">1</property>
      <property name="factory">loader</property>
      <property name="mlt_service">luma</property>
      <property name="alpha_over">1</property>
    </transition>
    <transition id="transition39" out="00:00:00.017">
      <property name="a_track">0</property>
      <property name="b_track">1</property>
      <property name="mlt_service">mix</property>
      <property name="start">-1</property>
      <property name="accepts_blanks">1</property>
    </transition>
  </tractor>
  <producer id="producer57" in="00:00:00.000" out="00:35:16.050">
    <property name="length">00:35:16.067</property>
    <property name="eof">pause</property>
    <property name="resource">d:/360MoveData/Users/Assassin/Desktop/paper_review/0002 reparameteizable subset sampling via continuous relaxations/20200928_214111.m4a</property>
    <property name="audio_index">0</property>
    <property name="video_index">-1</property>
    <property name="mute_on_pause">0</property>
    <property name="mlt_service">avformat-novalidate</property>
    <property name="seekable">1</property>
    <property name="creation_time">2020-09-28T20:26:11</property>
    <property name="shotcut:hash">aa85aa116be06a5d6f338211a6e27b20</property>
    <property name="global_feed">1</property>
    <property name="shotcut:caption">20200928_214111.m4a</property>
    <property name="shotcut:defaultAudioIndex">-1</property>
    <property name="xml">was here</property>
  </producer>
  <producer id="producer58" in="00:00:00.000" out="00:35:16.050">
    <property name="length">00:35:16.067</property>
    <property name="eof">pause</property>
    <property name="resource">d:/360MoveData/Users/Assassin/Desktop/paper_review/0002 reparameteizable subset sampling via continuous relaxations/20200928_214111.m4a</property>
    <property name="audio_index">0</property>
    <property name="video_index">-1</property>
    <property name="mute_on_pause">0</property>
    <property name="mlt_service">avformat-novalidate</property>
    <property name="seekable">1</property>
    <property name="creation_time">2020-09-28T20:26:11</property>
    <property name="shotcut:hash">aa85aa116be06a5d6f338211a6e27b20</property>
    <property name="global_feed">1</property>
    <property name="shotcut:caption">20200928_214111.m4a</property>
    <property name="shotcut:defaultAudioIndex">-1</property>
    <property name="xml">was here</property>
  </producer>
  <producer id="producer59" in="00:00:00.000" out="00:35:16.050">
    <property name="length">00:35:16.067</property>
    <property name="eof">pause</property>
    <property name="resource">d:/360MoveData/Users/Assassin/Desktop/paper_review/0002 reparameteizable subset sampling via continuous relaxations/20200928_214111.m4a</property>
    <property name="audio_index">0</property>
    <property name="video_index">-1</property>
    <property name="mute_on_pause">0</property>
    <property name="mlt_service">avformat-novalidate</property>
    <property name="seekable">1</property>
    <property name="creation_time">2020-09-28T20:26:11</property>
    <property name="shotcut:hash">aa85aa116be06a5d6f338211a6e27b20</property>
    <property name="global_feed">1</property>
    <property name="shotcut:caption">20200928_214111.m4a</property>
    <property name="shotcut:defaultAudioIndex">-1</property>
    <property name="xml">was here</property>
  </producer>
  <producer id="producer60" in="00:00:00.000" out="00:35:16.050">
    <property name="length">00:35:16.067</property>
    <property name="eof">pause</property>
    <property name="resource">d:/360MoveData/Users/Assassin/Desktop/paper_review/0002 reparameteizable subset sampling via continuous relaxations/20200928_214111.m4a</property>
    <property name="audio_index">0</property>
    <property name="video_index">-1</property>
    <property name="mute_on_pause">0</property>
    <property name="mlt_service">avformat-novalidate</property>
    <property name="seekable">1</property>
    <property name="creation_time">2020-09-28T20:26:11</property>
    <property name="shotcut:hash">aa85aa116be06a5d6f338211a6e27b20</property>
    <property name="global_feed">1</property>
    <property name="shotcut:caption">20200928_214111.m4a</property>
    <property name="shotcut:defaultAudioIndex">-1</property>
    <property name="xml">was here</property>
  </producer>
  <producer id="producer61" in="00:00:00.000" out="00:35:16.050">
    <property name="length">00:35:16.067</property>
    <property name="eof">pause</property>
    <property name="resource">d:/360MoveData/Users/Assassin/Desktop/paper_review/0002 reparameteizable subset sampling via continuous relaxations/20200928_214111.m4a</property>
    <property name="audio_index">0</property>
    <property name="video_index">-1</property>
    <property name="mute_on_pause">0</property>
    <property name="mlt_service">avformat-novalidate</property>
    <property name="seekable">1</property>
    <property name="creation_time">2020-09-28T20:26:11</property>
    <property name="shotcut:hash">aa85aa116be06a5d6f338211a6e27b20</property>
    <property name="global_feed">1</property>
    <property name="shotcut:caption">20200928_214111.m4a</property>
    <property name="shotcut:defaultAudioIndex">-1</property>
    <property name="xml">was here</property>
  </producer>
  <producer id="producer62" in="00:00:00.000" out="00:35:16.050">
    <property name="length">00:35:16.067</property>
    <property name="eof">pause</property>
    <property name="resource">d:/360MoveData/Users/Assassin/Desktop/paper_review/0002 reparameteizable subset sampling via continuous relaxations/20200928_214111.m4a</property>
    <property name="audio_index">0</property>
    <property name="video_index">-1</property>
    <property name="mute_on_pause">0</property>
    <property name="mlt_service">avformat-novalidate</property>
    <property name="seekable">1</property>
    <property name="creation_time">2020-09-28T20:26:11</property>
    <property name="shotcut:hash">aa85aa116be06a5d6f338211a6e27b20</property>
    <property name="global_feed">1</property>
    <property name="shotcut:caption">20200928_214111.m4a</property>
    <property name="shotcut:defaultAudioIndex">-1</property>
    <property name="xml">was here</property>
  </producer>
  <producer id="producer63" in="00:00:00.000" out="00:35:16.050">
    <property name="length">00:35:16.067</property>
    <property name="eof">pause</property>
    <property name="resource">d:/360MoveData/Users/Assassin/Desktop/paper_review/0002 reparameteizable subset sampling via continuous relaxations/20200928_214111.m4a</property>
    <property name="audio_index">0</property>
    <property name="video_index">-1</property>
    <property name="mute_on_pause">0</property>
    <property name="mlt_service">avformat-novalidate</property>
    <property name="seekable">1</property>
    <property name="creation_time">2020-09-28T20:26:11</property>
    <property name="shotcut:hash">aa85aa116be06a5d6f338211a6e27b20</property>
    <property name="global_feed">1</property>
    <property name="shotcut:caption">20200928_214111.m4a</property>
    <property name="shotcut:defaultAudioIndex">-1</property>
    <property name="xml">was here</property>
  </producer>
  <producer id="producer64" in="00:00:00.000" out="00:35:16.050">
    <property name="length">00:35:16.067</property>
    <property name="eof">pause</property>
    <property name="resource">d:/360MoveData/Users/Assassin/Desktop/paper_review/0002 reparameteizable subset sampling via continuous relaxations/20200928_214111.m4a</property>
    <property name="audio_index">0</property>
    <property name="video_index">-1</property>
    <property name="mute_on_pause">0</property>
    <property name="mlt_service">avformat-novalidate</property>
    <property name="seekable">1</property>
    <property name="creation_time">2020-09-28T20:26:11</property>
    <property name="shotcut:hash">aa85aa116be06a5d6f338211a6e27b20</property>
    <property name="global_feed">1</property>
    <property name="shotcut:caption">20200928_214111.m4a</property>
    <property name="shotcut:defaultAudioIndex">-1</property>
    <property name="xml">was here</property>
  </producer>
  <producer id="producer65" in="00:00:00.000" out="00:35:16.050">
    <property name="length">00:35:16.067</property>
    <property name="eof">pause</property>
    <property name="resource">d:/360MoveData/Users/Assassin/Desktop/paper_review/0002 reparameteizable subset sampling via continuous relaxations/20200928_214111.m4a</property>
    <property name="audio_index">0</property>
    <property name="video_index">-1</property>
    <property name="mute_on_pause">0</property>
    <property name="mlt_service">avformat-novalidate</property>
    <property name="seekable">1</property>
    <property name="creation_time">2020-09-28T20:26:11</property>
    <property name="shotcut:hash">aa85aa116be06a5d6f338211a6e27b20</property>
    <property name="global_feed">1</property>
    <property name="shotcut:caption">20200928_214111.m4a</property>
    <property name="shotcut:defaultAudioIndex">-1</property>
    <property name="xml">was here</property>
  </producer>
  <producer id="producer66" in="00:00:00.000" out="00:35:16.050">
    <property name="length">00:35:16.067</property>
    <property name="eof">pause</property>
    <property name="resource">d:/360MoveData/Users/Assassin/Desktop/paper_review/0002 reparameteizable subset sampling via continuous relaxations/20200928_214111.m4a</property>
    <property name="audio_index">0</property>
    <property name="video_index">-1</property>
    <property name="mute_on_pause">0</property>
    <property name="mlt_service">avformat-novalidate</property>
    <property name="seekable">1</property>
    <property name="creation_time">2020-09-28T20:26:11</property>
    <property name="shotcut:hash">aa85aa116be06a5d6f338211a6e27b20</property>
    <property name="global_feed">1</property>
    <property name="shotcut:caption">20200928_214111.m4a</property>
    <property name="shotcut:defaultAudioIndex">-1</property>
    <property name="xml">was here</property>
  </producer>
  <producer id="producer67" in="00:00:00.000" out="00:35:16.050">
    <property name="length">00:35:16.067</property>
    <property name="eof">pause</property>
    <property name="resource">d:/360MoveData/Users/Assassin/Desktop/paper_review/0002 reparameteizable subset sampling via continuous relaxations/20200928_214111.m4a</property>
    <property name="audio_index">0</property>
    <property name="video_index">-1</property>
    <property name="mute_on_pause">0</property>
    <property name="mlt_service">avformat-novalidate</property>
    <property name="seekable">1</property>
    <property name="creation_time">2020-09-28T20:26:11</property>
    <property name="shotcut:hash">aa85aa116be06a5d6f338211a6e27b20</property>
    <property name="global_feed">1</property>
    <property name="shotcut:caption">20200928_214111.m4a</property>
    <property name="shotcut:defaultAudioIndex">-1</property>
    <property name="xml">was here</property>
  </producer>
  <producer id="producer68" in="00:00:00.000" out="00:35:16.050">
    <property name="length">00:35:16.067</property>
    <property name="eof">pause</property>
    <property name="resource">d:/360MoveData/Users/Assassin/Desktop/paper_review/0002 reparameteizable subset sampling via continuous relaxations/20200928_214111.m4a</property>
    <property name="audio_index">0</property>
    <property name="video_index">-1</property>
    <property name="mute_on_pause">0</property>
    <property name="mlt_service">avformat-novalidate</property>
    <property name="seekable">1</property>
    <property name="creation_time">2020-09-28T20:26:11</property>
    <property name="shotcut:hash">aa85aa116be06a5d6f338211a6e27b20</property>
    <property name="global_feed">1</property>
    <property name="shotcut:caption">20200928_214111.m4a</property>
    <property name="shotcut:defaultAudioIndex">-1</property>
    <property name="xml">was here</property>
  </producer>
  <producer id="producer69" in="00:00:00.000" out="00:35:16.050">
    <property name="length">00:35:16.067</property>
    <property name="eof">pause</property>
    <property name="resource">d:/360MoveData/Users/Assassin/Desktop/paper_review/0002 reparameteizable subset sampling via continuous relaxations/20200928_214111.m4a</property>
    <property name="audio_index">0</property>
    <property name="video_index">-1</property>
    <property name="mute_on_pause">0</property>
    <property name="mlt_service">avformat-novalidate</property>
    <property name="seekable">1</property>
    <property name="creation_time">2020-09-28T20:26:11</property>
    <property name="shotcut:hash">aa85aa116be06a5d6f338211a6e27b20</property>
    <property name="global_feed">1</property>
    <property name="shotcut:caption">20200928_214111.m4a</property>
    <property name="shotcut:defaultAudioIndex">-1</property>
    <property name="xml">was here</property>
  </producer>
  <producer id="producer70" in="00:00:00.000" out="00:35:16.050">
    <property name="length">00:35:16.067</property>
    <property name="eof">pause</property>
    <property name="resource">d:/360MoveData/Users/Assassin/Desktop/paper_review/0002 reparameteizable subset sampling via continuous relaxations/20200928_214111.m4a</property>
    <property name="audio_index">0</property>
    <property name="video_index">-1</property>
    <property name="mute_on_pause">0</property>
    <property name="mlt_service">avformat-novalidate</property>
    <property name="seekable">1</property>
    <property name="creation_time">2020-09-28T20:26:11</property>
    <property name="shotcut:hash">aa85aa116be06a5d6f338211a6e27b20</property>
    <property name="global_feed">1</property>
    <property name="shotcut:caption">20200928_214111.m4a</property>
    <property name="shotcut:defaultAudioIndex">-1</property>
    <property name="xml">was here</property>
  </producer>
  <tractor id="tractor21" global_feed="1" in="00:00:00.000" out="00:00:00.067">
    <property name="shotcut:transition">lumaMix</property>
    <track producer="producer69" in="00:15:18.417" out="00:15:18.483"/>
    <track producer="producer70" in="00:15:23.433" out="00:15:23.500"/>
    <transition id="transition42" out="00:00:00.067">
      <property name="a_track">0</property>
      <property name="b_track">1</property>
      <property name="factory">loader</property>
      <property name="mlt_service">luma</property>
      <property name="alpha_over">1</property>
    </transition>
    <transition id="transition43" out="00:00:00.067">
      <property name="a_track">0</property>
      <property name="b_track">1</property>
      <property name="mlt_service">mix</property>
      <property name="start">-1</property>
      <property name="accepts_blanks">1</property>
    </transition>
  </tractor>
  <producer id="producer71" in="00:00:00.000" out="00:35:16.050">
    <property name="length">00:35:16.067</property>
    <property name="eof">pause</property>
    <property name="resource">d:/360MoveData/Users/Assassin/Desktop/paper_review/0002 reparameteizable subset sampling via continuous relaxations/20200928_214111.m4a</property>
    <property name="audio_index">0</property>
    <property name="video_index">-1</property>
    <property name="mute_on_pause">0</property>
    <property name="mlt_service">avformat-novalidate</property>
    <property name="seekable">1</property>
    <property name="creation_time">2020-09-28T20:26:11</property>
    <property name="shotcut:hash">aa85aa116be06a5d6f338211a6e27b20</property>
    <property name="global_feed">1</property>
    <property name="shotcut:caption">20200928_214111.m4a</property>
    <property name="shotcut:defaultAudioIndex">-1</property>
    <property name="xml">was here</property>
  </producer>
  <tractor id="tractor22" global_feed="1" in="00:00:00.000" out="00:00:00.067">
    <property name="shotcut:transition">lumaMix</property>
    <track producer="producer70" in="00:15:27.400" out="00:15:27.467"/>
    <track producer="producer71" in="00:15:28.483" out="00:15:28.550"/>
    <transition id="transition44" out="00:00:00.067">
      <property name="a_track">0</property>
      <property name="b_track">1</property>
      <property name="factory">loader</property>
      <property name="mlt_service">luma</property>
      <property name="alpha_over">1</property>
    </transition>
    <transition id="transition45" out="00:00:00.067">
      <property name="a_track">0</property>
      <property name="b_track">1</property>
      <property name="mlt_service">mix</property>
      <property name="start">-1</property>
      <property name="accepts_blanks">1</property>
    </transition>
  </tractor>
  <producer id="producer72" in="00:00:00.000" out="00:35:16.050">
    <property name="length">00:35:16.067</property>
    <property name="eof">pause</property>
    <property name="resource">d:/360MoveData/Users/Assassin/Desktop/paper_review/0002 reparameteizable subset sampling via continuous relaxations/20200928_214111.m4a</property>
    <property name="audio_index">0</property>
    <property name="video_index">-1</property>
    <property name="mute_on_pause">0</property>
    <property name="mlt_service">avformat-novalidate</property>
    <property name="seekable">1</property>
    <property name="creation_time">2020-09-28T20:26:11</property>
    <property name="shotcut:hash">aa85aa116be06a5d6f338211a6e27b20</property>
    <property name="global_feed">1</property>
    <property name="shotcut:caption">20200928_214111.m4a</property>
    <property name="shotcut:defaultAudioIndex">-1</property>
    <property name="xml">was here</property>
  </producer>
  <producer id="producer73" in="00:00:00.000" out="00:35:16.050">
    <property name="length">00:35:16.067</property>
    <property name="eof">pause</property>
    <property name="resource">d:/360MoveData/Users/Assassin/Desktop/paper_review/0002 reparameteizable subset sampling via continuous relaxations/20200928_214111.m4a</property>
    <property name="audio_index">0</property>
    <property name="video_index">-1</property>
    <property name="mute_on_pause">0</property>
    <property name="mlt_service">avformat-novalidate</property>
    <property name="seekable">1</property>
    <property name="creation_time">2020-09-28T20:26:11</property>
    <property name="shotcut:hash">aa85aa116be06a5d6f338211a6e27b20</property>
    <property name="global_feed">1</property>
    <property name="shotcut:caption">20200928_214111.m4a</property>
    <property name="shotcut:defaultAudioIndex">-1</property>
    <property name="xml">was here</property>
  </producer>
  <tractor id="tractor23" global_feed="1" in="00:00:00.000" out="00:00:00.000">
    <property name="shotcut:transition">lumaMix</property>
    <track producer="producer72" in="00:15:42.200" out="00:15:42.200"/>
    <track producer="producer73" in="00:15:44.450" out="00:15:44.450"/>
    <transition id="transition46">
      <property name="a_track">0</property>
      <property name="b_track">1</property>
      <property name="factory">loader</property>
      <property name="mlt_service">luma</property>
      <property name="alpha_over">1</property>
    </transition>
    <transition id="transition47">
      <property name="a_track">0</property>
      <property name="b_track">1</property>
      <property name="mlt_service">mix</property>
      <property name="start">-1</property>
      <property name="accepts_blanks">1</property>
    </transition>
  </tractor>
  <producer id="producer74" in="00:00:00.000" out="00:35:16.050">
    <property name="length">00:35:16.067</property>
    <property name="eof">pause</property>
    <property name="resource">d:/360MoveData/Users/Assassin/Desktop/paper_review/0002 reparameteizable subset sampling via continuous relaxations/20200928_214111.m4a</property>
    <property name="audio_index">0</property>
    <property name="video_index">-1</property>
    <property name="mute_on_pause">0</property>
    <property name="mlt_service">avformat-novalidate</property>
    <property name="seekable">1</property>
    <property name="creation_time">2020-09-28T20:26:11</property>
    <property name="shotcut:hash">aa85aa116be06a5d6f338211a6e27b20</property>
    <property name="global_feed">1</property>
    <property name="shotcut:caption">20200928_214111.m4a</property>
    <property name="shotcut:defaultAudioIndex">-1</property>
    <property name="xml">was here</property>
  </producer>
  <tractor id="tractor24" global_feed="1" in="00:00:00.000" out="00:00:00.000">
    <property name="shotcut:transition">lumaMix</property>
    <track producer="producer73" in="00:16:09.967" out="00:16:09.967"/>
    <track producer="producer74" in="00:16:12.133" out="00:16:12.133"/>
    <transition id="transition48">
      <property name="a_track">0</property>
      <property name="b_track">1</property>
      <property name="factory">loader</property>
      <property name="mlt_service">luma</property>
      <property name="alpha_over">1</property>
    </transition>
    <transition id="transition49">
      <property name="a_track">0</property>
      <property name="b_track">1</property>
      <property name="mlt_service">mix</property>
      <property name="start">-1</property>
      <property name="accepts_blanks">1</property>
    </transition>
  </tractor>
  <producer id="producer75" in="00:00:00.000" out="00:35:16.050">
    <property name="length">00:35:16.067</property>
    <property name="eof">pause</property>
    <property name="resource">d:/360MoveData/Users/Assassin/Desktop/paper_review/0002 reparameteizable subset sampling via continuous relaxations/20200928_214111.m4a</property>
    <property name="audio_index">0</property>
    <property name="video_index">-1</property>
    <property name="mute_on_pause">0</property>
    <property name="mlt_service">avformat-novalidate</property>
    <property name="seekable">1</property>
    <property name="creation_time">2020-09-28T20:26:11</property>
    <property name="shotcut:hash">aa85aa116be06a5d6f338211a6e27b20</property>
    <property name="global_feed">1</property>
    <property name="shotcut:caption">20200928_214111.m4a</property>
    <property name="shotcut:defaultAudioIndex">-1</property>
    <property name="xml">was here</property>
  </producer>
  <producer id="producer76" in="00:00:00.000" out="00:00:08.967">
    <property name="length">00:00:08.983</property>
    <property name="eof">pause</property>
    <property name="resource">d:/360MoveData/Users/Assassin/Desktop/paper_review/0002 reparameteizable subset sampling via continuous relaxations/20201003_175725.m4a</property>
    <property name="audio_index">0</property>
    <property name="video_index">-1</property>
    <property name="mute_on_pause">0</property>
    <property name="mlt_service">avformat-novalidate</property>
    <property name="seekable">1</property>
    <property name="creation_time">2020-10-03T15:57:34</property>
    <property name="shotcut:hash">520536ff6b62ff03aeeb4a612fee5472</property>
    <property name="global_feed">1</property>
    <property name="shotcut:caption">20201003_175725.m4a</property>
    <property name="xml">was here</property>
  </producer>
  <producer id="producer77" in="00:00:00.000" out="00:00:07.750">
    <property name="length">00:00:07.767</property>
    <property name="eof">pause</property>
    <property name="resource">d:/360MoveData/Users/Assassin/Desktop/paper_review/0002 reparameteizable subset sampling via continuous relaxations/20201003_175845.m4a</property>
    <property name="audio_index">0</property>
    <property name="video_index">-1</property>
    <property name="mute_on_pause">0</property>
    <property name="mlt_service">avformat-novalidate</property>
    <property name="seekable">1</property>
    <property name="creation_time">2020-10-03T15:58:53</property>
    <property name="shotcut:hash">8a1473a94d3d14a0a5f2d4a2cf509f36</property>
    <property name="global_feed">1</property>
    <property name="shotcut:caption">20201003_175845.m4a</property>
    <property name="xml">was here</property>
  </producer>
  <producer id="producer78" in="00:00:00.000" out="00:35:16.050">
    <property name="length">00:35:16.067</property>
    <property name="eof">pause</property>
    <property name="resource">d:/360MoveData/Users/Assassin/Desktop/paper_review/0002 reparameteizable subset sampling via continuous relaxations/20200928_214111.m4a</property>
    <property name="audio_index">0</property>
    <property name="video_index">-1</property>
    <property name="mute_on_pause">0</property>
    <property name="mlt_service">avformat-novalidate</property>
    <property name="seekable">1</property>
    <property name="creation_time">2020-09-28T20:26:11</property>
    <property name="shotcut:hash">aa85aa116be06a5d6f338211a6e27b20</property>
    <property name="global_feed">1</property>
    <property name="shotcut:caption">20200928_214111.m4a</property>
    <property name="shotcut:defaultAudioIndex">-1</property>
    <property name="xml">was here</property>
  </producer>
  <producer id="producer79" in="00:00:00.000" out="00:35:16.050">
    <property name="length">00:35:16.067</property>
    <property name="eof">pause</property>
    <property name="resource">d:/360MoveData/Users/Assassin/Desktop/paper_review/0002 reparameteizable subset sampling via continuous relaxations/20200928_214111.m4a</property>
    <property name="audio_index">0</property>
    <property name="video_index">-1</property>
    <property name="mute_on_pause">0</property>
    <property name="mlt_service">avformat-novalidate</property>
    <property name="seekable">1</property>
    <property name="creation_time">2020-09-28T20:26:11</property>
    <property name="shotcut:hash">aa85aa116be06a5d6f338211a6e27b20</property>
    <property name="global_feed">1</property>
    <property name="shotcut:caption">20200928_214111.m4a</property>
    <property name="shotcut:defaultAudioIndex">-1</property>
    <property name="xml">was here</property>
  </producer>
  <producer id="producer80" in="00:00:00.000" out="00:35:16.050">
    <property name="length">00:35:16.067</property>
    <property name="eof">pause</property>
    <property name="resource">d:/360MoveData/Users/Assassin/Desktop/paper_review/0002 reparameteizable subset sampling via continuous relaxations/20200928_214111.m4a</property>
    <property name="audio_index">0</property>
    <property name="video_index">-1</property>
    <property name="mute_on_pause">0</property>
    <property name="mlt_service">avformat-novalidate</property>
    <property name="seekable">1</property>
    <property name="creation_time">2020-09-28T20:26:11</property>
    <property name="shotcut:hash">aa85aa116be06a5d6f338211a6e27b20</property>
    <property name="global_feed">1</property>
    <property name="shotcut:caption">20200928_214111.m4a</property>
    <property name="shotcut:defaultAudioIndex">-1</property>
    <property name="xml">was here</property>
  </producer>
  <producer id="producer81" in="00:00:00.000" out="00:35:16.050">
    <property name="length">00:35:16.067</property>
    <property name="eof">pause</property>
    <property name="resource">d:/360MoveData/Users/Assassin/Desktop/paper_review/0002 reparameteizable subset sampling via continuous relaxations/20200928_214111.m4a</property>
    <property name="audio_index">0</property>
    <property name="video_index">-1</property>
    <property name="mute_on_pause">0</property>
    <property name="mlt_service">avformat-novalidate</property>
    <property name="seekable">1</property>
    <property name="creation_time">2020-09-28T20:26:11</property>
    <property name="shotcut:hash">aa85aa116be06a5d6f338211a6e27b20</property>
    <property name="global_feed">1</property>
    <property name="shotcut:caption">20200928_214111.m4a</property>
    <property name="shotcut:defaultAudioIndex">-1</property>
    <property name="xml">was here</property>
  </producer>
  <producer id="producer82" in="00:00:00.000" out="00:35:16.050">
    <property name="length">00:35:16.067</property>
    <property name="eof">pause</property>
    <property name="resource">d:/360MoveData/Users/Assassin/Desktop/paper_review/0002 reparameteizable subset sampling via continuous relaxations/20200928_214111.m4a</property>
    <property name="audio_index">0</property>
    <property name="video_index">-1</property>
    <property name="mute_on_pause">0</property>
    <property name="mlt_service">avformat-novalidate</property>
    <property name="seekable">1</property>
    <property name="creation_time">2020-09-28T20:26:11</property>
    <property name="shotcut:hash">aa85aa116be06a5d6f338211a6e27b20</property>
    <property name="global_feed">1</property>
    <property name="shotcut:caption">20200928_214111.m4a</property>
    <property name="shotcut:defaultAudioIndex">-1</property>
    <property name="xml">was here</property>
  </producer>
  <producer id="producer83" in="00:00:00.000" out="00:35:16.050">
    <property name="length">00:35:16.067</property>
    <property name="eof">pause</property>
    <property name="resource">d:/360MoveData/Users/Assassin/Desktop/paper_review/0002 reparameteizable subset sampling via continuous relaxations/20200928_214111.m4a</property>
    <property name="audio_index">0</property>
    <property name="video_index">-1</property>
    <property name="mute_on_pause">0</property>
    <property name="mlt_service">avformat-novalidate</property>
    <property name="seekable">1</property>
    <property name="creation_time">2020-09-28T20:26:11</property>
    <property name="shotcut:hash">aa85aa116be06a5d6f338211a6e27b20</property>
    <property name="global_feed">1</property>
    <property name="shotcut:caption">20200928_214111.m4a</property>
    <property name="shotcut:defaultAudioIndex">-1</property>
    <property name="xml">was here</property>
  </producer>
  <producer id="producer84" in="00:00:00.000" out="00:35:16.050">
    <property name="length">00:35:16.067</property>
    <property name="eof">pause</property>
    <property name="resource">d:/360MoveData/Users/Assassin/Desktop/paper_review/0002 reparameteizable subset sampling via continuous relaxations/20200928_214111.m4a</property>
    <property name="audio_index">0</property>
    <property name="video_index">-1</property>
    <property name="mute_on_pause">0</property>
    <property name="mlt_service">avformat-novalidate</property>
    <property name="seekable">1</property>
    <property name="creation_time">2020-09-28T20:26:11</property>
    <property name="shotcut:hash">aa85aa116be06a5d6f338211a6e27b20</property>
    <property name="global_feed">1</property>
    <property name="shotcut:caption">20200928_214111.m4a</property>
    <property name="shotcut:defaultAudioIndex">-1</property>
    <property name="xml">was here</property>
  </producer>
  <producer id="producer85" in="00:00:00.000" out="00:35:16.050">
    <property name="length">00:35:16.067</property>
    <property name="eof">pause</property>
    <property name="resource">d:/360MoveData/Users/Assassin/Desktop/paper_review/0002 reparameteizable subset sampling via continuous relaxations/20200928_214111.m4a</property>
    <property name="audio_index">0</property>
    <property name="video_index">-1</property>
    <property name="mute_on_pause">0</property>
    <property name="mlt_service">avformat-novalidate</property>
    <property name="seekable">1</property>
    <property name="creation_time">2020-09-28T20:26:11</property>
    <property name="shotcut:hash">aa85aa116be06a5d6f338211a6e27b20</property>
    <property name="global_feed">1</property>
    <property name="shotcut:caption">20200928_214111.m4a</property>
    <property name="shotcut:defaultAudioIndex">-1</property>
    <property name="xml">was here</property>
  </producer>
  <producer id="producer86" in="00:00:00.000" out="00:35:16.050">
    <property name="length">00:35:16.067</property>
    <property name="eof">pause</property>
    <property name="resource">d:/360MoveData/Users/Assassin/Desktop/paper_review/0002 reparameteizable subset sampling via continuous relaxations/20200928_214111.m4a</property>
    <property name="audio_index">0</property>
    <property name="video_index">-1</property>
    <property name="mute_on_pause">0</property>
    <property name="mlt_service">avformat-novalidate</property>
    <property name="seekable">1</property>
    <property name="creation_time">2020-09-28T20:26:11</property>
    <property name="shotcut:hash">aa85aa116be06a5d6f338211a6e27b20</property>
    <property name="global_feed">1</property>
    <property name="shotcut:caption">20200928_214111.m4a</property>
    <property name="shotcut:defaultAudioIndex">-1</property>
    <property name="xml">was here</property>
  </producer>
  <producer id="producer87" in="00:00:00.000" out="00:35:16.050">
    <property name="length">00:35:16.067</property>
    <property name="eof">pause</property>
    <property name="resource">d:/360MoveData/Users/Assassin/Desktop/paper_review/0002 reparameteizable subset sampling via continuous relaxations/20200928_214111.m4a</property>
    <property name="audio_index">0</property>
    <property name="video_index">-1</property>
    <property name="mute_on_pause">0</property>
    <property name="mlt_service">avformat-novalidate</property>
    <property name="seekable">1</property>
    <property name="creation_time">2020-09-28T20:26:11</property>
    <property name="shotcut:hash">aa85aa116be06a5d6f338211a6e27b20</property>
    <property name="global_feed">1</property>
    <property name="shotcut:caption">20200928_214111.m4a</property>
    <property name="shotcut:defaultAudioIndex">-1</property>
    <property name="xml">was here</property>
  </producer>
  <producer id="producer88" in="00:00:00.000" out="00:35:16.050">
    <property name="length">00:35:16.067</property>
    <property name="eof">pause</property>
    <property name="resource">d:/360MoveData/Users/Assassin/Desktop/paper_review/0002 reparameteizable subset sampling via continuous relaxations/20200928_214111.m4a</property>
    <property name="audio_index">0</property>
    <property name="video_index">-1</property>
    <property name="mute_on_pause">0</property>
    <property name="mlt_service">avformat-novalidate</property>
    <property name="seekable">1</property>
    <property name="creation_time">2020-09-28T20:26:11</property>
    <property name="shotcut:hash">aa85aa116be06a5d6f338211a6e27b20</property>
    <property name="global_feed">1</property>
    <property name="shotcut:caption">20200928_214111.m4a</property>
    <property name="shotcut:defaultAudioIndex">-1</property>
    <property name="xml">was here</property>
  </producer>
  <producer id="producer89" in="00:00:00.000" out="00:35:16.050">
    <property name="length">00:35:16.067</property>
    <property name="eof">pause</property>
    <property name="resource">d:/360MoveData/Users/Assassin/Desktop/paper_review/0002 reparameteizable subset sampling via continuous relaxations/20200928_214111.m4a</property>
    <property name="audio_index">0</property>
    <property name="video_index">-1</property>
    <property name="mute_on_pause">0</property>
    <property name="mlt_service">avformat-novalidate</property>
    <property name="seekable">1</property>
    <property name="creation_time">2020-09-28T20:26:11</property>
    <property name="shotcut:hash">aa85aa116be06a5d6f338211a6e27b20</property>
    <property name="global_feed">1</property>
    <property name="shotcut:caption">20200928_214111.m4a</property>
    <property name="shotcut:defaultAudioIndex">-1</property>
    <property name="xml">was here</property>
  </producer>
  <producer id="producer90" in="00:00:00.000" out="00:35:16.050">
    <property name="length">00:35:16.067</property>
    <property name="eof">pause</property>
    <property name="resource">d:/360MoveData/Users/Assassin/Desktop/paper_review/0002 reparameteizable subset sampling via continuous relaxations/20200928_214111.m4a</property>
    <property name="audio_index">0</property>
    <property name="video_index">-1</property>
    <property name="mute_on_pause">0</property>
    <property name="mlt_service">avformat-novalidate</property>
    <property name="seekable">1</property>
    <property name="creation_time">2020-09-28T20:26:11</property>
    <property name="shotcut:hash">aa85aa116be06a5d6f338211a6e27b20</property>
    <property name="global_feed">1</property>
    <property name="shotcut:caption">20200928_214111.m4a</property>
    <property name="shotcut:defaultAudioIndex">-1</property>
    <property name="xml">was here</property>
  </producer>
  <producer id="producer91" in="00:00:00.000" out="00:35:16.050">
    <property name="length">00:35:16.067</property>
    <property name="eof">pause</property>
    <property name="resource">d:/360MoveData/Users/Assassin/Desktop/paper_review/0002 reparameteizable subset sampling via continuous relaxations/20200928_214111.m4a</property>
    <property name="audio_index">0</property>
    <property name="video_index">-1</property>
    <property name="mute_on_pause">0</property>
    <property name="mlt_service">avformat-novalidate</property>
    <property name="seekable">1</property>
    <property name="creation_time">2020-09-28T20:26:11</property>
    <property name="shotcut:hash">aa85aa116be06a5d6f338211a6e27b20</property>
    <property name="global_feed">1</property>
    <property name="shotcut:caption">20200928_214111.m4a</property>
    <property name="shotcut:defaultAudioIndex">-1</property>
    <property name="xml">was here</property>
  </producer>
  <producer id="producer92" in="00:00:00.000" out="00:35:16.050">
    <property name="length">00:35:16.067</property>
    <property name="eof">pause</property>
    <property name="resource">d:/360MoveData/Users/Assassin/Desktop/paper_review/0002 reparameteizable subset sampling via continuous relaxations/20200928_214111.m4a</property>
    <property name="audio_index">0</property>
    <property name="video_index">-1</property>
    <property name="mute_on_pause">0</property>
    <property name="mlt_service">avformat-novalidate</property>
    <property name="seekable">1</property>
    <property name="creation_time">2020-09-28T20:26:11</property>
    <property name="shotcut:hash">aa85aa116be06a5d6f338211a6e27b20</property>
    <property name="global_feed">1</property>
    <property name="shotcut:caption">20200928_214111.m4a</property>
    <property name="shotcut:defaultAudioIndex">-1</property>
    <property name="xml">was here</property>
  </producer>
  <tractor id="tractor25" global_feed="1" in="00:00:00.000" out="00:00:00.017">
    <property name="shotcut:transition">lumaMix</property>
    <track producer="producer91" in="00:18:30.817" out="00:18:30.833"/>
    <track producer="producer92" in="00:18:32.017" out="00:18:32.033"/>
    <transition id="transition50" out="00:00:00.017">
      <property name="a_track">0</property>
      <property name="b_track">1</property>
      <property name="factory">loader</property>
      <property name="mlt_service">luma</property>
      <property name="alpha_over">1</property>
    </transition>
    <transition id="transition51" out="00:00:00.017">
      <property name="a_track">0</property>
      <property name="b_track">1</property>
      <property name="mlt_service">mix</property>
      <property name="start">-1</property>
      <property name="accepts_blanks">1</property>
    </transition>
  </tractor>
  <producer id="producer93" in="00:00:00.000" out="00:35:16.050">
    <property name="length">00:35:16.067</property>
    <property name="eof">pause</property>
    <property name="resource">d:/360MoveData/Users/Assassin/Desktop/paper_review/0002 reparameteizable subset sampling via continuous relaxations/20200928_214111.m4a</property>
    <property name="audio_index">0</property>
    <property name="video_index">-1</property>
    <property name="mute_on_pause">0</property>
    <property name="mlt_service">avformat-novalidate</property>
    <property name="seekable">1</property>
    <property name="creation_time">2020-09-28T20:26:11</property>
    <property name="shotcut:hash">aa85aa116be06a5d6f338211a6e27b20</property>
    <property name="global_feed">1</property>
    <property name="shotcut:caption">20200928_214111.m4a</property>
    <property name="shotcut:defaultAudioIndex">-1</property>
    <property name="xml">was here</property>
  </producer>
  <producer id="producer94" in="00:00:00.000" out="00:35:16.050">
    <property name="length">00:35:16.067</property>
    <property name="eof">pause</property>
    <property name="resource">d:/360MoveData/Users/Assassin/Desktop/paper_review/0002 reparameteizable subset sampling via continuous relaxations/20200928_214111.m4a</property>
    <property name="audio_index">0</property>
    <property name="video_index">-1</property>
    <property name="mute_on_pause">0</property>
    <property name="mlt_service">avformat-novalidate</property>
    <property name="seekable">1</property>
    <property name="creation_time">2020-09-28T20:26:11</property>
    <property name="shotcut:hash">aa85aa116be06a5d6f338211a6e27b20</property>
    <property name="global_feed">1</property>
    <property name="shotcut:caption">20200928_214111.m4a</property>
    <property name="shotcut:defaultAudioIndex">-1</property>
    <property name="xml">was here</property>
  </producer>
  <producer id="producer95" in="00:00:00.000" out="00:35:16.050">
    <property name="length">00:35:16.067</property>
    <property name="eof">pause</property>
    <property name="resource">d:/360MoveData/Users/Assassin/Desktop/paper_review/0002 reparameteizable subset sampling via continuous relaxations/20200928_214111.m4a</property>
    <property name="audio_index">0</property>
    <property name="video_index">-1</property>
    <property name="mute_on_pause">0</property>
    <property name="mlt_service">avformat-novalidate</property>
    <property name="seekable">1</property>
    <property name="creation_time">2020-09-28T20:26:11</property>
    <property name="shotcut:hash">aa85aa116be06a5d6f338211a6e27b20</property>
    <property name="global_feed">1</property>
    <property name="shotcut:caption">20200928_214111.m4a</property>
    <property name="shotcut:defaultAudioIndex">-1</property>
    <property name="xml">was here</property>
  </producer>
  <tractor id="tractor12" global_feed="1" in="00:00:00.000" out="00:00:00.000">
    <property name="shotcut:transition">lumaMix</property>
    <track producer="producer94" in="00:21:24.583" out="00:21:24.583"/>
    <track producer="producer95" in="00:21:26.000" out="00:21:26.000"/>
    <transition id="transition24">
      <property name="a_track">0</property>
      <property name="b_track">1</property>
      <property name="factory">loader</property>
      <property name="mlt_service">luma</property>
      <property name="alpha_over">1</property>
    </transition>
    <transition id="transition25">
      <property name="a_track">0</property>
      <property name="b_track">1</property>
      <property name="mlt_service">mix</property>
      <property name="start">-1</property>
      <property name="accepts_blanks">1</property>
    </transition>
  </tractor>
  <producer id="producer96" in="00:00:00.000" out="00:35:16.050">
    <property name="length">00:35:16.067</property>
    <property name="eof">pause</property>
    <property name="resource">d:/360MoveData/Users/Assassin/Desktop/paper_review/0002 reparameteizable subset sampling via continuous relaxations/20200928_214111.m4a</property>
    <property name="audio_index">0</property>
    <property name="video_index">-1</property>
    <property name="mute_on_pause">0</property>
    <property name="mlt_service">avformat-novalidate</property>
    <property name="seekable">1</property>
    <property name="creation_time">2020-09-28T20:26:11</property>
    <property name="shotcut:hash">aa85aa116be06a5d6f338211a6e27b20</property>
    <property name="global_feed">1</property>
    <property name="shotcut:caption">20200928_214111.m4a</property>
    <property name="shotcut:defaultAudioIndex">-1</property>
    <property name="xml">was here</property>
  </producer>
  <producer id="producer97" in="00:00:00.000" out="00:35:16.050">
    <property name="length">00:35:16.067</property>
    <property name="eof">pause</property>
    <property name="resource">d:/360MoveData/Users/Assassin/Desktop/paper_review/0002 reparameteizable subset sampling via continuous relaxations/20200928_214111.m4a</property>
    <property name="audio_index">0</property>
    <property name="video_index">-1</property>
    <property name="mute_on_pause">0</property>
    <property name="mlt_service">avformat-novalidate</property>
    <property name="seekable">1</property>
    <property name="creation_time">2020-09-28T20:26:11</property>
    <property name="shotcut:hash">aa85aa116be06a5d6f338211a6e27b20</property>
    <property name="global_feed">1</property>
    <property name="shotcut:caption">20200928_214111.m4a</property>
    <property name="shotcut:defaultAudioIndex">-1</property>
    <property name="xml">was here</property>
  </producer>
  <producer id="producer98" in="00:00:00.000" out="00:35:16.050">
    <property name="length">00:35:16.067</property>
    <property name="eof">pause</property>
    <property name="resource">d:/360MoveData/Users/Assassin/Desktop/paper_review/0002 reparameteizable subset sampling via continuous relaxations/20200928_214111.m4a</property>
    <property name="audio_index">0</property>
    <property name="video_index">-1</property>
    <property name="mute_on_pause">0</property>
    <property name="mlt_service">avformat-novalidate</property>
    <property name="seekable">1</property>
    <property name="creation_time">2020-09-28T20:26:11</property>
    <property name="shotcut:hash">aa85aa116be06a5d6f338211a6e27b20</property>
    <property name="global_feed">1</property>
    <property name="shotcut:caption">20200928_214111.m4a</property>
    <property name="shotcut:defaultAudioIndex">-1</property>
    <property name="xml">was here</property>
  </producer>
  <producer id="producer99" in="00:00:00.000" out="00:35:16.050">
    <property name="length">00:35:16.067</property>
    <property name="eof">pause</property>
    <property name="resource">d:/360MoveData/Users/Assassin/Desktop/paper_review/0002 reparameteizable subset sampling via continuous relaxations/20200928_214111.m4a</property>
    <property name="audio_index">0</property>
    <property name="video_index">-1</property>
    <property name="mute_on_pause">0</property>
    <property name="mlt_service">avformat-novalidate</property>
    <property name="seekable">1</property>
    <property name="creation_time">2020-09-28T20:26:11</property>
    <property name="shotcut:hash">aa85aa116be06a5d6f338211a6e27b20</property>
    <property name="global_feed">1</property>
    <property name="shotcut:caption">20200928_214111.m4a</property>
    <property name="shotcut:defaultAudioIndex">-1</property>
    <property name="xml">was here</property>
  </producer>
  <producer id="producer100" in="00:00:00.000" out="00:35:16.050">
    <property name="length">00:35:16.067</property>
    <property name="eof">pause</property>
    <property name="resource">d:/360MoveData/Users/Assassin/Desktop/paper_review/0002 reparameteizable subset sampling via continuous relaxations/20200928_214111.m4a</property>
    <property name="audio_index">0</property>
    <property name="video_index">-1</property>
    <property name="mute_on_pause">0</property>
    <property name="mlt_service">avformat-novalidate</property>
    <property name="seekable">1</property>
    <property name="creation_time">2020-09-28T20:26:11</property>
    <property name="shotcut:hash">aa85aa116be06a5d6f338211a6e27b20</property>
    <property name="global_feed">1</property>
    <property name="shotcut:caption">20200928_214111.m4a</property>
    <property name="shotcut:defaultAudioIndex">-1</property>
    <property name="xml">was here</property>
  </producer>
  <producer id="producer101" in="00:00:00.000" out="00:35:16.050">
    <property name="length">00:35:16.067</property>
    <property name="eof">pause</property>
    <property name="resource">d:/360MoveData/Users/Assassin/Desktop/paper_review/0002 reparameteizable subset sampling via continuous relaxations/20200928_214111.m4a</property>
    <property name="audio_index">0</property>
    <property name="video_index">-1</property>
    <property name="mute_on_pause">0</property>
    <property name="mlt_service">avformat-novalidate</property>
    <property name="seekable">1</property>
    <property name="creation_time">2020-09-28T20:26:11</property>
    <property name="shotcut:hash">aa85aa116be06a5d6f338211a6e27b20</property>
    <property name="global_feed">1</property>
    <property name="shotcut:caption">20200928_214111.m4a</property>
    <property name="shotcut:defaultAudioIndex">-1</property>
    <property name="xml">was here</property>
  </producer>
  <producer id="producer102" in="00:00:00.000" out="00:35:16.050">
    <property name="length">00:35:16.067</property>
    <property name="eof">pause</property>
    <property name="resource">d:/360MoveData/Users/Assassin/Desktop/paper_review/0002 reparameteizable subset sampling via continuous relaxations/20200928_214111.m4a</property>
    <property name="audio_index">0</property>
    <property name="video_index">-1</property>
    <property name="mute_on_pause">0</property>
    <property name="mlt_service">avformat-novalidate</property>
    <property name="seekable">1</property>
    <property name="creation_time">2020-09-28T20:26:11</property>
    <property name="shotcut:hash">aa85aa116be06a5d6f338211a6e27b20</property>
    <property name="global_feed">1</property>
    <property name="shotcut:caption">20200928_214111.m4a</property>
    <property name="shotcut:defaultAudioIndex">-1</property>
    <property name="xml">was here</property>
  </producer>
  <producer id="producer103" in="00:00:00.000" out="00:35:16.050">
    <property name="length">00:35:16.067</property>
    <property name="eof">pause</property>
    <property name="resource">d:/360MoveData/Users/Assassin/Desktop/paper_review/0002 reparameteizable subset sampling via continuous relaxations/20200928_214111.m4a</property>
    <property name="audio_index">0</property>
    <property name="video_index">-1</property>
    <property name="mute_on_pause">0</property>
    <property name="mlt_service">avformat-novalidate</property>
    <property name="seekable">1</property>
    <property name="creation_time">2020-09-28T20:26:11</property>
    <property name="shotcut:hash">aa85aa116be06a5d6f338211a6e27b20</property>
    <property name="global_feed">1</property>
    <property name="shotcut:caption">20200928_214111.m4a</property>
    <property name="shotcut:defaultAudioIndex">-1</property>
    <property name="xml">was here</property>
  </producer>
  <producer id="producer104" in="00:00:00.000" out="00:35:16.050">
    <property name="length">00:35:16.067</property>
    <property name="eof">pause</property>
    <property name="resource">d:/360MoveData/Users/Assassin/Desktop/paper_review/0002 reparameteizable subset sampling via continuous relaxations/20200928_214111.m4a</property>
    <property name="audio_index">0</property>
    <property name="video_index">-1</property>
    <property name="mute_on_pause">0</property>
    <property name="mlt_service">avformat-novalidate</property>
    <property name="seekable">1</property>
    <property name="creation_time">2020-09-28T20:26:11</property>
    <property name="shotcut:hash">aa85aa116be06a5d6f338211a6e27b20</property>
    <property name="global_feed">1</property>
    <property name="shotcut:caption">20200928_214111.m4a</property>
    <property name="shotcut:defaultAudioIndex">-1</property>
    <property name="xml">was here</property>
  </producer>
  <producer id="producer105" in="00:00:00.000" out="00:35:16.050">
    <property name="length">00:35:16.067</property>
    <property name="eof">pause</property>
    <property name="resource">d:/360MoveData/Users/Assassin/Desktop/paper_review/0002 reparameteizable subset sampling via continuous relaxations/20200928_214111.m4a</property>
    <property name="audio_index">0</property>
    <property name="video_index">-1</property>
    <property name="mute_on_pause">0</property>
    <property name="mlt_service">avformat-novalidate</property>
    <property name="seekable">1</property>
    <property name="creation_time">2020-09-28T20:26:11</property>
    <property name="shotcut:hash">aa85aa116be06a5d6f338211a6e27b20</property>
    <property name="global_feed">1</property>
    <property name="shotcut:caption">20200928_214111.m4a</property>
    <property name="shotcut:defaultAudioIndex">-1</property>
    <property name="xml">was here</property>
  </producer>
  <producer id="producer106" in="00:00:00.000" out="00:35:16.050">
    <property name="length">00:35:16.067</property>
    <property name="eof">pause</property>
    <property name="resource">d:/360MoveData/Users/Assassin/Desktop/paper_review/0002 reparameteizable subset sampling via continuous relaxations/20200928_214111.m4a</property>
    <property name="audio_index">0</property>
    <property name="video_index">-1</property>
    <property name="mute_on_pause">0</property>
    <property name="mlt_service">avformat-novalidate</property>
    <property name="seekable">1</property>
    <property name="creation_time">2020-09-28T20:26:11</property>
    <property name="shotcut:hash">aa85aa116be06a5d6f338211a6e27b20</property>
    <property name="global_feed">1</property>
    <property name="shotcut:caption">20200928_214111.m4a</property>
    <property name="shotcut:defaultAudioIndex">-1</property>
    <property name="xml">was here</property>
  </producer>
  <producer id="producer108" in="00:00:00.000" out="00:35:16.050">
    <property name="length">00:35:16.067</property>
    <property name="eof">pause</property>
    <property name="resource">d:/360MoveData/Users/Assassin/Desktop/paper_review/0002 reparameteizable subset sampling via continuous relaxations/20200928_214111.m4a</property>
    <property name="audio_index">0</property>
    <property name="video_index">-1</property>
    <property name="mute_on_pause">0</property>
    <property name="mlt_service">avformat-novalidate</property>
    <property name="seekable">1</property>
    <property name="creation_time">2020-09-28T20:26:11</property>
    <property name="shotcut:hash">aa85aa116be06a5d6f338211a6e27b20</property>
    <property name="global_feed">1</property>
    <property name="shotcut:caption">20200928_214111.m4a</property>
    <property name="shotcut:defaultAudioIndex">-1</property>
    <property name="xml">was here</property>
  </producer>
  <producer id="producer109" in="00:00:00.000" out="00:35:16.050">
    <property name="length">00:35:16.067</property>
    <property name="eof">pause</property>
    <property name="resource">d:/360MoveData/Users/Assassin/Desktop/paper_review/0002 reparameteizable subset sampling via continuous relaxations/20200928_214111.m4a</property>
    <property name="audio_index">0</property>
    <property name="video_index">-1</property>
    <property name="mute_on_pause">0</property>
    <property name="mlt_service">avformat-novalidate</property>
    <property name="seekable">1</property>
    <property name="creation_time">2020-09-28T20:26:11</property>
    <property name="shotcut:hash">aa85aa116be06a5d6f338211a6e27b20</property>
    <property name="global_feed">1</property>
    <property name="shotcut:caption">20200928_214111.m4a</property>
    <property name="shotcut:defaultAudioIndex">-1</property>
    <property name="xml">was here</property>
  </producer>
  <producer id="producer110" in="00:00:00.000" out="00:35:16.050">
    <property name="length">00:35:16.067</property>
    <property name="eof">pause</property>
    <property name="resource">d:/360MoveData/Users/Assassin/Desktop/paper_review/0002 reparameteizable subset sampling via continuous relaxations/20200928_214111.m4a</property>
    <property name="audio_index">0</property>
    <property name="video_index">-1</property>
    <property name="mute_on_pause">0</property>
    <property name="mlt_service">avformat-novalidate</property>
    <property name="seekable">1</property>
    <property name="creation_time">2020-09-28T20:26:11</property>
    <property name="shotcut:hash">aa85aa116be06a5d6f338211a6e27b20</property>
    <property name="global_feed">1</property>
    <property name="shotcut:caption">20200928_214111.m4a</property>
    <property name="shotcut:defaultAudioIndex">-1</property>
    <property name="xml">was here</property>
  </producer>
  <producer id="producer111" in="00:00:00.000" out="00:35:16.050">
    <property name="length">00:35:16.067</property>
    <property name="eof">pause</property>
    <property name="resource">d:/360MoveData/Users/Assassin/Desktop/paper_review/0002 reparameteizable subset sampling via continuous relaxations/20200928_214111.m4a</property>
    <property name="audio_index">0</property>
    <property name="video_index">-1</property>
    <property name="mute_on_pause">0</property>
    <property name="mlt_service">avformat-novalidate</property>
    <property name="seekable">1</property>
    <property name="creation_time">2020-09-28T20:26:11</property>
    <property name="shotcut:hash">aa85aa116be06a5d6f338211a6e27b20</property>
    <property name="global_feed">1</property>
    <property name="shotcut:caption">20200928_214111.m4a</property>
    <property name="shotcut:defaultAudioIndex">-1</property>
    <property name="xml">was here</property>
  </producer>
  <producer id="producer112" in="00:00:00.000" out="00:35:16.050">
    <property name="length">00:35:16.067</property>
    <property name="eof">pause</property>
    <property name="resource">d:/360MoveData/Users/Assassin/Desktop/paper_review/0002 reparameteizable subset sampling via continuous relaxations/20200928_214111.m4a</property>
    <property name="audio_index">0</property>
    <property name="video_index">-1</property>
    <property name="mute_on_pause">0</property>
    <property name="mlt_service">avformat-novalidate</property>
    <property name="seekable">1</property>
    <property name="creation_time">2020-09-28T20:26:11</property>
    <property name="shotcut:hash">aa85aa116be06a5d6f338211a6e27b20</property>
    <property name="global_feed">1</property>
    <property name="shotcut:caption">20200928_214111.m4a</property>
    <property name="shotcut:defaultAudioIndex">-1</property>
    <property name="xml">was here</property>
  </producer>
  <producer id="producer113" in="00:00:00.000" out="00:35:16.050">
    <property name="length">00:35:16.067</property>
    <property name="eof">pause</property>
    <property name="resource">d:/360MoveData/Users/Assassin/Desktop/paper_review/0002 reparameteizable subset sampling via continuous relaxations/20200928_214111.m4a</property>
    <property name="audio_index">0</property>
    <property name="video_index">-1</property>
    <property name="mute_on_pause">0</property>
    <property name="mlt_service">avformat-novalidate</property>
    <property name="seekable">1</property>
    <property name="creation_time">2020-09-28T20:26:11</property>
    <property name="shotcut:hash">aa85aa116be06a5d6f338211a6e27b20</property>
    <property name="global_feed">1</property>
    <property name="shotcut:caption">20200928_214111.m4a</property>
    <property name="shotcut:defaultAudioIndex">-1</property>
    <property name="xml">was here</property>
  </producer>
  <producer id="producer114" in="00:00:00.000" out="00:35:16.050">
    <property name="length">00:35:16.067</property>
    <property name="eof">pause</property>
    <property name="resource">d:/360MoveData/Users/Assassin/Desktop/paper_review/0002 reparameteizable subset sampling via continuous relaxations/20200928_214111.m4a</property>
    <property name="audio_index">0</property>
    <property name="video_index">-1</property>
    <property name="mute_on_pause">0</property>
    <property name="mlt_service">avformat-novalidate</property>
    <property name="seekable">1</property>
    <property name="creation_time">2020-09-28T20:26:11</property>
    <property name="shotcut:hash">aa85aa116be06a5d6f338211a6e27b20</property>
    <property name="global_feed">1</property>
    <property name="shotcut:caption">20200928_214111.m4a</property>
    <property name="shotcut:defaultAudioIndex">-1</property>
    <property name="xml">was here</property>
  </producer>
  <producer id="producer115" in="00:00:00.000" out="00:35:16.050">
    <property name="length">00:35:16.067</property>
    <property name="eof">pause</property>
    <property name="resource">d:/360MoveData/Users/Assassin/Desktop/paper_review/0002 reparameteizable subset sampling via continuous relaxations/20200928_214111.m4a</property>
    <property name="audio_index">0</property>
    <property name="video_index">-1</property>
    <property name="mute_on_pause">0</property>
    <property name="mlt_service">avformat-novalidate</property>
    <property name="seekable">1</property>
    <property name="creation_time">2020-09-28T20:26:11</property>
    <property name="shotcut:hash">aa85aa116be06a5d6f338211a6e27b20</property>
    <property name="global_feed">1</property>
    <property name="shotcut:caption">20200928_214111.m4a</property>
    <property name="shotcut:defaultAudioIndex">-1</property>
    <property name="xml">was here</property>
  </producer>
  <producer id="producer116" in="00:00:00.000" out="00:35:16.050">
    <property name="length">00:35:16.067</property>
    <property name="eof">pause</property>
    <property name="resource">d:/360MoveData/Users/Assassin/Desktop/paper_review/0002 reparameteizable subset sampling via continuous relaxations/20200928_214111.m4a</property>
    <property name="audio_index">0</property>
    <property name="video_index">-1</property>
    <property name="mute_on_pause">0</property>
    <property name="mlt_service">avformat-novalidate</property>
    <property name="seekable">1</property>
    <property name="creation_time">2020-09-28T20:26:11</property>
    <property name="shotcut:hash">aa85aa116be06a5d6f338211a6e27b20</property>
    <property name="global_feed">1</property>
    <property name="shotcut:caption">20200928_214111.m4a</property>
    <property name="shotcut:defaultAudioIndex">-1</property>
    <property name="xml">was here</property>
  </producer>
  <producer id="producer117" in="00:00:00.000" out="00:35:16.050">
    <property name="length">00:35:16.067</property>
    <property name="eof">pause</property>
    <property name="resource">d:/360MoveData/Users/Assassin/Desktop/paper_review/0002 reparameteizable subset sampling via continuous relaxations/20200928_214111.m4a</property>
    <property name="audio_index">0</property>
    <property name="video_index">-1</property>
    <property name="mute_on_pause">0</property>
    <property name="mlt_service">avformat-novalidate</property>
    <property name="seekable">1</property>
    <property name="creation_time">2020-09-28T20:26:11</property>
    <property name="shotcut:hash">aa85aa116be06a5d6f338211a6e27b20</property>
    <property name="global_feed">1</property>
    <property name="shotcut:caption">20200928_214111.m4a</property>
    <property name="shotcut:defaultAudioIndex">-1</property>
    <property name="xml">was here</property>
  </producer>
  <producer id="producer118" in="00:00:00.000" out="00:35:16.050">
    <property name="length">00:35:16.067</property>
    <property name="eof">pause</property>
    <property name="resource">d:/360MoveData/Users/Assassin/Desktop/paper_review/0002 reparameteizable subset sampling via continuous relaxations/20200928_214111.m4a</property>
    <property name="audio_index">0</property>
    <property name="video_index">-1</property>
    <property name="mute_on_pause">0</property>
    <property name="mlt_service">avformat-novalidate</property>
    <property name="seekable">1</property>
    <property name="creation_time">2020-09-28T20:26:11</property>
    <property name="shotcut:hash">aa85aa116be06a5d6f338211a6e27b20</property>
    <property name="global_feed">1</property>
    <property name="shotcut:caption">20200928_214111.m4a</property>
    <property name="shotcut:defaultAudioIndex">-1</property>
    <property name="xml">was here</property>
  </producer>
  <producer id="producer119" in="00:00:00.000" out="00:35:16.050">
    <property name="length">00:35:16.067</property>
    <property name="eof">pause</property>
    <property name="resource">d:/360MoveData/Users/Assassin/Desktop/paper_review/0002 reparameteizable subset sampling via continuous relaxations/20200928_214111.m4a</property>
    <property name="audio_index">0</property>
    <property name="video_index">-1</property>
    <property name="mute_on_pause">0</property>
    <property name="mlt_service">avformat-novalidate</property>
    <property name="seekable">1</property>
    <property name="creation_time">2020-09-28T20:26:11</property>
    <property name="shotcut:hash">aa85aa116be06a5d6f338211a6e27b20</property>
    <property name="global_feed">1</property>
    <property name="shotcut:caption">20200928_214111.m4a</property>
    <property name="shotcut:defaultAudioIndex">-1</property>
    <property name="xml">was here</property>
  </producer>
  <producer id="producer120" in="00:00:00.000" out="00:35:16.050">
    <property name="length">00:35:16.067</property>
    <property name="eof">pause</property>
    <property name="resource">d:/360MoveData/Users/Assassin/Desktop/paper_review/0002 reparameteizable subset sampling via continuous relaxations/20200928_214111.m4a</property>
    <property name="audio_index">0</property>
    <property name="video_index">-1</property>
    <property name="mute_on_pause">0</property>
    <property name="mlt_service">avformat-novalidate</property>
    <property name="seekable">1</property>
    <property name="creation_time">2020-09-28T20:26:11</property>
    <property name="shotcut:hash">aa85aa116be06a5d6f338211a6e27b20</property>
    <property name="global_feed">1</property>
    <property name="shotcut:caption">20200928_214111.m4a</property>
    <property name="shotcut:defaultAudioIndex">-1</property>
    <property name="xml">was here</property>
  </producer>
  <producer id="producer121" in="00:00:00.000" out="00:35:16.050">
    <property name="length">00:35:16.067</property>
    <property name="eof">pause</property>
    <property name="resource">d:/360MoveData/Users/Assassin/Desktop/paper_review/0002 reparameteizable subset sampling via continuous relaxations/20200928_214111.m4a</property>
    <property name="audio_index">0</property>
    <property name="video_index">-1</property>
    <property name="mute_on_pause">0</property>
    <property name="mlt_service">avformat-novalidate</property>
    <property name="seekable">1</property>
    <property name="creation_time">2020-09-28T20:26:11</property>
    <property name="shotcut:hash">aa85aa116be06a5d6f338211a6e27b20</property>
    <property name="global_feed">1</property>
    <property name="shotcut:caption">20200928_214111.m4a</property>
    <property name="shotcut:defaultAudioIndex">-1</property>
    <property name="xml">was here</property>
  </producer>
  <producer id="producer122" in="00:00:00.000" out="00:35:16.050">
    <property name="length">00:35:16.067</property>
    <property name="eof">pause</property>
    <property name="resource">d:/360MoveData/Users/Assassin/Desktop/paper_review/0002 reparameteizable subset sampling via continuous relaxations/20200928_214111.m4a</property>
    <property name="audio_index">0</property>
    <property name="video_index">-1</property>
    <property name="mute_on_pause">0</property>
    <property name="mlt_service">avformat-novalidate</property>
    <property name="seekable">1</property>
    <property name="creation_time">2020-09-28T20:26:11</property>
    <property name="shotcut:hash">aa85aa116be06a5d6f338211a6e27b20</property>
    <property name="global_feed">1</property>
    <property name="shotcut:caption">20200928_214111.m4a</property>
    <property name="shotcut:defaultAudioIndex">-1</property>
    <property name="xml">was here</property>
  </producer>
  <producer id="producer123" in="00:00:00.000" out="00:35:16.050">
    <property name="length">00:35:16.067</property>
    <property name="eof">pause</property>
    <property name="resource">d:/360MoveData/Users/Assassin/Desktop/paper_review/0002 reparameteizable subset sampling via continuous relaxations/20200928_214111.m4a</property>
    <property name="audio_index">0</property>
    <property name="video_index">-1</property>
    <property name="mute_on_pause">0</property>
    <property name="mlt_service">avformat-novalidate</property>
    <property name="seekable">1</property>
    <property name="creation_time">2020-09-28T20:26:11</property>
    <property name="shotcut:hash">aa85aa116be06a5d6f338211a6e27b20</property>
    <property name="global_feed">1</property>
    <property name="shotcut:caption">20200928_214111.m4a</property>
    <property name="shotcut:defaultAudioIndex">-1</property>
    <property name="xml">was here</property>
  </producer>
  <producer id="producer124" in="00:00:00.000" out="00:35:16.050">
    <property name="length">00:35:16.067</property>
    <property name="eof">pause</property>
    <property name="resource">d:/360MoveData/Users/Assassin/Desktop/paper_review/0002 reparameteizable subset sampling via continuous relaxations/20200928_214111.m4a</property>
    <property name="audio_index">0</property>
    <property name="video_index">-1</property>
    <property name="mute_on_pause">0</property>
    <property name="mlt_service">avformat-novalidate</property>
    <property name="seekable">1</property>
    <property name="creation_time">2020-09-28T20:26:11</property>
    <property name="shotcut:hash">aa85aa116be06a5d6f338211a6e27b20</property>
    <property name="global_feed">1</property>
    <property name="shotcut:caption">20200928_214111.m4a</property>
    <property name="shotcut:defaultAudioIndex">-1</property>
    <property name="xml">was here</property>
  </producer>
  <producer id="producer107" in="00:00:00.000" out="00:35:16.050">
    <property name="length">00:35:16.067</property>
    <property name="eof">pause</property>
    <property name="resource">d:/360MoveData/Users/Assassin/Desktop/paper_review/0002 reparameteizable subset sampling via continuous relaxations/20200928_214111.m4a</property>
    <property name="audio_index">0</property>
    <property name="video_index">-1</property>
    <property name="mute_on_pause">0</property>
    <property name="mlt_service">avformat-novalidate</property>
    <property name="seekable">1</property>
    <property name="creation_time">2020-09-28T20:26:11</property>
    <property name="shotcut:hash">aa85aa116be06a5d6f338211a6e27b20</property>
    <property name="global_feed">1</property>
    <property name="shotcut:caption">20200928_214111.m4a</property>
    <property name="shotcut:defaultAudioIndex">-1</property>
    <property name="xml">was here</property>
  </producer>
  <producer id="producer125" in="00:00:00.000" out="00:35:16.050">
    <property name="length">00:35:16.067</property>
    <property name="eof">pause</property>
    <property name="resource">d:/360MoveData/Users/Assassin/Desktop/paper_review/0002 reparameteizable subset sampling via continuous relaxations/20200928_214111.m4a</property>
    <property name="audio_index">0</property>
    <property name="video_index">-1</property>
    <property name="mute_on_pause">0</property>
    <property name="mlt_service">avformat-novalidate</property>
    <property name="seekable">1</property>
    <property name="creation_time">2020-09-28T20:26:11</property>
    <property name="shotcut:hash">aa85aa116be06a5d6f338211a6e27b20</property>
    <property name="global_feed">1</property>
    <property name="shotcut:caption">20200928_214111.m4a</property>
    <property name="shotcut:defaultAudioIndex">-1</property>
    <property name="xml">was here</property>
  </producer>
  <producer id="producer126" in="00:00:00.000" out="00:35:16.050">
    <property name="length">00:35:16.067</property>
    <property name="eof">pause</property>
    <property name="resource">d:/360MoveData/Users/Assassin/Desktop/paper_review/0002 reparameteizable subset sampling via continuous relaxations/20200928_214111.m4a</property>
    <property name="audio_index">0</property>
    <property name="video_index">-1</property>
    <property name="mute_on_pause">0</property>
    <property name="mlt_service">avformat-novalidate</property>
    <property name="seekable">1</property>
    <property name="creation_time">2020-09-28T20:26:11</property>
    <property name="shotcut:hash">aa85aa116be06a5d6f338211a6e27b20</property>
    <property name="global_feed">1</property>
    <property name="shotcut:caption">20200928_214111.m4a</property>
    <property name="shotcut:defaultAudioIndex">-1</property>
    <property name="xml">was here</property>
  </producer>
  <producer id="producer127" in="00:00:00.000" out="00:35:16.050">
    <property name="length">00:35:16.067</property>
    <property name="eof">pause</property>
    <property name="resource">d:/360MoveData/Users/Assassin/Desktop/paper_review/0002 reparameteizable subset sampling via continuous relaxations/20200928_214111.m4a</property>
    <property name="audio_index">0</property>
    <property name="video_index">-1</property>
    <property name="mute_on_pause">0</property>
    <property name="mlt_service">avformat-novalidate</property>
    <property name="seekable">1</property>
    <property name="creation_time">2020-09-28T20:26:11</property>
    <property name="shotcut:hash">aa85aa116be06a5d6f338211a6e27b20</property>
    <property name="global_feed">1</property>
    <property name="shotcut:caption">20200928_214111.m4a</property>
    <property name="shotcut:defaultAudioIndex">-1</property>
    <property name="xml">was here</property>
  </producer>
  <producer id="producer128" in="00:00:00.000" out="00:35:16.050">
    <property name="length">00:35:16.067</property>
    <property name="eof">pause</property>
    <property name="resource">d:/360MoveData/Users/Assassin/Desktop/paper_review/0002 reparameteizable subset sampling via continuous relaxations/20200928_214111.m4a</property>
    <property name="audio_index">0</property>
    <property name="video_index">-1</property>
    <property name="mute_on_pause">0</property>
    <property name="mlt_service">avformat-novalidate</property>
    <property name="seekable">1</property>
    <property name="creation_time">2020-09-28T20:26:11</property>
    <property name="shotcut:hash">aa85aa116be06a5d6f338211a6e27b20</property>
    <property name="global_feed">1</property>
    <property name="shotcut:caption">20200928_214111.m4a</property>
    <property name="shotcut:defaultAudioIndex">-1</property>
    <property name="xml">was here</property>
  </producer>
  <producer id="producer129" in="00:00:00.000" out="00:35:16.050">
    <property name="length">00:35:16.067</property>
    <property name="eof">pause</property>
    <property name="resource">d:/360MoveData/Users/Assassin/Desktop/paper_review/0002 reparameteizable subset sampling via continuous relaxations/20200928_214111.m4a</property>
    <property name="audio_index">0</property>
    <property name="video_index">-1</property>
    <property name="mute_on_pause">0</property>
    <property name="mlt_service">avformat-novalidate</property>
    <property name="seekable">1</property>
    <property name="creation_time">2020-09-28T20:26:11</property>
    <property name="shotcut:hash">aa85aa116be06a5d6f338211a6e27b20</property>
    <property name="global_feed">1</property>
    <property name="shotcut:caption">20200928_214111.m4a</property>
    <property name="shotcut:defaultAudioIndex">-1</property>
    <property name="xml">was here</property>
  </producer>
  <producer id="producer130" in="00:00:00.000" out="00:35:16.050">
    <property name="length">00:35:16.067</property>
    <property name="eof">pause</property>
    <property name="resource">d:/360MoveData/Users/Assassin/Desktop/paper_review/0002 reparameteizable subset sampling via continuous relaxations/20200928_214111.m4a</property>
    <property name="audio_index">0</property>
    <property name="video_index">-1</property>
    <property name="mute_on_pause">0</property>
    <property name="mlt_service">avformat-novalidate</property>
    <property name="seekable">1</property>
    <property name="creation_time">2020-09-28T20:26:11</property>
    <property name="shotcut:hash">aa85aa116be06a5d6f338211a6e27b20</property>
    <property name="global_feed">1</property>
    <property name="shotcut:caption">20200928_214111.m4a</property>
    <property name="shotcut:defaultAudioIndex">-1</property>
    <property name="xml">was here</property>
  </producer>
  <producer id="producer131" in="00:00:00.000" out="00:35:16.050">
    <property name="length">00:35:16.067</property>
    <property name="eof">pause</property>
    <property name="resource">d:/360MoveData/Users/Assassin/Desktop/paper_review/0002 reparameteizable subset sampling via continuous relaxations/20200928_214111.m4a</property>
    <property name="audio_index">0</property>
    <property name="video_index">-1</property>
    <property name="mute_on_pause">0</property>
    <property name="mlt_service">avformat-novalidate</property>
    <property name="seekable">1</property>
    <property name="creation_time">2020-09-28T20:26:11</property>
    <property name="shotcut:hash">aa85aa116be06a5d6f338211a6e27b20</property>
    <property name="global_feed">1</property>
    <property name="shotcut:caption">20200928_214111.m4a</property>
    <property name="shotcut:defaultAudioIndex">-1</property>
    <property name="xml">was here</property>
  </producer>
  <producer id="producer132" in="00:00:00.000" out="00:35:16.050">
    <property name="length">00:35:16.067</property>
    <property name="eof">pause</property>
    <property name="resource">d:/360MoveData/Users/Assassin/Desktop/paper_review/0002 reparameteizable subset sampling via continuous relaxations/20200928_214111.m4a</property>
    <property name="audio_index">0</property>
    <property name="video_index">-1</property>
    <property name="mute_on_pause">0</property>
    <property name="mlt_service">avformat-novalidate</property>
    <property name="seekable">1</property>
    <property name="creation_time">2020-09-28T20:26:11</property>
    <property name="shotcut:hash">aa85aa116be06a5d6f338211a6e27b20</property>
    <property name="global_feed">1</property>
    <property name="shotcut:caption">20200928_214111.m4a</property>
    <property name="shotcut:defaultAudioIndex">-1</property>
    <property name="xml">was here</property>
  </producer>
  <producer id="producer133" in="00:00:00.000" out="00:35:16.050">
    <property name="length">00:35:16.067</property>
    <property name="eof">pause</property>
    <property name="resource">d:/360MoveData/Users/Assassin/Desktop/paper_review/0002 reparameteizable subset sampling via continuous relaxations/20200928_214111.m4a</property>
    <property name="audio_index">0</property>
    <property name="video_index">-1</property>
    <property name="mute_on_pause">0</property>
    <property name="mlt_service">avformat-novalidate</property>
    <property name="seekable">1</property>
    <property name="creation_time">2020-09-28T20:26:11</property>
    <property name="shotcut:hash">aa85aa116be06a5d6f338211a6e27b20</property>
    <property name="global_feed">1</property>
    <property name="shotcut:caption">20200928_214111.m4a</property>
    <property name="shotcut:defaultAudioIndex">-1</property>
    <property name="xml">was here</property>
  </producer>
  <producer id="producer134" in="00:00:00.000" out="00:35:16.050">
    <property name="length">00:35:16.067</property>
    <property name="eof">pause</property>
    <property name="resource">d:/360MoveData/Users/Assassin/Desktop/paper_review/0002 reparameteizable subset sampling via continuous relaxations/20200928_214111.m4a</property>
    <property name="audio_index">0</property>
    <property name="video_index">-1</property>
    <property name="mute_on_pause">0</property>
    <property name="mlt_service">avformat-novalidate</property>
    <property name="seekable">1</property>
    <property name="creation_time">2020-09-28T20:26:11</property>
    <property name="shotcut:hash">aa85aa116be06a5d6f338211a6e27b20</property>
    <property name="global_feed">1</property>
    <property name="shotcut:caption">20200928_214111.m4a</property>
    <property name="shotcut:defaultAudioIndex">-1</property>
    <property name="xml">was here</property>
  </producer>
  <producer id="producer135" in="00:00:00.000" out="00:35:16.050">
    <property name="length">00:35:16.067</property>
    <property name="eof">pause</property>
    <property name="resource">d:/360MoveData/Users/Assassin/Desktop/paper_review/0002 reparameteizable subset sampling via continuous relaxations/20200928_214111.m4a</property>
    <property name="audio_index">0</property>
    <property name="video_index">-1</property>
    <property name="mute_on_pause">0</property>
    <property name="mlt_service">avformat-novalidate</property>
    <property name="seekable">1</property>
    <property name="creation_time">2020-09-28T20:26:11</property>
    <property name="shotcut:hash">aa85aa116be06a5d6f338211a6e27b20</property>
    <property name="global_feed">1</property>
    <property name="shotcut:caption">20200928_214111.m4a</property>
    <property name="shotcut:defaultAudioIndex">-1</property>
    <property name="xml">was here</property>
  </producer>
  <producer id="producer136" in="00:00:00.000" out="00:35:16.050">
    <property name="length">00:35:16.067</property>
    <property name="eof">pause</property>
    <property name="resource">d:/360MoveData/Users/Assassin/Desktop/paper_review/0002 reparameteizable subset sampling via continuous relaxations/20200928_214111.m4a</property>
    <property name="audio_index">0</property>
    <property name="video_index">-1</property>
    <property name="mute_on_pause">0</property>
    <property name="mlt_service">avformat-novalidate</property>
    <property name="seekable">1</property>
    <property name="creation_time">2020-09-28T20:26:11</property>
    <property name="shotcut:hash">aa85aa116be06a5d6f338211a6e27b20</property>
    <property name="global_feed">1</property>
    <property name="shotcut:caption">20200928_214111.m4a</property>
    <property name="shotcut:defaultAudioIndex">-1</property>
    <property name="xml">was here</property>
  </producer>
  <producer id="producer137" in="00:00:00.000" out="00:35:16.050">
    <property name="length">00:35:16.067</property>
    <property name="eof">pause</property>
    <property name="resource">d:/360MoveData/Users/Assassin/Desktop/paper_review/0002 reparameteizable subset sampling via continuous relaxations/20200928_214111.m4a</property>
    <property name="audio_index">0</property>
    <property name="video_index">-1</property>
    <property name="mute_on_pause">0</property>
    <property name="mlt_service">avformat-novalidate</property>
    <property name="seekable">1</property>
    <property name="creation_time">2020-09-28T20:26:11</property>
    <property name="shotcut:hash">aa85aa116be06a5d6f338211a6e27b20</property>
    <property name="global_feed">1</property>
    <property name="shotcut:caption">20200928_214111.m4a</property>
    <property name="shotcut:defaultAudioIndex">-1</property>
    <property name="xml">was here</property>
  </producer>
  <producer id="producer138" in="00:00:00.000" out="00:35:16.050">
    <property name="length">00:35:16.067</property>
    <property name="eof">pause</property>
    <property name="resource">d:/360MoveData/Users/Assassin/Desktop/paper_review/0002 reparameteizable subset sampling via continuous relaxations/20200928_214111.m4a</property>
    <property name="audio_index">0</property>
    <property name="video_index">-1</property>
    <property name="mute_on_pause">0</property>
    <property name="mlt_service">avformat-novalidate</property>
    <property name="seekable">1</property>
    <property name="creation_time">2020-09-28T20:26:11</property>
    <property name="shotcut:hash">aa85aa116be06a5d6f338211a6e27b20</property>
    <property name="global_feed">1</property>
    <property name="shotcut:caption">20200928_214111.m4a</property>
    <property name="shotcut:defaultAudioIndex">-1</property>
    <property name="xml">was here</property>
  </producer>
  <producer id="producer139" in="00:00:00.000" out="00:35:16.050">
    <property name="length">00:35:16.067</property>
    <property name="eof">pause</property>
    <property name="resource">d:/360MoveData/Users/Assassin/Desktop/paper_review/0002 reparameteizable subset sampling via continuous relaxations/20200928_214111.m4a</property>
    <property name="audio_index">0</property>
    <property name="video_index">-1</property>
    <property name="mute_on_pause">0</property>
    <property name="mlt_service">avformat-novalidate</property>
    <property name="seekable">1</property>
    <property name="creation_time">2020-09-28T20:26:11</property>
    <property name="shotcut:hash">aa85aa116be06a5d6f338211a6e27b20</property>
    <property name="global_feed">1</property>
    <property name="shotcut:caption">20200928_214111.m4a</property>
    <property name="shotcut:defaultAudioIndex">-1</property>
    <property name="xml">was here</property>
  </producer>
  <producer id="producer140" in="00:00:00.000" out="00:35:16.050">
    <property name="length">00:35:16.067</property>
    <property name="eof">pause</property>
    <property name="resource">d:/360MoveData/Users/Assassin/Desktop/paper_review/0002 reparameteizable subset sampling via continuous relaxations/20200928_214111.m4a</property>
    <property name="audio_index">0</property>
    <property name="video_index">-1</property>
    <property name="mute_on_pause">0</property>
    <property name="mlt_service">avformat-novalidate</property>
    <property name="seekable">1</property>
    <property name="creation_time">2020-09-28T20:26:11</property>
    <property name="shotcut:hash">aa85aa116be06a5d6f338211a6e27b20</property>
    <property name="global_feed">1</property>
    <property name="shotcut:caption">20200928_214111.m4a</property>
    <property name="shotcut:defaultAudioIndex">-1</property>
    <property name="xml">was here</property>
  </producer>
  <producer id="producer141" in="00:00:00.000" out="00:35:16.050">
    <property name="length">00:35:16.067</property>
    <property name="eof">pause</property>
    <property name="resource">d:/360MoveData/Users/Assassin/Desktop/paper_review/0002 reparameteizable subset sampling via continuous relaxations/20200928_214111.m4a</property>
    <property name="audio_index">0</property>
    <property name="video_index">-1</property>
    <property name="mute_on_pause">0</property>
    <property name="mlt_service">avformat-novalidate</property>
    <property name="seekable">1</property>
    <property name="creation_time">2020-09-28T20:26:11</property>
    <property name="shotcut:hash">aa85aa116be06a5d6f338211a6e27b20</property>
    <property name="global_feed">1</property>
    <property name="shotcut:caption">20200928_214111.m4a</property>
    <property name="shotcut:defaultAudioIndex">-1</property>
    <property name="xml">was here</property>
  </producer>
  <producer id="producer142" in="00:00:00.000" out="00:35:16.050">
    <property name="length">00:35:16.067</property>
    <property name="eof">pause</property>
    <property name="resource">d:/360MoveData/Users/Assassin/Desktop/paper_review/0002 reparameteizable subset sampling via continuous relaxations/20200928_214111.m4a</property>
    <property name="audio_index">0</property>
    <property name="video_index">-1</property>
    <property name="mute_on_pause">0</property>
    <property name="mlt_service">avformat-novalidate</property>
    <property name="seekable">1</property>
    <property name="creation_time">2020-09-28T20:26:11</property>
    <property name="shotcut:hash">aa85aa116be06a5d6f338211a6e27b20</property>
    <property name="global_feed">1</property>
    <property name="shotcut:caption">20200928_214111.m4a</property>
    <property name="shotcut:defaultAudioIndex">-1</property>
    <property name="xml">was here</property>
  </producer>
  <producer id="producer143" in="00:00:00.000" out="00:35:16.050">
    <property name="length">00:35:16.067</property>
    <property name="eof">pause</property>
    <property name="resource">d:/360MoveData/Users/Assassin/Desktop/paper_review/0002 reparameteizable subset sampling via continuous relaxations/20200928_214111.m4a</property>
    <property name="audio_index">0</property>
    <property name="video_index">-1</property>
    <property name="mute_on_pause">0</property>
    <property name="mlt_service">avformat-novalidate</property>
    <property name="seekable">1</property>
    <property name="creation_time">2020-09-28T20:26:11</property>
    <property name="shotcut:hash">aa85aa116be06a5d6f338211a6e27b20</property>
    <property name="global_feed">1</property>
    <property name="shotcut:caption">20200928_214111.m4a</property>
    <property name="shotcut:defaultAudioIndex">-1</property>
    <property name="xml">was here</property>
  </producer>
  <producer id="producer144" in="00:00:00.000" out="00:35:16.050">
    <property name="length">00:35:16.067</property>
    <property name="eof">pause</property>
    <property name="resource">d:/360MoveData/Users/Assassin/Desktop/paper_review/0002 reparameteizable subset sampling via continuous relaxations/20200928_214111.m4a</property>
    <property name="audio_index">0</property>
    <property name="video_index">-1</property>
    <property name="mute_on_pause">0</property>
    <property name="mlt_service">avformat-novalidate</property>
    <property name="seekable">1</property>
    <property name="creation_time">2020-09-28T20:26:11</property>
    <property name="shotcut:hash">aa85aa116be06a5d6f338211a6e27b20</property>
    <property name="global_feed">1</property>
    <property name="shotcut:caption">20200928_214111.m4a</property>
    <property name="shotcut:defaultAudioIndex">-1</property>
    <property name="xml">was here</property>
  </producer>
  <producer id="producer145" in="00:00:00.000" out="00:35:16.050">
    <property name="length">00:35:16.067</property>
    <property name="eof">pause</property>
    <property name="resource">d:/360MoveData/Users/Assassin/Desktop/paper_review/0002 reparameteizable subset sampling via continuous relaxations/20200928_214111.m4a</property>
    <property name="audio_index">0</property>
    <property name="video_index">-1</property>
    <property name="mute_on_pause">0</property>
    <property name="mlt_service">avformat-novalidate</property>
    <property name="seekable">1</property>
    <property name="creation_time">2020-09-28T20:26:11</property>
    <property name="shotcut:hash">aa85aa116be06a5d6f338211a6e27b20</property>
    <property name="global_feed">1</property>
    <property name="shotcut:caption">20200928_214111.m4a</property>
    <property name="shotcut:defaultAudioIndex">-1</property>
    <property name="xml">was here</property>
  </producer>
  <producer id="producer146" in="00:00:00.000" out="00:35:16.050">
    <property name="length">00:35:16.067</property>
    <property name="eof">pause</property>
    <property name="resource">d:/360MoveData/Users/Assassin/Desktop/paper_review/0002 reparameteizable subset sampling via continuous relaxations/20200928_214111.m4a</property>
    <property name="audio_index">0</property>
    <property name="video_index">-1</property>
    <property name="mute_on_pause">0</property>
    <property name="mlt_service">avformat-novalidate</property>
    <property name="seekable">1</property>
    <property name="creation_time">2020-09-28T20:26:11</property>
    <property name="shotcut:hash">aa85aa116be06a5d6f338211a6e27b20</property>
    <property name="global_feed">1</property>
    <property name="shotcut:caption">20200928_214111.m4a</property>
    <property name="shotcut:defaultAudioIndex">-1</property>
    <property name="xml">was here</property>
  </producer>
  <producer id="producer147" in="00:00:00.000" out="00:35:16.050">
    <property name="length">00:35:16.067</property>
    <property name="eof">pause</property>
    <property name="resource">d:/360MoveData/Users/Assassin/Desktop/paper_review/0002 reparameteizable subset sampling via continuous relaxations/20200928_214111.m4a</property>
    <property name="audio_index">0</property>
    <property name="video_index">-1</property>
    <property name="mute_on_pause">0</property>
    <property name="mlt_service">avformat-novalidate</property>
    <property name="seekable">1</property>
    <property name="creation_time">2020-09-28T20:26:11</property>
    <property name="shotcut:hash">aa85aa116be06a5d6f338211a6e27b20</property>
    <property name="global_feed">1</property>
    <property name="shotcut:caption">20200928_214111.m4a</property>
    <property name="shotcut:defaultAudioIndex">-1</property>
    <property name="xml">was here</property>
  </producer>
  <producer id="producer148" in="00:00:00.000" out="00:35:16.050">
    <property name="length">00:35:16.067</property>
    <property name="eof">pause</property>
    <property name="resource">d:/360MoveData/Users/Assassin/Desktop/paper_review/0002 reparameteizable subset sampling via continuous relaxations/20200928_214111.m4a</property>
    <property name="audio_index">0</property>
    <property name="video_index">-1</property>
    <property name="mute_on_pause">0</property>
    <property name="mlt_service">avformat-novalidate</property>
    <property name="seekable">1</property>
    <property name="creation_time">2020-09-28T20:26:11</property>
    <property name="shotcut:hash">aa85aa116be06a5d6f338211a6e27b20</property>
    <property name="global_feed">1</property>
    <property name="shotcut:caption">20200928_214111.m4a</property>
    <property name="shotcut:defaultAudioIndex">-1</property>
    <property name="xml">was here</property>
  </producer>
  <producer id="producer149" in="00:00:00.000" out="00:35:16.050">
    <property name="length">00:35:16.067</property>
    <property name="eof">pause</property>
    <property name="resource">d:/360MoveData/Users/Assassin/Desktop/paper_review/0002 reparameteizable subset sampling via continuous relaxations/20200928_214111.m4a</property>
    <property name="audio_index">0</property>
    <property name="video_index">-1</property>
    <property name="mute_on_pause">0</property>
    <property name="mlt_service">avformat-novalidate</property>
    <property name="seekable">1</property>
    <property name="creation_time">2020-09-28T20:26:11</property>
    <property name="shotcut:hash">aa85aa116be06a5d6f338211a6e27b20</property>
    <property name="global_feed">1</property>
    <property name="shotcut:caption">20200928_214111.m4a</property>
    <property name="shotcut:defaultAudioIndex">-1</property>
    <property name="xml">was here</property>
  </producer>
  <producer id="producer150" in="00:00:00.000" out="00:35:16.050">
    <property name="length">00:35:16.067</property>
    <property name="eof">pause</property>
    <property name="resource">d:/360MoveData/Users/Assassin/Desktop/paper_review/0002 reparameteizable subset sampling via continuous relaxations/20200928_214111.m4a</property>
    <property name="audio_index">0</property>
    <property name="video_index">-1</property>
    <property name="mute_on_pause">0</property>
    <property name="mlt_service">avformat-novalidate</property>
    <property name="seekable">1</property>
    <property name="creation_time">2020-09-28T20:26:11</property>
    <property name="shotcut:hash">aa85aa116be06a5d6f338211a6e27b20</property>
    <property name="global_feed">1</property>
    <property name="shotcut:caption">20200928_214111.m4a</property>
    <property name="shotcut:defaultAudioIndex">-1</property>
    <property name="xml">was here</property>
  </producer>
  <producer id="producer151" in="00:00:00.000" out="00:35:16.050">
    <property name="length">00:35:16.067</property>
    <property name="eof">pause</property>
    <property name="resource">d:/360MoveData/Users/Assassin/Desktop/paper_review/0002 reparameteizable subset sampling via continuous relaxations/20200928_214111.m4a</property>
    <property name="audio_index">0</property>
    <property name="video_index">-1</property>
    <property name="mute_on_pause">0</property>
    <property name="mlt_service">avformat-novalidate</property>
    <property name="seekable">1</property>
    <property name="creation_time">2020-09-28T20:26:11</property>
    <property name="shotcut:hash">aa85aa116be06a5d6f338211a6e27b20</property>
    <property name="global_feed">1</property>
    <property name="shotcut:caption">20200928_214111.m4a</property>
    <property name="shotcut:defaultAudioIndex">-1</property>
    <property name="xml">was here</property>
  </producer>
  <producer id="producer152" in="00:00:00.000" out="00:35:16.050">
    <property name="length">00:35:16.067</property>
    <property name="eof">pause</property>
    <property name="resource">d:/360MoveData/Users/Assassin/Desktop/paper_review/0002 reparameteizable subset sampling via continuous relaxations/20200928_214111.m4a</property>
    <property name="audio_index">0</property>
    <property name="video_index">-1</property>
    <property name="mute_on_pause">0</property>
    <property name="mlt_service">avformat-novalidate</property>
    <property name="seekable">1</property>
    <property name="creation_time">2020-09-28T20:26:11</property>
    <property name="shotcut:hash">aa85aa116be06a5d6f338211a6e27b20</property>
    <property name="global_feed">1</property>
    <property name="shotcut:caption">20200928_214111.m4a</property>
    <property name="shotcut:defaultAudioIndex">-1</property>
    <property name="xml">was here</property>
  </producer>
  <producer id="producer153" in="00:00:00.000" out="00:35:16.050">
    <property name="length">00:35:16.067</property>
    <property name="eof">pause</property>
    <property name="resource">d:/360MoveData/Users/Assassin/Desktop/paper_review/0002 reparameteizable subset sampling via continuous relaxations/20200928_214111.m4a</property>
    <property name="audio_index">0</property>
    <property name="video_index">-1</property>
    <property name="mute_on_pause">0</property>
    <property name="mlt_service">avformat-novalidate</property>
    <property name="seekable">1</property>
    <property name="creation_time">2020-09-28T20:26:11</property>
    <property name="shotcut:hash">aa85aa116be06a5d6f338211a6e27b20</property>
    <property name="global_feed">1</property>
    <property name="shotcut:caption">20200928_214111.m4a</property>
    <property name="shotcut:defaultAudioIndex">-1</property>
    <property name="xml">was here</property>
  </producer>
  <producer id="producer154" in="00:00:00.000" out="00:35:16.050">
    <property name="length">00:35:16.067</property>
    <property name="eof">pause</property>
    <property name="resource">d:/360MoveData/Users/Assassin/Desktop/paper_review/0002 reparameteizable subset sampling via continuous relaxations/20200928_214111.m4a</property>
    <property name="audio_index">0</property>
    <property name="video_index">-1</property>
    <property name="mute_on_pause">0</property>
    <property name="mlt_service">avformat-novalidate</property>
    <property name="seekable">1</property>
    <property name="creation_time">2020-09-28T20:26:11</property>
    <property name="shotcut:hash">aa85aa116be06a5d6f338211a6e27b20</property>
    <property name="global_feed">1</property>
    <property name="shotcut:caption">20200928_214111.m4a</property>
    <property name="shotcut:defaultAudioIndex">-1</property>
    <property name="xml">was here</property>
  </producer>
  <producer id="producer155" in="00:00:00.000" out="00:35:16.050">
    <property name="length">00:35:16.067</property>
    <property name="eof">pause</property>
    <property name="resource">d:/360MoveData/Users/Assassin/Desktop/paper_review/0002 reparameteizable subset sampling via continuous relaxations/20200928_214111.m4a</property>
    <property name="audio_index">0</property>
    <property name="video_index">-1</property>
    <property name="mute_on_pause">0</property>
    <property name="mlt_service">avformat-novalidate</property>
    <property name="seekable">1</property>
    <property name="creation_time">2020-09-28T20:26:11</property>
    <property name="shotcut:hash">aa85aa116be06a5d6f338211a6e27b20</property>
    <property name="global_feed">1</property>
    <property name="shotcut:caption">20200928_214111.m4a</property>
    <property name="shotcut:defaultAudioIndex">-1</property>
    <property name="xml">was here</property>
  </producer>
  <producer id="producer156" in="00:00:00.000" out="00:35:16.050">
    <property name="length">00:35:16.067</property>
    <property name="eof">pause</property>
    <property name="resource">d:/360MoveData/Users/Assassin/Desktop/paper_review/0002 reparameteizable subset sampling via continuous relaxations/20200928_214111.m4a</property>
    <property name="audio_index">0</property>
    <property name="video_index">-1</property>
    <property name="mute_on_pause">0</property>
    <property name="mlt_service">avformat-novalidate</property>
    <property name="seekable">1</property>
    <property name="creation_time">2020-09-28T20:26:11</property>
    <property name="shotcut:hash">aa85aa116be06a5d6f338211a6e27b20</property>
    <property name="global_feed">1</property>
    <property name="shotcut:caption">20200928_214111.m4a</property>
    <property name="shotcut:defaultAudioIndex">-1</property>
    <property name="xml">was here</property>
  </producer>
  <producer id="producer157" in="00:00:00.000" out="00:35:16.050">
    <property name="length">00:35:16.067</property>
    <property name="eof">pause</property>
    <property name="resource">d:/360MoveData/Users/Assassin/Desktop/paper_review/0002 reparameteizable subset sampling via continuous relaxations/20200928_214111.m4a</property>
    <property name="audio_index">0</property>
    <property name="video_index">-1</property>
    <property name="mute_on_pause">0</property>
    <property name="mlt_service">avformat-novalidate</property>
    <property name="seekable">1</property>
    <property name="creation_time">2020-09-28T20:26:11</property>
    <property name="shotcut:hash">aa85aa116be06a5d6f338211a6e27b20</property>
    <property name="global_feed">1</property>
    <property name="shotcut:caption">20200928_214111.m4a</property>
    <property name="shotcut:defaultAudioIndex">-1</property>
    <property name="xml">was here</property>
  </producer>
  <producer id="producer158" in="00:00:00.000" out="00:35:16.050">
    <property name="length">00:35:16.067</property>
    <property name="eof">pause</property>
    <property name="resource">d:/360MoveData/Users/Assassin/Desktop/paper_review/0002 reparameteizable subset sampling via continuous relaxations/20200928_214111.m4a</property>
    <property name="audio_index">0</property>
    <property name="video_index">-1</property>
    <property name="mute_on_pause">0</property>
    <property name="mlt_service">avformat-novalidate</property>
    <property name="seekable">1</property>
    <property name="creation_time">2020-09-28T20:26:11</property>
    <property name="shotcut:hash">aa85aa116be06a5d6f338211a6e27b20</property>
    <property name="global_feed">1</property>
    <property name="shotcut:caption">20200928_214111.m4a</property>
    <property name="shotcut:defaultAudioIndex">-1</property>
    <property name="xml">was here</property>
  </producer>
  <producer id="producer159" in="00:00:00.000" out="00:35:16.050">
    <property name="length">00:35:16.067</property>
    <property name="eof">pause</property>
    <property name="resource">d:/360MoveData/Users/Assassin/Desktop/paper_review/0002 reparameteizable subset sampling via continuous relaxations/20200928_214111.m4a</property>
    <property name="audio_index">0</property>
    <property name="video_index">-1</property>
    <property name="mute_on_pause">0</property>
    <property name="mlt_service">avformat-novalidate</property>
    <property name="seekable">1</property>
    <property name="creation_time">2020-09-28T20:26:11</property>
    <property name="shotcut:hash">aa85aa116be06a5d6f338211a6e27b20</property>
    <property name="global_feed">1</property>
    <property name="shotcut:caption">20200928_214111.m4a</property>
    <property name="shotcut:defaultAudioIndex">-1</property>
    <property name="xml">was here</property>
  </producer>
  <producer id="producer160" in="00:00:00.000" out="00:35:16.050">
    <property name="length">00:35:16.067</property>
    <property name="eof">pause</property>
    <property name="resource">d:/360MoveData/Users/Assassin/Desktop/paper_review/0002 reparameteizable subset sampling via continuous relaxations/20200928_214111.m4a</property>
    <property name="audio_index">0</property>
    <property name="video_index">-1</property>
    <property name="mute_on_pause">0</property>
    <property name="mlt_service">avformat-novalidate</property>
    <property name="seekable">1</property>
    <property name="creation_time">2020-09-28T20:26:11</property>
    <property name="shotcut:hash">aa85aa116be06a5d6f338211a6e27b20</property>
    <property name="global_feed">1</property>
    <property name="shotcut:caption">20200928_214111.m4a</property>
    <property name="shotcut:defaultAudioIndex">-1</property>
    <property name="xml">was here</property>
  </producer>
  <producer id="producer161" in="00:00:00.000" out="00:35:16.050">
    <property name="length">00:35:16.067</property>
    <property name="eof">pause</property>
    <property name="resource">d:/360MoveData/Users/Assassin/Desktop/paper_review/0002 reparameteizable subset sampling via continuous relaxations/20200928_214111.m4a</property>
    <property name="audio_index">0</property>
    <property name="video_index">-1</property>
    <property name="mute_on_pause">0</property>
    <property name="mlt_service">avformat-novalidate</property>
    <property name="seekable">1</property>
    <property name="creation_time">2020-09-28T20:26:11</property>
    <property name="shotcut:hash">aa85aa116be06a5d6f338211a6e27b20</property>
    <property name="global_feed">1</property>
    <property name="shotcut:caption">20200928_214111.m4a</property>
    <property name="shotcut:defaultAudioIndex">-1</property>
    <property name="xml">was here</property>
  </producer>
  <producer id="producer162" in="00:00:00.000" out="00:35:16.050">
    <property name="length">00:35:16.067</property>
    <property name="eof">pause</property>
    <property name="resource">d:/360MoveData/Users/Assassin/Desktop/paper_review/0002 reparameteizable subset sampling via continuous relaxations/20200928_214111.m4a</property>
    <property name="audio_index">0</property>
    <property name="video_index">-1</property>
    <property name="mute_on_pause">0</property>
    <property name="mlt_service">avformat-novalidate</property>
    <property name="seekable">1</property>
    <property name="creation_time">2020-09-28T20:26:11</property>
    <property name="shotcut:hash">aa85aa116be06a5d6f338211a6e27b20</property>
    <property name="global_feed">1</property>
    <property name="shotcut:caption">20200928_214111.m4a</property>
    <property name="shotcut:defaultAudioIndex">-1</property>
    <property name="xml">was here</property>
  </producer>
  <producer id="producer163" in="00:00:00.000" out="00:35:16.050">
    <property name="length">00:35:16.067</property>
    <property name="eof">pause</property>
    <property name="resource">d:/360MoveData/Users/Assassin/Desktop/paper_review/0002 reparameteizable subset sampling via continuous relaxations/20200928_214111.m4a</property>
    <property name="audio_index">0</property>
    <property name="video_index">-1</property>
    <property name="mute_on_pause">0</property>
    <property name="mlt_service">avformat-novalidate</property>
    <property name="seekable">1</property>
    <property name="creation_time">2020-09-28T20:26:11</property>
    <property name="shotcut:hash">aa85aa116be06a5d6f338211a6e27b20</property>
    <property name="global_feed">1</property>
    <property name="shotcut:caption">20200928_214111.m4a</property>
    <property name="shotcut:defaultAudioIndex">-1</property>
    <property name="xml">was here</property>
  </producer>
  <producer id="producer164" in="00:00:00.000" out="00:35:16.050">
    <property name="length">00:35:16.067</property>
    <property name="eof">pause</property>
    <property name="resource">d:/360MoveData/Users/Assassin/Desktop/paper_review/0002 reparameteizable subset sampling via continuous relaxations/20200928_214111.m4a</property>
    <property name="audio_index">0</property>
    <property name="video_index">-1</property>
    <property name="mute_on_pause">0</property>
    <property name="mlt_service">avformat-novalidate</property>
    <property name="seekable">1</property>
    <property name="creation_time">2020-09-28T20:26:11</property>
    <property name="shotcut:hash">aa85aa116be06a5d6f338211a6e27b20</property>
    <property name="global_feed">1</property>
    <property name="shotcut:caption">20200928_214111.m4a</property>
    <property name="shotcut:defaultAudioIndex">-1</property>
    <property name="xml">was here</property>
  </producer>
  <producer id="producer165" in="00:00:00.000" out="00:35:16.050">
    <property name="length">00:35:16.067</property>
    <property name="eof">pause</property>
    <property name="resource">d:/360MoveData/Users/Assassin/Desktop/paper_review/0002 reparameteizable subset sampling via continuous relaxations/20200928_214111.m4a</property>
    <property name="audio_index">0</property>
    <property name="video_index">-1</property>
    <property name="mute_on_pause">0</property>
    <property name="mlt_service">avformat-novalidate</property>
    <property name="seekable">1</property>
    <property name="creation_time">2020-09-28T20:26:11</property>
    <property name="shotcut:hash">aa85aa116be06a5d6f338211a6e27b20</property>
    <property name="global_feed">1</property>
    <property name="shotcut:caption">20200928_214111.m4a</property>
    <property name="shotcut:defaultAudioIndex">-1</property>
    <property name="xml">was here</property>
  </producer>
  <producer id="producer166" in="00:00:00.000" out="00:35:16.050">
    <property name="length">00:35:16.067</property>
    <property name="eof">pause</property>
    <property name="resource">d:/360MoveData/Users/Assassin/Desktop/paper_review/0002 reparameteizable subset sampling via continuous relaxations/20200928_214111.m4a</property>
    <property name="audio_index">0</property>
    <property name="video_index">-1</property>
    <property name="mute_on_pause">0</property>
    <property name="mlt_service">avformat-novalidate</property>
    <property name="seekable">1</property>
    <property name="creation_time">2020-09-28T20:26:11</property>
    <property name="shotcut:hash">aa85aa116be06a5d6f338211a6e27b20</property>
    <property name="global_feed">1</property>
    <property name="shotcut:caption">20200928_214111.m4a</property>
    <property name="shotcut:defaultAudioIndex">-1</property>
    <property name="xml">was here</property>
  </producer>
  <producer id="producer167" in="00:00:00.000" out="00:35:16.050">
    <property name="length">00:35:16.067</property>
    <property name="eof">pause</property>
    <property name="resource">d:/360MoveData/Users/Assassin/Desktop/paper_review/0002 reparameteizable subset sampling via continuous relaxations/20200928_214111.m4a</property>
    <property name="audio_index">0</property>
    <property name="video_index">-1</property>
    <property name="mute_on_pause">0</property>
    <property name="mlt_service">avformat-novalidate</property>
    <property name="seekable">1</property>
    <property name="creation_time">2020-09-28T20:26:11</property>
    <property name="shotcut:hash">aa85aa116be06a5d6f338211a6e27b20</property>
    <property name="global_feed">1</property>
    <property name="shotcut:caption">20200928_214111.m4a</property>
    <property name="shotcut:defaultAudioIndex">-1</property>
    <property name="xml">was here</property>
  </producer>
  <producer id="producer168" in="00:00:00.000" out="00:35:16.050">
    <property name="length">00:35:16.067</property>
    <property name="eof">pause</property>
    <property name="resource">d:/360MoveData/Users/Assassin/Desktop/paper_review/0002 reparameteizable subset sampling via continuous relaxations/20200928_214111.m4a</property>
    <property name="audio_index">0</property>
    <property name="video_index">-1</property>
    <property name="mute_on_pause">0</property>
    <property name="mlt_service">avformat-novalidate</property>
    <property name="seekable">1</property>
    <property name="creation_time">2020-09-28T20:26:11</property>
    <property name="shotcut:hash">aa85aa116be06a5d6f338211a6e27b20</property>
    <property name="global_feed">1</property>
    <property name="shotcut:caption">20200928_214111.m4a</property>
    <property name="shotcut:defaultAudioIndex">-1</property>
    <property name="xml">was here</property>
  </producer>
  <producer id="producer169" in="00:00:00.000" out="00:35:16.050">
    <property name="length">00:35:16.067</property>
    <property name="eof">pause</property>
    <property name="resource">d:/360MoveData/Users/Assassin/Desktop/paper_review/0002 reparameteizable subset sampling via continuous relaxations/20200928_214111.m4a</property>
    <property name="audio_index">0</property>
    <property name="video_index">-1</property>
    <property name="mute_on_pause">0</property>
    <property name="mlt_service">avformat-novalidate</property>
    <property name="seekable">1</property>
    <property name="creation_time">2020-09-28T20:26:11</property>
    <property name="shotcut:hash">aa85aa116be06a5d6f338211a6e27b20</property>
    <property name="global_feed">1</property>
    <property name="shotcut:caption">20200928_214111.m4a</property>
    <property name="shotcut:defaultAudioIndex">-1</property>
    <property name="xml">was here</property>
  </producer>
  <producer id="producer170" in="00:00:00.000" out="00:35:16.050">
    <property name="length">00:35:16.067</property>
    <property name="eof">pause</property>
    <property name="resource">d:/360MoveData/Users/Assassin/Desktop/paper_review/0002 reparameteizable subset sampling via continuous relaxations/20200928_214111.m4a</property>
    <property name="audio_index">0</property>
    <property name="video_index">-1</property>
    <property name="mute_on_pause">0</property>
    <property name="mlt_service">avformat-novalidate</property>
    <property name="seekable">1</property>
    <property name="creation_time">2020-09-28T20:26:11</property>
    <property name="shotcut:hash">aa85aa116be06a5d6f338211a6e27b20</property>
    <property name="global_feed">1</property>
    <property name="shotcut:caption">20200928_214111.m4a</property>
    <property name="shotcut:defaultAudioIndex">-1</property>
    <property name="xml">was here</property>
  </producer>
  <producer id="producer171" in="00:00:00.000" out="00:35:16.050">
    <property name="length">00:35:16.067</property>
    <property name="eof">pause</property>
    <property name="resource">d:/360MoveData/Users/Assassin/Desktop/paper_review/0002 reparameteizable subset sampling via continuous relaxations/20200928_214111.m4a</property>
    <property name="audio_index">0</property>
    <property name="video_index">-1</property>
    <property name="mute_on_pause">0</property>
    <property name="mlt_service">avformat-novalidate</property>
    <property name="seekable">1</property>
    <property name="creation_time">2020-09-28T20:26:11</property>
    <property name="shotcut:hash">aa85aa116be06a5d6f338211a6e27b20</property>
    <property name="global_feed">1</property>
    <property name="shotcut:caption">20200928_214111.m4a</property>
    <property name="shotcut:defaultAudioIndex">-1</property>
    <property name="xml">was here</property>
  </producer>
  <tractor id="tractor20" global_feed="1" in="00:00:00.000" out="00:00:00.000">
    <property name="shotcut:transition">lumaMix</property>
    <track producer="producer170" in="00:33:55.783" out="00:33:55.783"/>
    <track producer="producer171" in="00:33:59.467" out="00:33:59.467"/>
    <transition id="transition40">
      <property name="a_track">0</property>
      <property name="b_track">1</property>
      <property name="factory">loader</property>
      <property name="mlt_service">luma</property>
      <property name="alpha_over">1</property>
    </transition>
    <transition id="transition41">
      <property name="a_track">0</property>
      <property name="b_track">1</property>
      <property name="mlt_service">mix</property>
      <property name="start">-1</property>
      <property name="accepts_blanks">1</property>
    </transition>
  </tractor>
  <producer id="producer172" in="00:00:00.000" out="00:00:30.783">
    <property name="length">00:00:30.800</property>
    <property name="eof">pause</property>
    <property name="resource">d:/360MoveData/Users/Assassin/Desktop/paper_review/0002 reparameteizable subset sampling via continuous relaxations/20201003_185309.m4a</property>
    <property name="audio_index">0</property>
    <property name="video_index">-1</property>
    <property name="mute_on_pause">0</property>
    <property name="mlt_service">avformat-novalidate</property>
    <property name="seekable">1</property>
    <property name="creation_time">2020-10-03T16:53:40</property>
    <property name="shotcut:hash">c6a5eb796f48b32fe03ba13c69411a6f</property>
    <property name="global_feed">1</property>
    <property name="shotcut:caption">20201003_185309.m4a</property>
    <property name="xml">was here</property>
  </producer>
  <producer id="producer173" in="00:00:00.000" out="00:00:30.783">
    <property name="length">00:00:30.800</property>
    <property name="eof">pause</property>
    <property name="resource">d:/360MoveData/Users/Assassin/Desktop/paper_review/0002 reparameteizable subset sampling via continuous relaxations/20201003_185309.m4a</property>
    <property name="audio_index">0</property>
    <property name="video_index">-1</property>
    <property name="mute_on_pause">0</property>
    <property name="mlt_service">avformat-novalidate</property>
    <property name="seekable">1</property>
    <property name="creation_time">2020-10-03T16:53:40</property>
    <property name="shotcut:hash">c6a5eb796f48b32fe03ba13c69411a6f</property>
    <property name="global_feed">1</property>
    <property name="shotcut:caption">20201003_185309.m4a</property>
    <property name="xml">was here</property>
  </producer>
  <producer id="producer174" in="00:00:00.000" out="00:00:03.783">
    <property name="length">00:00:03.800</property>
    <property name="eof">pause</property>
    <property name="resource">d:/360MoveData/Users/Assassin/Desktop/paper_review/0002 reparameteizable subset sampling via continuous relaxations/20201003_234048.m4a</property>
    <property name="audio_index">0</property>
    <property name="video_index">-1</property>
    <property name="mute_on_pause">0</property>
    <property name="mlt_service">avformat-novalidate</property>
    <property name="seekable">1</property>
    <property name="creation_time">2020-10-03T21:40:53</property>
    <property name="shotcut:hash">bdd261152074fc19a749b09f8f20e623</property>
    <property name="global_feed">1</property>
    <property name="shotcut:caption">20201003_234048.m4a</property>
    <property name="xml">was here</property>
  </producer>
  <producer id="producer175" in="00:00:00.000" out="00:00:30.783">
    <property name="length">00:00:30.800</property>
    <property name="eof">pause</property>
    <property name="resource">d:/360MoveData/Users/Assassin/Desktop/paper_review/0002 reparameteizable subset sampling via continuous relaxations/20201003_185309.m4a</property>
    <property name="audio_index">0</property>
    <property name="video_index">-1</property>
    <property name="mute_on_pause">0</property>
    <property name="mlt_service">avformat-novalidate</property>
    <property name="seekable">1</property>
    <property name="creation_time">2020-10-03T16:53:40</property>
    <property name="shotcut:hash">c6a5eb796f48b32fe03ba13c69411a6f</property>
    <property name="global_feed">1</property>
    <property name="shotcut:caption">20201003_185309.m4a</property>
    <property name="xml">was here</property>
  </producer>
  <producer id="producer176" in="00:00:00.000" out="00:35:16.050">
    <property name="length">00:35:16.067</property>
    <property name="eof">pause</property>
    <property name="resource">d:/360MoveData/Users/Assassin/Desktop/paper_review/0002 reparameteizable subset sampling via continuous relaxations/20200928_214111.m4a</property>
    <property name="audio_index">0</property>
    <property name="video_index">-1</property>
    <property name="mute_on_pause">0</property>
    <property name="mlt_service">avformat-novalidate</property>
    <property name="seekable">1</property>
    <property name="creation_time">2020-09-28T20:26:11</property>
    <property name="shotcut:hash">aa85aa116be06a5d6f338211a6e27b20</property>
    <property name="global_feed">1</property>
    <property name="shotcut:caption">20200928_214111.m4a</property>
    <property name="shotcut:defaultAudioIndex">-1</property>
    <property name="xml">was here</property>
  </producer>
  <producer id="producer177" in="00:00:00.000" out="00:35:16.050">
    <property name="length">00:35:16.067</property>
    <property name="eof">pause</property>
    <property name="resource">d:/360MoveData/Users/Assassin/Desktop/paper_review/0002 reparameteizable subset sampling via continuous relaxations/20200928_214111.m4a</property>
    <property name="audio_index">0</property>
    <property name="video_index">-1</property>
    <property name="mute_on_pause">0</property>
    <property name="mlt_service">avformat-novalidate</property>
    <property name="seekable">1</property>
    <property name="creation_time">2020-09-28T20:26:11</property>
    <property name="shotcut:hash">aa85aa116be06a5d6f338211a6e27b20</property>
    <property name="global_feed">1</property>
    <property name="shotcut:caption">20200928_214111.m4a</property>
    <property name="shotcut:defaultAudioIndex">-1</property>
    <property name="xml">was here</property>
  </producer>
  <producer id="producer178" in="00:00:00.000" out="00:35:16.050">
    <property name="length">00:35:16.067</property>
    <property name="eof">pause</property>
    <property name="resource">d:/360MoveData/Users/Assassin/Desktop/paper_review/0002 reparameteizable subset sampling via continuous relaxations/20200928_214111.m4a</property>
    <property name="audio_index">0</property>
    <property name="video_index">-1</property>
    <property name="mute_on_pause">0</property>
    <property name="mlt_service">avformat-novalidate</property>
    <property name="seekable">1</property>
    <property name="creation_time">2020-09-28T20:26:11</property>
    <property name="shotcut:hash">aa85aa116be06a5d6f338211a6e27b20</property>
    <property name="global_feed">1</property>
    <property name="shotcut:caption">20200928_214111.m4a</property>
    <property name="shotcut:defaultAudioIndex">-1</property>
    <property name="xml">was here</property>
  </producer>
  <playlist id="playlist0">
    <property name="shotcut:video">1</property>
    <property name="shotcut:name">V1</property>
    <property name="shotcut:lock">0</property>
    <entry producer="producer0" in="00:00:00.783" out="00:00:22.433"/>
    <entry producer="tractor0" in="00:00:00.000" out="00:00:00.267"/>
    <entry producer="producer1" in="00:00:34.217" out="00:00:50.667"/>
    <blank length="00:00:00.017"/>
    <entry producer="producer2" in="00:00:52.317" out="00:01:08.217"/>
    <entry producer="tractor1" in="00:00:00.000" out="00:00:00.000"/>
    <entry producer="producer3" in="00:01:09.200" out="00:01:10.783"/>
    <entry producer="tractor2" in="00:00:00.000" out="00:00:00.233"/>
    <entry producer="producer4" in="00:00:00.250" out="00:00:11.017"/>
    <entry producer="tractor3" in="00:00:00.000" out="00:00:00.067"/>
    <entry producer="producer5" in="00:00:00.083" out="00:00:12.883"/>
    <entry producer="tractor4" in="00:00:00.000" out="00:00:00.117"/>
    <entry producer="producer6" in="00:02:03.533" out="00:02:31.867"/>
    <blank length="00:00:00.017"/>
    <entry producer="producer7" in="00:02:32.367" out="00:02:37.917"/>
    <entry producer="tractor5" in="00:00:00.000" out="00:00:00.017"/>
    <entry producer="producer8" in="00:02:46.150" out="00:02:47.283"/>
    <entry producer="producer9" in="00:02:48.300" out="00:02:50.200"/>
    <entry producer="tractor6" in="00:00:00.000" out="00:00:00.000"/>
    <entry producer="producer10" in="00:02:50.767" out="00:02:52.517"/>
    <entry producer="tractor7" in="00:00:00.000" out="00:00:00.050"/>
    <entry producer="producer11" in="00:03:08.150" out="00:03:08.750"/>
    <entry producer="tractor8" in="00:00:00.000" out="00:00:00.000"/>
    <entry producer="producer12" in="00:03:09.133" out="00:03:10.250"/>
    <entry producer="producer13" in="00:03:10.900" out="00:03:15.300"/>
    <blank length="00:00:00.033"/>
    <entry producer="producer14" in="00:03:16.300" out="00:03:19.233"/>
    <entry producer="producer15" in="00:00:00.000" out="00:00:03.333"/>
    <entry producer="producer16" in="00:00:03.867" out="00:00:05.783"/>
    <entry producer="tractor9" in="00:00:00.000" out="00:00:00.000"/>
    <blank length="00:00:00.533"/>
    <entry producer="producer18" in="00:00:00.817" out="00:00:05.417"/>
    <entry producer="producer19" in="00:00:05.700" out="00:00:07.733"/>
    <entry producer="producer20" in="00:00:08.400" out="00:00:11.383"/>
    <entry producer="producer21" in="00:00:11.717" out="00:00:22.917"/>
    <entry producer="tractor10" in="00:00:00.000" out="00:00:00.000"/>
    <entry producer="producer22" in="00:00:56.800" out="00:01:02.083"/>
    <entry producer="producer23" in="00:01:02.583" out="00:01:05.717"/>
    <entry producer="producer24" in="00:00:00.000" out="00:00:10.917"/>
    <entry producer="producer25" in="00:00:34.217" out="00:00:42.283"/>
    <blank length="00:00:00.117"/>
    <entry producer="producer26" in="00:00:00.000" out="00:00:03.233"/>
    <entry producer="tractor11" in="00:00:00.000" out="00:00:00.000"/>
    <blank length="00:00:00.350"/>
    <entry producer="producer28" in="00:00:32.433" out="00:01:03.033"/>
    <blank length="00:00:00.017"/>
    <entry producer="producer29" in="00:01:04.700" out="00:01:06.517"/>
    <entry producer="producer30" in="00:01:23.333" out="00:01:34.367"/>
    <entry producer="producer31" in="00:01:36.033" out="00:01:38.717"/>
    <entry producer="producer32" in="00:01:41.950" out="00:01:50.433"/>
    <entry producer="producer33" in="00:01:50.450" out="00:01:51.833"/>
    <entry producer="producer34" in="00:01:53.000" out="00:01:57.850"/>
    <entry producer="tractor13" in="00:00:00.000" out="00:00:00.000"/>
    <entry producer="producer35" in="00:02:07.500" out="00:02:16.383"/>
    <blank length="00:00:00.017"/>
    <entry producer="producer36" in="00:02:20.267" out="00:02:26.250"/>
    <blank length="00:00:00.033"/>
    <entry producer="producer37" in="00:02:29.583" out="00:02:32.533"/>
    <blank length="00:00:01.233"/>
    <entry producer="producer38" in="00:05:49.000" out="00:06:01.683"/>
    <blank length="00:00:00.017"/>
    <entry producer="producer39" in="00:06:04.650" out="00:06:07.683"/>
    <entry producer="producer40" in="00:06:09.083" out="00:06:09.733"/>
    <entry producer="tractor14" in="00:00:00.000" out="00:00:00.000"/>
    <blank length="00:00:00.033"/>
    <entry producer="producer42" in="00:06:15.317" out="00:06:18.133"/>
    <entry producer="producer43" in="00:06:24.967" out="00:06:34.217"/>
    <entry producer="producer44" in="00:00:01.033" out="00:00:04.033"/>
    <entry producer="producer45" in="00:00:04.050" out="00:00:23.000"/>
    <entry producer="tractor15" in="00:00:00.000" out="00:00:00.017"/>
    <entry producer="producer46" in="00:00:23.833" out="00:00:28.083"/>
    <entry producer="tractor16" in="00:00:00.000" out="00:00:00.000"/>
    <entry producer="producer47" in="00:00:31.150" out="00:00:33.783"/>
    <entry producer="tractor17" in="00:00:00.000" out="00:00:00.017"/>
    <entry producer="producer48" in="00:00:41.950" out="00:00:44.717"/>
    <entry producer="producer49" in="00:00:45.883" out="00:00:47.517"/>
    <entry producer="producer27" in="00:00:48.250" out="00:01:04.350"/>
    <entry producer="producer41" in="00:01:06.950" out="00:01:19.617"/>
    <entry producer="producer50" in="00:01:20.433" out="00:01:29.733"/>
    <blank length="00:00:00.033"/>
    <entry producer="producer51" in="00:01:32.283" out="00:02:02.383"/>
    <entry producer="tractor18" in="00:00:00.000" out="00:00:00.017"/>
    <entry producer="producer52" in="00:02:03.200" out="00:02:04.250"/>
    <blank length="00:00:00.650"/>
    <entry producer="producer53" in="00:08:15.267" out="00:08:34.100"/>
    <entry producer="producer54" in="00:08:35.067" out="00:08:36.950"/>
    <entry producer="producer55" in="00:08:44.100" out="00:08:53.300"/>
    <entry producer="tractor19" in="00:00:00.000" out="00:00:00.017"/>
    <entry producer="producer56" in="00:08:54.550" out="00:09:02.483"/>
    <entry producer="producer57" in="00:09:03.350" out="00:09:07.133"/>
    <entry producer="producer58" in="00:09:07.667" out="00:09:08.517"/>
    <entry producer="producer59" in="00:09:10.883" out="00:09:15.050"/>
    <entry producer="producer60" in="00:09:16.317" out="00:09:38.183"/>
    <entry producer="producer61" in="00:09:39.867" out="00:09:41.650"/>
    <entry producer="producer62" in="00:09:41.667" out="00:09:54.483"/>
    <entry producer="producer63" in="00:09:55.350" out="00:10:21.000"/>
    <entry producer="producer64" in="00:10:28.117" out="00:10:49.317"/>
    <entry producer="producer65" in="00:14:10.383" out="00:14:28.117"/>
    <entry producer="producer66" in="00:14:37.050" out="00:14:38.800"/>
    <entry producer="producer67" in="00:14:42.750" out="00:14:57.817"/>
    <entry producer="producer68" in="00:14:58.600" out="00:15:05.233"/>
    <entry producer="producer69" in="00:15:10.200" out="00:15:18.400"/>
    <entry producer="tractor21" in="00:00:00.000" out="00:00:00.067"/>
    <entry producer="producer70" in="00:15:23.517" out="00:15:27.383"/>
    <entry producer="tractor22" in="00:00:00.000" out="00:00:00.067"/>
    <entry producer="producer71" in="00:15:28.567" out="00:15:31.250"/>
    <blank length="00:00:00.033"/>
    <entry producer="producer72" in="00:15:37.750" out="00:15:42.183"/>
    <entry producer="tractor23" in="00:00:00.000" out="00:00:00.000"/>
    <entry producer="producer73" in="00:15:44.467" out="00:16:09.950"/>
    <entry producer="tractor24" in="00:00:00.000" out="00:00:00.000"/>
    <entry producer="producer74" in="00:16:22.050" out="00:16:29.200"/>
    <blank length="00:00:00.050"/>
    <entry producer="producer75" in="00:16:30.267" out="00:16:31.967"/>
    <entry producer="producer76" in="00:00:02.200" out="00:00:08.717"/>
    <entry producer="producer77" in="00:00:00.467" out="00:00:07.750"/>
    <blank length="00:00:00.017"/>
    <entry producer="producer78" in="00:16:51.200" out="00:16:53.750"/>
    <blank length="00:00:00.017"/>
    <entry producer="producer79" in="00:16:57.967" out="00:17:20.050"/>
    <blank length="00:00:00.017"/>
    <entry producer="producer80" in="00:17:26.283" out="00:17:29.667"/>
    <blank length="00:00:00.033"/>
    <entry producer="producer81" in="00:17:35.700" out="00:17:37.750"/>
    <blank length="00:00:00.033"/>
    <entry producer="producer82" in="00:17:50.167" out="00:17:51.217"/>
    <entry producer="producer83" in="00:17:51.483" out="00:17:52.917"/>
    <entry producer="producer84" in="00:17:53.233" out="00:17:54.933"/>
    <entry producer="producer85" in="00:17:55.850" out="00:17:57.017"/>
    <entry producer="producer86" in="00:17:58.000" out="00:18:00.683"/>
    <entry producer="producer87" in="00:18:02.350" out="00:18:15.300"/>
    <entry producer="producer88" in="00:18:15.317" out="00:18:21.767"/>
    <entry producer="producer89" in="00:18:22.700" out="00:18:23.800"/>
    <entry producer="producer90" in="00:18:24.500" out="00:18:26.683"/>
    <blank length="00:00:00.033"/>
    <entry producer="producer91" in="00:18:27.583" out="00:18:30.800"/>
    <entry producer="tractor25" in="00:00:00.000" out="00:00:00.017"/>
    <entry producer="producer92" in="00:18:32.050" out="00:18:38.083"/>
    <entry producer="producer93" in="00:18:38.817" out="00:18:49.933"/>
    <entry producer="producer94" in="00:21:22.150" out="00:21:24.567"/>
    <entry producer="tractor12" in="00:00:00.000" out="00:00:00.000"/>
    <entry producer="producer95" in="00:21:26.017" out="00:21:30.400"/>
    <entry producer="producer96" in="00:21:36.317" out="00:21:45.567"/>
    <entry producer="producer97" in="00:21:46.367" out="00:21:48.117"/>
    <entry producer="producer98" in="00:21:56.267" out="00:22:00.000"/>
    <entry producer="producer99" in="00:22:01.767" out="00:22:06.083"/>
    <entry producer="producer100" in="00:22:18.833" out="00:22:26.150"/>
    <entry producer="producer101" in="00:22:27.317" out="00:22:28.017"/>
    <entry producer="producer102" in="00:22:30.800" out="00:22:34.183"/>
    <entry producer="producer103" in="00:22:34.800" out="00:22:36.367"/>
    <entry producer="producer104" in="00:22:37.583" out="00:22:40.450"/>
    <entry producer="producer105" in="00:22:41.550" out="00:22:53.200"/>
    <entry producer="producer106" in="00:22:53.733" out="00:22:55.650"/>
    <entry producer="producer108" in="00:23:15.950" out="00:23:23.733"/>
    <entry producer="producer109" in="00:24:02.133" out="00:24:14.150"/>
    <entry producer="producer110" in="00:24:15.400" out="00:24:19.767"/>
    <entry producer="producer111" in="00:24:25.933" out="00:24:29.133"/>
    <entry producer="producer112" in="00:24:30.000" out="00:24:40.600"/>
    <entry producer="producer113" in="00:24:43.667" out="00:24:45.100"/>
    <entry producer="producer114" in="00:25:07.717" out="00:25:11.083"/>
    <entry producer="producer115" in="00:25:12.300" out="00:25:12.583"/>
    <entry producer="producer116" in="00:25:12.900" out="00:25:29.150"/>
    <entry producer="producer117" in="00:25:31.400" out="00:25:32.033"/>
    <entry producer="producer118" in="00:25:32.767" out="00:25:34.617"/>
    <entry producer="producer119" in="00:25:35.500" out="00:25:44.467"/>
    <entry producer="producer120" in="00:25:45.650" out="00:25:48.217"/>
    <entry producer="producer121" in="00:25:49.033" out="00:25:49.850"/>
    <entry producer="producer122" in="00:25:50.567" out="00:25:51.867"/>
    <entry producer="producer123" in="00:25:53.467" out="00:26:03.633"/>
    <entry producer="producer124" in="00:26:19.317" out="00:26:27.833"/>
    <entry producer="producer107" in="00:26:30.050" out="00:26:44.117"/>
    <entry producer="producer125" in="00:26:52.883" out="00:27:04.633"/>
    <entry producer="producer126" in="00:27:07.150" out="00:27:08.217"/>
    <entry producer="producer127" in="00:27:08.800" out="00:27:24.633"/>
    <entry producer="producer128" in="00:27:41.050" out="00:27:43.833"/>
    <entry producer="producer129" in="00:27:44.600" out="00:27:52.217"/>
    <entry producer="producer130" in="00:27:54.217" out="00:27:57.217"/>
    <entry producer="producer131" in="00:27:59.267" out="00:28:02.500"/>
    <entry producer="producer132" in="00:28:03.300" out="00:28:07.950"/>
    <entry producer="producer133" in="00:28:14.550" out="00:28:18.317"/>
    <entry producer="producer134" in="00:28:18.333" out="00:28:19.367"/>
    <entry producer="producer135" in="00:28:19.900" out="00:28:21.217"/>
    <entry producer="producer136" in="00:28:22.800" out="00:28:29.633"/>
    <entry producer="producer137" in="00:28:31.850" out="00:28:36.817"/>
    <entry producer="producer138" in="00:28:37.900" out="00:28:41.500"/>
    <entry producer="producer139" in="00:28:42.817" out="00:28:49.767"/>
    <entry producer="producer140" in="00:28:50.717" out="00:28:58.783"/>
    <entry producer="producer141" in="00:28:59.517" out="00:29:01.450"/>
    <entry producer="producer142" in="00:29:04.583" out="00:29:12.000"/>
    <entry producer="producer143" in="00:29:13.100" out="00:29:14.317"/>
    <entry producer="producer144" in="00:29:15.117" out="00:29:19.267"/>
    <entry producer="producer145" in="00:29:20.033" out="00:29:24.183"/>
    <entry producer="producer146" in="00:29:32.933" out="00:29:34.783"/>
    <entry producer="producer147" in="00:29:35.233" out="00:29:37.517"/>
    <entry producer="producer148" in="00:29:45.467" out="00:29:48.383"/>
    <entry producer="producer149" in="00:30:00.983" out="00:30:10.383"/>
    <entry producer="producer150" in="00:30:17.700" out="00:30:18.100"/>
    <entry producer="producer151" in="00:30:18.917" out="00:30:22.550"/>
    <entry producer="producer152" in="00:30:24.133" out="00:30:32.800"/>
    <entry producer="producer153" in="00:30:37.383" out="00:30:44.483"/>
    <entry producer="producer154" in="00:30:49.983" out="00:30:53.050"/>
    <entry producer="producer155" in="00:30:58.633" out="00:31:00.300"/>
    <entry producer="producer156" in="00:31:01.233" out="00:31:03.117"/>
    <entry producer="producer157" in="00:31:04.150" out="00:31:08.850"/>
    <entry producer="producer158" in="00:31:37.350" out="00:31:43.033"/>
    <entry producer="producer159" in="00:32:09.800" out="00:32:11.100"/>
    <entry producer="producer160" in="00:32:11.850" out="00:32:18.267"/>
    <entry producer="producer161" in="00:32:19.367" out="00:32:28.867"/>
    <entry producer="producer162" in="00:32:31.167" out="00:32:33.117"/>
    <entry producer="producer163" in="00:32:39.550" out="00:32:41.617"/>
    <entry producer="producer164" in="00:32:42.600" out="00:32:50.033"/>
    <entry producer="producer165" in="00:32:51.017" out="00:32:52.133"/>
    <entry producer="producer166" in="00:32:55.417" out="00:32:58.317"/>
    <entry producer="producer167" in="00:32:59.133" out="00:33:01.833"/>
    <entry producer="producer168" in="00:33:06.483" out="00:33:08.067"/>
    <entry producer="producer169" in="00:33:08.667" out="00:33:09.850"/>
    <entry producer="producer170" in="00:33:40.383" out="00:33:55.767"/>
    <entry producer="tractor20" in="00:00:00.000" out="00:00:00.000"/>
    <entry producer="producer171" in="00:33:59.483" out="00:34:05.183"/>
    <entry producer="producer172" in="00:00:00.000" out="00:00:10.867"/>
    <blank length="00:00:00.033"/>
    <entry producer="producer173" in="00:00:17.250" out="00:00:22.933"/>
    <entry producer="producer174" in="00:00:00.000" out="00:00:02.483"/>
    <entry producer="producer175" in="00:00:24.433" out="00:00:30.783"/>
    <entry producer="producer176" in="00:34:18.567" out="00:34:19.333"/>
    <entry producer="producer177" in="00:34:20.350" out="00:34:25.133"/>
    <entry producer="producer178" in="00:35:05.550" out="00:35:13.933"/>
    <filter id="filter0" out="00:19:01.017">
      <property name="window">75</property>
      <property name="max_gain">20dB</property>
      <property name="level">24</property>
      <property name="mlt_service">volume</property>
    </filter>
  </playlist>
  <producer id="producer179" in="00:00:00.000" out="03:59:59.983">
    <property name="length">04:00:00.000</property>
    <property name="eof">pause</property>
    <property name="resource">d:/360MoveData/Users/Assassin/Desktop/paper_review/0002 reparameteizable subset sampling via continuous relaxations/paper01.png</property>
    <property name="ttl">1</property>
    <property name="aspect_ratio">1</property>
    <property name="progressive">1</property>
    <property name="seekable">1</property>
    <property name="mlt_service">qimage</property>
    <property name="creation_time">2020-10-03T17:09:06</property>
    <property name="shotcut:hash">37954d86949a16f4906f0147b13e5760</property>
    <property name="global_feed">1</property>
    <property name="shotcut:caption">paper01.png</property>
    <property name="xml">was here</property>
  </producer>
  <producer id="producer180" in="00:00:00.000" out="03:59:59.983">
    <property name="length">04:00:00.000</property>
    <property name="eof">pause</property>
    <property name="resource">d:/360MoveData/Users/Assassin/Desktop/paper_review/0001 interpretable neural predictions with diffeerentiable binary variables/token-sample.png</property>
    <property name="ttl">1</property>
    <property name="aspect_ratio">1</property>
    <property name="progressive">1</property>
    <property name="seekable">1</property>
    <property name="mlt_service">qimage</property>
    <property name="creation_time">2020-09-17T21:01:57</property>
    <property name="shotcut:hash">2cd1fb9465c94a777455c07155dcb712</property>
    <property name="global_feed">1</property>
    <property name="shotcut:caption">token-sample.png</property>
    <property name="xml">was here</property>
  </producer>
  <tractor id="tractor26" global_feed="1" in="00:00:00.000" out="00:00:00.267">
    <property name="shotcut:transition">lumaMix</property>
    <track producer="producer179" in="00:00:21.667" out="00:00:21.933"/>
    <track producer="producer180" in="00:00:00.000" out="00:00:00.267"/>
    <transition id="transition52" out="00:00:00.267">
      <property name="a_track">0</property>
      <property name="b_track">1</property>
      <property name="factory">loader</property>
      <property name="mlt_service">luma</property>
      <property name="alpha_over">1</property>
    </transition>
    <transition id="transition53" out="00:00:00.267">
      <property name="a_track">0</property>
      <property name="b_track">1</property>
      <property name="mlt_service">mix</property>
      <property name="start">-1</property>
      <property name="accepts_blanks">1</property>
    </transition>
  </tractor>
  <producer id="producer181" in="00:00:00.000" out="03:59:59.983">
    <property name="length">04:00:00.000</property>
    <property name="eof">pause</property>
    <property name="resource">d:/360MoveData/Users/Assassin/Desktop/paper_review/0001 interpretable neural predictions with diffeerentiable binary variables/kuma_pdf.png</property>
    <property name="ttl">1</property>
    <property name="aspect_ratio">1</property>
    <property name="progressive">1</property>
    <property name="seekable">1</property>
    <property name="mlt_service">qimage</property>
    <property name="creation_time">2020-09-17T21:27:00</property>
    <property name="shotcut:hash">5d4965436e83ca1ea254bf9388b0da12</property>
    <property name="global_feed">1</property>
    <property name="shotcut:caption">kuma_pdf.png</property>
    <property name="xml">was here</property>
  </producer>
  <producer id="producer182" in="00:00:00.000" out="03:59:59.983">
    <property name="length">04:00:00.000</property>
    <property name="eof">pause</property>
    <property name="resource">(n,k).png</property>
    <property name="ttl">1</property>
    <property name="aspect_ratio">1</property>
    <property name="progressive">1</property>
    <property name="seekable">1</property>
    <property name="mlt_service">qimage</property>
    <property name="creation_time">2020-10-03T19:50:15</property>
    <property name="shotcut:caption">(n,k).png</property>
    <property name="shotcut:hash">3c32150a1d9801a477fc844d1c84a63b</property>
    <property name="ignore_points">0</property>
    <property name="global_feed">1</property>
    <property name="xml">was here</property>
  </producer>
  <producer id="producer183" in="00:00:00.000" out="03:59:59.983">
    <property name="length">04:00:00.000</property>
    <property name="eof">pause</property>
    <property name="resource">d:/360MoveData/Users/Assassin/Desktop/paper_review/0002 reparameteizable subset sampling via continuous relaxations/p(subset).png</property>
    <property name="ttl">1</property>
    <property name="aspect_ratio">1</property>
    <property name="progressive">1</property>
    <property name="seekable">1</property>
    <property name="mlt_service">qimage</property>
    <property name="creation_time">2020-10-03T19:57:17</property>
    <property name="shotcut:hash">0abfde7f73aaca03d68edbf2e06474e3</property>
    <property name="global_feed">1</property>
    <property name="shotcut:caption">p(subset).png</property>
    <property name="xml">was here</property>
  </producer>
  <producer id="producer184" in="00:00:00.000" out="03:59:59.983">
    <property name="length">04:00:00.000</property>
    <property name="eof">pause</property>
    <property name="resource">d:/360MoveData/Users/Assassin/Desktop/paper_review/0002 reparameteizable subset sampling via continuous relaxations/car(subset).png</property>
    <property name="ttl">1</property>
    <property name="aspect_ratio">1</property>
    <property name="progressive">1</property>
    <property name="seekable">1</property>
    <property name="mlt_service">qimage</property>
    <property name="creation_time">2020-10-03T19:59:32</property>
    <property name="shotcut:hash">8a4455a69680f2f389feed7a34d6ad03</property>
    <property name="global_feed">1</property>
    <property name="shotcut:caption">car(subset).png</property>
    <property name="xml">was here</property>
  </producer>
  <producer id="producer185" in="00:00:00.000" out="03:59:59.983">
    <property name="length">04:00:00.000</property>
    <property name="eof">pause</property>
    <property name="resource">d:/360MoveData/Users/Assassin/Desktop/paper_review/0002 reparameteizable subset sampling via continuous relaxations/paper02.png</property>
    <property name="ttl">1</property>
    <property name="aspect_ratio">1</property>
    <property name="progressive">1</property>
    <property name="seekable">1</property>
    <property name="mlt_service">qimage</property>
    <property name="creation_time">2020-10-03T20:01:57</property>
    <property name="shotcut:hash">e87621582e56e3aba2988912d98981d0</property>
    <property name="global_feed">1</property>
    <property name="shotcut:caption">paper02.png</property>
    <property name="xml">was here</property>
  </producer>
  <producer id="producer186" in="00:00:00.000" out="03:59:59.983">
    <property name="length">04:00:00.000</property>
    <property name="eof">pause</property>
    <property name="resource">d:/360MoveData/Users/Assassin/Desktop/paper_review/0002 reparameteizable subset sampling via continuous relaxations/reservoir.png</property>
    <property name="ttl">1</property>
    <property name="aspect_ratio">1</property>
    <property name="progressive">1</property>
    <property name="seekable">1</property>
    <property name="mlt_service">qimage</property>
    <property name="creation_time">2020-10-03T20:04:04</property>
    <property name="shotcut:hash">af485b0280b41ff4811c345e09206735</property>
    <property name="global_feed">1</property>
    <property name="shotcut:caption">reservoir.png</property>
    <property name="xml">was here</property>
  </producer>
  <producer id="producer187" in="00:00:00.000" out="03:59:59.983">
    <property name="length">04:00:00.000</property>
    <property name="eof">pause</property>
    <property name="resource">d:/360MoveData/Users/Assassin/Desktop/paper_review/0002 reparameteizable subset sampling via continuous relaxations/wrs.png</property>
    <property name="ttl">1</property>
    <property name="aspect_ratio">1</property>
    <property name="progressive">1</property>
    <property name="seekable">1</property>
    <property name="mlt_service">qimage</property>
    <property name="creation_time">2020-10-03T20:06:07</property>
    <property name="shotcut:hash">0fe61469f0c62e9fd4eeb569fa00541e</property>
    <property name="global_feed">1</property>
    <property name="shotcut:caption">wrs.png</property>
    <property name="xml">was here</property>
  </producer>
  <producer id="producer188" in="00:00:00.000" out="03:59:59.983">
    <property name="length">04:00:00.000</property>
    <property name="eof">pause</property>
    <property name="resource">d:/360MoveData/Users/Assassin/Desktop/paper_review/0002 reparameteizable subset sampling via continuous relaxations/paper03.png</property>
    <property name="ttl">1</property>
    <property name="aspect_ratio">1</property>
    <property name="progressive">1</property>
    <property name="seekable">1</property>
    <property name="mlt_service">qimage</property>
    <property name="creation_time">2020-10-03T20:07:33</property>
    <property name="shotcut:hash">1caf269ba1dd86fd9d1d5c9898375d20</property>
    <property name="global_feed">1</property>
    <property name="shotcut:caption">paper03.png</property>
    <property name="xml">was here</property>
    <filter id="filter1" out="00:00:05.650">
      <property name="start">1</property>
      <property name="level">00:00:04.667=1;00:00:05.650=0</property>
      <property name="mlt_service">brightness</property>
      <property name="shotcut:filter">fadeOutBrightness</property>
      <property name="alpha">1</property>
      <property name="shotcut:animOut">00:00:01.000</property>
    </filter>
    <filter id="filter2" out="00:00:05.650">
      <property name="window">75</property>
      <property name="max_gain">20dB</property>
      <property name="level">00:00:04.667=0;00:00:05.650=-60</property>
      <property name="mlt_service">volume</property>
      <property name="shotcut:filter">fadeOutVolume</property>
      <property name="shotcut:animOut">60</property>
    </filter>
  </producer>
  <producer id="producer189" in="00:00:00.000" out="03:59:59.983">
    <property name="length">04:00:00.000</property>
    <property name="eof">pause</property>
    <property name="resource">d:/360MoveData/Users/Assassin/Desktop/paper_review/0002 reparameteizable subset sampling via continuous relaxations/paper04.png</property>
    <property name="ttl">1</property>
    <property name="aspect_ratio">1</property>
    <property name="progressive">1</property>
    <property name="seekable">1</property>
    <property name="mlt_service">qimage</property>
    <property name="creation_time">2020-10-03T20:08:17</property>
    <property name="shotcut:hash">8971140a888898c907ded03c13330e6d</property>
    <property name="global_feed">1</property>
    <property name="shotcut:caption">paper04.png</property>
    <property name="xml">was here</property>
    <filter id="filter3" out="00:00:06.133">
      <property name="start">1</property>
      <property name="level">00:00:00.000=0;00:00:00.983=1</property>
      <property name="mlt_service">brightness</property>
      <property name="shotcut:filter">fadeInBrightness</property>
      <property name="alpha">1</property>
      <property name="shotcut:animIn">00:00:01.000</property>
    </filter>
    <filter id="filter4" out="00:00:06.133">
      <property name="window">75</property>
      <property name="max_gain">20dB</property>
      <property name="level">00:00:00.000=-60;00:00:00.983=0</property>
      <property name="mlt_service">volume</property>
      <property name="shotcut:filter">fadeInVolume</property>
      <property name="shotcut:animIn">60</property>
    </filter>
  </producer>
  <producer id="producer190" in="00:00:00.000" out="03:59:59.983">
    <property name="length">04:00:00.000</property>
    <property name="eof">pause</property>
    <property name="resource">d:/360MoveData/Users/Assassin/Desktop/paper_review/0002 reparameteizable subset sampling via continuous relaxations/paper04-2.png</property>
    <property name="ttl">1</property>
    <property name="aspect_ratio">1</property>
    <property name="progressive">1</property>
    <property name="seekable">1</property>
    <property name="mlt_service">qimage</property>
    <property name="creation_time">2020-10-03T20:12:48</property>
    <property name="shotcut:hash">917c77b3889ca11cece8fd200ac9acfb</property>
    <property name="global_feed">1</property>
    <property name="shotcut:caption">paper04-2.png</property>
    <property name="xml">was here</property>
  </producer>
  <tractor id="tractor27" global_feed="1" in="00:00:00.000" out="00:00:00.350">
    <property name="shotcut:transition">lumaMix</property>
    <track producer="producer189" in="00:00:05.783" out="00:00:06.133"/>
    <track producer="producer190" in="00:00:00.000" out="00:00:00.350"/>
    <transition id="transition54" out="00:00:00.350">
      <property name="a_track">0</property>
      <property name="b_track">1</property>
      <property name="factory">loader</property>
      <property name="mlt_service">luma</property>
      <property name="alpha_over">1</property>
    </transition>
    <transition id="transition55" out="00:00:00.350">
      <property name="a_track">0</property>
      <property name="b_track">1</property>
      <property name="mlt_service">mix</property>
      <property name="start">-1</property>
      <property name="accepts_blanks">1</property>
    </transition>
  </tractor>
  <producer id="producer191" in="00:00:00.000" out="03:59:59.983">
    <property name="length">04:00:00.000</property>
    <property name="eof">pause</property>
    <property name="resource">d:/360MoveData/Users/Assassin/Desktop/paper_review/0002 reparameteizable subset sampling via continuous relaxations/paper04-3.png</property>
    <property name="ttl">1</property>
    <property name="aspect_ratio">1</property>
    <property name="progressive">1</property>
    <property name="seekable">1</property>
    <property name="mlt_service">qimage</property>
    <property name="creation_time">2020-10-03T20:15:14</property>
    <property name="shotcut:hash">ca9a8447f123a6530fe35efcb325e86d</property>
    <property name="global_feed">1</property>
    <property name="shotcut:caption">paper04-3.png</property>
    <property name="xml">was here</property>
  </producer>
  <producer id="producer192" in="00:00:00.000" out="03:59:59.983">
    <property name="length">04:00:00.000</property>
    <property name="eof">pause</property>
    <property name="resource">d:/360MoveData/Users/Assassin/Desktop/paper_review/0002 reparameteizable subset sampling via continuous relaxations/paper03.png</property>
    <property name="ttl">1</property>
    <property name="aspect_ratio">1</property>
    <property name="progressive">1</property>
    <property name="seekable">1</property>
    <property name="mlt_service">qimage</property>
    <property name="creation_time">2020-10-03T20:07:33</property>
    <property name="shotcut:hash">1caf269ba1dd86fd9d1d5c9898375d20</property>
    <property name="global_feed">1</property>
    <property name="shotcut:caption">paper03.png</property>
  </producer>
  <producer id="producer193" in="00:00:00.000" out="03:59:59.983">
    <property name="length">04:00:00.000</property>
    <property name="eof">pause</property>
    <property name="resource">d:/360MoveData/Users/Assassin/Desktop/paper_review/0002 reparameteizable subset sampling via continuous relaxations/wrs_paper.png</property>
    <property name="ttl">1</property>
    <property name="aspect_ratio">1</property>
    <property name="progressive">1</property>
    <property name="seekable">1</property>
    <property name="mlt_service">qimage</property>
    <property name="creation_time">2020-10-03T20:19:07</property>
    <property name="shotcut:hash">f8fdcc2e68ea0fa8ecd0243b8071b398</property>
    <property name="global_feed">1</property>
    <property name="shotcut:caption">wrs_paper.png</property>
  </producer>
  <producer id="producer194" in="00:00:00.000" out="03:59:59.983">
    <property name="length">04:00:00.000</property>
    <property name="eof">pause</property>
    <property name="resource">d:/360MoveData/Users/Assassin/Desktop/paper_review/0002 reparameteizable subset sampling via continuous relaxations/paper02.png</property>
    <property name="ttl">1</property>
    <property name="aspect_ratio">1</property>
    <property name="progressive">1</property>
    <property name="seekable">1</property>
    <property name="mlt_service">qimage</property>
    <property name="creation_time">2020-10-03T20:01:57</property>
    <property name="shotcut:hash">e87621582e56e3aba2988912d98981d0</property>
    <property name="global_feed">1</property>
    <property name="shotcut:caption">paper02.png</property>
  </producer>
  <producer id="producer195" in="00:00:00.000" out="03:59:59.983">
    <property name="length">04:00:00.000</property>
    <property name="eof">pause</property>
    <property name="resource">d:/360MoveData/Users/Assassin/Desktop/paper_review/0002 reparameteizable subset sampling via continuous relaxations/inverse_and_extreme.png</property>
    <property name="ttl">1</property>
    <property name="aspect_ratio">1</property>
    <property name="progressive">1</property>
    <property name="seekable">1</property>
    <property name="mlt_service">qimage</property>
    <property name="creation_time">2020-10-03T20:23:05</property>
    <property name="shotcut:hash">9223ba2b57465065dd61ca00ddb24e80</property>
    <property name="global_feed">1</property>
    <property name="shotcut:caption">inverse_and_extreme.png</property>
  </producer>
  <producer id="producer196" in="00:00:00.000" out="03:59:59.983">
    <property name="length">04:00:00.000</property>
    <property name="eof">pause</property>
    <property name="resource">d:/360MoveData/Users/Assassin/Desktop/paper_review/0002 reparameteizable subset sampling via continuous relaxations/inverse_transform_sampling_.png</property>
    <property name="ttl">1</property>
    <property name="aspect_ratio">1</property>
    <property name="progressive">1</property>
    <property name="seekable">1</property>
    <property name="mlt_service">qimage</property>
    <property name="creation_time">2020-10-03T20:29:53</property>
    <property name="shotcut:hash">d27693c41c40f1fd9fda5db32c89b19f</property>
    <property name="global_feed">1</property>
    <property name="shotcut:caption">inverse_transform_sampling_.png</property>
  </producer>
  <producer id="producer197" in="00:00:00.000" out="03:59:59.983">
    <property name="length">04:00:00.000</property>
    <property name="eof">pause</property>
    <property name="resource">d:/360MoveData/Users/Assassin/Desktop/paper_review/0002 reparameteizable subset sampling via continuous relaxations/wrs_2.png</property>
    <property name="ttl">1</property>
    <property name="aspect_ratio">1</property>
    <property name="progressive">1</property>
    <property name="seekable">1</property>
    <property name="mlt_service">qimage</property>
    <property name="creation_time">2020-10-03T20:31:34</property>
    <property name="shotcut:hash">6602df470a82144541e665553c6d2464</property>
    <property name="global_feed">1</property>
    <property name="shotcut:caption">wrs_2.png</property>
  </producer>
  <producer id="producer198" in="00:00:00.000" out="03:59:59.983">
    <property name="length">04:00:00.000</property>
    <property name="eof">pause</property>
    <property name="resource">d:/360MoveData/Users/Assassin/Desktop/paper_review/0002 reparameteizable subset sampling via continuous relaxations/gumbel_max_trick.png</property>
    <property name="ttl">1</property>
    <property name="aspect_ratio">1</property>
    <property name="progressive">1</property>
    <property name="seekable">1</property>
    <property name="mlt_service">qimage</property>
    <property name="creation_time">2020-10-03T20:32:54</property>
    <property name="shotcut:hash">2abe83862c911a01fff3e413dda55759</property>
    <property name="global_feed">1</property>
    <property name="shotcut:caption">gumbel_max_trick.png</property>
  </producer>
  <producer id="producer199" in="00:00:00.000" out="03:59:59.983">
    <property name="length">04:00:00.000</property>
    <property name="eof">pause</property>
    <property name="resource">d:/360MoveData/Users/Assassin/Desktop/paper_review/0002 reparameteizable subset sampling via continuous relaxations/difference_wrs_gumble.png</property>
    <property name="ttl">1</property>
    <property name="aspect_ratio">1</property>
    <property name="progressive">1</property>
    <property name="seekable">1</property>
    <property name="mlt_service">qimage</property>
    <property name="creation_time">2020-10-03T20:37:10</property>
    <property name="shotcut:hash">228ec841982f34175efd001ab442bcd3</property>
    <property name="global_feed">1</property>
    <property name="shotcut:caption">difference_wrs_gumble.png</property>
  </producer>
  <producer id="producer200" in="00:00:00.000" out="03:59:59.983">
    <property name="length">04:00:00.000</property>
    <property name="eof">pause</property>
    <property name="resource">d:/360MoveData/Users/Assassin/Desktop/paper_review/0002 reparameteizable subset sampling via continuous relaxations/equivalence.png</property>
    <property name="ttl">1</property>
    <property name="aspect_ratio">1</property>
    <property name="progressive">1</property>
    <property name="seekable">1</property>
    <property name="mlt_service">qimage</property>
    <property name="creation_time">2020-10-03T20:42:54</property>
    <property name="shotcut:hash">54bd6974371f7d79b606ff2f6d98ff26</property>
    <property name="global_feed">1</property>
    <property name="shotcut:caption">equivalence.png</property>
  </producer>
  <producer id="producer201" in="00:00:00.000" out="03:59:59.983">
    <property name="length">04:00:00.000</property>
    <property name="eof">pause</property>
    <property name="resource">d:/360MoveData/Users/Assassin/Desktop/paper_review/0002 reparameteizable subset sampling via continuous relaxations/paper05.png</property>
    <property name="ttl">1</property>
    <property name="aspect_ratio">1</property>
    <property name="progressive">1</property>
    <property name="seekable">1</property>
    <property name="mlt_service">qimage</property>
    <property name="creation_time">2020-10-03T20:43:58</property>
    <property name="shotcut:hash">c1915161e7335223ede26f57bf2eddc9</property>
    <property name="global_feed">1</property>
    <property name="shotcut:caption">paper05.png</property>
    <property name="xml">was here</property>
  </producer>
  <producer id="producer202" in="00:00:00.000" out="03:59:59.983">
    <property name="length">04:00:00.000</property>
    <property name="eof">pause</property>
    <property name="resource">d:/360MoveData/Users/Assassin/Desktop/paper_review/0002 reparameteizable subset sampling via continuous relaxations/paper05.png</property>
    <property name="ttl">1</property>
    <property name="aspect_ratio">1</property>
    <property name="progressive">1</property>
    <property name="seekable">1</property>
    <property name="mlt_service">qimage</property>
    <property name="creation_time">2020-10-03T20:43:58</property>
    <property name="shotcut:hash">c1915161e7335223ede26f57bf2eddc9</property>
    <property name="global_feed">1</property>
    <property name="shotcut:caption">paper05.png</property>
    <property name="xml">was here</property>
  </producer>
  <producer id="producer203" in="00:00:00.000" out="03:59:59.983">
    <property name="length">04:00:00.000</property>
    <property name="eof">pause</property>
    <property name="resource">d:/360MoveData/Users/Assassin/Desktop/paper_review/0002 reparameteizable subset sampling via continuous relaxations/paper05.png</property>
    <property name="ttl">1</property>
    <property name="aspect_ratio">1</property>
    <property name="progressive">1</property>
    <property name="seekable">1</property>
    <property name="mlt_service">qimage</property>
    <property name="creation_time">2020-10-03T20:43:58</property>
    <property name="shotcut:hash">c1915161e7335223ede26f57bf2eddc9</property>
    <property name="global_feed">1</property>
    <property name="shotcut:caption">paper05.png</property>
    <property name="xml">was here</property>
  </producer>
  <producer id="producer204" in="00:00:00.000" out="03:59:59.983">
    <property name="length">04:00:00.000</property>
    <property name="eof">pause</property>
    <property name="resource">d:/360MoveData/Users/Assassin/Desktop/paper_review/0002 reparameteizable subset sampling via continuous relaxations/paper05.png</property>
    <property name="ttl">1</property>
    <property name="aspect_ratio">1</property>
    <property name="progressive">1</property>
    <property name="seekable">1</property>
    <property name="mlt_service">qimage</property>
    <property name="creation_time">2020-10-03T20:43:58</property>
    <property name="shotcut:hash">c1915161e7335223ede26f57bf2eddc9</property>
    <property name="global_feed">1</property>
    <property name="shotcut:caption">paper05.png</property>
    <property name="xml">was here</property>
  </producer>
  <producer id="producer205" in="00:00:00.000" out="03:59:59.983">
    <property name="length">04:00:00.000</property>
    <property name="eof">pause</property>
    <property name="resource">d:/360MoveData/Users/Assassin/Desktop/paper_review/0002 reparameteizable subset sampling via continuous relaxations/paper05.png</property>
    <property name="ttl">1</property>
    <property name="aspect_ratio">1</property>
    <property name="progressive">1</property>
    <property name="seekable">1</property>
    <property name="mlt_service">qimage</property>
    <property name="creation_time">2020-10-03T20:43:58</property>
    <property name="shotcut:hash">c1915161e7335223ede26f57bf2eddc9</property>
    <property name="global_feed">1</property>
    <property name="shotcut:caption">paper05.png</property>
  </producer>
  <producer id="producer206" in="00:00:00.000" out="03:59:59.983">
    <property name="length">04:00:00.000</property>
    <property name="eof">pause</property>
    <property name="resource">d:/360MoveData/Users/Assassin/Desktop/paper_review/0002 reparameteizable subset sampling via continuous relaxations/maddison.png</property>
    <property name="ttl">1</property>
    <property name="aspect_ratio">1</property>
    <property name="progressive">1</property>
    <property name="seekable">1</property>
    <property name="mlt_service">qimage</property>
    <property name="creation_time">2020-10-03T20:48:28</property>
    <property name="shotcut:hash">4f8c0a7f152be65e3bb3cc1c8572b323</property>
    <property name="global_feed">1</property>
    <property name="shotcut:caption">maddison.png</property>
  </producer>
  <producer id="producer207" in="00:00:00.000" out="03:59:59.983">
    <property name="length">04:00:00.000</property>
    <property name="eof">pause</property>
    <property name="resource">d:/360MoveData/Users/Assassin/Desktop/paper_review/0002 reparameteizable subset sampling via continuous relaxations/3_problems.png</property>
    <property name="ttl">1</property>
    <property name="aspect_ratio">1</property>
    <property name="progressive">1</property>
    <property name="seekable">1</property>
    <property name="mlt_service">qimage</property>
    <property name="creation_time">2020-10-03T20:52:40</property>
    <property name="shotcut:hash">e8a87915c21b1ac0e4cea45498116502</property>
    <property name="global_feed">1</property>
    <property name="shotcut:caption">3_problems.png</property>
    <property name="xml">was here</property>
  </producer>
  <producer id="producer208" in="00:00:00.000" out="03:59:59.983">
    <property name="length">04:00:00.000</property>
    <property name="eof">pause</property>
    <property name="resource">d:/360MoveData/Users/Assassin/Desktop/paper_review/0002 reparameteizable subset sampling via continuous relaxations/3_problems.png</property>
    <property name="ttl">1</property>
    <property name="aspect_ratio">1</property>
    <property name="progressive">1</property>
    <property name="seekable">1</property>
    <property name="mlt_service">qimage</property>
    <property name="creation_time">2020-10-03T20:52:40</property>
    <property name="shotcut:hash">e8a87915c21b1ac0e4cea45498116502</property>
    <property name="global_feed">1</property>
    <property name="shotcut:caption">3_problems.png</property>
  </producer>
  <producer id="producer209" in="00:00:00.000" out="03:59:59.983">
    <property name="length">04:00:00.000</property>
    <property name="eof">pause</property>
    <property name="resource">d:/360MoveData/Users/Assassin/Desktop/paper_review/0002 reparameteizable subset sampling via continuous relaxations/perm_rather_than_subset.png</property>
    <property name="ttl">1</property>
    <property name="aspect_ratio">1</property>
    <property name="progressive">1</property>
    <property name="seekable">1</property>
    <property name="mlt_service">qimage</property>
    <property name="creation_time">2020-10-03T20:59:31</property>
    <property name="shotcut:hash">c2f8d3f87265bf00d106ca841d3336c0</property>
    <property name="global_feed">1</property>
    <property name="shotcut:caption">perm_rather_than_subset.png</property>
  </producer>
  <producer id="producer210" in="00:00:00.000" out="03:59:59.983">
    <property name="length">04:00:00.000</property>
    <property name="eof">pause</property>
    <property name="resource">d:/360MoveData/Users/Assassin/Desktop/paper_review/0002 reparameteizable subset sampling via continuous relaxations/perm_rather_than_subset_2.png</property>
    <property name="ttl">1</property>
    <property name="aspect_ratio">1</property>
    <property name="progressive">1</property>
    <property name="seekable">1</property>
    <property name="mlt_service">qimage</property>
    <property name="creation_time">2020-10-03T21:02:49</property>
    <property name="shotcut:hash">af9adc29564ae1c0865c0da0a335f2bf</property>
    <property name="global_feed">1</property>
    <property name="shotcut:caption">perm_rather_than_subset_2.png</property>
  </producer>
  <producer id="producer211" in="00:00:00.000" out="03:59:59.983">
    <property name="length">04:00:00.000</property>
    <property name="eof">pause</property>
    <property name="resource">d:/360MoveData/Users/Assassin/Desktop/paper_review/0002 reparameteizable subset sampling via continuous relaxations/mc.png</property>
    <property name="ttl">1</property>
    <property name="aspect_ratio">1</property>
    <property name="progressive">1</property>
    <property name="seekable">1</property>
    <property name="mlt_service">qimage</property>
    <property name="creation_time">2020-10-03T20:55:26</property>
    <property name="shotcut:hash">032e7bcfa57a4b0c5207de1508747ec2</property>
    <property name="global_feed">1</property>
    <property name="shotcut:caption">mc.png</property>
    <property name="xml">was here</property>
  </producer>
  <producer id="producer212" in="00:00:00.000" out="03:59:59.983">
    <property name="length">04:00:00.000</property>
    <property name="eof">pause</property>
    <property name="resource">d:/360MoveData/Users/Assassin/Desktop/paper_review/0002 reparameteizable subset sampling via continuous relaxations/mc.png</property>
    <property name="ttl">1</property>
    <property name="aspect_ratio">1</property>
    <property name="progressive">1</property>
    <property name="seekable">1</property>
    <property name="mlt_service">qimage</property>
    <property name="creation_time">2020-10-03T20:55:26</property>
    <property name="shotcut:hash">032e7bcfa57a4b0c5207de1508747ec2</property>
    <property name="global_feed">1</property>
    <property name="shotcut:caption">mc.png</property>
    <property name="xml">was here</property>
  </producer>
  <producer id="producer213" in="00:00:00.000" out="03:59:59.983">
    <property name="length">04:00:00.000</property>
    <property name="eof">pause</property>
    <property name="resource">d:/360MoveData/Users/Assassin/Desktop/paper_review/0002 reparameteizable subset sampling via continuous relaxations/mc.png</property>
    <property name="ttl">1</property>
    <property name="aspect_ratio">1</property>
    <property name="progressive">1</property>
    <property name="seekable">1</property>
    <property name="mlt_service">qimage</property>
    <property name="creation_time">2020-10-03T20:55:26</property>
    <property name="shotcut:hash">032e7bcfa57a4b0c5207de1508747ec2</property>
    <property name="global_feed">1</property>
    <property name="shotcut:caption">mc.png</property>
    <property name="xml">was here</property>
  </producer>
  <producer id="producer214" in="00:00:00.000" out="03:59:59.983">
    <property name="length">04:00:00.000</property>
    <property name="eof">pause</property>
    <property name="resource">d:/360MoveData/Users/Assassin/Desktop/paper_review/0002 reparameteizable subset sampling via continuous relaxations/mc.png</property>
    <property name="ttl">1</property>
    <property name="aspect_ratio">1</property>
    <property name="progressive">1</property>
    <property name="seekable">1</property>
    <property name="mlt_service">qimage</property>
    <property name="creation_time">2020-10-03T20:55:26</property>
    <property name="shotcut:hash">032e7bcfa57a4b0c5207de1508747ec2</property>
    <property name="global_feed">1</property>
    <property name="shotcut:caption">mc.png</property>
  </producer>
  <producer id="producer215" in="00:00:00.000" out="03:59:59.983">
    <property name="length">04:00:00.000</property>
    <property name="eof">pause</property>
    <property name="resource">d:/360MoveData/Users/Assassin/Desktop/paper_review/0002 reparameteizable subset sampling via continuous relaxations/3_problems.png</property>
    <property name="ttl">1</property>
    <property name="aspect_ratio">1</property>
    <property name="progressive">1</property>
    <property name="seekable">1</property>
    <property name="mlt_service">qimage</property>
    <property name="creation_time">2020-10-03T20:52:40</property>
    <property name="shotcut:hash">e8a87915c21b1ac0e4cea45498116502</property>
    <property name="global_feed">1</property>
    <property name="shotcut:caption">3_problems.png</property>
  </producer>
  <producer id="producer216" in="00:00:00.000" out="03:59:59.983">
    <property name="length">04:00:00.000</property>
    <property name="eof">pause</property>
    <property name="resource">d:/360MoveData/Users/Assassin/Desktop/paper_review/0002 reparameteizable subset sampling via continuous relaxations/diffable.png</property>
    <property name="ttl">1</property>
    <property name="aspect_ratio">1</property>
    <property name="progressive">1</property>
    <property name="seekable">1</property>
    <property name="mlt_service">qimage</property>
    <property name="creation_time">2020-10-03T21:07:06</property>
    <property name="shotcut:hash">888d7854f6513796d87f72045f4a0d9a</property>
    <property name="global_feed">1</property>
    <property name="shotcut:caption">diffable.png</property>
  </producer>
  <producer id="producer217" in="00:00:00.000" out="03:59:59.983">
    <property name="length">04:00:00.000</property>
    <property name="eof">pause</property>
    <property name="resource">d:/360MoveData/Users/Assassin/Desktop/paper_review/0002 reparameteizable subset sampling via continuous relaxations/3_problems.png</property>
    <property name="ttl">1</property>
    <property name="aspect_ratio">1</property>
    <property name="progressive">1</property>
    <property name="seekable">1</property>
    <property name="mlt_service">qimage</property>
    <property name="creation_time">2020-10-03T20:52:40</property>
    <property name="shotcut:hash">e8a87915c21b1ac0e4cea45498116502</property>
    <property name="global_feed">1</property>
    <property name="shotcut:caption">3_problems.png</property>
  </producer>
  <producer id="producer218" in="00:00:00.000" out="03:59:59.983">
    <property name="length">04:00:00.000</property>
    <property name="eof">pause</property>
    <property name="resource">d:/360MoveData/Users/Assassin/Desktop/paper_review/0002 reparameteizable subset sampling via continuous relaxations/paper06_soft_top_k.png</property>
    <property name="ttl">1</property>
    <property name="aspect_ratio">1</property>
    <property name="progressive">1</property>
    <property name="seekable">1</property>
    <property name="mlt_service">qimage</property>
    <property name="creation_time">2020-10-03T21:12:17</property>
    <property name="shotcut:hash">82ba130d35dd429a3bf95eff66f3f403</property>
    <property name="global_feed">1</property>
    <property name="shotcut:caption">paper06_soft_top_k.png</property>
  </producer>
  <producer id="producer219" in="00:00:00.000" out="03:59:59.983">
    <property name="length">04:00:00.000</property>
    <property name="eof">pause</property>
    <property name="resource">d:/360MoveData/Users/Assassin/Desktop/paper_review/0002 reparameteizable subset sampling via continuous relaxations/neural_nears_neighbour.png</property>
    <property name="ttl">1</property>
    <property name="aspect_ratio">1</property>
    <property name="progressive">1</property>
    <property name="seekable">1</property>
    <property name="mlt_service">qimage</property>
    <property name="creation_time">2020-10-03T21:13:14</property>
    <property name="shotcut:hash">214047f815b32d993dba58fd8496c373</property>
    <property name="global_feed">1</property>
    <property name="shotcut:caption">neural_nears_neighbour.png</property>
  </producer>
  <producer id="producer220" in="00:00:00.000" out="03:59:59.983">
    <property name="length">04:00:00.000</property>
    <property name="eof">pause</property>
    <property name="resource">d:/360MoveData/Users/Assassin/Desktop/paper_review/0002 reparameteizable subset sampling via continuous relaxations/paper06_soft_top_k.png</property>
    <property name="ttl">1</property>
    <property name="aspect_ratio">1</property>
    <property name="progressive">1</property>
    <property name="seekable">1</property>
    <property name="mlt_service">qimage</property>
    <property name="creation_time">2020-10-03T21:12:17</property>
    <property name="shotcut:hash">82ba130d35dd429a3bf95eff66f3f403</property>
    <property name="global_feed">1</property>
    <property name="shotcut:caption">paper06_soft_top_k.png</property>
  </producer>
  <producer id="producer221" in="00:00:00.000" out="03:59:59.983">
    <property name="length">04:00:00.000</property>
    <property name="eof">pause</property>
    <property name="resource">d:/360MoveData/Users/Assassin/Desktop/paper_review/0002 reparameteizable subset sampling via continuous relaxations/soft_top_k.png</property>
    <property name="ttl">1</property>
    <property name="aspect_ratio">1</property>
    <property name="progressive">1</property>
    <property name="seekable">1</property>
    <property name="mlt_service">qimage</property>
    <property name="creation_time">2020-10-03T21:17:03</property>
    <property name="shotcut:hash">c1a2296ce3feb17fcd3effde79b43715</property>
    <property name="global_feed">1</property>
    <property name="shotcut:caption">soft_top_k.png</property>
  </producer>
  <producer id="producer222" in="00:00:00.000" out="03:59:59.983">
    <property name="length">04:00:00.000</property>
    <property name="eof">pause</property>
    <property name="resource">d:/360MoveData/Users/Assassin/Desktop/paper_review/0002 reparameteizable subset sampling via continuous relaxations/paper06_soft_top_k.png</property>
    <property name="ttl">1</property>
    <property name="aspect_ratio">1</property>
    <property name="progressive">1</property>
    <property name="seekable">1</property>
    <property name="mlt_service">qimage</property>
    <property name="creation_time">2020-10-03T21:12:17</property>
    <property name="shotcut:hash">82ba130d35dd429a3bf95eff66f3f403</property>
    <property name="global_feed">1</property>
    <property name="shotcut:caption">paper06_soft_top_k.png</property>
  </producer>
  <producer id="producer223" in="00:00:00.000" out="03:59:59.983">
    <property name="length">04:00:00.000</property>
    <property name="eof">pause</property>
    <property name="resource">d:/360MoveData/Users/Assassin/Desktop/paper_review/0002 reparameteizable subset sampling via continuous relaxations/temprature.png</property>
    <property name="ttl">1</property>
    <property name="aspect_ratio">1</property>
    <property name="progressive">1</property>
    <property name="seekable">1</property>
    <property name="mlt_service">qimage</property>
    <property name="creation_time">2020-10-03T21:23:50</property>
    <property name="shotcut:hash">9e59fd0474b71ce4df8023a4a7466190</property>
    <property name="global_feed">1</property>
    <property name="shotcut:caption">temprature.png</property>
  </producer>
  <producer id="producer224" in="00:00:00.000" out="03:59:59.983">
    <property name="length">04:00:00.000</property>
    <property name="eof">pause</property>
    <property name="resource">d:/360MoveData/Users/Assassin/Desktop/paper_review/0002 reparameteizable subset sampling via continuous relaxations/paper07_temp.png</property>
    <property name="ttl">1</property>
    <property name="aspect_ratio">1</property>
    <property name="progressive">1</property>
    <property name="seekable">1</property>
    <property name="mlt_service">qimage</property>
    <property name="creation_time">2020-10-03T21:26:40</property>
    <property name="shotcut:hash">b440aa1e44ff7f2bb2c2bb0bb32d3c67</property>
    <property name="global_feed">1</property>
    <property name="shotcut:caption">paper07_temp.png</property>
  </producer>
  <producer id="producer225" in="00:00:00.000" out="03:59:59.983">
    <property name="length">04:00:00.000</property>
    <property name="eof">pause</property>
    <property name="resource">d:/360MoveData/Users/Assassin/Desktop/paper_review/0002 reparameteizable subset sampling via continuous relaxations/problem_soft_top_k.png</property>
    <property name="ttl">1</property>
    <property name="aspect_ratio">1</property>
    <property name="progressive">1</property>
    <property name="seekable">1</property>
    <property name="mlt_service">qimage</property>
    <property name="creation_time">2020-10-03T21:34:37</property>
    <property name="shotcut:hash">1db028f98d1c623a2a0d708682261682</property>
    <property name="global_feed">1</property>
    <property name="shotcut:caption">problem_soft_top_k.png</property>
  </producer>
  <producer id="producer226" in="00:00:00.000" out="03:59:59.983">
    <property name="length">04:00:00.000</property>
    <property name="eof">pause</property>
    <property name="resource">d:/360MoveData/Users/Assassin/Desktop/paper_review/0002 reparameteizable subset sampling via continuous relaxations/optimal_transport_soft_top_k.png</property>
    <property name="ttl">1</property>
    <property name="aspect_ratio">1</property>
    <property name="progressive">1</property>
    <property name="seekable">1</property>
    <property name="mlt_service">qimage</property>
    <property name="creation_time">2020-10-03T21:38:23</property>
    <property name="shotcut:hash">138e1e459af686057b1a155d6b4facd7</property>
    <property name="global_feed">1</property>
    <property name="shotcut:caption">optimal_transport_soft_top_k.png</property>
  </producer>
  <producer id="producer227" in="00:00:00.000" out="03:59:59.983">
    <property name="length">04:00:00.000</property>
    <property name="eof">pause</property>
    <property name="resource">d:/360MoveData/Users/Assassin/Desktop/paper_review/0002 reparameteizable subset sampling via continuous relaxations/optimal_transport_soft_top_k_2.png</property>
    <property name="ttl">1</property>
    <property name="aspect_ratio">1</property>
    <property name="progressive">1</property>
    <property name="seekable">1</property>
    <property name="mlt_service">qimage</property>
    <property name="creation_time">2020-10-03T21:39:09</property>
    <property name="shotcut:hash">73fea9eb3a96c4b2e66f3680dc8cfe4d</property>
    <property name="global_feed">1</property>
    <property name="shotcut:caption">optimal_transport_soft_top_k_2.png</property>
    <property name="xml">was here</property>
  </producer>
  <producer id="producer228" in="00:00:00.000" out="03:59:59.983">
    <property name="length">04:00:00.000</property>
    <property name="eof">pause</property>
    <property name="resource">d:/360MoveData/Users/Assassin/Desktop/paper_review/0002 reparameteizable subset sampling via continuous relaxations/optimal_transport_soft_top_k_2.png</property>
    <property name="ttl">1</property>
    <property name="aspect_ratio">1</property>
    <property name="progressive">1</property>
    <property name="seekable">1</property>
    <property name="mlt_service">qimage</property>
    <property name="creation_time">2020-10-03T21:39:09</property>
    <property name="shotcut:hash">73fea9eb3a96c4b2e66f3680dc8cfe4d</property>
    <property name="global_feed">1</property>
    <property name="shotcut:caption">optimal_transport_soft_top_k_2.png</property>
    <property name="xml">was here</property>
  </producer>
  <producer id="producer229" in="00:00:00.000" out="03:59:59.983">
    <property name="length">04:00:00.000</property>
    <property name="eof">pause</property>
    <property name="resource">d:/360MoveData/Users/Assassin/Desktop/paper_review/0002 reparameteizable subset sampling via continuous relaxations/optimal_transport_soft_top_k_2.png</property>
    <property name="ttl">1</property>
    <property name="aspect_ratio">1</property>
    <property name="progressive">1</property>
    <property name="seekable">1</property>
    <property name="mlt_service">qimage</property>
    <property name="creation_time">2020-10-03T21:39:09</property>
    <property name="shotcut:hash">73fea9eb3a96c4b2e66f3680dc8cfe4d</property>
    <property name="global_feed">1</property>
    <property name="shotcut:caption">optimal_transport_soft_top_k_2.png</property>
    <property name="xml">was here</property>
  </producer>
  <producer id="producer230" in="00:00:00.000" out="03:59:59.983">
    <property name="length">04:00:00.000</property>
    <property name="eof">pause</property>
    <property name="resource">d:/360MoveData/Users/Assassin/Desktop/paper_review/0002 reparameteizable subset sampling via continuous relaxations/optimal_transport_soft_top_k_2.png</property>
    <property name="ttl">1</property>
    <property name="aspect_ratio">1</property>
    <property name="progressive">1</property>
    <property name="seekable">1</property>
    <property name="mlt_service">qimage</property>
    <property name="creation_time">2020-10-03T21:39:09</property>
    <property name="shotcut:hash">73fea9eb3a96c4b2e66f3680dc8cfe4d</property>
    <property name="global_feed">1</property>
    <property name="shotcut:caption">optimal_transport_soft_top_k_2.png</property>
  </producer>
  <playlist id="playlist1">
    <property name="shotcut:video">1</property>
    <property name="shotcut:name">V2</property>
    <entry producer="producer179" in="00:00:00.000" out="00:00:21.650"/>
    <entry producer="tractor26" in="00:00:00.000" out="00:00:00.267"/>
    <entry producer="producer180" in="00:00:00.283" out="00:00:16.733"/>
    <entry producer="producer181" in="00:00:00.000" out="00:00:17.533"/>
    <entry producer="producer182" in="00:00:00.000" out="00:00:11.017"/>
    <entry producer="producer183" in="00:00:00.000" out="00:00:12.883"/>
    <entry producer="producer184" in="00:00:00.000" out="00:00:38.933"/>
    <entry producer="producer185" in="00:00:00.000" out="00:00:15.050"/>
    <entry producer="producer186" in="00:00:00.000" out="00:00:20.867"/>
    <entry producer="producer187" in="00:00:00.000" out="00:00:19.383"/>
    <entry producer="producer188" in="00:00:00.000" out="00:00:05.650"/>
    <entry producer="producer189" in="00:00:00.000" out="00:00:05.767"/>
    <entry producer="tractor27" in="00:00:00.000" out="00:00:00.350"/>
    <entry producer="producer190" in="00:00:00.367" out="00:00:30.967"/>
    <entry producer="producer191" in="00:00:00.000" out="00:00:39.267"/>
    <entry producer="producer192" in="00:00:00.000" out="00:00:10.233"/>
    <entry producer="producer193" in="00:00:00.000" out="00:00:19.300"/>
    <entry producer="producer194" in="00:00:00.000" out="00:00:09.250"/>
    <entry producer="producer195" in="00:00:00.000" out="00:00:26.267"/>
    <entry producer="producer196" in="00:00:00.000" out="00:00:35.917"/>
    <entry producer="producer197" in="00:00:00.000" out="00:00:41.200"/>
    <entry producer="producer198" in="00:00:00.000" out="00:00:06.783"/>
    <entry producer="producer199" in="00:00:00.000" out="00:00:03.983"/>
    <entry producer="producer200" in="00:00:00.000" out="00:00:09.933"/>
    <entry producer="producer201" in="00:00:00.000" out="00:00:17.183"/>
    <entry producer="producer202" in="00:00:17.317" out="00:00:21.100"/>
    <entry producer="producer203" in="00:00:21.633" out="00:00:22.483"/>
    <entry producer="producer204" in="00:00:24.850" out="00:00:29.017"/>
    <entry producer="producer205" in="00:00:30.283" out="00:00:53.950"/>
    <entry producer="producer206" in="00:00:00.000" out="00:00:59.700"/>
    <entry producer="producer207" in="00:00:00.000" out="00:00:34.583"/>
    <entry producer="producer208" in="00:00:35.367" out="00:01:05.967"/>
    <entry producer="producer209" in="00:00:00.000" out="00:00:29.933"/>
    <entry producer="producer210" in="00:00:00.217" out="00:00:14.033"/>
    <entry producer="producer211" in="00:00:00.000" out="00:00:32.750"/>
    <entry producer="producer212" in="00:00:32.867" out="00:00:34.567"/>
    <entry producer="producer213" in="00:00:34.650" out="00:00:35.817"/>
    <entry producer="producer214" in="00:00:35.933" out="00:00:42.700"/>
    <entry producer="producer215" in="00:00:00.000" out="00:00:08.867"/>
    <entry producer="producer216" in="00:00:00.000" out="00:00:30.250"/>
    <entry producer="producer217" in="00:00:00.000" out="00:00:06.833"/>
    <entry producer="producer218" in="00:00:00.000" out="00:00:09.250"/>
    <entry producer="producer219" in="00:00:00.000" out="00:00:47.150"/>
    <entry producer="producer220" in="00:00:00.000" out="00:00:31.683"/>
    <entry producer="producer221" in="00:00:00.000" out="00:00:21.783"/>
    <entry producer="producer222" in="00:00:00.000" out="00:00:47.167"/>
    <entry producer="producer223" in="00:00:00.000" out="00:00:39.117"/>
    <entry producer="producer224" in="00:00:00.000" out="00:00:14.700"/>
    <entry producer="producer225" in="00:00:00.000" out="00:01:28.200"/>
    <entry producer="producer226" in="00:00:00.000" out="00:00:11.367"/>
    <entry producer="producer227" in="00:00:00.000" out="00:01:21.767"/>
    <entry producer="producer228" in="00:01:21.783" out="00:01:23.217"/>
    <entry producer="producer229" in="00:01:23.233" out="00:01:36.217"/>
    <entry producer="producer230" in="00:01:39.783" out="00:01:48.167"/>
  </playlist>
  <playlist id="playlist2">
    <property name="shotcut:audio">1</property>
    <property name="shotcut:name">A1</property>
    <blank length="00:00:00.017"/>
  </playlist>
  <tractor id="tractor28" title="Shotcut version 20.09.13" global_feed="1" in="00:00:00.000" out="00:19:01.017">
    <property name="shotcut">1</property>
    <property name="shotcut:projectAudioChannels">2</property>
    <property name="shotcut:projectFolder">0</property>
    <property name="shotcut:scaleFactor">0.412377</property>
    <property name="shotcut:trackHeight">70</property>
    <track producer="background"/>
    <track producer="playlist0"/>
    <track producer="playlist1"/>
    <track producer="playlist2" hide="video"/>
    <transition id="transition56">
      <property name="a_track">0</property>
      <property name="b_track">1</property>
      <property name="mlt_service">mix</property>
      <property name="always_active">1</property>
      <property name="sum">1</property>
    </transition>
    <transition id="transition57">
      <property name="a_track">0</property>
      <property name="b_track">1</property>
      <property name="version">0.9</property>
      <property name="mlt_service">frei0r.cairoblend</property>
      <property name="disable">1</property>
    </transition>
    <transition id="transition58">
      <property name="a_track">0</property>
      <property name="b_track">2</property>
      <property name="mlt_service">mix</property>
      <property name="always_active">1</property>
      <property name="sum">1</property>
    </transition>
    <transition id="transition59">
      <property name="a_track">1</property>
      <property name="b_track">2</property>
      <property name="version">0.9</property>
      <property name="mlt_service">frei0r.cairoblend</property>
      <property name="disable">0</property>
    </transition>
    <transition id="transition60">
      <property name="a_track">0</property>
      <property name="b_track">3</property>
      <property name="mlt_service">mix</property>
      <property name="always_active">1</property>
      <property name="sum">1</property>
    </transition>
  </tractor>
</mlt>
