<?xml version="1.0" encoding="UTF-8" standalone="no"?>
<mlt LC_NUMERIC="C" version="6.23.0" title="Shotcut version 20.09.13" producer="main_bin">
  <profile description="PAL 4:3 DV or DVD" width="1920" height="1080" progressive="1" sample_aspect_num="1" sample_aspect_den="1" display_aspect_num="16" display_aspect_den="9" frame_rate_num="60" frame_rate_den="1" colorspace="709"/>
  <playlist id="main_bin">
    <property name="xml_retain">1</property>
  </playlist>
  <producer id="black" in="00:00:00.000" out="00:19:18.083">
    <property name="length">00:19:18.100</property>
    <property name="eof">pause</property>
    <property name="resource">0</property>
    <property name="aspect_ratio">1</property>
    <property name="mlt_service">color</property>
    <property name="mlt_image_format">rgb24a</property>
    <property name="set.test_audio">0</property>
  </producer>
  <playlist id="background">
    <entry producer="black" in="00:00:00.000" out="00:19:18.083"/>
  </playlist>
  <producer id="producer0" in="00:00:00.000" out="00:23:56.150">
    <property name="length">00:23:56.167</property>
    <property name="eof">pause</property>
    <property name="resource">d:/360MoveData/Users/Assassin/Desktop/paper_review/0003 Informer the best paper AAAI2021/informer.m4a</property>
    <property name="audio_index">0</property>
    <property name="video_index">-1</property>
    <property name="mute_on_pause">0</property>
    <property name="mlt_service">avformat-novalidate</property>
    <property name="seekable">1</property>
    <property name="creation_time">2021-02-18T03:10:18</property>
    <property name="shotcut:hash">3141884cfbc933a8c12d1e3c83f5e35a</property>
    <property name="global_feed">1</property>
    <property name="shotcut:caption">informer.m4a</property>
    <property name="xml">was here</property>
  </producer>
  <producer id="producer1" in="00:00:00.000" out="00:23:56.150">
    <property name="length">00:23:56.167</property>
    <property name="eof">pause</property>
    <property name="resource">d:/360MoveData/Users/Assassin/Desktop/paper_review/0003 Informer the best paper AAAI2021/informer.m4a</property>
    <property name="audio_index">0</property>
    <property name="video_index">-1</property>
    <property name="mute_on_pause">0</property>
    <property name="mlt_service">avformat-novalidate</property>
    <property name="seekable">1</property>
    <property name="creation_time">2021-02-18T03:10:18</property>
    <property name="shotcut:hash">3141884cfbc933a8c12d1e3c83f5e35a</property>
    <property name="global_feed">1</property>
    <property name="shotcut:caption">informer.m4a</property>
    <property name="xml">was here</property>
  </producer>
  <producer id="producer2" in="00:00:00.000" out="00:23:56.150">
    <property name="length">00:23:56.167</property>
    <property name="eof">pause</property>
    <property name="resource">d:/360MoveData/Users/Assassin/Desktop/paper_review/0003 Informer the best paper AAAI2021/informer.m4a</property>
    <property name="audio_index">0</property>
    <property name="video_index">-1</property>
    <property name="mute_on_pause">0</property>
    <property name="mlt_service">avformat-novalidate</property>
    <property name="seekable">1</property>
    <property name="creation_time">2021-02-18T03:10:18</property>
    <property name="shotcut:hash">3141884cfbc933a8c12d1e3c83f5e35a</property>
    <property name="global_feed">1</property>
    <property name="shotcut:caption">informer.m4a</property>
    <property name="xml">was here</property>
  </producer>
  <producer id="producer3" in="00:00:00.000" out="00:23:56.150">
    <property name="length">00:23:56.167</property>
    <property name="eof">pause</property>
    <property name="resource">d:/360MoveData/Users/Assassin/Desktop/paper_review/0003 Informer the best paper AAAI2021/informer.m4a</property>
    <property name="audio_index">0</property>
    <property name="video_index">-1</property>
    <property name="mute_on_pause">0</property>
    <property name="mlt_service">avformat-novalidate</property>
    <property name="seekable">1</property>
    <property name="creation_time">2021-02-18T03:10:18</property>
    <property name="shotcut:hash">3141884cfbc933a8c12d1e3c83f5e35a</property>
    <property name="global_feed">1</property>
    <property name="shotcut:caption">informer.m4a</property>
    <property name="xml">was here</property>
  </producer>
  <producer id="producer4" in="00:00:00.000" out="00:23:56.150">
    <property name="length">00:23:56.167</property>
    <property name="eof">pause</property>
    <property name="resource">d:/360MoveData/Users/Assassin/Desktop/paper_review/0003 Informer the best paper AAAI2021/informer.m4a</property>
    <property name="audio_index">0</property>
    <property name="video_index">-1</property>
    <property name="mute_on_pause">0</property>
    <property name="mlt_service">avformat-novalidate</property>
    <property name="seekable">1</property>
    <property name="creation_time">2021-02-18T03:10:18</property>
    <property name="shotcut:hash">3141884cfbc933a8c12d1e3c83f5e35a</property>
    <property name="global_feed">1</property>
    <property name="shotcut:caption">informer.m4a</property>
    <property name="xml">was here</property>
  </producer>
  <producer id="producer5" in="00:00:00.000" out="00:23:56.150">
    <property name="length">00:23:56.167</property>
    <property name="eof">pause</property>
    <property name="resource">d:/360MoveData/Users/Assassin/Desktop/paper_review/0003 Informer the best paper AAAI2021/informer.m4a</property>
    <property name="audio_index">0</property>
    <property name="video_index">-1</property>
    <property name="mute_on_pause">0</property>
    <property name="mlt_service">avformat-novalidate</property>
    <property name="seekable">1</property>
    <property name="creation_time">2021-02-18T03:10:18</property>
    <property name="shotcut:hash">3141884cfbc933a8c12d1e3c83f5e35a</property>
    <property name="global_feed">1</property>
    <property name="shotcut:caption">informer.m4a</property>
    <property name="xml">was here</property>
  </producer>
  <producer id="producer6" in="00:00:00.000" out="00:23:56.150">
    <property name="length">00:23:56.167</property>
    <property name="eof">pause</property>
    <property name="resource">d:/360MoveData/Users/Assassin/Desktop/paper_review/0003 Informer the best paper AAAI2021/informer.m4a</property>
    <property name="audio_index">0</property>
    <property name="video_index">-1</property>
    <property name="mute_on_pause">0</property>
    <property name="mlt_service">avformat-novalidate</property>
    <property name="seekable">1</property>
    <property name="creation_time">2021-02-18T03:10:18</property>
    <property name="shotcut:hash">3141884cfbc933a8c12d1e3c83f5e35a</property>
    <property name="global_feed">1</property>
    <property name="shotcut:caption">informer.m4a</property>
    <property name="xml">was here</property>
  </producer>
  <producer id="producer7" in="00:00:00.000" out="00:23:56.150">
    <property name="length">00:23:56.167</property>
    <property name="eof">pause</property>
    <property name="resource">d:/360MoveData/Users/Assassin/Desktop/paper_review/0003 Informer the best paper AAAI2021/informer.m4a</property>
    <property name="audio_index">0</property>
    <property name="video_index">-1</property>
    <property name="mute_on_pause">0</property>
    <property name="mlt_service">avformat-novalidate</property>
    <property name="seekable">1</property>
    <property name="creation_time">2021-02-18T03:10:18</property>
    <property name="shotcut:hash">3141884cfbc933a8c12d1e3c83f5e35a</property>
    <property name="global_feed">1</property>
    <property name="shotcut:caption">informer.m4a</property>
    <property name="xml">was here</property>
  </producer>
  <producer id="producer8" in="00:00:00.000" out="00:23:56.150">
    <property name="length">00:23:56.167</property>
    <property name="eof">pause</property>
    <property name="resource">d:/360MoveData/Users/Assassin/Desktop/paper_review/0003 Informer the best paper AAAI2021/informer.m4a</property>
    <property name="audio_index">0</property>
    <property name="video_index">-1</property>
    <property name="mute_on_pause">0</property>
    <property name="mlt_service">avformat-novalidate</property>
    <property name="seekable">1</property>
    <property name="creation_time">2021-02-18T03:10:18</property>
    <property name="shotcut:hash">3141884cfbc933a8c12d1e3c83f5e35a</property>
    <property name="global_feed">1</property>
    <property name="shotcut:caption">informer.m4a</property>
    <property name="xml">was here</property>
  </producer>
  <producer id="producer9" in="00:00:00.000" out="00:23:56.150">
    <property name="length">00:23:56.167</property>
    <property name="eof">pause</property>
    <property name="resource">d:/360MoveData/Users/Assassin/Desktop/paper_review/0003 Informer the best paper AAAI2021/informer.m4a</property>
    <property name="audio_index">0</property>
    <property name="video_index">-1</property>
    <property name="mute_on_pause">0</property>
    <property name="mlt_service">avformat-novalidate</property>
    <property name="seekable">1</property>
    <property name="creation_time">2021-02-18T03:10:18</property>
    <property name="shotcut:hash">3141884cfbc933a8c12d1e3c83f5e35a</property>
    <property name="global_feed">1</property>
    <property name="shotcut:caption">informer.m4a</property>
    <property name="xml">was here</property>
  </producer>
  <producer id="producer10" in="00:00:00.000" out="00:23:56.150">
    <property name="length">00:23:56.167</property>
    <property name="eof">pause</property>
    <property name="resource">d:/360MoveData/Users/Assassin/Desktop/paper_review/0003 Informer the best paper AAAI2021/informer.m4a</property>
    <property name="audio_index">0</property>
    <property name="video_index">-1</property>
    <property name="mute_on_pause">0</property>
    <property name="mlt_service">avformat-novalidate</property>
    <property name="seekable">1</property>
    <property name="creation_time">2021-02-18T03:10:18</property>
    <property name="shotcut:hash">3141884cfbc933a8c12d1e3c83f5e35a</property>
    <property name="global_feed">1</property>
    <property name="shotcut:caption">informer.m4a</property>
    <property name="xml">was here</property>
  </producer>
  <producer id="producer11" in="00:00:00.000" out="00:23:56.150">
    <property name="length">00:23:56.167</property>
    <property name="eof">pause</property>
    <property name="resource">d:/360MoveData/Users/Assassin/Desktop/paper_review/0003 Informer the best paper AAAI2021/informer.m4a</property>
    <property name="audio_index">0</property>
    <property name="video_index">-1</property>
    <property name="mute_on_pause">0</property>
    <property name="mlt_service">avformat-novalidate</property>
    <property name="seekable">1</property>
    <property name="creation_time">2021-02-18T03:10:18</property>
    <property name="shotcut:hash">3141884cfbc933a8c12d1e3c83f5e35a</property>
    <property name="global_feed">1</property>
    <property name="shotcut:caption">informer.m4a</property>
    <property name="xml">was here</property>
  </producer>
  <producer id="producer12" in="00:00:00.000" out="00:23:56.150">
    <property name="length">00:23:56.167</property>
    <property name="eof">pause</property>
    <property name="resource">d:/360MoveData/Users/Assassin/Desktop/paper_review/0003 Informer the best paper AAAI2021/informer.m4a</property>
    <property name="audio_index">0</property>
    <property name="video_index">-1</property>
    <property name="mute_on_pause">0</property>
    <property name="mlt_service">avformat-novalidate</property>
    <property name="seekable">1</property>
    <property name="creation_time">2021-02-18T03:10:18</property>
    <property name="shotcut:hash">3141884cfbc933a8c12d1e3c83f5e35a</property>
    <property name="global_feed">1</property>
    <property name="shotcut:caption">informer.m4a</property>
    <property name="xml">was here</property>
  </producer>
  <producer id="producer13" in="00:00:00.000" out="00:23:56.150">
    <property name="length">00:23:56.167</property>
    <property name="eof">pause</property>
    <property name="resource">d:/360MoveData/Users/Assassin/Desktop/paper_review/0003 Informer the best paper AAAI2021/informer.m4a</property>
    <property name="audio_index">0</property>
    <property name="video_index">-1</property>
    <property name="mute_on_pause">0</property>
    <property name="mlt_service">avformat-novalidate</property>
    <property name="seekable">1</property>
    <property name="creation_time">2021-02-18T03:10:18</property>
    <property name="shotcut:hash">3141884cfbc933a8c12d1e3c83f5e35a</property>
    <property name="global_feed">1</property>
    <property name="shotcut:caption">informer.m4a</property>
    <property name="xml">was here</property>
  </producer>
  <producer id="producer14" in="00:00:00.000" out="00:23:56.150">
    <property name="length">00:23:56.167</property>
    <property name="eof">pause</property>
    <property name="resource">d:/360MoveData/Users/Assassin/Desktop/paper_review/0003 Informer the best paper AAAI2021/informer.m4a</property>
    <property name="audio_index">0</property>
    <property name="video_index">-1</property>
    <property name="mute_on_pause">0</property>
    <property name="mlt_service">avformat-novalidate</property>
    <property name="seekable">1</property>
    <property name="creation_time">2021-02-18T03:10:18</property>
    <property name="shotcut:hash">3141884cfbc933a8c12d1e3c83f5e35a</property>
    <property name="global_feed">1</property>
    <property name="shotcut:caption">informer.m4a</property>
    <property name="xml">was here</property>
  </producer>
  <producer id="producer15" in="00:00:00.000" out="00:23:56.150">
    <property name="length">00:23:56.167</property>
    <property name="eof">pause</property>
    <property name="resource">d:/360MoveData/Users/Assassin/Desktop/paper_review/0003 Informer the best paper AAAI2021/informer.m4a</property>
    <property name="audio_index">0</property>
    <property name="video_index">-1</property>
    <property name="mute_on_pause">0</property>
    <property name="mlt_service">avformat-novalidate</property>
    <property name="seekable">1</property>
    <property name="creation_time">2021-02-18T03:10:18</property>
    <property name="shotcut:hash">3141884cfbc933a8c12d1e3c83f5e35a</property>
    <property name="global_feed">1</property>
    <property name="shotcut:caption">informer.m4a</property>
    <property name="xml">was here</property>
  </producer>
  <producer id="producer16" in="00:00:00.000" out="00:23:56.150">
    <property name="length">00:23:56.167</property>
    <property name="eof">pause</property>
    <property name="resource">d:/360MoveData/Users/Assassin/Desktop/paper_review/0003 Informer the best paper AAAI2021/informer.m4a</property>
    <property name="audio_index">0</property>
    <property name="video_index">-1</property>
    <property name="mute_on_pause">0</property>
    <property name="mlt_service">avformat-novalidate</property>
    <property name="seekable">1</property>
    <property name="creation_time">2021-02-18T03:10:18</property>
    <property name="shotcut:hash">3141884cfbc933a8c12d1e3c83f5e35a</property>
    <property name="global_feed">1</property>
    <property name="shotcut:caption">informer.m4a</property>
    <property name="xml">was here</property>
  </producer>
  <producer id="producer17" in="00:00:00.000" out="00:23:56.150">
    <property name="length">00:23:56.167</property>
    <property name="eof">pause</property>
    <property name="resource">d:/360MoveData/Users/Assassin/Desktop/paper_review/0003 Informer the best paper AAAI2021/informer.m4a</property>
    <property name="audio_index">0</property>
    <property name="video_index">-1</property>
    <property name="mute_on_pause">0</property>
    <property name="mlt_service">avformat-novalidate</property>
    <property name="seekable">1</property>
    <property name="creation_time">2021-02-18T03:10:18</property>
    <property name="shotcut:hash">3141884cfbc933a8c12d1e3c83f5e35a</property>
    <property name="global_feed">1</property>
    <property name="shotcut:caption">informer.m4a</property>
    <property name="xml">was here</property>
  </producer>
  <producer id="producer18" in="00:00:00.000" out="00:23:56.150">
    <property name="length">00:23:56.167</property>
    <property name="eof">pause</property>
    <property name="resource">d:/360MoveData/Users/Assassin/Desktop/paper_review/0003 Informer the best paper AAAI2021/informer.m4a</property>
    <property name="audio_index">0</property>
    <property name="video_index">-1</property>
    <property name="mute_on_pause">0</property>
    <property name="mlt_service">avformat-novalidate</property>
    <property name="seekable">1</property>
    <property name="creation_time">2021-02-18T03:10:18</property>
    <property name="shotcut:hash">3141884cfbc933a8c12d1e3c83f5e35a</property>
    <property name="global_feed">1</property>
    <property name="shotcut:caption">informer.m4a</property>
    <property name="xml">was here</property>
  </producer>
  <producer id="producer19" in="00:00:00.000" out="00:23:56.150">
    <property name="length">00:23:56.167</property>
    <property name="eof">pause</property>
    <property name="resource">d:/360MoveData/Users/Assassin/Desktop/paper_review/0003 Informer the best paper AAAI2021/informer.m4a</property>
    <property name="audio_index">0</property>
    <property name="video_index">-1</property>
    <property name="mute_on_pause">0</property>
    <property name="mlt_service">avformat-novalidate</property>
    <property name="seekable">1</property>
    <property name="creation_time">2021-02-18T03:10:18</property>
    <property name="shotcut:hash">3141884cfbc933a8c12d1e3c83f5e35a</property>
    <property name="global_feed">1</property>
    <property name="shotcut:caption">informer.m4a</property>
    <property name="xml">was here</property>
  </producer>
  <producer id="producer20" in="00:00:00.000" out="00:23:56.150">
    <property name="length">00:23:56.167</property>
    <property name="eof">pause</property>
    <property name="resource">d:/360MoveData/Users/Assassin/Desktop/paper_review/0003 Informer the best paper AAAI2021/informer.m4a</property>
    <property name="audio_index">0</property>
    <property name="video_index">-1</property>
    <property name="mute_on_pause">0</property>
    <property name="mlt_service">avformat-novalidate</property>
    <property name="seekable">1</property>
    <property name="creation_time">2021-02-18T03:10:18</property>
    <property name="shotcut:hash">3141884cfbc933a8c12d1e3c83f5e35a</property>
    <property name="global_feed">1</property>
    <property name="shotcut:caption">informer.m4a</property>
    <property name="xml">was here</property>
  </producer>
  <producer id="producer21" in="00:00:00.000" out="00:23:56.150">
    <property name="length">00:23:56.167</property>
    <property name="eof">pause</property>
    <property name="resource">d:/360MoveData/Users/Assassin/Desktop/paper_review/0003 Informer the best paper AAAI2021/informer.m4a</property>
    <property name="audio_index">0</property>
    <property name="video_index">-1</property>
    <property name="mute_on_pause">0</property>
    <property name="mlt_service">avformat-novalidate</property>
    <property name="seekable">1</property>
    <property name="creation_time">2021-02-18T03:10:18</property>
    <property name="shotcut:hash">3141884cfbc933a8c12d1e3c83f5e35a</property>
    <property name="global_feed">1</property>
    <property name="shotcut:caption">informer.m4a</property>
    <property name="xml">was here</property>
  </producer>
  <producer id="producer22" in="00:00:00.000" out="00:23:56.150">
    <property name="length">00:23:56.167</property>
    <property name="eof">pause</property>
    <property name="resource">d:/360MoveData/Users/Assassin/Desktop/paper_review/0003 Informer the best paper AAAI2021/informer.m4a</property>
    <property name="audio_index">0</property>
    <property name="video_index">-1</property>
    <property name="mute_on_pause">0</property>
    <property name="mlt_service">avformat-novalidate</property>
    <property name="seekable">1</property>
    <property name="creation_time">2021-02-18T03:10:18</property>
    <property name="shotcut:hash">3141884cfbc933a8c12d1e3c83f5e35a</property>
    <property name="global_feed">1</property>
    <property name="shotcut:caption">informer.m4a</property>
    <property name="xml">was here</property>
  </producer>
  <producer id="producer23" in="00:00:00.000" out="00:23:56.150">
    <property name="length">00:23:56.167</property>
    <property name="eof">pause</property>
    <property name="resource">d:/360MoveData/Users/Assassin/Desktop/paper_review/0003 Informer the best paper AAAI2021/informer.m4a</property>
    <property name="audio_index">0</property>
    <property name="video_index">-1</property>
    <property name="mute_on_pause">0</property>
    <property name="mlt_service">avformat-novalidate</property>
    <property name="seekable">1</property>
    <property name="creation_time">2021-02-18T03:10:18</property>
    <property name="shotcut:hash">3141884cfbc933a8c12d1e3c83f5e35a</property>
    <property name="global_feed">1</property>
    <property name="shotcut:caption">informer.m4a</property>
    <property name="xml">was here</property>
  </producer>
  <producer id="producer24" in="00:00:00.000" out="00:23:56.150">
    <property name="length">00:23:56.167</property>
    <property name="eof">pause</property>
    <property name="resource">d:/360MoveData/Users/Assassin/Desktop/paper_review/0003 Informer the best paper AAAI2021/informer.m4a</property>
    <property name="audio_index">0</property>
    <property name="video_index">-1</property>
    <property name="mute_on_pause">0</property>
    <property name="mlt_service">avformat-novalidate</property>
    <property name="seekable">1</property>
    <property name="creation_time">2021-02-18T03:10:18</property>
    <property name="shotcut:hash">3141884cfbc933a8c12d1e3c83f5e35a</property>
    <property name="global_feed">1</property>
    <property name="shotcut:caption">informer.m4a</property>
    <property name="xml">was here</property>
  </producer>
  <producer id="producer25" in="00:00:00.000" out="00:23:56.150">
    <property name="length">00:23:56.167</property>
    <property name="eof">pause</property>
    <property name="resource">d:/360MoveData/Users/Assassin/Desktop/paper_review/0003 Informer the best paper AAAI2021/informer.m4a</property>
    <property name="audio_index">0</property>
    <property name="video_index">-1</property>
    <property name="mute_on_pause">0</property>
    <property name="mlt_service">avformat-novalidate</property>
    <property name="seekable">1</property>
    <property name="creation_time">2021-02-18T03:10:18</property>
    <property name="shotcut:hash">3141884cfbc933a8c12d1e3c83f5e35a</property>
    <property name="global_feed">1</property>
    <property name="shotcut:caption">informer.m4a</property>
    <property name="xml">was here</property>
  </producer>
  <producer id="producer26" in="00:00:00.000" out="00:23:56.150">
    <property name="length">00:23:56.167</property>
    <property name="eof">pause</property>
    <property name="resource">d:/360MoveData/Users/Assassin/Desktop/paper_review/0003 Informer the best paper AAAI2021/informer.m4a</property>
    <property name="audio_index">0</property>
    <property name="video_index">-1</property>
    <property name="mute_on_pause">0</property>
    <property name="mlt_service">avformat-novalidate</property>
    <property name="seekable">1</property>
    <property name="creation_time">2021-02-18T03:10:18</property>
    <property name="shotcut:hash">3141884cfbc933a8c12d1e3c83f5e35a</property>
    <property name="global_feed">1</property>
    <property name="shotcut:caption">informer.m4a</property>
    <property name="xml">was here</property>
  </producer>
  <producer id="producer27" in="00:00:00.000" out="00:23:56.150">
    <property name="length">00:23:56.167</property>
    <property name="eof">pause</property>
    <property name="resource">d:/360MoveData/Users/Assassin/Desktop/paper_review/0003 Informer the best paper AAAI2021/informer.m4a</property>
    <property name="audio_index">0</property>
    <property name="video_index">-1</property>
    <property name="mute_on_pause">0</property>
    <property name="mlt_service">avformat-novalidate</property>
    <property name="seekable">1</property>
    <property name="creation_time">2021-02-18T03:10:18</property>
    <property name="shotcut:hash">3141884cfbc933a8c12d1e3c83f5e35a</property>
    <property name="global_feed">1</property>
    <property name="shotcut:caption">informer.m4a</property>
    <property name="xml">was here</property>
  </producer>
  <producer id="producer28" in="00:00:00.000" out="00:23:56.150">
    <property name="length">00:23:56.167</property>
    <property name="eof">pause</property>
    <property name="resource">d:/360MoveData/Users/Assassin/Desktop/paper_review/0003 Informer the best paper AAAI2021/informer.m4a</property>
    <property name="audio_index">0</property>
    <property name="video_index">-1</property>
    <property name="mute_on_pause">0</property>
    <property name="mlt_service">avformat-novalidate</property>
    <property name="seekable">1</property>
    <property name="creation_time">2021-02-18T03:10:18</property>
    <property name="shotcut:hash">3141884cfbc933a8c12d1e3c83f5e35a</property>
    <property name="global_feed">1</property>
    <property name="shotcut:caption">informer.m4a</property>
    <property name="xml">was here</property>
  </producer>
  <producer id="producer29" in="00:00:00.000" out="00:23:56.150">
    <property name="length">00:23:56.167</property>
    <property name="eof">pause</property>
    <property name="resource">d:/360MoveData/Users/Assassin/Desktop/paper_review/0003 Informer the best paper AAAI2021/informer.m4a</property>
    <property name="audio_index">0</property>
    <property name="video_index">-1</property>
    <property name="mute_on_pause">0</property>
    <property name="mlt_service">avformat-novalidate</property>
    <property name="seekable">1</property>
    <property name="creation_time">2021-02-18T03:10:18</property>
    <property name="shotcut:hash">3141884cfbc933a8c12d1e3c83f5e35a</property>
    <property name="global_feed">1</property>
    <property name="shotcut:caption">informer.m4a</property>
    <property name="xml">was here</property>
  </producer>
  <producer id="producer30" in="00:00:00.000" out="00:23:56.150">
    <property name="length">00:23:56.167</property>
    <property name="eof">pause</property>
    <property name="resource">d:/360MoveData/Users/Assassin/Desktop/paper_review/0003 Informer the best paper AAAI2021/informer.m4a</property>
    <property name="audio_index">0</property>
    <property name="video_index">-1</property>
    <property name="mute_on_pause">0</property>
    <property name="mlt_service">avformat-novalidate</property>
    <property name="seekable">1</property>
    <property name="creation_time">2021-02-18T03:10:18</property>
    <property name="shotcut:hash">3141884cfbc933a8c12d1e3c83f5e35a</property>
    <property name="global_feed">1</property>
    <property name="shotcut:caption">informer.m4a</property>
    <property name="xml">was here</property>
  </producer>
  <producer id="producer31" in="00:00:00.000" out="00:23:56.150">
    <property name="length">00:23:56.167</property>
    <property name="eof">pause</property>
    <property name="resource">d:/360MoveData/Users/Assassin/Desktop/paper_review/0003 Informer the best paper AAAI2021/informer.m4a</property>
    <property name="audio_index">0</property>
    <property name="video_index">-1</property>
    <property name="mute_on_pause">0</property>
    <property name="mlt_service">avformat-novalidate</property>
    <property name="seekable">1</property>
    <property name="creation_time">2021-02-18T03:10:18</property>
    <property name="shotcut:hash">3141884cfbc933a8c12d1e3c83f5e35a</property>
    <property name="global_feed">1</property>
    <property name="shotcut:caption">informer.m4a</property>
    <property name="xml">was here</property>
  </producer>
  <producer id="producer32" in="00:00:00.000" out="00:23:56.150">
    <property name="length">00:23:56.167</property>
    <property name="eof">pause</property>
    <property name="resource">d:/360MoveData/Users/Assassin/Desktop/paper_review/0003 Informer the best paper AAAI2021/informer.m4a</property>
    <property name="audio_index">0</property>
    <property name="video_index">-1</property>
    <property name="mute_on_pause">0</property>
    <property name="mlt_service">avformat-novalidate</property>
    <property name="seekable">1</property>
    <property name="creation_time">2021-02-18T03:10:18</property>
    <property name="shotcut:hash">3141884cfbc933a8c12d1e3c83f5e35a</property>
    <property name="global_feed">1</property>
    <property name="shotcut:caption">informer.m4a</property>
    <property name="xml">was here</property>
  </producer>
  <producer id="producer33" in="00:00:00.000" out="00:23:56.150">
    <property name="length">00:23:56.167</property>
    <property name="eof">pause</property>
    <property name="resource">d:/360MoveData/Users/Assassin/Desktop/paper_review/0003 Informer the best paper AAAI2021/informer.m4a</property>
    <property name="audio_index">0</property>
    <property name="video_index">-1</property>
    <property name="mute_on_pause">0</property>
    <property name="mlt_service">avformat-novalidate</property>
    <property name="seekable">1</property>
    <property name="creation_time">2021-02-18T03:10:18</property>
    <property name="shotcut:hash">3141884cfbc933a8c12d1e3c83f5e35a</property>
    <property name="global_feed">1</property>
    <property name="shotcut:caption">informer.m4a</property>
    <property name="xml">was here</property>
  </producer>
  <producer id="producer34" in="00:00:00.000" out="00:23:56.150">
    <property name="length">00:23:56.167</property>
    <property name="eof">pause</property>
    <property name="resource">d:/360MoveData/Users/Assassin/Desktop/paper_review/0003 Informer the best paper AAAI2021/informer.m4a</property>
    <property name="audio_index">0</property>
    <property name="video_index">-1</property>
    <property name="mute_on_pause">0</property>
    <property name="mlt_service">avformat-novalidate</property>
    <property name="seekable">1</property>
    <property name="creation_time">2021-02-18T03:10:18</property>
    <property name="shotcut:hash">3141884cfbc933a8c12d1e3c83f5e35a</property>
    <property name="global_feed">1</property>
    <property name="shotcut:caption">informer.m4a</property>
    <property name="xml">was here</property>
  </producer>
  <producer id="producer35" in="00:00:00.000" out="00:23:56.150">
    <property name="length">00:23:56.167</property>
    <property name="eof">pause</property>
    <property name="resource">d:/360MoveData/Users/Assassin/Desktop/paper_review/0003 Informer the best paper AAAI2021/informer.m4a</property>
    <property name="audio_index">0</property>
    <property name="video_index">-1</property>
    <property name="mute_on_pause">0</property>
    <property name="mlt_service">avformat-novalidate</property>
    <property name="seekable">1</property>
    <property name="creation_time">2021-02-18T03:10:18</property>
    <property name="shotcut:hash">3141884cfbc933a8c12d1e3c83f5e35a</property>
    <property name="global_feed">1</property>
    <property name="shotcut:caption">informer.m4a</property>
    <property name="xml">was here</property>
  </producer>
  <producer id="producer36" in="00:00:00.000" out="00:23:56.150">
    <property name="length">00:23:56.167</property>
    <property name="eof">pause</property>
    <property name="resource">d:/360MoveData/Users/Assassin/Desktop/paper_review/0003 Informer the best paper AAAI2021/informer.m4a</property>
    <property name="audio_index">0</property>
    <property name="video_index">-1</property>
    <property name="mute_on_pause">0</property>
    <property name="mlt_service">avformat-novalidate</property>
    <property name="seekable">1</property>
    <property name="creation_time">2021-02-18T03:10:18</property>
    <property name="shotcut:hash">3141884cfbc933a8c12d1e3c83f5e35a</property>
    <property name="global_feed">1</property>
    <property name="shotcut:caption">informer.m4a</property>
    <property name="xml">was here</property>
  </producer>
  <producer id="producer37" in="00:00:00.000" out="00:23:56.150">
    <property name="length">00:23:56.167</property>
    <property name="eof">pause</property>
    <property name="resource">d:/360MoveData/Users/Assassin/Desktop/paper_review/0003 Informer the best paper AAAI2021/informer.m4a</property>
    <property name="audio_index">0</property>
    <property name="video_index">-1</property>
    <property name="mute_on_pause">0</property>
    <property name="mlt_service">avformat-novalidate</property>
    <property name="seekable">1</property>
    <property name="creation_time">2021-02-18T03:10:18</property>
    <property name="shotcut:hash">3141884cfbc933a8c12d1e3c83f5e35a</property>
    <property name="global_feed">1</property>
    <property name="shotcut:caption">informer.m4a</property>
    <property name="xml">was here</property>
  </producer>
  <producer id="producer38" in="00:00:00.000" out="00:23:56.150">
    <property name="length">00:23:56.167</property>
    <property name="eof">pause</property>
    <property name="resource">d:/360MoveData/Users/Assassin/Desktop/paper_review/0003 Informer the best paper AAAI2021/informer.m4a</property>
    <property name="audio_index">0</property>
    <property name="video_index">-1</property>
    <property name="mute_on_pause">0</property>
    <property name="mlt_service">avformat-novalidate</property>
    <property name="seekable">1</property>
    <property name="creation_time">2021-02-18T03:10:18</property>
    <property name="shotcut:hash">3141884cfbc933a8c12d1e3c83f5e35a</property>
    <property name="global_feed">1</property>
    <property name="shotcut:caption">informer.m4a</property>
    <property name="xml">was here</property>
  </producer>
  <producer id="producer39" in="00:00:00.000" out="00:23:56.150">
    <property name="length">00:23:56.167</property>
    <property name="eof">pause</property>
    <property name="resource">d:/360MoveData/Users/Assassin/Desktop/paper_review/0003 Informer the best paper AAAI2021/informer.m4a</property>
    <property name="audio_index">0</property>
    <property name="video_index">-1</property>
    <property name="mute_on_pause">0</property>
    <property name="mlt_service">avformat-novalidate</property>
    <property name="seekable">1</property>
    <property name="creation_time">2021-02-18T03:10:18</property>
    <property name="shotcut:hash">3141884cfbc933a8c12d1e3c83f5e35a</property>
    <property name="global_feed">1</property>
    <property name="shotcut:caption">informer.m4a</property>
    <property name="xml">was here</property>
  </producer>
  <producer id="producer40" in="00:00:00.000" out="00:23:56.150">
    <property name="length">00:23:56.167</property>
    <property name="eof">pause</property>
    <property name="resource">d:/360MoveData/Users/Assassin/Desktop/paper_review/0003 Informer the best paper AAAI2021/informer.m4a</property>
    <property name="audio_index">0</property>
    <property name="video_index">-1</property>
    <property name="mute_on_pause">0</property>
    <property name="mlt_service">avformat-novalidate</property>
    <property name="seekable">1</property>
    <property name="creation_time">2021-02-18T03:10:18</property>
    <property name="shotcut:hash">3141884cfbc933a8c12d1e3c83f5e35a</property>
    <property name="global_feed">1</property>
    <property name="shotcut:caption">informer.m4a</property>
    <property name="xml">was here</property>
  </producer>
  <producer id="producer41" in="00:00:00.000" out="00:23:56.150">
    <property name="length">00:23:56.167</property>
    <property name="eof">pause</property>
    <property name="resource">d:/360MoveData/Users/Assassin/Desktop/paper_review/0003 Informer the best paper AAAI2021/informer.m4a</property>
    <property name="audio_index">0</property>
    <property name="video_index">-1</property>
    <property name="mute_on_pause">0</property>
    <property name="mlt_service">avformat-novalidate</property>
    <property name="seekable">1</property>
    <property name="creation_time">2021-02-18T03:10:18</property>
    <property name="shotcut:hash">3141884cfbc933a8c12d1e3c83f5e35a</property>
    <property name="global_feed">1</property>
    <property name="shotcut:caption">informer.m4a</property>
    <property name="xml">was here</property>
  </producer>
  <producer id="producer42" in="00:00:00.000" out="00:23:56.150">
    <property name="length">00:23:56.167</property>
    <property name="eof">pause</property>
    <property name="resource">d:/360MoveData/Users/Assassin/Desktop/paper_review/0003 Informer the best paper AAAI2021/informer.m4a</property>
    <property name="audio_index">0</property>
    <property name="video_index">-1</property>
    <property name="mute_on_pause">0</property>
    <property name="mlt_service">avformat-novalidate</property>
    <property name="seekable">1</property>
    <property name="creation_time">2021-02-18T03:10:18</property>
    <property name="shotcut:hash">3141884cfbc933a8c12d1e3c83f5e35a</property>
    <property name="global_feed">1</property>
    <property name="shotcut:caption">informer.m4a</property>
    <property name="xml">was here</property>
  </producer>
  <producer id="producer43" in="00:00:00.000" out="00:23:56.150">
    <property name="length">00:23:56.167</property>
    <property name="eof">pause</property>
    <property name="resource">d:/360MoveData/Users/Assassin/Desktop/paper_review/0003 Informer the best paper AAAI2021/informer.m4a</property>
    <property name="audio_index">0</property>
    <property name="video_index">-1</property>
    <property name="mute_on_pause">0</property>
    <property name="mlt_service">avformat-novalidate</property>
    <property name="seekable">1</property>
    <property name="creation_time">2021-02-18T03:10:18</property>
    <property name="shotcut:hash">3141884cfbc933a8c12d1e3c83f5e35a</property>
    <property name="global_feed">1</property>
    <property name="shotcut:caption">informer.m4a</property>
    <property name="xml">was here</property>
  </producer>
  <producer id="producer44" in="00:00:00.000" out="00:23:56.150">
    <property name="length">00:23:56.167</property>
    <property name="eof">pause</property>
    <property name="resource">d:/360MoveData/Users/Assassin/Desktop/paper_review/0003 Informer the best paper AAAI2021/informer.m4a</property>
    <property name="audio_index">0</property>
    <property name="video_index">-1</property>
    <property name="mute_on_pause">0</property>
    <property name="mlt_service">avformat-novalidate</property>
    <property name="seekable">1</property>
    <property name="creation_time">2021-02-18T03:10:18</property>
    <property name="shotcut:hash">3141884cfbc933a8c12d1e3c83f5e35a</property>
    <property name="global_feed">1</property>
    <property name="shotcut:caption">informer.m4a</property>
    <property name="xml">was here</property>
  </producer>
  <producer id="producer45" in="00:00:00.000" out="00:23:56.150">
    <property name="length">00:23:56.167</property>
    <property name="eof">pause</property>
    <property name="resource">d:/360MoveData/Users/Assassin/Desktop/paper_review/0003 Informer the best paper AAAI2021/informer.m4a</property>
    <property name="audio_index">0</property>
    <property name="video_index">-1</property>
    <property name="mute_on_pause">0</property>
    <property name="mlt_service">avformat-novalidate</property>
    <property name="seekable">1</property>
    <property name="creation_time">2021-02-18T03:10:18</property>
    <property name="shotcut:hash">3141884cfbc933a8c12d1e3c83f5e35a</property>
    <property name="global_feed">1</property>
    <property name="shotcut:caption">informer.m4a</property>
    <property name="xml">was here</property>
  </producer>
  <producer id="producer46" in="00:00:00.000" out="00:23:56.150">
    <property name="length">00:23:56.167</property>
    <property name="eof">pause</property>
    <property name="resource">d:/360MoveData/Users/Assassin/Desktop/paper_review/0003 Informer the best paper AAAI2021/informer.m4a</property>
    <property name="audio_index">0</property>
    <property name="video_index">-1</property>
    <property name="mute_on_pause">0</property>
    <property name="mlt_service">avformat-novalidate</property>
    <property name="seekable">1</property>
    <property name="creation_time">2021-02-18T03:10:18</property>
    <property name="shotcut:hash">3141884cfbc933a8c12d1e3c83f5e35a</property>
    <property name="global_feed">1</property>
    <property name="shotcut:caption">informer.m4a</property>
    <property name="xml">was here</property>
  </producer>
  <producer id="producer47" in="00:00:00.000" out="00:23:56.150">
    <property name="length">00:23:56.167</property>
    <property name="eof">pause</property>
    <property name="resource">d:/360MoveData/Users/Assassin/Desktop/paper_review/0003 Informer the best paper AAAI2021/informer.m4a</property>
    <property name="audio_index">0</property>
    <property name="video_index">-1</property>
    <property name="mute_on_pause">0</property>
    <property name="mlt_service">avformat-novalidate</property>
    <property name="seekable">1</property>
    <property name="creation_time">2021-02-18T03:10:18</property>
    <property name="shotcut:hash">3141884cfbc933a8c12d1e3c83f5e35a</property>
    <property name="global_feed">1</property>
    <property name="shotcut:caption">informer.m4a</property>
    <property name="xml">was here</property>
  </producer>
  <producer id="producer48" in="00:00:00.000" out="00:23:56.150">
    <property name="length">00:23:56.167</property>
    <property name="eof">pause</property>
    <property name="resource">d:/360MoveData/Users/Assassin/Desktop/paper_review/0003 Informer the best paper AAAI2021/informer.m4a</property>
    <property name="audio_index">0</property>
    <property name="video_index">-1</property>
    <property name="mute_on_pause">0</property>
    <property name="mlt_service">avformat-novalidate</property>
    <property name="seekable">1</property>
    <property name="creation_time">2021-02-18T03:10:18</property>
    <property name="shotcut:hash">3141884cfbc933a8c12d1e3c83f5e35a</property>
    <property name="global_feed">1</property>
    <property name="shotcut:caption">informer.m4a</property>
    <property name="xml">was here</property>
  </producer>
  <producer id="producer49" in="00:00:00.000" out="00:23:56.150">
    <property name="length">00:23:56.167</property>
    <property name="eof">pause</property>
    <property name="resource">d:/360MoveData/Users/Assassin/Desktop/paper_review/0003 Informer the best paper AAAI2021/informer.m4a</property>
    <property name="audio_index">0</property>
    <property name="video_index">-1</property>
    <property name="mute_on_pause">0</property>
    <property name="mlt_service">avformat-novalidate</property>
    <property name="seekable">1</property>
    <property name="creation_time">2021-02-18T03:10:18</property>
    <property name="shotcut:hash">3141884cfbc933a8c12d1e3c83f5e35a</property>
    <property name="global_feed">1</property>
    <property name="shotcut:caption">informer.m4a</property>
    <property name="xml">was here</property>
  </producer>
  <producer id="producer50" in="00:00:00.000" out="00:23:56.150">
    <property name="length">00:23:56.167</property>
    <property name="eof">pause</property>
    <property name="resource">d:/360MoveData/Users/Assassin/Desktop/paper_review/0003 Informer the best paper AAAI2021/informer.m4a</property>
    <property name="audio_index">0</property>
    <property name="video_index">-1</property>
    <property name="mute_on_pause">0</property>
    <property name="mlt_service">avformat-novalidate</property>
    <property name="seekable">1</property>
    <property name="creation_time">2021-02-18T03:10:18</property>
    <property name="shotcut:hash">3141884cfbc933a8c12d1e3c83f5e35a</property>
    <property name="global_feed">1</property>
    <property name="shotcut:caption">informer.m4a</property>
    <property name="xml">was here</property>
  </producer>
  <producer id="producer51" in="00:00:00.000" out="00:23:56.150">
    <property name="length">00:23:56.167</property>
    <property name="eof">pause</property>
    <property name="resource">d:/360MoveData/Users/Assassin/Desktop/paper_review/0003 Informer the best paper AAAI2021/informer.m4a</property>
    <property name="audio_index">0</property>
    <property name="video_index">-1</property>
    <property name="mute_on_pause">0</property>
    <property name="mlt_service">avformat-novalidate</property>
    <property name="seekable">1</property>
    <property name="creation_time">2021-02-18T03:10:18</property>
    <property name="shotcut:hash">3141884cfbc933a8c12d1e3c83f5e35a</property>
    <property name="global_feed">1</property>
    <property name="shotcut:caption">informer.m4a</property>
    <property name="xml">was here</property>
  </producer>
  <producer id="producer52" in="00:00:00.000" out="00:23:56.150">
    <property name="length">00:23:56.167</property>
    <property name="eof">pause</property>
    <property name="resource">d:/360MoveData/Users/Assassin/Desktop/paper_review/0003 Informer the best paper AAAI2021/informer.m4a</property>
    <property name="audio_index">0</property>
    <property name="video_index">-1</property>
    <property name="mute_on_pause">0</property>
    <property name="mlt_service">avformat-novalidate</property>
    <property name="seekable">1</property>
    <property name="creation_time">2021-02-18T03:10:18</property>
    <property name="shotcut:hash">3141884cfbc933a8c12d1e3c83f5e35a</property>
    <property name="global_feed">1</property>
    <property name="shotcut:caption">informer.m4a</property>
    <property name="xml">was here</property>
  </producer>
  <producer id="producer53" in="00:00:00.000" out="00:23:56.150">
    <property name="length">00:23:56.167</property>
    <property name="eof">pause</property>
    <property name="resource">d:/360MoveData/Users/Assassin/Desktop/paper_review/0003 Informer the best paper AAAI2021/informer.m4a</property>
    <property name="audio_index">0</property>
    <property name="video_index">-1</property>
    <property name="mute_on_pause">0</property>
    <property name="mlt_service">avformat-novalidate</property>
    <property name="seekable">1</property>
    <property name="creation_time">2021-02-18T03:10:18</property>
    <property name="shotcut:hash">3141884cfbc933a8c12d1e3c83f5e35a</property>
    <property name="global_feed">1</property>
    <property name="shotcut:caption">informer.m4a</property>
    <property name="xml">was here</property>
  </producer>
  <producer id="producer54" in="00:00:00.000" out="00:23:56.150">
    <property name="length">00:23:56.167</property>
    <property name="eof">pause</property>
    <property name="resource">d:/360MoveData/Users/Assassin/Desktop/paper_review/0003 Informer the best paper AAAI2021/informer.m4a</property>
    <property name="audio_index">0</property>
    <property name="video_index">-1</property>
    <property name="mute_on_pause">0</property>
    <property name="mlt_service">avformat-novalidate</property>
    <property name="seekable">1</property>
    <property name="creation_time">2021-02-18T03:10:18</property>
    <property name="shotcut:hash">3141884cfbc933a8c12d1e3c83f5e35a</property>
    <property name="global_feed">1</property>
    <property name="shotcut:caption">informer.m4a</property>
    <property name="xml">was here</property>
  </producer>
  <producer id="producer55" in="00:00:00.000" out="00:23:56.150">
    <property name="length">00:23:56.167</property>
    <property name="eof">pause</property>
    <property name="resource">d:/360MoveData/Users/Assassin/Desktop/paper_review/0003 Informer the best paper AAAI2021/informer.m4a</property>
    <property name="audio_index">0</property>
    <property name="video_index">-1</property>
    <property name="mute_on_pause">0</property>
    <property name="mlt_service">avformat-novalidate</property>
    <property name="seekable">1</property>
    <property name="creation_time">2021-02-18T03:10:18</property>
    <property name="shotcut:hash">3141884cfbc933a8c12d1e3c83f5e35a</property>
    <property name="global_feed">1</property>
    <property name="shotcut:caption">informer.m4a</property>
    <property name="xml">was here</property>
  </producer>
  <producer id="producer56" in="00:00:00.000" out="00:23:56.150">
    <property name="length">00:23:56.167</property>
    <property name="eof">pause</property>
    <property name="resource">d:/360MoveData/Users/Assassin/Desktop/paper_review/0003 Informer the best paper AAAI2021/informer.m4a</property>
    <property name="audio_index">0</property>
    <property name="video_index">-1</property>
    <property name="mute_on_pause">0</property>
    <property name="mlt_service">avformat-novalidate</property>
    <property name="seekable">1</property>
    <property name="creation_time">2021-02-18T03:10:18</property>
    <property name="shotcut:hash">3141884cfbc933a8c12d1e3c83f5e35a</property>
    <property name="global_feed">1</property>
    <property name="shotcut:caption">informer.m4a</property>
    <property name="xml">was here</property>
  </producer>
  <producer id="producer57" in="00:00:00.000" out="00:23:56.150">
    <property name="length">00:23:56.167</property>
    <property name="eof">pause</property>
    <property name="resource">d:/360MoveData/Users/Assassin/Desktop/paper_review/0003 Informer the best paper AAAI2021/informer.m4a</property>
    <property name="audio_index">0</property>
    <property name="video_index">-1</property>
    <property name="mute_on_pause">0</property>
    <property name="mlt_service">avformat-novalidate</property>
    <property name="seekable">1</property>
    <property name="creation_time">2021-02-18T03:10:18</property>
    <property name="shotcut:hash">3141884cfbc933a8c12d1e3c83f5e35a</property>
    <property name="global_feed">1</property>
    <property name="shotcut:caption">informer.m4a</property>
    <property name="xml">was here</property>
  </producer>
  <producer id="producer58" in="00:00:00.000" out="00:23:56.150">
    <property name="length">00:23:56.167</property>
    <property name="eof">pause</property>
    <property name="resource">d:/360MoveData/Users/Assassin/Desktop/paper_review/0003 Informer the best paper AAAI2021/informer.m4a</property>
    <property name="audio_index">0</property>
    <property name="video_index">-1</property>
    <property name="mute_on_pause">0</property>
    <property name="mlt_service">avformat-novalidate</property>
    <property name="seekable">1</property>
    <property name="creation_time">2021-02-18T03:10:18</property>
    <property name="shotcut:hash">3141884cfbc933a8c12d1e3c83f5e35a</property>
    <property name="global_feed">1</property>
    <property name="shotcut:caption">informer.m4a</property>
    <property name="xml">was here</property>
  </producer>
  <producer id="producer59" in="00:00:00.000" out="00:23:56.150">
    <property name="length">00:23:56.167</property>
    <property name="eof">pause</property>
    <property name="resource">d:/360MoveData/Users/Assassin/Desktop/paper_review/0003 Informer the best paper AAAI2021/informer.m4a</property>
    <property name="audio_index">0</property>
    <property name="video_index">-1</property>
    <property name="mute_on_pause">0</property>
    <property name="mlt_service">avformat-novalidate</property>
    <property name="seekable">1</property>
    <property name="creation_time">2021-02-18T03:10:18</property>
    <property name="shotcut:hash">3141884cfbc933a8c12d1e3c83f5e35a</property>
    <property name="global_feed">1</property>
    <property name="shotcut:caption">informer.m4a</property>
    <property name="xml">was here</property>
  </producer>
  <producer id="producer60" in="00:00:00.000" out="00:23:56.150">
    <property name="length">00:23:56.167</property>
    <property name="eof">pause</property>
    <property name="resource">d:/360MoveData/Users/Assassin/Desktop/paper_review/0003 Informer the best paper AAAI2021/informer.m4a</property>
    <property name="audio_index">0</property>
    <property name="video_index">-1</property>
    <property name="mute_on_pause">0</property>
    <property name="mlt_service">avformat-novalidate</property>
    <property name="seekable">1</property>
    <property name="creation_time">2021-02-18T03:10:18</property>
    <property name="shotcut:hash">3141884cfbc933a8c12d1e3c83f5e35a</property>
    <property name="global_feed">1</property>
    <property name="shotcut:caption">informer.m4a</property>
    <property name="xml">was here</property>
  </producer>
  <producer id="producer61" in="00:00:00.000" out="00:23:56.150">
    <property name="length">00:23:56.167</property>
    <property name="eof">pause</property>
    <property name="resource">d:/360MoveData/Users/Assassin/Desktop/paper_review/0003 Informer the best paper AAAI2021/informer.m4a</property>
    <property name="audio_index">0</property>
    <property name="video_index">-1</property>
    <property name="mute_on_pause">0</property>
    <property name="mlt_service">avformat-novalidate</property>
    <property name="seekable">1</property>
    <property name="creation_time">2021-02-18T03:10:18</property>
    <property name="shotcut:hash">3141884cfbc933a8c12d1e3c83f5e35a</property>
    <property name="global_feed">1</property>
    <property name="shotcut:caption">informer.m4a</property>
    <property name="xml">was here</property>
  </producer>
  <producer id="producer62" in="00:00:00.000" out="00:23:56.150">
    <property name="length">00:23:56.167</property>
    <property name="eof">pause</property>
    <property name="resource">d:/360MoveData/Users/Assassin/Desktop/paper_review/0003 Informer the best paper AAAI2021/informer.m4a</property>
    <property name="audio_index">0</property>
    <property name="video_index">-1</property>
    <property name="mute_on_pause">0</property>
    <property name="mlt_service">avformat-novalidate</property>
    <property name="seekable">1</property>
    <property name="creation_time">2021-02-18T03:10:18</property>
    <property name="shotcut:hash">3141884cfbc933a8c12d1e3c83f5e35a</property>
    <property name="global_feed">1</property>
    <property name="shotcut:caption">informer.m4a</property>
    <property name="xml">was here</property>
  </producer>
  <producer id="producer63" in="00:00:00.000" out="00:23:56.150">
    <property name="length">00:23:56.167</property>
    <property name="eof">pause</property>
    <property name="resource">d:/360MoveData/Users/Assassin/Desktop/paper_review/0003 Informer the best paper AAAI2021/informer.m4a</property>
    <property name="audio_index">0</property>
    <property name="video_index">-1</property>
    <property name="mute_on_pause">0</property>
    <property name="mlt_service">avformat-novalidate</property>
    <property name="seekable">1</property>
    <property name="creation_time">2021-02-18T03:10:18</property>
    <property name="shotcut:hash">3141884cfbc933a8c12d1e3c83f5e35a</property>
    <property name="global_feed">1</property>
    <property name="shotcut:caption">informer.m4a</property>
    <property name="xml">was here</property>
  </producer>
  <producer id="producer64" in="00:00:00.000" out="00:23:56.150">
    <property name="length">00:23:56.167</property>
    <property name="eof">pause</property>
    <property name="resource">d:/360MoveData/Users/Assassin/Desktop/paper_review/0003 Informer the best paper AAAI2021/informer.m4a</property>
    <property name="audio_index">0</property>
    <property name="video_index">-1</property>
    <property name="mute_on_pause">0</property>
    <property name="mlt_service">avformat-novalidate</property>
    <property name="seekable">1</property>
    <property name="creation_time">2021-02-18T03:10:18</property>
    <property name="shotcut:hash">3141884cfbc933a8c12d1e3c83f5e35a</property>
    <property name="global_feed">1</property>
    <property name="shotcut:caption">informer.m4a</property>
    <property name="xml">was here</property>
  </producer>
  <producer id="producer65" in="00:00:00.000" out="00:23:56.150">
    <property name="length">00:23:56.167</property>
    <property name="eof">pause</property>
    <property name="resource">d:/360MoveData/Users/Assassin/Desktop/paper_review/0003 Informer the best paper AAAI2021/informer.m4a</property>
    <property name="audio_index">0</property>
    <property name="video_index">-1</property>
    <property name="mute_on_pause">0</property>
    <property name="mlt_service">avformat-novalidate</property>
    <property name="seekable">1</property>
    <property name="creation_time">2021-02-18T03:10:18</property>
    <property name="shotcut:hash">3141884cfbc933a8c12d1e3c83f5e35a</property>
    <property name="global_feed">1</property>
    <property name="shotcut:caption">informer.m4a</property>
    <property name="xml">was here</property>
  </producer>
  <producer id="producer66" in="00:00:00.000" out="00:23:56.150">
    <property name="length">00:23:56.167</property>
    <property name="eof">pause</property>
    <property name="resource">d:/360MoveData/Users/Assassin/Desktop/paper_review/0003 Informer the best paper AAAI2021/informer.m4a</property>
    <property name="audio_index">0</property>
    <property name="video_index">-1</property>
    <property name="mute_on_pause">0</property>
    <property name="mlt_service">avformat-novalidate</property>
    <property name="seekable">1</property>
    <property name="creation_time">2021-02-18T03:10:18</property>
    <property name="shotcut:hash">3141884cfbc933a8c12d1e3c83f5e35a</property>
    <property name="global_feed">1</property>
    <property name="shotcut:caption">informer.m4a</property>
    <property name="xml">was here</property>
  </producer>
  <producer id="producer67" in="00:00:00.000" out="00:23:56.150">
    <property name="length">00:23:56.167</property>
    <property name="eof">pause</property>
    <property name="resource">d:/360MoveData/Users/Assassin/Desktop/paper_review/0003 Informer the best paper AAAI2021/informer.m4a</property>
    <property name="audio_index">0</property>
    <property name="video_index">-1</property>
    <property name="mute_on_pause">0</property>
    <property name="mlt_service">avformat-novalidate</property>
    <property name="seekable">1</property>
    <property name="creation_time">2021-02-18T03:10:18</property>
    <property name="shotcut:hash">3141884cfbc933a8c12d1e3c83f5e35a</property>
    <property name="global_feed">1</property>
    <property name="shotcut:caption">informer.m4a</property>
    <property name="xml">was here</property>
  </producer>
  <producer id="producer68" in="00:00:00.000" out="00:23:56.150">
    <property name="length">00:23:56.167</property>
    <property name="eof">pause</property>
    <property name="resource">d:/360MoveData/Users/Assassin/Desktop/paper_review/0003 Informer the best paper AAAI2021/informer.m4a</property>
    <property name="audio_index">0</property>
    <property name="video_index">-1</property>
    <property name="mute_on_pause">0</property>
    <property name="mlt_service">avformat-novalidate</property>
    <property name="seekable">1</property>
    <property name="creation_time">2021-02-18T03:10:18</property>
    <property name="shotcut:hash">3141884cfbc933a8c12d1e3c83f5e35a</property>
    <property name="global_feed">1</property>
    <property name="shotcut:caption">informer.m4a</property>
    <property name="xml">was here</property>
  </producer>
  <producer id="producer69" in="00:00:00.000" out="00:23:56.150">
    <property name="length">00:23:56.167</property>
    <property name="eof">pause</property>
    <property name="resource">d:/360MoveData/Users/Assassin/Desktop/paper_review/0003 Informer the best paper AAAI2021/informer.m4a</property>
    <property name="audio_index">0</property>
    <property name="video_index">-1</property>
    <property name="mute_on_pause">0</property>
    <property name="mlt_service">avformat-novalidate</property>
    <property name="seekable">1</property>
    <property name="creation_time">2021-02-18T03:10:18</property>
    <property name="shotcut:hash">3141884cfbc933a8c12d1e3c83f5e35a</property>
    <property name="global_feed">1</property>
    <property name="shotcut:caption">informer.m4a</property>
    <property name="xml">was here</property>
  </producer>
  <producer id="producer70" in="00:00:00.000" out="00:23:56.150">
    <property name="length">00:23:56.167</property>
    <property name="eof">pause</property>
    <property name="resource">d:/360MoveData/Users/Assassin/Desktop/paper_review/0003 Informer the best paper AAAI2021/informer.m4a</property>
    <property name="audio_index">0</property>
    <property name="video_index">-1</property>
    <property name="mute_on_pause">0</property>
    <property name="mlt_service">avformat-novalidate</property>
    <property name="seekable">1</property>
    <property name="creation_time">2021-02-18T03:10:18</property>
    <property name="shotcut:hash">3141884cfbc933a8c12d1e3c83f5e35a</property>
    <property name="global_feed">1</property>
    <property name="shotcut:caption">informer.m4a</property>
    <property name="xml">was here</property>
  </producer>
  <producer id="producer71" in="00:00:00.000" out="00:23:56.150">
    <property name="length">00:23:56.167</property>
    <property name="eof">pause</property>
    <property name="resource">d:/360MoveData/Users/Assassin/Desktop/paper_review/0003 Informer the best paper AAAI2021/informer.m4a</property>
    <property name="audio_index">0</property>
    <property name="video_index">-1</property>
    <property name="mute_on_pause">0</property>
    <property name="mlt_service">avformat-novalidate</property>
    <property name="seekable">1</property>
    <property name="creation_time">2021-02-18T03:10:18</property>
    <property name="shotcut:hash">3141884cfbc933a8c12d1e3c83f5e35a</property>
    <property name="global_feed">1</property>
    <property name="shotcut:caption">informer.m4a</property>
    <property name="xml">was here</property>
  </producer>
  <producer id="producer72" in="00:00:00.000" out="00:23:56.150">
    <property name="length">00:23:56.167</property>
    <property name="eof">pause</property>
    <property name="resource">d:/360MoveData/Users/Assassin/Desktop/paper_review/0003 Informer the best paper AAAI2021/informer.m4a</property>
    <property name="audio_index">0</property>
    <property name="video_index">-1</property>
    <property name="mute_on_pause">0</property>
    <property name="mlt_service">avformat-novalidate</property>
    <property name="seekable">1</property>
    <property name="creation_time">2021-02-18T03:10:18</property>
    <property name="shotcut:hash">3141884cfbc933a8c12d1e3c83f5e35a</property>
    <property name="global_feed">1</property>
    <property name="shotcut:caption">informer.m4a</property>
    <property name="xml">was here</property>
  </producer>
  <producer id="producer73" in="00:00:00.000" out="00:23:56.150">
    <property name="length">00:23:56.167</property>
    <property name="eof">pause</property>
    <property name="resource">d:/360MoveData/Users/Assassin/Desktop/paper_review/0003 Informer the best paper AAAI2021/informer.m4a</property>
    <property name="audio_index">0</property>
    <property name="video_index">-1</property>
    <property name="mute_on_pause">0</property>
    <property name="mlt_service">avformat-novalidate</property>
    <property name="seekable">1</property>
    <property name="creation_time">2021-02-18T03:10:18</property>
    <property name="shotcut:hash">3141884cfbc933a8c12d1e3c83f5e35a</property>
    <property name="global_feed">1</property>
    <property name="shotcut:caption">informer.m4a</property>
    <property name="xml">was here</property>
  </producer>
  <producer id="producer74" in="00:00:00.000" out="00:23:56.150">
    <property name="length">00:23:56.167</property>
    <property name="eof">pause</property>
    <property name="resource">d:/360MoveData/Users/Assassin/Desktop/paper_review/0003 Informer the best paper AAAI2021/informer.m4a</property>
    <property name="audio_index">0</property>
    <property name="video_index">-1</property>
    <property name="mute_on_pause">0</property>
    <property name="mlt_service">avformat-novalidate</property>
    <property name="seekable">1</property>
    <property name="creation_time">2021-02-18T03:10:18</property>
    <property name="shotcut:hash">3141884cfbc933a8c12d1e3c83f5e35a</property>
    <property name="global_feed">1</property>
    <property name="shotcut:caption">informer.m4a</property>
    <property name="xml">was here</property>
  </producer>
  <producer id="producer75" in="00:00:00.000" out="00:23:56.150">
    <property name="length">00:23:56.167</property>
    <property name="eof">pause</property>
    <property name="resource">d:/360MoveData/Users/Assassin/Desktop/paper_review/0003 Informer the best paper AAAI2021/informer.m4a</property>
    <property name="audio_index">0</property>
    <property name="video_index">-1</property>
    <property name="mute_on_pause">0</property>
    <property name="mlt_service">avformat-novalidate</property>
    <property name="seekable">1</property>
    <property name="creation_time">2021-02-18T03:10:18</property>
    <property name="shotcut:hash">3141884cfbc933a8c12d1e3c83f5e35a</property>
    <property name="global_feed">1</property>
    <property name="shotcut:caption">informer.m4a</property>
    <property name="xml">was here</property>
  </producer>
  <producer id="producer76" in="00:00:00.000" out="00:23:56.150">
    <property name="length">00:23:56.167</property>
    <property name="eof">pause</property>
    <property name="resource">d:/360MoveData/Users/Assassin/Desktop/paper_review/0003 Informer the best paper AAAI2021/informer.m4a</property>
    <property name="audio_index">0</property>
    <property name="video_index">-1</property>
    <property name="mute_on_pause">0</property>
    <property name="mlt_service">avformat-novalidate</property>
    <property name="seekable">1</property>
    <property name="creation_time">2021-02-18T03:10:18</property>
    <property name="shotcut:hash">3141884cfbc933a8c12d1e3c83f5e35a</property>
    <property name="global_feed">1</property>
    <property name="shotcut:caption">informer.m4a</property>
    <property name="xml">was here</property>
  </producer>
  <producer id="producer77" in="00:00:00.000" out="00:23:56.150">
    <property name="length">00:23:56.167</property>
    <property name="eof">pause</property>
    <property name="resource">d:/360MoveData/Users/Assassin/Desktop/paper_review/0003 Informer the best paper AAAI2021/informer.m4a</property>
    <property name="audio_index">0</property>
    <property name="video_index">-1</property>
    <property name="mute_on_pause">0</property>
    <property name="mlt_service">avformat-novalidate</property>
    <property name="seekable">1</property>
    <property name="creation_time">2021-02-18T03:10:18</property>
    <property name="shotcut:hash">3141884cfbc933a8c12d1e3c83f5e35a</property>
    <property name="global_feed">1</property>
    <property name="shotcut:caption">informer.m4a</property>
    <property name="xml">was here</property>
  </producer>
  <producer id="producer78" in="00:00:00.000" out="00:23:56.150">
    <property name="length">00:23:56.167</property>
    <property name="eof">pause</property>
    <property name="resource">d:/360MoveData/Users/Assassin/Desktop/paper_review/0003 Informer the best paper AAAI2021/informer.m4a</property>
    <property name="audio_index">0</property>
    <property name="video_index">-1</property>
    <property name="mute_on_pause">0</property>
    <property name="mlt_service">avformat-novalidate</property>
    <property name="seekable">1</property>
    <property name="creation_time">2021-02-18T03:10:18</property>
    <property name="shotcut:hash">3141884cfbc933a8c12d1e3c83f5e35a</property>
    <property name="global_feed">1</property>
    <property name="shotcut:caption">informer.m4a</property>
    <property name="xml">was here</property>
  </producer>
  <producer id="producer79" in="00:00:00.000" out="00:23:56.150">
    <property name="length">00:23:56.167</property>
    <property name="eof">pause</property>
    <property name="resource">d:/360MoveData/Users/Assassin/Desktop/paper_review/0003 Informer the best paper AAAI2021/informer.m4a</property>
    <property name="audio_index">0</property>
    <property name="video_index">-1</property>
    <property name="mute_on_pause">0</property>
    <property name="mlt_service">avformat-novalidate</property>
    <property name="seekable">1</property>
    <property name="creation_time">2021-02-18T03:10:18</property>
    <property name="shotcut:hash">3141884cfbc933a8c12d1e3c83f5e35a</property>
    <property name="global_feed">1</property>
    <property name="shotcut:caption">informer.m4a</property>
    <property name="xml">was here</property>
  </producer>
  <producer id="producer80" in="00:00:00.000" out="00:23:56.150">
    <property name="length">00:23:56.167</property>
    <property name="eof">pause</property>
    <property name="resource">d:/360MoveData/Users/Assassin/Desktop/paper_review/0003 Informer the best paper AAAI2021/informer.m4a</property>
    <property name="audio_index">0</property>
    <property name="video_index">-1</property>
    <property name="mute_on_pause">0</property>
    <property name="mlt_service">avformat-novalidate</property>
    <property name="seekable">1</property>
    <property name="creation_time">2021-02-18T03:10:18</property>
    <property name="shotcut:hash">3141884cfbc933a8c12d1e3c83f5e35a</property>
    <property name="global_feed">1</property>
    <property name="shotcut:caption">informer.m4a</property>
    <property name="xml">was here</property>
  </producer>
  <producer id="producer81" in="00:00:00.000" out="00:23:56.150">
    <property name="length">00:23:56.167</property>
    <property name="eof">pause</property>
    <property name="resource">d:/360MoveData/Users/Assassin/Desktop/paper_review/0003 Informer the best paper AAAI2021/informer.m4a</property>
    <property name="audio_index">0</property>
    <property name="video_index">-1</property>
    <property name="mute_on_pause">0</property>
    <property name="mlt_service">avformat-novalidate</property>
    <property name="seekable">1</property>
    <property name="creation_time">2021-02-18T03:10:18</property>
    <property name="shotcut:hash">3141884cfbc933a8c12d1e3c83f5e35a</property>
    <property name="global_feed">1</property>
    <property name="shotcut:caption">informer.m4a</property>
    <property name="xml">was here</property>
  </producer>
  <producer id="producer82" in="00:00:00.000" out="00:23:56.150">
    <property name="length">00:23:56.167</property>
    <property name="eof">pause</property>
    <property name="resource">d:/360MoveData/Users/Assassin/Desktop/paper_review/0003 Informer the best paper AAAI2021/informer.m4a</property>
    <property name="audio_index">0</property>
    <property name="video_index">-1</property>
    <property name="mute_on_pause">0</property>
    <property name="mlt_service">avformat-novalidate</property>
    <property name="seekable">1</property>
    <property name="creation_time">2021-02-18T03:10:18</property>
    <property name="shotcut:hash">3141884cfbc933a8c12d1e3c83f5e35a</property>
    <property name="global_feed">1</property>
    <property name="shotcut:caption">informer.m4a</property>
    <property name="xml">was here</property>
  </producer>
  <producer id="producer83" in="00:00:00.000" out="00:23:56.150">
    <property name="length">00:23:56.167</property>
    <property name="eof">pause</property>
    <property name="resource">d:/360MoveData/Users/Assassin/Desktop/paper_review/0003 Informer the best paper AAAI2021/informer.m4a</property>
    <property name="audio_index">0</property>
    <property name="video_index">-1</property>
    <property name="mute_on_pause">0</property>
    <property name="mlt_service">avformat-novalidate</property>
    <property name="seekable">1</property>
    <property name="creation_time">2021-02-18T03:10:18</property>
    <property name="shotcut:hash">3141884cfbc933a8c12d1e3c83f5e35a</property>
    <property name="global_feed">1</property>
    <property name="shotcut:caption">informer.m4a</property>
    <property name="xml">was here</property>
  </producer>
  <producer id="producer84" in="00:00:00.000" out="00:23:56.150">
    <property name="length">00:23:56.167</property>
    <property name="eof">pause</property>
    <property name="resource">d:/360MoveData/Users/Assassin/Desktop/paper_review/0003 Informer the best paper AAAI2021/informer.m4a</property>
    <property name="audio_index">0</property>
    <property name="video_index">-1</property>
    <property name="mute_on_pause">0</property>
    <property name="mlt_service">avformat-novalidate</property>
    <property name="seekable">1</property>
    <property name="creation_time">2021-02-18T03:10:18</property>
    <property name="shotcut:hash">3141884cfbc933a8c12d1e3c83f5e35a</property>
    <property name="global_feed">1</property>
    <property name="shotcut:caption">informer.m4a</property>
    <property name="xml">was here</property>
  </producer>
  <producer id="producer85" in="00:00:00.000" out="00:23:56.150">
    <property name="length">00:23:56.167</property>
    <property name="eof">pause</property>
    <property name="resource">d:/360MoveData/Users/Assassin/Desktop/paper_review/0003 Informer the best paper AAAI2021/informer.m4a</property>
    <property name="audio_index">0</property>
    <property name="video_index">-1</property>
    <property name="mute_on_pause">0</property>
    <property name="mlt_service">avformat-novalidate</property>
    <property name="seekable">1</property>
    <property name="creation_time">2021-02-18T03:10:18</property>
    <property name="shotcut:hash">3141884cfbc933a8c12d1e3c83f5e35a</property>
    <property name="global_feed">1</property>
    <property name="shotcut:caption">informer.m4a</property>
    <property name="xml">was here</property>
  </producer>
  <producer id="producer86" in="00:00:00.000" out="00:23:56.150">
    <property name="length">00:23:56.167</property>
    <property name="eof">pause</property>
    <property name="resource">d:/360MoveData/Users/Assassin/Desktop/paper_review/0003 Informer the best paper AAAI2021/informer.m4a</property>
    <property name="audio_index">0</property>
    <property name="video_index">-1</property>
    <property name="mute_on_pause">0</property>
    <property name="mlt_service">avformat-novalidate</property>
    <property name="seekable">1</property>
    <property name="creation_time">2021-02-18T03:10:18</property>
    <property name="shotcut:hash">3141884cfbc933a8c12d1e3c83f5e35a</property>
    <property name="global_feed">1</property>
    <property name="shotcut:caption">informer.m4a</property>
    <property name="xml">was here</property>
  </producer>
  <producer id="producer87" in="00:00:00.000" out="00:23:56.150">
    <property name="length">00:23:56.167</property>
    <property name="eof">pause</property>
    <property name="resource">d:/360MoveData/Users/Assassin/Desktop/paper_review/0003 Informer the best paper AAAI2021/informer.m4a</property>
    <property name="audio_index">0</property>
    <property name="video_index">-1</property>
    <property name="mute_on_pause">0</property>
    <property name="mlt_service">avformat-novalidate</property>
    <property name="seekable">1</property>
    <property name="creation_time">2021-02-18T03:10:18</property>
    <property name="shotcut:hash">3141884cfbc933a8c12d1e3c83f5e35a</property>
    <property name="global_feed">1</property>
    <property name="shotcut:caption">informer.m4a</property>
    <property name="xml">was here</property>
  </producer>
  <producer id="producer88" in="00:00:00.000" out="00:23:56.150">
    <property name="length">00:23:56.167</property>
    <property name="eof">pause</property>
    <property name="resource">d:/360MoveData/Users/Assassin/Desktop/paper_review/0003 Informer the best paper AAAI2021/informer.m4a</property>
    <property name="audio_index">0</property>
    <property name="video_index">-1</property>
    <property name="mute_on_pause">0</property>
    <property name="mlt_service">avformat-novalidate</property>
    <property name="seekable">1</property>
    <property name="creation_time">2021-02-18T03:10:18</property>
    <property name="shotcut:hash">3141884cfbc933a8c12d1e3c83f5e35a</property>
    <property name="global_feed">1</property>
    <property name="shotcut:caption">informer.m4a</property>
    <property name="xml">was here</property>
  </producer>
  <producer id="producer89" in="00:00:00.000" out="00:23:56.150">
    <property name="length">00:23:56.167</property>
    <property name="eof">pause</property>
    <property name="resource">d:/360MoveData/Users/Assassin/Desktop/paper_review/0003 Informer the best paper AAAI2021/informer.m4a</property>
    <property name="audio_index">0</property>
    <property name="video_index">-1</property>
    <property name="mute_on_pause">0</property>
    <property name="mlt_service">avformat-novalidate</property>
    <property name="seekable">1</property>
    <property name="creation_time">2021-02-18T03:10:18</property>
    <property name="shotcut:hash">3141884cfbc933a8c12d1e3c83f5e35a</property>
    <property name="global_feed">1</property>
    <property name="shotcut:caption">informer.m4a</property>
    <property name="xml">was here</property>
  </producer>
  <producer id="producer90" in="00:00:00.000" out="00:23:56.150">
    <property name="length">00:23:56.167</property>
    <property name="eof">pause</property>
    <property name="resource">d:/360MoveData/Users/Assassin/Desktop/paper_review/0003 Informer the best paper AAAI2021/informer.m4a</property>
    <property name="audio_index">0</property>
    <property name="video_index">-1</property>
    <property name="mute_on_pause">0</property>
    <property name="mlt_service">avformat-novalidate</property>
    <property name="seekable">1</property>
    <property name="creation_time">2021-02-18T03:10:18</property>
    <property name="shotcut:hash">3141884cfbc933a8c12d1e3c83f5e35a</property>
    <property name="global_feed">1</property>
    <property name="shotcut:caption">informer.m4a</property>
    <property name="xml">was here</property>
  </producer>
  <producer id="producer91" in="00:00:00.000" out="00:23:56.150">
    <property name="length">00:23:56.167</property>
    <property name="eof">pause</property>
    <property name="resource">d:/360MoveData/Users/Assassin/Desktop/paper_review/0003 Informer the best paper AAAI2021/informer.m4a</property>
    <property name="audio_index">0</property>
    <property name="video_index">-1</property>
    <property name="mute_on_pause">0</property>
    <property name="mlt_service">avformat-novalidate</property>
    <property name="seekable">1</property>
    <property name="creation_time">2021-02-18T03:10:18</property>
    <property name="shotcut:hash">3141884cfbc933a8c12d1e3c83f5e35a</property>
    <property name="global_feed">1</property>
    <property name="shotcut:caption">informer.m4a</property>
    <property name="xml">was here</property>
  </producer>
  <producer id="producer92" in="00:00:00.000" out="00:23:56.150">
    <property name="length">00:23:56.167</property>
    <property name="eof">pause</property>
    <property name="resource">d:/360MoveData/Users/Assassin/Desktop/paper_review/0003 Informer the best paper AAAI2021/informer.m4a</property>
    <property name="audio_index">0</property>
    <property name="video_index">-1</property>
    <property name="mute_on_pause">0</property>
    <property name="mlt_service">avformat-novalidate</property>
    <property name="seekable">1</property>
    <property name="creation_time">2021-02-18T03:10:18</property>
    <property name="shotcut:hash">3141884cfbc933a8c12d1e3c83f5e35a</property>
    <property name="global_feed">1</property>
    <property name="shotcut:caption">informer.m4a</property>
    <property name="xml">was here</property>
  </producer>
  <producer id="producer93" in="00:00:00.000" out="00:23:56.150">
    <property name="length">00:23:56.167</property>
    <property name="eof">pause</property>
    <property name="resource">d:/360MoveData/Users/Assassin/Desktop/paper_review/0003 Informer the best paper AAAI2021/informer.m4a</property>
    <property name="audio_index">0</property>
    <property name="video_index">-1</property>
    <property name="mute_on_pause">0</property>
    <property name="mlt_service">avformat-novalidate</property>
    <property name="seekable">1</property>
    <property name="creation_time">2021-02-18T03:10:18</property>
    <property name="shotcut:hash">3141884cfbc933a8c12d1e3c83f5e35a</property>
    <property name="global_feed">1</property>
    <property name="shotcut:caption">informer.m4a</property>
    <property name="xml">was here</property>
  </producer>
  <producer id="producer94" in="00:00:00.000" out="00:23:56.150">
    <property name="length">00:23:56.167</property>
    <property name="eof">pause</property>
    <property name="resource">d:/360MoveData/Users/Assassin/Desktop/paper_review/0003 Informer the best paper AAAI2021/informer.m4a</property>
    <property name="audio_index">0</property>
    <property name="video_index">-1</property>
    <property name="mute_on_pause">0</property>
    <property name="mlt_service">avformat-novalidate</property>
    <property name="seekable">1</property>
    <property name="creation_time">2021-02-18T03:10:18</property>
    <property name="shotcut:hash">3141884cfbc933a8c12d1e3c83f5e35a</property>
    <property name="global_feed">1</property>
    <property name="shotcut:caption">informer.m4a</property>
    <property name="xml">was here</property>
  </producer>
  <producer id="producer95" in="00:00:00.000" out="00:23:56.150">
    <property name="length">00:23:56.167</property>
    <property name="eof">pause</property>
    <property name="resource">d:/360MoveData/Users/Assassin/Desktop/paper_review/0003 Informer the best paper AAAI2021/informer.m4a</property>
    <property name="audio_index">0</property>
    <property name="video_index">-1</property>
    <property name="mute_on_pause">0</property>
    <property name="mlt_service">avformat-novalidate</property>
    <property name="seekable">1</property>
    <property name="creation_time">2021-02-18T03:10:18</property>
    <property name="shotcut:hash">3141884cfbc933a8c12d1e3c83f5e35a</property>
    <property name="global_feed">1</property>
    <property name="shotcut:caption">informer.m4a</property>
    <property name="xml">was here</property>
  </producer>
  <producer id="producer96" in="00:00:00.000" out="00:23:56.150">
    <property name="length">00:23:56.167</property>
    <property name="eof">pause</property>
    <property name="resource">d:/360MoveData/Users/Assassin/Desktop/paper_review/0003 Informer the best paper AAAI2021/informer.m4a</property>
    <property name="audio_index">0</property>
    <property name="video_index">-1</property>
    <property name="mute_on_pause">0</property>
    <property name="mlt_service">avformat-novalidate</property>
    <property name="seekable">1</property>
    <property name="creation_time">2021-02-18T03:10:18</property>
    <property name="shotcut:hash">3141884cfbc933a8c12d1e3c83f5e35a</property>
    <property name="global_feed">1</property>
    <property name="shotcut:caption">informer.m4a</property>
    <property name="xml">was here</property>
  </producer>
  <producer id="producer97" in="00:00:00.000" out="00:23:56.150">
    <property name="length">00:23:56.167</property>
    <property name="eof">pause</property>
    <property name="resource">d:/360MoveData/Users/Assassin/Desktop/paper_review/0003 Informer the best paper AAAI2021/informer.m4a</property>
    <property name="audio_index">0</property>
    <property name="video_index">-1</property>
    <property name="mute_on_pause">0</property>
    <property name="mlt_service">avformat-novalidate</property>
    <property name="seekable">1</property>
    <property name="creation_time">2021-02-18T03:10:18</property>
    <property name="shotcut:hash">3141884cfbc933a8c12d1e3c83f5e35a</property>
    <property name="global_feed">1</property>
    <property name="shotcut:caption">informer.m4a</property>
  </producer>
  <playlist id="playlist0">
    <property name="shotcut:video">1</property>
    <property name="shotcut:name">V1</property>
    <entry producer="producer0" in="00:00:00.000" out="00:00:10.950"/>
    <entry producer="producer1" in="00:00:12.433" out="00:00:28.883"/>
    <entry producer="producer2" in="00:00:34.017" out="00:01:31.933"/>
    <entry producer="producer3" in="00:01:45.333" out="00:01:52.750"/>
    <entry producer="producer4" in="00:01:53.000" out="00:01:56.483"/>
    <entry producer="producer5" in="00:01:56.800" out="00:02:08.767"/>
    <entry producer="producer6" in="00:02:08.850" out="00:02:21.133"/>
    <entry producer="producer7" in="00:02:21.917" out="00:03:00.650"/>
    <entry producer="producer8" in="00:03:01.933" out="00:03:06.133"/>
    <blank length="00:00:00.133"/>
    <entry producer="producer9" in="00:03:13.100" out="00:03:30.700"/>
    <entry producer="producer10" in="00:03:34.967" out="00:03:48.967"/>
    <entry producer="producer11" in="00:03:49.750" out="00:03:50.500"/>
    <entry producer="producer12" in="00:03:51.717" out="00:04:24.283"/>
    <entry producer="producer13" in="00:04:30.100" out="00:04:47.000"/>
    <entry producer="producer14" in="00:04:48.767" out="00:05:36.050"/>
    <entry producer="producer15" in="00:05:38.167" out="00:05:39.617"/>
    <entry producer="producer16" in="00:05:40.000" out="00:06:11.517"/>
    <entry producer="producer17" in="00:06:12.983" out="00:06:18.550"/>
    <entry producer="producer18" in="00:06:20.033" out="00:06:46.600"/>
    <entry producer="producer19" in="00:06:49.033" out="00:07:27.667"/>
    <entry producer="producer20" in="00:07:32.100" out="00:07:37.050"/>
    <entry producer="producer21" in="00:07:38.267" out="00:07:40.100"/>
    <entry producer="producer22" in="00:07:41.067" out="00:07:52.533"/>
    <entry producer="producer23" in="00:07:53.583" out="00:08:03.950"/>
    <entry producer="producer24" in="00:08:11.367" out="00:08:35.967"/>
    <entry producer="producer25" in="00:08:41.017" out="00:08:53.100"/>
    <entry producer="producer26" in="00:08:54.300" out="00:09:00.333"/>
    <entry producer="producer27" in="00:09:02.767" out="00:09:14.400"/>
    <entry producer="producer28" in="00:09:15.467" out="00:09:20.650"/>
    <blank length="00:00:00.483"/>
    <entry producer="producer29" in="00:09:30.650" out="00:10:03.750"/>
    <entry producer="producer30" in="00:10:06.817" out="00:10:12.117"/>
    <entry producer="producer31" in="00:10:16.050" out="00:10:29.783"/>
    <entry producer="producer32" in="00:10:30.100" out="00:10:36.067"/>
    <entry producer="producer33" in="00:10:40.250" out="00:10:50.317"/>
    <entry producer="producer34" in="00:10:53.100" out="00:11:15.983"/>
    <entry producer="producer35" in="00:11:19.483" out="00:11:24.000"/>
    <entry producer="producer36" in="00:11:25.167" out="00:11:37.533"/>
    <entry producer="producer37" in="00:11:39.117" out="00:11:56.717"/>
    <entry producer="producer38" in="00:12:05.200" out="00:12:08.050"/>
    <entry producer="producer39" in="00:12:12.233" out="00:12:15.150"/>
    <entry producer="producer40" in="00:12:17.250" out="00:12:19.133"/>
    <entry producer="producer41" in="00:12:24.850" out="00:12:29.717"/>
    <entry producer="producer42" in="00:12:31.000" out="00:12:44.267"/>
    <entry producer="producer43" in="00:13:01.050" out="00:13:03.267"/>
    <entry producer="producer44" in="00:13:03.917" out="00:13:05.167"/>
    <entry producer="producer45" in="00:13:05.667" out="00:13:09.467"/>
    <entry producer="producer46" in="00:13:09.683" out="00:13:10.550"/>
    <entry producer="producer47" in="00:13:11.400" out="00:13:26.150"/>
    <entry producer="producer48" in="00:13:32.033" out="00:13:36.567"/>
    <entry producer="producer49" in="00:13:38.217" out="00:13:39.567"/>
    <entry producer="producer50" in="00:13:43.383" out="00:13:52.917"/>
    <entry producer="producer51" in="00:13:55.067" out="00:14:15.733"/>
    <entry producer="producer52" in="00:14:18.150" out="00:14:41.150"/>
    <entry producer="producer53" in="00:14:44.350" out="00:14:50.583"/>
    <entry producer="producer54" in="00:14:51.733" out="00:14:53.933"/>
    <entry producer="producer55" in="00:14:56.250" out="00:15:12.417"/>
    <entry producer="producer56" in="00:15:15.117" out="00:15:36.267"/>
    <entry producer="producer57" in="00:15:37.550" out="00:15:38.517"/>
    <entry producer="producer58" in="00:15:39.583" out="00:15:56.333"/>
    <entry producer="producer59" in="00:16:00.083" out="00:16:02.067"/>
    <entry producer="producer60" in="00:16:02.583" out="00:16:05.567"/>
    <entry producer="producer61" in="00:16:09.550" out="00:16:19.500"/>
    <entry producer="producer62" in="00:16:22.317" out="00:16:27.467"/>
    <entry producer="producer63" in="00:16:31.450" out="00:16:35.950"/>
    <entry producer="producer64" in="00:16:36.967" out="00:16:40.767"/>
    <entry producer="producer65" in="00:16:41.050" out="00:16:43.200"/>
    <entry producer="producer66" in="00:16:43.700" out="00:16:47.017"/>
    <entry producer="producer67" in="00:16:48.483" out="00:17:15.017"/>
    <entry producer="producer68" in="00:17:20.067" out="00:17:26.050"/>
    <entry producer="producer69" in="00:17:27.650" out="00:17:50.083"/>
    <entry producer="producer70" in="00:17:55.617" out="00:18:10.317"/>
    <entry producer="producer71" in="00:18:13.733" out="00:18:20.917"/>
    <entry producer="producer72" in="00:18:24.450" out="00:18:28.083"/>
    <entry producer="producer73" in="00:18:34.717" out="00:18:39.883"/>
    <entry producer="producer74" in="00:18:41.550" out="00:18:42.517"/>
    <entry producer="producer75" in="00:18:42.983" out="00:18:44.167"/>
    <blank length="00:00:00.500"/>
    <entry producer="producer76" in="00:18:45.317" out="00:18:50.200"/>
    <entry producer="producer77" in="00:18:59.467" out="00:19:21.667"/>
    <entry producer="producer78" in="00:19:22.717" out="00:19:24.483"/>
    <entry producer="producer79" in="00:19:29.700" out="00:19:38.033"/>
    <entry producer="producer80" in="00:19:39.550" out="00:19:41.033"/>
    <entry producer="producer81" in="00:19:42.133" out="00:19:55.667"/>
    <entry producer="producer82" in="00:19:58.733" out="00:20:01.283"/>
    <entry producer="producer83" in="00:20:04.167" out="00:20:07.400"/>
    <entry producer="producer84" in="00:20:08.133" out="00:20:18.233"/>
    <entry producer="producer85" in="00:20:22.717" out="00:20:30.617"/>
    <entry producer="producer86" in="00:20:32.117" out="00:20:36.600"/>
    <entry producer="producer87" in="00:20:44.617" out="00:20:47.417"/>
    <entry producer="producer88" in="00:20:47.817" out="00:20:54.500"/>
    <entry producer="producer89" in="00:20:55.600" out="00:21:06.833"/>
    <entry producer="producer90" in="00:21:07.750" out="00:21:56.400"/>
    <entry producer="producer91" in="00:21:59.783" out="00:22:33.700"/>
    <entry producer="producer92" in="00:22:37.883" out="00:22:45.167"/>
    <entry producer="producer93" in="00:22:47.833" out="00:22:52.800"/>
    <entry producer="producer94" in="00:22:52.817" out="00:22:56.650"/>
    <entry producer="producer95" in="00:22:58.100" out="00:23:07.517"/>
    <entry producer="producer96" in="00:23:08.533" out="00:23:31.800"/>
    <entry producer="producer97" in="00:23:34.400" out="00:23:54.483"/>
  </playlist>
  <producer id="producer98" in="00:00:00.000" out="03:59:59.983">
    <property name="length">04:00:00.000</property>
    <property name="eof">pause</property>
    <property name="resource">d:/360MoveData/Users/Assassin/Desktop/图片/32786397946_5c5a887538_o.png</property>
    <property name="ttl">1</property>
    <property name="aspect_ratio">1</property>
    <property name="progressive">1</property>
    <property name="seekable">1</property>
    <property name="mlt_service">qimage</property>
    <property name="shotcut:hash">9f9bc77c849f92e6b75fe334236b64fc</property>
    <property name="global_feed">1</property>
    <property name="shotcut:caption">32786397946_5c5a887538_o.png</property>
    <property name="xml">was here</property>
  </producer>
  <producer id="producer99" in="00:00:00.000" out="00:00:09.567">
    <property name="length">00:00:09.583</property>
    <property name="eof">pause</property>
    <property name="resource">d:/360MoveData/Users/Assassin/Desktop/paper_review/0003 Informer the best paper AAAI2021/aaai.mp4</property>
    <property name="audio_index">-1</property>
    <property name="video_index">0</property>
    <property name="mute_on_pause">0</property>
    <property name="mlt_service">avformat-novalidate</property>
    <property name="seekable">1</property>
    <property name="aspect_ratio">1</property>
    <property name="creation_time">2021-02-18T03:27:08</property>
    <property name="shotcut:hash">b1b31c7f544b28d4121f524cc5d4cae6</property>
    <property name="global_feed">1</property>
    <property name="shotcut:caption">aaai.mp4</property>
    <property name="xml">was here</property>
  </producer>
  <producer id="producer100" in="00:00:00.000" out="00:00:09.567">
    <property name="length">00:00:09.583</property>
    <property name="eof">pause</property>
    <property name="resource">d:/360MoveData/Users/Assassin/Desktop/paper_review/0003 Informer the best paper AAAI2021/aaai.mp4</property>
    <property name="audio_index">-1</property>
    <property name="video_index">0</property>
    <property name="mute_on_pause">0</property>
    <property name="mlt_service">avformat-novalidate</property>
    <property name="seekable">1</property>
    <property name="aspect_ratio">1</property>
    <property name="creation_time">2021-02-18T03:27:08</property>
    <property name="shotcut:hash">b1b31c7f544b28d4121f524cc5d4cae6</property>
    <property name="global_feed">1</property>
    <property name="shotcut:caption">aaai.mp4</property>
    <property name="xml">was here</property>
  </producer>
  <producer id="producer101" in="00:00:00.000" out="03:59:59.983">
    <property name="length">04:00:00.000</property>
    <property name="eof">pause</property>
    <property name="resource">d:/360MoveData/Users/Assassin/Desktop/paper_review/0003 Informer the best paper AAAI2021/aaai_banner.png</property>
    <property name="ttl">1</property>
    <property name="aspect_ratio">1</property>
    <property name="progressive">1</property>
    <property name="seekable">1</property>
    <property name="mlt_service">qimage</property>
    <property name="creation_time">2021-02-18T03:31:33</property>
    <property name="shotcut:hash">a460ebf791a798bcc0b8fa61e27c425a</property>
    <property name="global_feed">1</property>
    <property name="shotcut:caption">aaai_banner.png</property>
    <property name="xml">was here</property>
  </producer>
  <producer id="producer102" in="00:00:00.000" out="03:59:59.983">
    <property name="length">04:00:00.000</property>
    <property name="eof">pause</property>
    <property name="resource">d:/360MoveData/Users/Assassin/Desktop/paper_review/0003 Informer the best paper AAAI2021/informer_title.png</property>
    <property name="ttl">1</property>
    <property name="aspect_ratio">1</property>
    <property name="progressive">1</property>
    <property name="seekable">1</property>
    <property name="mlt_service">qimage</property>
    <property name="creation_time">2021-02-18T03:29:55</property>
    <property name="shotcut:hash">d6328bc1db5065ed561c5caab34f515b</property>
    <property name="global_feed">1</property>
    <property name="shotcut:caption">informer_title.png</property>
    <property name="xml">was here</property>
  </producer>
  <producer id="producer103" in="00:00:00.000" out="03:59:59.983">
    <property name="length">04:00:00.000</property>
    <property name="eof">pause</property>
    <property name="resource">d:/360MoveData/Users/Assassin/Desktop/paper_review/0003 Informer the best paper AAAI2021/academy.jpg</property>
    <property name="ttl">1</property>
    <property name="aspect_ratio">1</property>
    <property name="progressive">1</property>
    <property name="seekable">1</property>
    <property name="mlt_service">qimage</property>
    <property name="creation_time">2021-02-18T03:36:14</property>
    <property name="shotcut:hash">d6a065ba53a4a27da81cc02f15fb5ead</property>
    <property name="global_feed">1</property>
    <property name="shotcut:caption">academy.jpg</property>
    <property name="xml">was here</property>
  </producer>
  <producer id="producer104" in="00:00:00.000" out="03:59:59.983">
    <property name="length">04:00:00.000</property>
    <property name="eof">pause</property>
    <property name="resource">d:/360MoveData/Users/Assassin/Desktop/paper_review/0003 Informer the best paper AAAI2021/academy.jpg</property>
    <property name="ttl">1</property>
    <property name="aspect_ratio">1</property>
    <property name="progressive">1</property>
    <property name="seekable">1</property>
    <property name="mlt_service">qimage</property>
    <property name="creation_time">2021-02-18T03:36:14</property>
    <property name="shotcut:hash">d6a065ba53a4a27da81cc02f15fb5ead</property>
    <property name="global_feed">1</property>
    <property name="shotcut:caption">academy.jpg</property>
    <property name="xml">was here</property>
    <filter id="filter0" in="00:00:05.650" out="00:00:06.167">
      <property name="argument"></property>
      <property name="geometry">429 416 1058 270 1</property>
      <property name="family">Sans</property>
      <property name="size">48</property>
      <property name="weight">400</property>
      <property name="style">normal</property>
      <property name="fgcolour">0x000000ff</property>
      <property name="bgcolour">#00000000</property>
      <property name="olcolour">0x00000000</property>
      <property name="pad">0</property>
      <property name="halign">left</property>
      <property name="valign">top</property>
      <property name="outline">0</property>
      <property name="mlt_service">qtext</property>
      <property name="shotcut:filter">richText</property>
      <property name="html">&lt;!DOCTYPE HTML PUBLIC &quot;-//W3C//DTD HTML 4.0//EN&quot; &quot;http://www.w3.org/TR/REC-html40/strict.dtd&quot;&gt;
&lt;html&gt;&lt;head&gt;&lt;meta name=&quot;qrichtext&quot; content=&quot;1&quot; /&gt;&lt;style type=&quot;text/css&quot;&gt;
p, li { white-space: pre-wrap; }
&lt;/style&gt;&lt;/head&gt;&lt;body style=&quot; font-family:'SimSun'; font-size:9pt; font-weight:400; font-style:normal;&quot;&gt;
&lt;p align=&quot;center&quot; style=&quot; margin-top:0px; margin-bottom:0px; margin-left:0px; margin-right:0px; -qt-block-indent:0; text-indent:0px;&quot;&gt;&lt;span style=&quot; font-family:'Verdana'; font-size:147pt; font-weight:600; color:#ff0741;&quot;&gt;Nope&lt;/span&gt;&lt;/p&gt;&lt;/body&gt;&lt;/html&gt;</property>
      <property name="shotcut:animIn">00:00:00.000</property>
      <property name="shotcut:animOut">00:00:00.000</property>
    </filter>
  </producer>
  <producer id="producer105" in="00:00:00.000" out="03:59:59.983">
    <property name="length">04:00:00.000</property>
    <property name="eof">pause</property>
    <property name="resource">d:/360MoveData/Users/Assassin/Desktop/paper_review/0003 Informer the best paper AAAI2021/CS_Academy_2-2.jpg</property>
    <property name="ttl">1</property>
    <property name="aspect_ratio">1</property>
    <property name="progressive">1</property>
    <property name="seekable">1</property>
    <property name="mlt_service">qimage</property>
    <property name="creation_time">2021-02-18T03:39:06</property>
    <property name="shotcut:hash">aa7f19651cfa1d7fdd32065e2752bb8e</property>
    <property name="global_feed">1</property>
    <property name="shotcut:caption">CS_Academy_2-2.jpg</property>
    <property name="xml">was here</property>
  </producer>
  <producer id="producer106" in="00:00:00.000" out="03:59:59.983">
    <property name="length">04:00:00.000</property>
    <property name="eof">pause</property>
    <property name="resource">d:/360MoveData/Users/Assassin/Desktop/paper_review/0003 Informer the best paper AAAI2021/content.PNG</property>
    <property name="ttl">1</property>
    <property name="aspect_ratio">1</property>
    <property name="progressive">1</property>
    <property name="seekable">1</property>
    <property name="mlt_service">qimage</property>
    <property name="creation_time">2021-02-18T03:42:10</property>
    <property name="shotcut:hash">7efc968982987607579637e36416f71d</property>
    <property name="global_feed">1</property>
    <property name="shotcut:caption">content.PNG</property>
    <property name="xml">was here</property>
  </producer>
  <producer id="producer107" in="00:00:00.000" out="03:59:59.983">
    <property name="length">04:00:00.000</property>
    <property name="eof">pause</property>
    <property name="resource">d:/360MoveData/Users/Assassin/Desktop/paper_review/0003 Informer the best paper AAAI2021/why.PNG</property>
    <property name="ttl">1</property>
    <property name="aspect_ratio">1</property>
    <property name="progressive">1</property>
    <property name="seekable">1</property>
    <property name="mlt_service">qimage</property>
    <property name="creation_time">2021-02-18T03:52:07</property>
    <property name="shotcut:hash">1601860626ce96201c09a2f56ccdfb25</property>
    <property name="global_feed">1</property>
    <property name="shotcut:caption">why.PNG</property>
    <property name="xml">was here</property>
  </producer>
  <tractor id="tractor0" global_feed="1" in="00:00:00.000" out="00:00:00.017">
    <property name="shotcut:transition">lumaMix</property>
    <track producer="producer106" in="00:01:00.050" out="00:01:00.067"/>
    <track producer="producer107" in="00:00:00.000" out="00:00:00.017"/>
    <transition id="transition0" out="00:00:00.017">
      <property name="a_track">0</property>
      <property name="b_track">1</property>
      <property name="factory">loader</property>
      <property name="mlt_service">luma</property>
      <property name="alpha_over">1</property>
    </transition>
    <transition id="transition1" out="00:00:00.017">
      <property name="a_track">0</property>
      <property name="b_track">1</property>
      <property name="mlt_service">mix</property>
      <property name="start">-1</property>
      <property name="accepts_blanks">1</property>
    </transition>
  </tractor>
  <producer id="producer108" in="00:00:00.000" out="03:59:59.983">
    <property name="length">04:00:00.000</property>
    <property name="eof">pause</property>
    <property name="resource">d:/360MoveData/Users/Assassin/Desktop/paper_review/0003 Informer the best paper AAAI2021/why1.PNG</property>
    <property name="ttl">1</property>
    <property name="aspect_ratio">1</property>
    <property name="progressive">1</property>
    <property name="seekable">1</property>
    <property name="mlt_service">qimage</property>
    <property name="creation_time">2021-02-18T03:53:06</property>
    <property name="shotcut:hash">457f84eab90bd3ecc2556857b746e9f4</property>
    <property name="global_feed">1</property>
    <property name="shotcut:caption">why1.PNG</property>
    <property name="xml">was here</property>
  </producer>
  <producer id="producer109" in="00:00:00.000" out="03:59:59.983">
    <property name="length">04:00:00.000</property>
    <property name="eof">pause</property>
    <property name="resource">d:/360MoveData/Users/Assassin/Desktop/paper_review/0003 Informer the best paper AAAI2021/aiayn.png</property>
    <property name="ttl">1</property>
    <property name="aspect_ratio">1</property>
    <property name="progressive">1</property>
    <property name="seekable">1</property>
    <property name="mlt_service">qimage</property>
    <property name="creation_time">2021-02-18T03:55:34</property>
    <property name="shotcut:hash">16485b0ac2bbf6e87202b8154b3ada99</property>
    <property name="global_feed">1</property>
    <property name="shotcut:caption">aiayn.png</property>
    <property name="xml">was here</property>
  </producer>
  <producer id="producer110" in="00:00:00.000" out="03:59:59.983">
    <property name="length">04:00:00.000</property>
    <property name="eof">pause</property>
    <property name="resource">d:/360MoveData/Users/Assassin/Desktop/paper_review/0003 Informer the best paper AAAI2021/why1.PNG</property>
    <property name="ttl">1</property>
    <property name="aspect_ratio">1</property>
    <property name="progressive">1</property>
    <property name="seekable">1</property>
    <property name="mlt_service">qimage</property>
    <property name="creation_time">2021-02-18T03:53:06</property>
    <property name="shotcut:hash">457f84eab90bd3ecc2556857b746e9f4</property>
    <property name="global_feed">1</property>
    <property name="shotcut:caption">why1.PNG</property>
    <property name="xml">was here</property>
  </producer>
  <producer id="producer111" in="00:00:00.000" out="03:59:59.983">
    <property name="length">04:00:00.000</property>
    <property name="eof">pause</property>
    <property name="resource">d:/360MoveData/Users/Assassin/Desktop/paper_review/0003 Informer the best paper AAAI2021/time_comp.png</property>
    <property name="ttl">1</property>
    <property name="aspect_ratio">1</property>
    <property name="progressive">1</property>
    <property name="seekable">1</property>
    <property name="mlt_service">qimage</property>
    <property name="creation_time">2021-02-18T03:59:25</property>
    <property name="shotcut:hash">287a107b139d928d941e8c4d8dc5b14f</property>
    <property name="global_feed">1</property>
    <property name="shotcut:caption">time_comp.png</property>
    <property name="xml">was here</property>
    <filter id="filter1" out="00:00:06.233">
      <property name="background">color:#ffffff</property>
      <property name="mlt_service">affine</property>
      <property name="shotcut:filter">affineSizePosition</property>
      <property name="transition.fill">1</property>
      <property name="transition.distort">0</property>
      <property name="transition.rect">550 503 769 216 1</property>
      <property name="transition.valign">middle</property>
      <property name="transition.halign">center</property>
      <property name="shotcut:animIn">00:00:00.000</property>
      <property name="shotcut:animOut">00:00:00.000</property>
      <property name="transition.threads">0</property>
      <property name="transition.fix_rotate_x">0</property>
    </filter>
  </producer>
  <producer id="producer112" in="00:00:00.000" out="03:59:59.983">
    <property name="length">04:00:00.000</property>
    <property name="eof">pause</property>
    <property name="resource">d:/360MoveData/Users/Assassin/Desktop/paper_review/0003 Informer the best paper AAAI2021/rnn_attention.PNG</property>
    <property name="ttl">1</property>
    <property name="aspect_ratio">1</property>
    <property name="progressive">1</property>
    <property name="seekable">1</property>
    <property name="mlt_service">qimage</property>
    <property name="creation_time">2021-02-18T04:02:14</property>
    <property name="shotcut:hash">6c4fb3d489a3b8d301310529d52d4c74</property>
    <property name="global_feed">1</property>
    <property name="shotcut:caption">rnn_attention.PNG</property>
    <property name="xml">was here</property>
  </producer>
  <producer id="producer113" in="00:00:00.000" out="03:59:59.983">
    <property name="length">04:00:00.000</property>
    <property name="eof">pause</property>
    <property name="resource">d:/360MoveData/Users/Assassin/Desktop/paper_review/0003 Informer the best paper AAAI2021/rnn_attention.PNG</property>
    <property name="ttl">1</property>
    <property name="aspect_ratio">1</property>
    <property name="progressive">1</property>
    <property name="seekable">1</property>
    <property name="mlt_service">qimage</property>
    <property name="creation_time">2021-02-18T04:02:14</property>
    <property name="shotcut:hash">6c4fb3d489a3b8d301310529d52d4c74</property>
    <property name="global_feed">1</property>
    <property name="shotcut:caption">rnn_attention.PNG</property>
    <property name="xml">was here</property>
    <filter id="filter2" out="00:00:02.050">
      <property name="argument"></property>
      <property name="geometry">452 326 954 150 1</property>
      <property name="family">Sans</property>
      <property name="size">48</property>
      <property name="weight">400</property>
      <property name="style">normal</property>
      <property name="fgcolour">0x000000ff</property>
      <property name="bgcolour">#00000000</property>
      <property name="olcolour">0x00000000</property>
      <property name="pad">0</property>
      <property name="halign">left</property>
      <property name="valign">top</property>
      <property name="outline">0</property>
      <property name="mlt_service">qtext</property>
      <property name="shotcut:filter">richText</property>
      <property name="html">&lt;!DOCTYPE HTML PUBLIC &quot;-//W3C//DTD HTML 4.0//EN&quot; &quot;http://www.w3.org/TR/REC-html40/strict.dtd&quot;&gt;
&lt;html&gt;&lt;head&gt;&lt;meta name=&quot;qrichtext&quot; content=&quot;1&quot; /&gt;&lt;style type=&quot;text/css&quot;&gt;
p, li { white-space: pre-wrap; }
&lt;/style&gt;&lt;/head&gt;&lt;body style=&quot; font-family:'SimSun'; font-size:9pt; font-weight:400; font-style:normal;&quot;&gt;
&lt;p align=&quot;center&quot; style=&quot; margin-top:0px; margin-bottom:0px; margin-left:0px; margin-right:0px; -qt-block-indent:0; text-indent:0px;&quot;&gt;&lt;span style=&quot; font-family:'Verdana'; font-size:72pt; font-weight:600; color:#aa0000;&quot;&gt;Auto-Regressive&lt;/span&gt;&lt;/p&gt;&lt;/body&gt;&lt;/html&gt;</property>
      <property name="shotcut:animIn">00:00:00.000</property>
      <property name="shotcut:animOut">00:00:00.000</property>
    </filter>
  </producer>
  <producer id="producer114" in="00:00:00.000" out="03:59:59.983">
    <property name="length">04:00:00.000</property>
    <property name="eof">pause</property>
    <property name="resource">d:/360MoveData/Users/Assassin/Desktop/paper_review/0003 Informer the best paper AAAI2021/rnn_attention.PNG</property>
    <property name="ttl">1</property>
    <property name="aspect_ratio">1</property>
    <property name="progressive">1</property>
    <property name="seekable">1</property>
    <property name="mlt_service">qimage</property>
    <property name="creation_time">2021-02-18T04:02:14</property>
    <property name="shotcut:hash">6c4fb3d489a3b8d301310529d52d4c74</property>
    <property name="global_feed">1</property>
    <property name="shotcut:caption">rnn_attention.PNG</property>
    <property name="xml">was here</property>
  </producer>
  <producer id="producer115" in="00:00:00.000" out="03:59:59.983">
    <property name="length">04:00:00.000</property>
    <property name="eof">pause</property>
    <property name="resource">d:/360MoveData/Users/Assassin/Desktop/paper_review/0003 Informer the best paper AAAI2021/3why.PNG</property>
    <property name="ttl">1</property>
    <property name="aspect_ratio">1</property>
    <property name="progressive">1</property>
    <property name="seekable">1</property>
    <property name="mlt_service">qimage</property>
    <property name="creation_time">2021-02-18T04:05:39</property>
    <property name="shotcut:hash">ea1563092472c791d982b1db8809d086</property>
    <property name="global_feed">1</property>
    <property name="shotcut:caption">3why.PNG</property>
    <property name="xml">was here</property>
  </producer>
  <producer id="producer116" in="00:00:00.000" out="03:59:59.983">
    <property name="length">04:00:00.000</property>
    <property name="eof">pause</property>
    <property name="resource">d:/360MoveData/Users/Assassin/Desktop/paper_review/0003 Informer the best paper AAAI2021/p2.PNG</property>
    <property name="ttl">1</property>
    <property name="aspect_ratio">1</property>
    <property name="progressive">1</property>
    <property name="seekable">1</property>
    <property name="mlt_service">qimage</property>
    <property name="creation_time">2021-02-18T04:07:12</property>
    <property name="shotcut:hash">73de7f67fd5911bbd487ebbb7641f086</property>
    <property name="global_feed">1</property>
    <property name="shotcut:caption">p2.PNG</property>
    <property name="xml">was here</property>
  </producer>
  <tractor id="tractor1" global_feed="1" in="00:00:00.000" out="00:00:00.000">
    <property name="shotcut:transition">lumaMix</property>
    <track producer="producer115" in="00:00:32.983" out="00:00:32.983"/>
    <track producer="producer116" in="00:00:00.000" out="00:00:00.000"/>
    <transition id="transition2">
      <property name="a_track">0</property>
      <property name="b_track">1</property>
      <property name="factory">loader</property>
      <property name="mlt_service">luma</property>
      <property name="alpha_over">1</property>
    </transition>
    <transition id="transition3">
      <property name="a_track">0</property>
      <property name="b_track">1</property>
      <property name="mlt_service">mix</property>
      <property name="start">-1</property>
      <property name="accepts_blanks">1</property>
    </transition>
  </tractor>
  <producer id="producer117" in="00:00:00.000" out="03:59:59.983">
    <property name="length">04:00:00.000</property>
    <property name="eof">pause</property>
    <property name="resource">d:/360MoveData/Users/Assassin/Desktop/paper_review/0003 Informer the best paper AAAI2021/attention1.PNG</property>
    <property name="ttl">1</property>
    <property name="aspect_ratio">1</property>
    <property name="progressive">1</property>
    <property name="seekable">1</property>
    <property name="mlt_service">qimage</property>
    <property name="creation_time">2021-02-18T04:08:45</property>
    <property name="shotcut:hash">f2d215ec84fc422e2efcfac0c7a8502a</property>
    <property name="global_feed">1</property>
    <property name="shotcut:caption">attention1.PNG</property>
    <property name="xml">was here</property>
  </producer>
  <producer id="producer118" in="00:00:00.000" out="03:59:59.983">
    <property name="length">04:00:00.000</property>
    <property name="eof">pause</property>
    <property name="resource">d:/360MoveData/Users/Assassin/Desktop/paper_review/0003 Informer the best paper AAAI2021/long_tail.png</property>
    <property name="ttl">1</property>
    <property name="aspect_ratio">1</property>
    <property name="progressive">1</property>
    <property name="seekable">1</property>
    <property name="mlt_service">qimage</property>
    <property name="creation_time">2021-02-18T04:10:54</property>
    <property name="shotcut:hash">4a6597313e311f3646fe4014e661a338</property>
    <property name="global_feed">1</property>
    <property name="shotcut:caption">long_tail.png</property>
    <property name="xml">was here</property>
  </producer>
  <producer id="producer119" in="00:00:00.000" out="03:59:59.983">
    <property name="length">04:00:00.000</property>
    <property name="eof">pause</property>
    <property name="resource">d:/360MoveData/Users/Assassin/Desktop/paper_review/0003 Informer the best paper AAAI2021/attention1.PNG</property>
    <property name="ttl">1</property>
    <property name="aspect_ratio">1</property>
    <property name="progressive">1</property>
    <property name="seekable">1</property>
    <property name="mlt_service">qimage</property>
    <property name="creation_time">2021-02-18T04:08:45</property>
    <property name="shotcut:hash">f2d215ec84fc422e2efcfac0c7a8502a</property>
    <property name="global_feed">1</property>
    <property name="shotcut:caption">attention1.PNG</property>
    <property name="xml">was here</property>
  </producer>
  <producer id="producer120" in="00:00:00.000" out="03:59:59.983">
    <property name="length">04:00:00.000</property>
    <property name="eof">pause</property>
    <property name="resource">d:/360MoveData/Users/Assassin/Desktop/paper_review/0003 Informer the best paper AAAI2021/attention1.PNG</property>
    <property name="ttl">1</property>
    <property name="aspect_ratio">1</property>
    <property name="progressive">1</property>
    <property name="seekable">1</property>
    <property name="mlt_service">qimage</property>
    <property name="creation_time">2021-02-18T04:08:45</property>
    <property name="shotcut:hash">f2d215ec84fc422e2efcfac0c7a8502a</property>
    <property name="global_feed">1</property>
    <property name="shotcut:caption">attention1.PNG</property>
    <property name="xml">was here</property>
    <filter id="filter3" out="00:00:02.233">
      <property name="argument"></property>
      <property name="geometry">721 449 774 338 1</property>
      <property name="family">Sans</property>
      <property name="size">48</property>
      <property name="weight">400</property>
      <property name="style">normal</property>
      <property name="fgcolour">0x000000ff</property>
      <property name="bgcolour">#00000000</property>
      <property name="olcolour">0x00000000</property>
      <property name="pad">0</property>
      <property name="halign">left</property>
      <property name="valign">top</property>
      <property name="outline">0</property>
      <property name="mlt_service">qtext</property>
      <property name="shotcut:filter">richText</property>
      <property name="html">&lt;!DOCTYPE HTML PUBLIC &quot;-//W3C//DTD HTML 4.0//EN&quot; &quot;http://www.w3.org/TR/REC-html40/strict.dtd&quot;&gt;
&lt;html&gt;&lt;head&gt;&lt;meta name=&quot;qrichtext&quot; content=&quot;1&quot; /&gt;&lt;style type=&quot;text/css&quot;&gt;
p, li { white-space: pre-wrap; }
&lt;/style&gt;&lt;/head&gt;&lt;body style=&quot; font-family:'SimSun'; font-size:9pt; font-weight:400; font-style:normal;&quot;&gt;
&lt;p align=&quot;center&quot; style=&quot; margin-top:0px; margin-bottom:0px; margin-left:0px; margin-right:0px; -qt-block-indent:0; text-indent:0px;&quot;&gt;&lt;span style=&quot; font-family:'Verdana'; font-size:72pt; font-weight:600; color:#aa0000;&quot;&gt;&amp;quot;Sparse&amp;quot;&lt;/span&gt;&lt;/p&gt;&lt;/body&gt;&lt;/html&gt;</property>
      <property name="shotcut:animIn">00:00:00.000</property>
      <property name="shotcut:animOut">00:00:00.000</property>
    </filter>
  </producer>
  <producer id="producer121" in="00:00:00.000" out="03:59:59.983">
    <property name="length">04:00:00.000</property>
    <property name="eof">pause</property>
    <property name="resource">d:/360MoveData/Users/Assassin/Desktop/paper_review/0003 Informer the best paper AAAI2021/attention1.PNG</property>
    <property name="ttl">1</property>
    <property name="aspect_ratio">1</property>
    <property name="progressive">1</property>
    <property name="seekable">1</property>
    <property name="mlt_service">qimage</property>
    <property name="creation_time">2021-02-18T04:08:45</property>
    <property name="shotcut:hash">f2d215ec84fc422e2efcfac0c7a8502a</property>
    <property name="global_feed">1</property>
    <property name="shotcut:caption">attention1.PNG</property>
    <property name="xml">was here</property>
  </producer>
  <producer id="producer122" in="00:00:00.000" out="03:59:59.983">
    <property name="length">04:00:00.000</property>
    <property name="eof">pause</property>
    <property name="resource">d:/360MoveData/Users/Assassin/Desktop/paper_review/0003 Informer the best paper AAAI2021/calculation.PNG</property>
    <property name="ttl">1</property>
    <property name="aspect_ratio">1</property>
    <property name="progressive">1</property>
    <property name="seekable">1</property>
    <property name="mlt_service">qimage</property>
    <property name="creation_time">2021-02-18T04:13:47</property>
    <property name="shotcut:hash">0d644c7a445df76a7e05721acc8ff4a3</property>
    <property name="global_feed">1</property>
    <property name="shotcut:caption">calculation.PNG</property>
    <property name="xml">was here</property>
  </producer>
  <producer id="producer123" in="00:00:00.000" out="03:59:59.983">
    <property name="length">04:00:00.000</property>
    <property name="eof">pause</property>
    <property name="resource">d:/360MoveData/Users/Assassin/Desktop/paper_review/0003 Informer the best paper AAAI2021/attention_calculation1.png</property>
    <property name="ttl">1</property>
    <property name="aspect_ratio">1</property>
    <property name="progressive">1</property>
    <property name="seekable">1</property>
    <property name="mlt_service">qimage</property>
    <property name="creation_time">2021-02-18T04:17:55</property>
    <property name="shotcut:hash">9353c60358c1283389e886a9aaa86eb7</property>
    <property name="global_feed">1</property>
    <property name="shotcut:caption">attention_calculation1.png</property>
    <property name="xml">was here</property>
  </producer>
  <producer id="producer124" in="00:00:00.000" out="03:59:59.983">
    <property name="length">04:00:00.000</property>
    <property name="eof">pause</property>
    <property name="resource">d:/360MoveData/Users/Assassin/Desktop/paper_review/0003 Informer the best paper AAAI2021/attention_calculation2.png</property>
    <property name="ttl">1</property>
    <property name="aspect_ratio">1</property>
    <property name="progressive">1</property>
    <property name="seekable">1</property>
    <property name="mlt_service">qimage</property>
    <property name="creation_time">2021-02-18T04:19:40</property>
    <property name="shotcut:hash">ac3fe4301c00081e87d304b0312fb62f</property>
    <property name="global_feed">1</property>
    <property name="shotcut:caption">attention_calculation2.png</property>
    <property name="xml">was here</property>
  </producer>
  <producer id="producer125" in="00:00:00.000" out="03:59:59.983">
    <property name="length">04:00:00.000</property>
    <property name="eof">pause</property>
    <property name="resource">d:/360MoveData/Users/Assassin/Desktop/paper_review/0003 Informer the best paper AAAI2021/univorm.png</property>
    <property name="ttl">1</property>
    <property name="aspect_ratio">1</property>
    <property name="progressive">1</property>
    <property name="seekable">1</property>
    <property name="mlt_service">qimage</property>
    <property name="creation_time">2021-02-18T04:21:04</property>
    <property name="shotcut:hash">f63e2268280c87a4970cacb254559a49</property>
    <property name="global_feed">1</property>
    <property name="shotcut:caption">univorm.png</property>
    <property name="xml">was here</property>
  </producer>
  <producer id="producer126" in="00:00:00.000" out="03:59:59.983">
    <property name="length">04:00:00.000</property>
    <property name="eof">pause</property>
    <property name="resource">d:/360MoveData/Users/Assassin/Desktop/paper_review/0003 Informer the best paper AAAI2021/calculation.PNG</property>
    <property name="ttl">1</property>
    <property name="aspect_ratio">1</property>
    <property name="progressive">1</property>
    <property name="seekable">1</property>
    <property name="mlt_service">qimage</property>
    <property name="creation_time">2021-02-18T04:13:47</property>
    <property name="shotcut:hash">0d644c7a445df76a7e05721acc8ff4a3</property>
    <property name="global_feed">1</property>
    <property name="shotcut:caption">calculation.PNG</property>
  </producer>
  <producer id="producer127" in="00:00:00.000" out="03:59:59.983">
    <property name="length">04:00:00.000</property>
    <property name="eof">pause</property>
    <property name="resource">d:/360MoveData/Users/Assassin/Desktop/paper_review/0003 Informer the best paper AAAI2021/sparse_query.PNG</property>
    <property name="ttl">1</property>
    <property name="aspect_ratio">1</property>
    <property name="progressive">1</property>
    <property name="seekable">1</property>
    <property name="mlt_service">qimage</property>
    <property name="creation_time">2021-02-18T04:25:22</property>
    <property name="shotcut:hash">df55e2868d47db7c0c0a6a25552cbb15</property>
    <property name="global_feed">1</property>
    <property name="shotcut:caption">sparse_query.PNG</property>
  </producer>
  <producer id="producer128" in="00:00:00.000" out="03:59:59.983">
    <property name="length">04:00:00.000</property>
    <property name="eof">pause</property>
    <property name="resource">d:/360MoveData/Users/Assassin/Desktop/paper_review/0003 Informer the best paper AAAI2021/sparse_key1.PNG</property>
    <property name="ttl">1</property>
    <property name="aspect_ratio">1</property>
    <property name="progressive">1</property>
    <property name="seekable">1</property>
    <property name="mlt_service">qimage</property>
    <property name="creation_time">2021-02-18T04:27:47</property>
    <property name="shotcut:hash">de69ca6734e06d07648fb42dac65a66f</property>
    <property name="global_feed">1</property>
    <property name="shotcut:caption">sparse_key1.PNG</property>
  </producer>
  <producer id="producer129" in="00:00:00.000" out="03:59:59.983">
    <property name="length">04:00:00.000</property>
    <property name="eof">pause</property>
    <property name="resource">d:/360MoveData/Users/Assassin/Desktop/paper_review/0003 Informer the best paper AAAI2021/sparse_key.PNG</property>
    <property name="ttl">1</property>
    <property name="aspect_ratio">1</property>
    <property name="progressive">1</property>
    <property name="seekable">1</property>
    <property name="mlt_service">qimage</property>
    <property name="creation_time">2021-02-18T04:30:06</property>
    <property name="shotcut:hash">fbaea0c21701a329b7fcaf0f5e25bda3</property>
    <property name="global_feed">1</property>
    <property name="shotcut:caption">sparse_key.PNG</property>
  </producer>
  <producer id="producer130" in="00:00:00.000" out="03:59:59.983">
    <property name="length">04:00:00.000</property>
    <property name="eof">pause</property>
    <property name="resource">d:/360MoveData/Users/Assassin/Desktop/paper_review/0003 Informer the best paper AAAI2021/rnn.PNG</property>
    <property name="ttl">1</property>
    <property name="aspect_ratio">1</property>
    <property name="progressive">1</property>
    <property name="seekable">1</property>
    <property name="mlt_service">qimage</property>
    <property name="creation_time">2021-02-18T04:32:15</property>
    <property name="shotcut:hash">68714ca923fc69b6e05282609e4ff72c</property>
    <property name="global_feed">1</property>
    <property name="shotcut:caption">rnn.PNG</property>
  </producer>
  <producer id="producer131" in="00:00:00.000" out="03:59:59.983">
    <property name="length">04:00:00.000</property>
    <property name="eof">pause</property>
    <property name="resource">d:/360MoveData/Users/Assassin/Desktop/paper_review/0003 Informer the best paper AAAI2021/gsd1.PNG</property>
    <property name="ttl">1</property>
    <property name="aspect_ratio">1</property>
    <property name="progressive">1</property>
    <property name="seekable">1</property>
    <property name="mlt_service">qimage</property>
    <property name="creation_time">2021-02-18T04:33:42</property>
    <property name="shotcut:hash">bd724702023542f26700a3614ee047d9</property>
    <property name="global_feed">1</property>
    <property name="shotcut:caption">gsd1.PNG</property>
  </producer>
  <producer id="producer132" in="00:00:00.000" out="03:59:59.983">
    <property name="length">04:00:00.000</property>
    <property name="eof">pause</property>
    <property name="resource">d:/360MoveData/Users/Assassin/Desktop/paper_review/0003 Informer the best paper AAAI2021/p3.PNG</property>
    <property name="ttl">1</property>
    <property name="aspect_ratio">1</property>
    <property name="progressive">1</property>
    <property name="seekable">1</property>
    <property name="mlt_service">qimage</property>
    <property name="creation_time">2021-02-18T04:37:01</property>
    <property name="shotcut:hash">5d6dca186559332cd841ec4681da0f0d</property>
    <property name="global_feed">1</property>
    <property name="shotcut:caption">p3.PNG</property>
  </producer>
  <producer id="producer133" in="00:00:00.000" out="03:59:59.983">
    <property name="length">04:00:00.000</property>
    <property name="eof">pause</property>
    <property name="resource">d:/360MoveData/Users/Assassin/Desktop/paper_review/0003 Informer the best paper AAAI2021/max-mean.PNG</property>
    <property name="ttl">1</property>
    <property name="aspect_ratio">1</property>
    <property name="progressive">1</property>
    <property name="seekable">1</property>
    <property name="mlt_service">qimage</property>
    <property name="creation_time">2021-02-18T04:38:30</property>
    <property name="shotcut:hash">13152c21997ba78a8ff2bbe350c4af97</property>
    <property name="global_feed">1</property>
    <property name="shotcut:caption">max-mean.PNG</property>
  </producer>
  <producer id="producer134" in="00:00:00.000" out="03:59:59.983">
    <property name="length">04:00:00.000</property>
    <property name="eof">pause</property>
    <property name="resource">d:/360MoveData/Users/Assassin/Desktop/paper_review/0003 Informer the best paper AAAI2021/proof1.png</property>
    <property name="ttl">1</property>
    <property name="aspect_ratio">1</property>
    <property name="progressive">1</property>
    <property name="seekable">1</property>
    <property name="mlt_service">qimage</property>
    <property name="creation_time">2021-02-18T04:42:20</property>
    <property name="shotcut:hash">cffedbc8cbab99c176d5dc347b2c9b1c</property>
    <property name="global_feed">1</property>
    <property name="shotcut:caption">proof1.png</property>
    <filter id="filter4" out="00:00:01.833">
      <property name="start">1</property>
      <property name="level">00:00:00.000=0;00:00:00.983=1</property>
      <property name="mlt_service">brightness</property>
      <property name="shotcut:filter">fadeInBrightness</property>
      <property name="alpha">1</property>
      <property name="shotcut:animIn">00:00:01.000</property>
    </filter>
  </producer>
  <producer id="producer135" in="00:00:00.000" out="03:59:59.983">
    <property name="length">04:00:00.000</property>
    <property name="eof">pause</property>
    <property name="resource">d:/360MoveData/Users/Assassin/Desktop/paper_review/0003 Informer the best paper AAAI2021/proof1.png</property>
    <property name="ttl">1</property>
    <property name="aspect_ratio">1</property>
    <property name="progressive">1</property>
    <property name="seekable">1</property>
    <property name="mlt_service">qimage</property>
    <property name="creation_time">2021-02-18T04:42:20</property>
    <property name="shotcut:hash">cffedbc8cbab99c176d5dc347b2c9b1c</property>
    <property name="global_feed">1</property>
    <property name="shotcut:caption">proof1.png</property>
    <filter id="filter5" in="00:00:03.083" out="00:00:03.983">
      <property name="background">color:#00000000</property>
      <property name="mlt_service">affine</property>
      <property name="shotcut:filter">affineSizePosition</property>
      <property name="transition.fill">1</property>
      <property name="transition.distort">0</property>
      <property name="transition.rect">326 509 1276 118 1</property>
      <property name="transition.valign">middle</property>
      <property name="transition.halign">center</property>
      <property name="shotcut:animIn">00:00:00.000</property>
      <property name="shotcut:animOut">00:00:00.000</property>
      <property name="transition.threads">0</property>
    </filter>
    <filter id="filter6" in="00:00:03.083" out="00:00:03.983">
      <property name="version">0.1</property>
      <property name="mlt_service">frei0r.dither</property>
      <property name="shotcut:filter">dither</property>
      <property name="0">0.847</property>
      <property name="1">0.222222</property>
    </filter>
    <filter id="filter7" in="00:00:03.083" out="00:00:03.983">
      <property name="version">0.1</property>
      <property name="mlt_service">frei0r.dither</property>
      <property name="shotcut:filter">dither</property>
      <property name="0">0.1</property>
      <property name="1">0</property>
    </filter>
    <filter id="filter8" in="00:00:03.083" out="00:00:03.983">
      <property name="version">0.1</property>
      <property name="mlt_service">frei0r.glitch0r</property>
      <property name="0">0.5</property>
      <property name="1">0.5</property>
      <property name="2">0.5</property>
      <property name="3">0.5</property>
    </filter>
  </producer>
  <producer id="producer136" in="00:00:00.000" out="03:59:59.983">
    <property name="length">04:00:00.000</property>
    <property name="eof">pause</property>
    <property name="resource">d:/360MoveData/Users/Assassin/Desktop/paper_review/0003 Informer the best paper AAAI2021/proof2.png</property>
    <property name="ttl">1</property>
    <property name="aspect_ratio">1</property>
    <property name="progressive">1</property>
    <property name="seekable">1</property>
    <property name="mlt_service">qimage</property>
    <property name="creation_time">2021-02-18T04:47:45</property>
    <property name="shotcut:hash">37cfae5cef3c7ba148056e2bc3579d48</property>
    <property name="global_feed">1</property>
    <property name="shotcut:caption">proof2.png</property>
  </producer>
  <tractor id="tractor2" global_feed="1" in="00:00:00.000" out="00:00:00.017">
    <property name="shotcut:transition">lumaMix</property>
    <track producer="producer135" in="00:00:03.967" out="00:00:03.983"/>
    <track producer="producer136" in="00:00:00.000" out="00:00:00.017"/>
    <transition id="transition4" out="00:00:00.017">
      <property name="a_track">0</property>
      <property name="b_track">1</property>
      <property name="factory">loader</property>
      <property name="mlt_service">luma</property>
      <property name="alpha_over">1</property>
    </transition>
    <transition id="transition5" out="00:00:00.017">
      <property name="a_track">0</property>
      <property name="b_track">1</property>
      <property name="start">-1</property>
      <property name="accepts_blanks">1</property>
      <property name="mlt_service">mix</property>
    </transition>
  </tractor>
  <producer id="producer137" in="00:00:00.000" out="00:00:08.167">
    <property name="length">00:00:08.183</property>
    <property name="eof">pause</property>
    <property name="resource">d:/360MoveData/Users/Assassin/Desktop/paper_review/0003 Informer the best paper AAAI2021/proooooof.mp4</property>
    <property name="audio_index">-1</property>
    <property name="video_index">0</property>
    <property name="mute_on_pause">0</property>
    <property name="mlt_service">avformat-novalidate</property>
    <property name="seekable">1</property>
    <property name="aspect_ratio">1</property>
    <property name="creation_time">2021-02-18T04:55:05</property>
    <property name="shotcut:hash">c9f8f80f6eb092986200719ad0fd804d</property>
    <property name="global_feed">1</property>
    <property name="shotcut:caption">proooooof.mp4</property>
  </producer>
  <producer id="producer138" in="00:00:00.000" out="03:59:59.983">
    <property name="length">04:00:00.000</property>
    <property name="eof">pause</property>
    <property name="resource">d:/360MoveData/Users/Assassin/Desktop/paper_review/0003 Informer the best paper AAAI2021/proof3.png</property>
    <property name="ttl">1</property>
    <property name="aspect_ratio">1</property>
    <property name="progressive">1</property>
    <property name="seekable">1</property>
    <property name="mlt_service">qimage</property>
    <property name="creation_time">2021-02-18T04:56:55</property>
    <property name="shotcut:hash">d1950fb038a2866e8c1bf78bd3114b19</property>
    <property name="global_feed">1</property>
    <property name="shotcut:caption">proof3.png</property>
  </producer>
  <producer id="producer139" in="00:00:00.000" out="03:59:59.983">
    <property name="length">04:00:00.000</property>
    <property name="eof">pause</property>
    <property name="resource">d:/360MoveData/Users/Assassin/Desktop/paper_review/0003 Informer the best paper AAAI2021/informer_timestamps.png</property>
    <property name="ttl">1</property>
    <property name="aspect_ratio">1</property>
    <property name="progressive">1</property>
    <property name="seekable">1</property>
    <property name="mlt_service">qimage</property>
    <property name="creation_time">2021-02-15T17:16:27</property>
    <property name="shotcut:hash">00595ad704c075997f4c094b567eb89f</property>
    <property name="global_feed">1</property>
    <property name="shotcut:caption">informer_timestamps.png</property>
  </producer>
  <producer id="producer140" in="00:00:00.000" out="03:59:59.983">
    <property name="length">04:00:00.000</property>
    <property name="eof">pause</property>
    <property name="resource">d:/360MoveData/Users/Assassin/Desktop/paper_review/0003 Informer the best paper AAAI2021/redundance.PNG</property>
    <property name="ttl">1</property>
    <property name="aspect_ratio">1</property>
    <property name="progressive">1</property>
    <property name="seekable">1</property>
    <property name="mlt_service">qimage</property>
    <property name="creation_time">2021-02-18T05:05:43</property>
    <property name="shotcut:hash">6b9eefe17aab70616edf640f985580f9</property>
    <property name="global_feed">1</property>
    <property name="shotcut:caption">redundance.PNG</property>
  </producer>
  <producer id="producer141" in="00:00:00.000" out="03:59:59.983">
    <property name="length">04:00:00.000</property>
    <property name="eof">pause</property>
    <property name="resource">d:/360MoveData/Users/Assassin/Desktop/paper_review/0003 Informer the best paper AAAI2021/p4.PNG</property>
    <property name="ttl">1</property>
    <property name="aspect_ratio">1</property>
    <property name="progressive">1</property>
    <property name="seekable">1</property>
    <property name="mlt_service">qimage</property>
    <property name="creation_time">2021-02-18T05:09:34</property>
    <property name="shotcut:hash">bb5e1df545b268132f505bc32e0461ca</property>
    <property name="global_feed">1</property>
    <property name="shotcut:caption">p4.PNG</property>
  </producer>
  <producer id="producer142" in="00:00:00.000" out="03:59:59.983">
    <property name="length">04:00:00.000</property>
    <property name="eof">pause</property>
    <property name="resource">d:/360MoveData/Users/Assassin/Desktop/paper_review/0003 Informer the best paper AAAI2021/datasets.png</property>
    <property name="ttl">1</property>
    <property name="aspect_ratio">1</property>
    <property name="progressive">1</property>
    <property name="seekable">1</property>
    <property name="mlt_service">qimage</property>
    <property name="creation_time">2021-02-18T05:11:46</property>
    <property name="shotcut:hash">7d8c7e20be4f17e8b0bbf593acdec759</property>
    <property name="global_feed">1</property>
    <property name="shotcut:caption">datasets.png</property>
  </producer>
  <producer id="producer143" in="00:00:00.000" out="03:59:59.983">
    <property name="length">04:00:00.000</property>
    <property name="eof">pause</property>
    <property name="resource">d:/360MoveData/Users/Assassin/Desktop/paper_review/0003 Informer the best paper AAAI2021/exp1.PNG</property>
    <property name="ttl">1</property>
    <property name="aspect_ratio">1</property>
    <property name="progressive">1</property>
    <property name="seekable">1</property>
    <property name="mlt_service">qimage</property>
    <property name="creation_time">2021-02-18T05:12:42</property>
    <property name="shotcut:hash">a392701e53d72c61340b85bd243cfd64</property>
    <property name="global_feed">1</property>
    <property name="shotcut:caption">exp1.PNG</property>
  </producer>
  <producer id="producer144" in="00:00:00.000" out="03:59:59.983">
    <property name="length">04:00:00.000</property>
    <property name="eof">pause</property>
    <property name="resource">d:/360MoveData/Users/Assassin/Desktop/paper_review/0003 Informer the best paper AAAI2021/aha.PNG</property>
    <property name="ttl">1</property>
    <property name="aspect_ratio">1</property>
    <property name="progressive">1</property>
    <property name="seekable">1</property>
    <property name="mlt_service">qimage</property>
    <property name="creation_time">2021-02-18T05:14:19</property>
    <property name="shotcut:hash">aedd8eecaba180211bc628882c2d5a70</property>
    <property name="global_feed">1</property>
    <property name="shotcut:caption">aha.PNG</property>
    <property name="xml">was here</property>
  </producer>
  <producer id="producer145" in="00:00:00.000" out="03:59:59.983">
    <property name="length">04:00:00.000</property>
    <property name="eof">pause</property>
    <property name="resource">d:/360MoveData/Users/Assassin/Desktop/paper_review/0003 Informer the best paper AAAI2021/ablation.PNG</property>
    <property name="ttl">1</property>
    <property name="aspect_ratio">1</property>
    <property name="progressive">1</property>
    <property name="seekable">1</property>
    <property name="mlt_service">qimage</property>
    <property name="creation_time">2021-02-18T05:15:20</property>
    <property name="shotcut:hash">ae1f5e98265b9b0fd13aed10a9fd7875</property>
    <property name="global_feed">1</property>
    <property name="shotcut:caption">ablation.PNG</property>
  </producer>
  <producer id="producer146" in="00:00:00.000" out="03:59:59.983">
    <property name="length">04:00:00.000</property>
    <property name="eof">pause</property>
    <property name="resource">d:/360MoveData/Users/Assassin/Desktop/paper_review/0003 Informer the best paper AAAI2021/time.PNG</property>
    <property name="ttl">1</property>
    <property name="aspect_ratio">1</property>
    <property name="progressive">1</property>
    <property name="seekable">1</property>
    <property name="mlt_service">qimage</property>
    <property name="creation_time">2021-02-18T05:20:10</property>
    <property name="shotcut:hash">028ddf38788c7c5239cd0311ad63d3b4</property>
    <property name="global_feed">1</property>
    <property name="shotcut:caption">time.PNG</property>
  </producer>
  <producer id="producer147" in="00:00:00.000" out="03:59:59.983">
    <property name="length">04:00:00.000</property>
    <property name="eof">pause</property>
    <property name="resource">d:/360MoveData/Users/Assassin/Desktop/paper_review/0003 Informer the best paper AAAI2021/p5.PNG</property>
    <property name="ttl">1</property>
    <property name="aspect_ratio">1</property>
    <property name="progressive">1</property>
    <property name="seekable">1</property>
    <property name="mlt_service">qimage</property>
    <property name="creation_time">2021-02-18T05:24:22</property>
    <property name="shotcut:hash">e3ba2db1f05e4a7fcbc7ad474ed833c1</property>
    <property name="global_feed">1</property>
    <property name="shotcut:caption">p5.PNG</property>
  </producer>
  <producer id="producer148" in="00:00:00.000" out="03:59:59.983">
    <property name="length">04:00:00.000</property>
    <property name="eof">pause</property>
    <property name="resource">d:/360MoveData/Users/Assassin/Desktop/paper_review/0003 Informer the best paper AAAI2021/unclear1.PNG</property>
    <property name="ttl">1</property>
    <property name="aspect_ratio">1</property>
    <property name="progressive">1</property>
    <property name="seekable">1</property>
    <property name="mlt_service">qimage</property>
    <property name="creation_time">2021-02-18T05:26:39</property>
    <property name="shotcut:hash">397316734c93474b8033d60dbaa650c4</property>
    <property name="global_feed">1</property>
    <property name="shotcut:caption">unclear1.PNG</property>
  </producer>
  <tractor id="tractor3" global_feed="1" in="00:00:00.000" out="00:00:00.000">
    <property name="shotcut:transition">lumaMix</property>
    <track producer="producer147" in="00:00:29.483" out="00:00:29.483"/>
    <track producer="producer148" in="00:00:00.000" out="00:00:00.000"/>
    <transition id="transition6">
      <property name="a_track">0</property>
      <property name="b_track">1</property>
      <property name="factory">loader</property>
      <property name="mlt_service">luma</property>
      <property name="alpha_over">1</property>
    </transition>
    <transition id="transition7">
      <property name="a_track">0</property>
      <property name="b_track">1</property>
      <property name="start">-1</property>
      <property name="accepts_blanks">1</property>
      <property name="mlt_service">mix</property>
    </transition>
  </tractor>
  <producer id="producer149" in="00:00:00.000" out="03:59:59.983">
    <property name="length">04:00:00.000</property>
    <property name="eof">pause</property>
    <property name="resource">d:/360MoveData/Users/Assassin/Desktop/paper_review/0003 Informer the best paper AAAI2021/proof5.png</property>
    <property name="ttl">1</property>
    <property name="aspect_ratio">1</property>
    <property name="progressive">1</property>
    <property name="seekable">1</property>
    <property name="mlt_service">qimage</property>
    <property name="creation_time">2021-02-18T05:31:03</property>
    <property name="shotcut:hash">3438fbc6e9f93d4bb2ecf4c2b33acceb</property>
    <property name="global_feed">1</property>
    <property name="shotcut:caption">proof5.png</property>
    <filter id="filter9" out="00:00:08.483">
      <property name="argument"></property>
      <property name="geometry">0 787 1923 293 1</property>
      <property name="family">Sans</property>
      <property name="size">48</property>
      <property name="weight">400</property>
      <property name="style">normal</property>
      <property name="fgcolour">0x000000ff</property>
      <property name="bgcolour">#00000000</property>
      <property name="olcolour">0x00000000</property>
      <property name="pad">0</property>
      <property name="halign">left</property>
      <property name="valign">top</property>
      <property name="outline">0</property>
      <property name="mlt_service">qtext</property>
      <property name="shotcut:filter">richText</property>
      <property name="html">&lt;!DOCTYPE HTML PUBLIC &quot;-//W3C//DTD HTML 4.0//EN&quot; &quot;http://www.w3.org/TR/REC-html40/strict.dtd&quot;&gt;
&lt;html&gt;&lt;head&gt;&lt;meta name=&quot;qrichtext&quot; content=&quot;1&quot; /&gt;&lt;style type=&quot;text/css&quot;&gt;
p, li { white-space: pre-wrap; }
&lt;/style&gt;&lt;/head&gt;&lt;body style=&quot; font-family:'SimSun'; font-size:9pt; font-weight:400; font-style:normal;&quot;&gt;
&lt;p align=&quot;center&quot; style=&quot; margin-top:0px; margin-bottom:0px; margin-left:0px; margin-right:0px; -qt-block-indent:0; text-indent:0px;&quot;&gt;&lt;span style=&quot; font-family:'Verdana'; font-size:72pt; font-weight:600; color:#ff0004;&quot;&gt;*squared sigma 1 minus sqared sigma 2&lt;/span&gt;&lt;/p&gt;&lt;/body&gt;&lt;/html&gt;</property>
      <property name="shotcut:animIn">00:00:00.000</property>
      <property name="shotcut:animOut">00:00:00.000</property>
    </filter>
    <filter id="filter10" out="00:00:08.483">
      <property name="background">color:#00000000</property>
      <property name="mlt_service">affine</property>
      <property name="shotcut:filter">affineSizePosition</property>
      <property name="transition.fill">1</property>
      <property name="transition.distort">0</property>
      <property name="transition.rect">0 0 1920 698.841 1</property>
      <property name="transition.valign">middle</property>
      <property name="transition.halign">center</property>
      <property name="shotcut:animIn">00:00:00.000</property>
      <property name="shotcut:animOut">00:00:00.000</property>
      <property name="transition.threads">0</property>
    </filter>
  </producer>
  <producer id="producer150" in="00:00:00.000" out="03:59:59.983">
    <property name="length">04:00:00.000</property>
    <property name="eof">pause</property>
    <property name="resource">d:/360MoveData/Users/Assassin/Desktop/paper_review/0003 Informer the best paper AAAI2021/unclear1.PNG</property>
    <property name="ttl">1</property>
    <property name="aspect_ratio">1</property>
    <property name="progressive">1</property>
    <property name="seekable">1</property>
    <property name="mlt_service">qimage</property>
    <property name="creation_time">2021-02-18T05:26:39</property>
    <property name="shotcut:hash">397316734c93474b8033d60dbaa650c4</property>
    <property name="global_feed">1</property>
    <property name="shotcut:caption">unclear1.PNG</property>
  </producer>
  <producer id="producer151" in="00:00:00.000" out="03:59:59.983">
    <property name="length">04:00:00.000</property>
    <property name="eof">pause</property>
    <property name="resource">d:/360MoveData/Users/Assassin/Desktop/paper_review/0003 Informer the best paper AAAI2021/unclear1.PNG</property>
    <property name="ttl">1</property>
    <property name="aspect_ratio">1</property>
    <property name="progressive">1</property>
    <property name="seekable">1</property>
    <property name="mlt_service">qimage</property>
    <property name="creation_time">2021-02-18T05:26:39</property>
    <property name="shotcut:hash">397316734c93474b8033d60dbaa650c4</property>
    <property name="global_feed">1</property>
    <property name="shotcut:caption">unclear1.PNG</property>
    <filter id="filter11" out="00:00:00.883">
      <property name="argument"></property>
      <property name="geometry">0 900 1938 180 1</property>
      <property name="family">Sans</property>
      <property name="size">48</property>
      <property name="weight">400</property>
      <property name="style">normal</property>
      <property name="fgcolour">0x000000ff</property>
      <property name="bgcolour">#00000000</property>
      <property name="olcolour">0x00000000</property>
      <property name="pad">0</property>
      <property name="halign">left</property>
      <property name="valign">top</property>
      <property name="outline">0</property>
      <property name="mlt_service">qtext</property>
      <property name="shotcut:filter">richText</property>
      <property name="html">&lt;!DOCTYPE HTML PUBLIC &quot;-//W3C//DTD HTML 4.0//EN&quot; &quot;http://www.w3.org/TR/REC-html40/strict.dtd&quot;&gt;
&lt;html&gt;&lt;head&gt;&lt;meta name=&quot;qrichtext&quot; content=&quot;1&quot; /&gt;&lt;style type=&quot;text/css&quot;&gt;
p, li { white-space: pre-wrap; }
&lt;/style&gt;&lt;/head&gt;&lt;body style=&quot; font-family:'SimSun'; font-size:9pt; font-weight:400; font-style:normal;&quot;&gt;
&lt;p align=&quot;center&quot; style=&quot; margin-top:0px; margin-bottom:0px; margin-left:0px; margin-right:0px; -qt-block-indent:0; text-indent:0px;&quot;&gt;&lt;span style=&quot; font-family:'Verdana'; font-size:72pt; font-weight:600; color:#ff0004;&quot;&gt;*pathological&lt;/span&gt;&lt;/p&gt;&lt;/body&gt;&lt;/html&gt;</property>
      <property name="shotcut:animIn">00:00:00.000</property>
      <property name="shotcut:animOut">00:00:00.000</property>
    </filter>
  </producer>
  <producer id="producer152" in="00:00:00.000" out="03:59:59.983">
    <property name="length">04:00:00.000</property>
    <property name="eof">pause</property>
    <property name="resource">d:/360MoveData/Users/Assassin/Desktop/paper_review/0003 Informer the best paper AAAI2021/unclear1.PNG</property>
    <property name="ttl">1</property>
    <property name="aspect_ratio">1</property>
    <property name="progressive">1</property>
    <property name="seekable">1</property>
    <property name="mlt_service">qimage</property>
    <property name="creation_time">2021-02-18T05:26:39</property>
    <property name="shotcut:hash">397316734c93474b8033d60dbaa650c4</property>
    <property name="global_feed">1</property>
    <property name="shotcut:caption">unclear1.PNG</property>
  </producer>
  <producer id="producer153" in="00:00:00.000" out="03:59:59.983">
    <property name="length">04:00:00.000</property>
    <property name="eof">pause</property>
    <property name="resource">d:/360MoveData/Users/Assassin/Desktop/paper_review/0003 Informer the best paper AAAI2021/unclear1.PNG</property>
    <property name="ttl">1</property>
    <property name="aspect_ratio">1</property>
    <property name="progressive">1</property>
    <property name="seekable">1</property>
    <property name="mlt_service">qimage</property>
    <property name="creation_time">2021-02-18T05:26:39</property>
    <property name="shotcut:hash">397316734c93474b8033d60dbaa650c4</property>
    <property name="global_feed">1</property>
    <property name="shotcut:caption">unclear1.PNG</property>
    <property name="xml">was here</property>
    <filter id="filter12" out="00:00:00.817">
      <property name="argument"></property>
      <property name="geometry">0 900 1938 180 1</property>
      <property name="family">Sans</property>
      <property name="size">48</property>
      <property name="weight">400</property>
      <property name="style">normal</property>
      <property name="fgcolour">0x000000ff</property>
      <property name="bgcolour">#00000000</property>
      <property name="olcolour">0x00000000</property>
      <property name="pad">0</property>
      <property name="halign">left</property>
      <property name="valign">top</property>
      <property name="outline">0</property>
      <property name="mlt_service">qtext</property>
      <property name="shotcut:filter">richText</property>
      <property name="html">&lt;!DOCTYPE HTML PUBLIC &quot;-//W3C//DTD HTML 4.0//EN&quot; &quot;http://www.w3.org/TR/REC-html40/strict.dtd&quot;&gt;
&lt;html&gt;&lt;head&gt;&lt;meta name=&quot;qrichtext&quot; content=&quot;1&quot; /&gt;&lt;style type=&quot;text/css&quot;&gt;
p, li { white-space: pre-wrap; }
&lt;/style&gt;&lt;/head&gt;&lt;body style=&quot; font-family:'SimSun'; font-size:9pt; font-weight:400; font-style:normal;&quot;&gt;
&lt;p align=&quot;center&quot; style=&quot; margin-top:0px; margin-bottom:0px; margin-left:0px; margin-right:0px; -qt-block-indent:0; text-indent:0px;&quot;&gt;&lt;span style=&quot; font-family:'Verdana'; font-size:72pt; font-weight:600; color:#ff0004;&quot;&gt;*pathological&lt;/span&gt;&lt;/p&gt;&lt;/body&gt;&lt;/html&gt;</property>
      <property name="shotcut:animIn">00:00:00.000</property>
      <property name="shotcut:animOut">00:00:00.000</property>
    </filter>
  </producer>
  <producer id="producer154" in="00:00:00.000" out="03:59:59.983">
    <property name="length">04:00:00.000</property>
    <property name="eof">pause</property>
    <property name="resource">d:/360MoveData/Users/Assassin/Desktop/paper_review/0003 Informer the best paper AAAI2021/unclear1.PNG</property>
    <property name="ttl">1</property>
    <property name="aspect_ratio">1</property>
    <property name="progressive">1</property>
    <property name="seekable">1</property>
    <property name="mlt_service">qimage</property>
    <property name="creation_time">2021-02-18T05:26:39</property>
    <property name="shotcut:hash">397316734c93474b8033d60dbaa650c4</property>
    <property name="global_feed">1</property>
    <property name="shotcut:caption">unclear1.PNG</property>
  </producer>
  <producer id="producer155" in="00:00:00.000" out="03:59:59.983">
    <property name="length">04:00:00.000</property>
    <property name="eof">pause</property>
    <property name="resource">d:/360MoveData/Users/Assassin/Desktop/paper_review/0003 Informer the best paper AAAI2021/unclear2.PNG</property>
    <property name="ttl">1</property>
    <property name="aspect_ratio">1</property>
    <property name="progressive">1</property>
    <property name="seekable">1</property>
    <property name="mlt_service">qimage</property>
    <property name="creation_time">2021-02-18T05:38:25</property>
    <property name="shotcut:hash">a79fc12ed066782289b448ce5cb1fe82</property>
    <property name="global_feed">1</property>
    <property name="shotcut:caption">unclear2.PNG</property>
  </producer>
  <producer id="producer156" in="00:00:00.000" out="03:59:59.983">
    <property name="length">04:00:00.000</property>
    <property name="eof">pause</property>
    <property name="resource">d:/360MoveData/Users/Assassin/Desktop/paper_review/0003 Informer the best paper AAAI2021/unclear2.PNG</property>
    <property name="ttl">1</property>
    <property name="aspect_ratio">1</property>
    <property name="progressive">1</property>
    <property name="seekable">1</property>
    <property name="mlt_service">qimage</property>
    <property name="creation_time">2021-02-18T05:38:25</property>
    <property name="shotcut:hash">a79fc12ed066782289b448ce5cb1fe82</property>
    <property name="global_feed">1</property>
    <property name="shotcut:caption">unclear2.PNG</property>
    <filter id="filter13" out="00:00:01.000">
      <property name="argument"></property>
      <property name="geometry">3 547 1914 185 1</property>
      <property name="family">Sans</property>
      <property name="size">48</property>
      <property name="weight">400</property>
      <property name="style">normal</property>
      <property name="fgcolour">0x000000ff</property>
      <property name="bgcolour">#00000000</property>
      <property name="olcolour">0x00000000</property>
      <property name="pad">0</property>
      <property name="halign">left</property>
      <property name="valign">top</property>
      <property name="outline">0</property>
      <property name="mlt_service">qtext</property>
      <property name="shotcut:filter">richText</property>
      <property name="html">&lt;!DOCTYPE HTML PUBLIC &quot;-//W3C//DTD HTML 4.0//EN&quot; &quot;http://www.w3.org/TR/REC-html40/strict.dtd&quot;&gt;
&lt;html&gt;&lt;head&gt;&lt;meta name=&quot;qrichtext&quot; content=&quot;1&quot; /&gt;&lt;style type=&quot;text/css&quot;&gt;
p, li { white-space: pre-wrap; }
&lt;/style&gt;&lt;/head&gt;&lt;body style=&quot; font-family:'SimSun'; font-size:9pt; font-weight:400; font-style:normal;&quot;&gt;
&lt;p align=&quot;center&quot; style=&quot; margin-top:0px; margin-bottom:0px; margin-left:0px; margin-right:0px; -qt-block-indent:0; text-indent:0px;&quot;&gt;&lt;span style=&quot; font-family:'Verdana'; font-size:72pt; font-weight:600; color:#ff0004;&quot;&gt;*a-priori&lt;/span&gt;&lt;/p&gt;&lt;/body&gt;&lt;/html&gt;</property>
      <property name="shotcut:animIn">00:00:00.000</property>
      <property name="shotcut:animOut">00:00:00.000</property>
    </filter>
  </producer>
  <producer id="producer157" in="00:00:00.000" out="03:59:59.983">
    <property name="length">04:00:00.000</property>
    <property name="eof">pause</property>
    <property name="resource">d:/360MoveData/Users/Assassin/Desktop/paper_review/0003 Informer the best paper AAAI2021/unclear2.PNG</property>
    <property name="ttl">1</property>
    <property name="aspect_ratio">1</property>
    <property name="progressive">1</property>
    <property name="seekable">1</property>
    <property name="mlt_service">qimage</property>
    <property name="creation_time">2021-02-18T05:38:25</property>
    <property name="shotcut:hash">a79fc12ed066782289b448ce5cb1fe82</property>
    <property name="global_feed">1</property>
    <property name="shotcut:caption">unclear2.PNG</property>
  </producer>
  <producer id="producer158" in="00:00:00.000" out="03:59:59.983">
    <property name="length">04:00:00.000</property>
    <property name="eof">pause</property>
    <property name="resource">d:/360MoveData/Users/Assassin/Desktop/paper_review/0003 Informer the best paper AAAI2021/thankyou.PNG</property>
    <property name="ttl">1</property>
    <property name="aspect_ratio">1</property>
    <property name="progressive">1</property>
    <property name="seekable">1</property>
    <property name="mlt_service">qimage</property>
    <property name="creation_time">2021-02-18T05:42:11</property>
    <property name="shotcut:hash">f328cd27b75fcc1328cd97365154a5f3</property>
    <property name="global_feed">1</property>
    <property name="shotcut:caption">thankyou.PNG</property>
    <filter id="filter14" out="00:00:20.083">
      <property name="start">1</property>
      <property name="level">00:00:18.650=1;00:00:20.083=0</property>
      <property name="mlt_service">brightness</property>
      <property name="shotcut:filter">fadeOutBrightness</property>
      <property name="alpha">1</property>
      <property name="shotcut:animOut">87</property>
    </filter>
    <filter id="filter15" out="00:00:20.083">
      <property name="window">75</property>
      <property name="max_gain">20dB</property>
      <property name="level">00:00:18.650=0;00:00:20.083=-60</property>
      <property name="mlt_service">volume</property>
      <property name="shotcut:filter">fadeOutVolume</property>
      <property name="shotcut:animOut">87</property>
    </filter>
  </producer>
  <playlist id="playlist1">
    <property name="shotcut:video">1</property>
    <property name="shotcut:name">V2</property>
    <entry producer="producer98" in="00:00:00.033" out="00:00:10.983"/>
    <entry producer="producer99" in="00:00:00.000" out="00:00:06.867"/>
    <entry producer="producer100" in="00:00:00.000" out="00:00:09.567"/>
    <entry producer="producer101" in="00:00:00.000" out="00:00:05.133"/>
    <entry producer="producer102" in="00:00:00.350" out="00:00:53.083"/>
    <blank length="00:00:00.033"/>
    <entry producer="producer103" in="00:00:00.000" out="00:00:00.433"/>
    <entry producer="producer104" in="00:00:05.650" out="00:00:06.167"/>
    <entry producer="producer105" in="00:00:00.000" out="00:00:12.917"/>
    <entry producer="producer106" in="00:00:00.000" out="00:01:00.033"/>
    <entry producer="tractor0" in="00:00:00.000" out="00:00:00.017"/>
    <entry producer="producer107" in="00:00:00.033" out="00:00:04.333"/>
    <entry producer="producer108" in="00:00:00.000" out="00:00:27.083"/>
    <entry producer="producer109" in="00:00:00.000" out="00:00:04.517"/>
    <entry producer="producer110" in="00:00:00.000" out="00:00:43.983"/>
    <entry producer="producer111" in="00:00:00.000" out="00:00:06.233"/>
    <blank length="00:00:00.017"/>
    <entry producer="producer112" in="00:00:00.000" out="00:00:27.717"/>
    <entry producer="producer113" in="00:00:00.000" out="00:00:02.050"/>
    <entry producer="producer114" in="00:00:00.000" out="00:00:17.483"/>
    <entry producer="producer115" in="00:00:00.000" out="00:00:32.967"/>
    <entry producer="tractor1" in="00:00:00.000" out="00:00:00.000"/>
    <entry producer="producer116" in="00:00:00.017" out="00:00:05.583"/>
    <entry producer="producer117" in="00:00:00.000" out="00:00:26.567"/>
    <blank length="00:00:00.033"/>
    <entry producer="producer118" in="00:00:00.000" out="00:00:04.917"/>
    <entry producer="producer119" in="00:00:00.000" out="00:00:09.283"/>
    <entry producer="producer120" in="00:00:00.000" out="00:00:02.233"/>
    <entry producer="producer121" in="00:00:00.000" out="00:00:09.117"/>
    <entry producer="producer122" in="00:00:00.000" out="00:00:41.667"/>
    <entry producer="producer123" in="00:00:00.000" out="00:00:27.533"/>
    <entry producer="producer124" in="00:00:00.000" out="00:00:09.150"/>
    <entry producer="producer125" in="00:00:00.000" out="00:00:14.783"/>
    <entry producer="producer126" in="00:00:00.000" out="00:00:36.733"/>
    <entry producer="producer127" in="00:00:00.000" out="00:00:27.383"/>
    <entry producer="producer128" in="00:00:00.000" out="00:00:12.667"/>
    <entry producer="producer129" in="00:00:00.000" out="00:00:39.800"/>
    <entry producer="producer130" in="00:00:00.000" out="00:00:06.017"/>
    <entry producer="producer131" in="00:00:00.000" out="00:00:19.267"/>
    <entry producer="producer132" in="00:00:00.000" out="00:00:04.867"/>
    <entry producer="producer133" in="00:00:00.000" out="00:00:18.733"/>
    <entry producer="producer134" in="00:00:00.000" out="00:00:01.833"/>
    <entry producer="producer135" in="00:00:03.083" out="00:00:03.950"/>
    <entry producer="tractor2" in="00:00:00.000" out="00:00:00.017"/>
    <entry producer="producer136" in="00:00:00.033" out="00:00:14.750"/>
    <entry producer="producer137" in="00:00:00.000" out="00:00:08.167"/>
    <entry producer="producer138" in="00:00:00.000" out="00:00:07.267"/>
    <entry producer="producer139" in="00:00:00.000" out="00:00:52.150"/>
    <entry producer="producer140" in="00:00:00.000" out="00:01:10.050"/>
    <entry producer="producer141" in="00:00:00.000" out="00:00:05.133"/>
    <blank length="00:00:00.017"/>
    <entry producer="producer142" in="00:00:00.000" out="00:00:17.917"/>
    <entry producer="producer143" in="00:00:00.000" out="00:00:18.400"/>
    <blank length="00:00:00.033"/>
    <entry producer="producer144" in="00:00:00.000" out="00:00:03.867"/>
    <entry producer="producer145" in="00:00:00.083" out="00:00:59.383"/>
    <entry producer="producer146" in="00:00:00.000" out="00:00:41.417"/>
    <entry producer="producer147" in="00:00:00.000" out="00:00:29.467"/>
    <entry producer="tractor3" in="00:00:00.000" out="00:00:00.000"/>
    <entry producer="producer148" in="00:00:00.017" out="00:01:33.717"/>
    <entry producer="producer149" in="00:00:00.000" out="00:00:08.483"/>
    <entry producer="producer150" in="00:00:00.000" out="00:00:03.983"/>
    <entry producer="producer151" in="00:00:00.000" out="00:00:00.883"/>
    <entry producer="producer152" in="00:00:00.000" out="00:00:19.383"/>
    <entry producer="producer153" in="00:00:00.000" out="00:00:00.817"/>
    <entry producer="producer154" in="00:00:00.000" out="00:00:04.533"/>
    <entry producer="producer155" in="00:00:00.000" out="00:00:08.383"/>
    <entry producer="producer156" in="00:00:00.000" out="00:00:01.000"/>
    <blank length="00:00:00.017"/>
    <entry producer="producer157" in="00:00:00.000" out="00:00:23.267"/>
    <entry producer="producer158" in="00:00:00.000" out="00:00:20.083"/>
  </playlist>
  <producer id="producer159" in="00:00:00.000" out="00:23:56.150">
    <property name="length">00:23:56.167</property>
    <property name="eof">pause</property>
    <property name="resource">d:/360MoveData/Users/Assassin/Desktop/paper_review/0003 Informer the best paper AAAI2021/informer.m4a</property>
    <property name="audio_index">0</property>
    <property name="video_index">-1</property>
    <property name="mute_on_pause">0</property>
    <property name="mlt_service">avformat-novalidate</property>
    <property name="seekable">1</property>
    <property name="creation_time">2021-02-18T03:10:18</property>
    <property name="shotcut:hash">3141884cfbc933a8c12d1e3c83f5e35a</property>
    <property name="global_feed">1</property>
    <property name="shotcut:caption">informer.m4a</property>
    <property name="xml">was here</property>
  </producer>
  <producer id="producer160" in="00:00:00.000" out="00:05:00.050">
    <property name="length">00:05:00.067</property>
    <property name="eof">pause</property>
    <property name="resource">d:/360MoveData/Users/Assassin/Desktop/paper_review/yt1s.com - The Evil Within OST Clair De Lune.mp3</property>
    <property name="audio_index">0</property>
    <property name="video_index">-1</property>
    <property name="mute_on_pause">0</property>
    <property name="mlt_service">avformat-novalidate</property>
    <property name="seekable">1</property>
    <property name="creation_time">2021-02-18T05:47:31</property>
    <property name="shotcut:hash">06176aea3bf58115e5d4f778bf7da889</property>
    <property name="global_feed">1</property>
    <property name="shotcut:caption">yt1s.com - The Evil Within OST Clair De Lune.mp3</property>
    <property name="xml">was here</property>
    <filter id="filter16" out="00:00:25.317">
      <property name="window">75</property>
      <property name="max_gain">20dB</property>
      <property name="level">00:00:22.833=0;00:00:25.317=-60</property>
      <property name="mlt_service">volume</property>
      <property name="shotcut:filter">fadeOutVolume</property>
      <property name="shotcut:animOut">00:00:02.500</property>
    </filter>
  </producer>
  <playlist id="playlist2">
    <property name="shotcut:audio">1</property>
    <property name="shotcut:name">A1</property>
    <blank length="00:02:39.467"/>
    <entry producer="producer159" in="00:03:01.933" out="00:03:06.133"/>
    <blank length="00:16:09.067"/>
    <entry producer="producer160" in="00:00:00.000" out="00:00:25.317"/>
  </playlist>
  <producer id="producer161" in="00:00:00.000" out="00:09:21.117">
    <property name="length">00:09:21.133</property>
    <property name="eof">pause</property>
    <property name="resource">d:/360MoveData/Users/Assassin/Desktop/paper_review/yt1s.com - STALKER Guitar tracks.mp3</property>
    <property name="audio_index">0</property>
    <property name="video_index">-1</property>
    <property name="mute_on_pause">0</property>
    <property name="mlt_service">avformat-novalidate</property>
    <property name="seekable">1</property>
    <property name="creation_time">2021-02-18T05:55:20</property>
    <property name="shotcut:hash">ecdc7ac8ff1662f0012d8c9887b53fcb</property>
    <property name="global_feed">1</property>
    <property name="shotcut:caption">yt1s.com - STALKER Guitar tracks.mp3</property>
    <property name="xml">was here</property>
  </producer>
  <playlist id="playlist3">
    <property name="shotcut:audio">1</property>
    <property name="shotcut:name">A2</property>
    <entry producer="producer161" in="00:02:58.800" out="00:03:30.300"/>
  </playlist>
  <tractor id="tractor4" title="Shotcut version 20.09.13" global_feed="1" in="00:00:00.000" out="00:19:18.083">
    <property name="shotcut">1</property>
    <property name="shotcut:projectAudioChannels">2</property>
    <property name="shotcut:projectFolder">0</property>
    <property name="shotcut:scaleFactor">1.41493</property>
    <track producer="background"/>
    <track producer="playlist0"/>
    <track producer="playlist1"/>
    <track producer="playlist2" hide="video"/>
    <track producer="playlist3" hide="video"/>
    <transition id="transition8">
      <property name="a_track">0</property>
      <property name="b_track">1</property>
      <property name="mlt_service">mix</property>
      <property name="always_active">1</property>
      <property name="sum">1</property>
    </transition>
    <transition id="transition9">
      <property name="a_track">0</property>
      <property name="b_track">1</property>
      <property name="version">0.9</property>
      <property name="mlt_service">frei0r.cairoblend</property>
      <property name="disable">1</property>
    </transition>
    <transition id="transition10">
      <property name="a_track">0</property>
      <property name="b_track">2</property>
      <property name="mlt_service">mix</property>
      <property name="always_active">1</property>
      <property name="sum">1</property>
    </transition>
    <transition id="transition11">
      <property name="a_track">1</property>
      <property name="b_track">2</property>
      <property name="version">0.9</property>
      <property name="mlt_service">frei0r.cairoblend</property>
      <property name="disable">0</property>
    </transition>
    <transition id="transition12">
      <property name="a_track">0</property>
      <property name="b_track">3</property>
      <property name="mlt_service">mix</property>
      <property name="always_active">1</property>
      <property name="sum">1</property>
    </transition>
    <transition id="transition13">
      <property name="a_track">0</property>
      <property name="b_track">4</property>
      <property name="mlt_service">mix</property>
      <property name="always_active">1</property>
      <property name="sum">1</property>
    </transition>
  </tractor>
</mlt>
